<?xml version="1.0" encoding="UTF-8" standalone="no"?>
<!-- Created with matplotlib (https://matplotlib.org/) -->

<svg
   height="864pt"
   version="1.1"
   viewBox="0 0 1008 864"
   width="1008pt"
   id="svg618"
   sodipodi:docname="chemali_accuracy.svg"
   inkscape:version="1.1.2 (0a00cf5339, 2022-02-04)"
   xmlns:inkscape="http://www.inkscape.org/namespaces/inkscape"
   xmlns:sodipodi="http://sodipodi.sourceforge.net/DTD/sodipodi-0.dtd"
   xmlns:xlink="http://www.w3.org/1999/xlink"
   xmlns="http://www.w3.org/2000/svg"
   xmlns:svg="http://www.w3.org/2000/svg"
   xmlns:rdf="http://www.w3.org/1999/02/22-rdf-syntax-ns#"
   xmlns:cc="http://creativecommons.org/ns#"
   xmlns:dc="http://purl.org/dc/elements/1.1/">
  <sodipodi:namedview
     id="namedview620"
     pagecolor="#ffffff"
     bordercolor="#666666"
     borderopacity="1.0"
     inkscape:pageshadow="2"
     inkscape:pageopacity="0.0"
     inkscape:pagecheckerboard="0"
     inkscape:document-units="pt"
     showgrid="false"
     inkscape:zoom="0.53094389"
     inkscape:cx="757.14215"
     inkscape:cy="343.72747"
     inkscape:window-width="1775"
     inkscape:window-height="1052"
     inkscape:window-x="600"
     inkscape:window-y="1104"
     inkscape:window-maximized="1"
     inkscape:current-layer="axes_1" />
  <metadata
     id="metadata2">
    <rdf:RDF>
      <cc:Work>
        <dc:type
           rdf:resource="http://purl.org/dc/dcmitype/StillImage" />
        <dc:date>2021-09-29T15:10:47.276314</dc:date>
        <dc:format>image/svg+xml</dc:format>
        <dc:creator>
          <cc:Agent>
            <dc:title>Matplotlib v3.3.2, https://matplotlib.org/</dc:title>
          </cc:Agent>
        </dc:creator>
      </cc:Work>
    </rdf:RDF>
  </metadata>
  <defs
     id="defs6">
    <style
       type="text/css"
       id="style4">*{stroke-linecap:butt;stroke-linejoin:round;}</style>
  </defs>
  <g
     id="figure_1">
    <g
       id="patch_1">
      <path
         d="M 0 864  L 1008 864  L 1008 0  L 0 0  z "
         style="fill:none;"
         id="path8" />
    </g>
    <g
       id="axes_1">
      <g
         id="patch_2">
        <path
           d="M 97.175 784.12  L 997.2 784.12  L 997.2 45.6  L 97.175 45.6  z "
           style="fill:#ffffff;"
           id="path11" />
      </g>
      <g
         id="matplotlib.axis_1">
        <g
           id="xtick_1">
          <g
             id="line2d_1">
            <defs
               id="defs15">
              <path
                 d="M 0 0  L 0 3.5  "
                 id="m47ec1d6d71"
                 style="stroke:#000000;stroke-width:0.8;" />
            </defs>
            <g
               id="g19">
              <use
                 style="stroke:#000000;stroke-width:0.8;"
                 x="138.085227"
                 xlink:href="#m47ec1d6d71"
                 y="784.12"
                 id="use17" />
            </g>
          </g>
          <g
             id="text_1">
            <!-- 200 -->
            <g
               transform="translate(111.362727 812.395625)scale(0.28 -0.28)"
               id="g32">
              <defs
                 id="defs24">
                <path
                   d="M 19.1875 8.296875  L 53.609375 8.296875  L 53.609375 0  L 7.328125 0  L 7.328125 8.296875  Q 12.9375 14.109375 22.625 23.890625  Q 32.328125 33.6875 34.8125 36.53125  Q 39.546875 41.84375 41.421875 45.53125  Q 43.3125 49.21875 43.3125 52.78125  Q 43.3125 58.59375 39.234375 62.25  Q 35.15625 65.921875 28.609375 65.921875  Q 23.96875 65.921875 18.8125 64.3125  Q 13.671875 62.703125 7.8125 59.421875  L 7.8125 69.390625  Q 13.765625 71.78125 18.9375 73  Q 24.125 74.21875 28.421875 74.21875  Q 39.75 74.21875 46.484375 68.546875  Q 53.21875 62.890625 53.21875 53.421875  Q 53.21875 48.921875 51.53125 44.890625  Q 49.859375 40.875 45.40625 35.40625  Q 44.1875 33.984375 37.640625 27.21875  Q 31.109375 20.453125 19.1875 8.296875  z "
                   id="DejaVuSans-50" />
                <path
                   d="M 31.78125 66.40625  Q 24.171875 66.40625 20.328125 58.90625  Q 16.5 51.421875 16.5 36.375  Q 16.5 21.390625 20.328125 13.890625  Q 24.171875 6.390625 31.78125 6.390625  Q 39.453125 6.390625 43.28125 13.890625  Q 47.125 21.390625 47.125 36.375  Q 47.125 51.421875 43.28125 58.90625  Q 39.453125 66.40625 31.78125 66.40625  z M 31.78125 74.21875  Q 44.046875 74.21875 50.515625 64.515625  Q 56.984375 54.828125 56.984375 36.375  Q 56.984375 17.96875 50.515625 8.265625  Q 44.046875 -1.421875 31.78125 -1.421875  Q 19.53125 -1.421875 13.0625 8.265625  Q 6.59375 17.96875 6.59375 36.375  Q 6.59375 54.828125 13.0625 64.515625  Q 19.53125 74.21875 31.78125 74.21875  z "
                   id="DejaVuSans-48" />
              </defs>
              <use
                 xlink:href="#DejaVuSans-50"
                 id="use26" />
              <use
                 x="63.623047"
                 xlink:href="#DejaVuSans-48"
                 id="use28" />
              <use
                 x="127.246094"
                 xlink:href="#DejaVuSans-48"
                 id="use30" />
            </g>
          </g>
        </g>
        <g
           id="xtick_2">
          <g
             id="line2d_2">
            <g
               id="g38">
              <use
                 style="stroke:#000000;stroke-width:0.8;"
                 x="263.96285"
                 xlink:href="#m47ec1d6d71"
                 y="784.12"
                 id="use36" />
            </g>
          </g>
          <g
             id="text_2">
            <!-- 400 -->
            <g
               transform="translate(237.24035 812.395625)scale(0.28 -0.28)"
               id="g50">
              <defs
                 id="defs42">
                <path
                   d="M 37.796875 64.3125  L 12.890625 25.390625  L 37.796875 25.390625  z M 35.203125 72.90625  L 47.609375 72.90625  L 47.609375 25.390625  L 58.015625 25.390625  L 58.015625 17.1875  L 47.609375 17.1875  L 47.609375 0  L 37.796875 0  L 37.796875 17.1875  L 4.890625 17.1875  L 4.890625 26.703125  z "
                   id="DejaVuSans-52" />
              </defs>
              <use
                 xlink:href="#DejaVuSans-52"
                 id="use44" />
              <use
                 x="63.623047"
                 xlink:href="#DejaVuSans-48"
                 id="use46" />
              <use
                 x="127.246094"
                 xlink:href="#DejaVuSans-48"
                 id="use48" />
            </g>
          </g>
        </g>
        <g
           id="xtick_3">
          <g
             id="line2d_3">
            <g
               id="g56">
              <use
                 style="stroke:#000000;stroke-width:0.8;"
                 x="389.840472"
                 xlink:href="#m47ec1d6d71"
                 y="784.12"
                 id="use54" />
            </g>
          </g>
          <g
             id="text_3">
            <!-- 600 -->
            <g
               transform="translate(363.117972 812.395625)scale(0.28 -0.28)"
               id="g68">
              <defs
                 id="defs60">
                <path
                   d="M 33.015625 40.375  Q 26.375 40.375 22.484375 35.828125  Q 18.609375 31.296875 18.609375 23.390625  Q 18.609375 15.53125 22.484375 10.953125  Q 26.375 6.390625 33.015625 6.390625  Q 39.65625 6.390625 43.53125 10.953125  Q 47.40625 15.53125 47.40625 23.390625  Q 47.40625 31.296875 43.53125 35.828125  Q 39.65625 40.375 33.015625 40.375  z M 52.59375 71.296875  L 52.59375 62.3125  Q 48.875 64.0625 45.09375 64.984375  Q 41.3125 65.921875 37.59375 65.921875  Q 27.828125 65.921875 22.671875 59.328125  Q 17.53125 52.734375 16.796875 39.40625  Q 19.671875 43.65625 24.015625 45.921875  Q 28.375 48.1875 33.59375 48.1875  Q 44.578125 48.1875 50.953125 41.515625  Q 57.328125 34.859375 57.328125 23.390625  Q 57.328125 12.15625 50.6875 5.359375  Q 44.046875 -1.421875 33.015625 -1.421875  Q 20.359375 -1.421875 13.671875 8.265625  Q 6.984375 17.96875 6.984375 36.375  Q 6.984375 53.65625 15.1875 63.9375  Q 23.390625 74.21875 37.203125 74.21875  Q 40.921875 74.21875 44.703125 73.484375  Q 48.484375 72.75 52.59375 71.296875  z "
                   id="DejaVuSans-54" />
              </defs>
              <use
                 xlink:href="#DejaVuSans-54"
                 id="use62" />
              <use
                 x="63.623047"
                 xlink:href="#DejaVuSans-48"
                 id="use64" />
              <use
                 x="127.246094"
                 xlink:href="#DejaVuSans-48"
                 id="use66" />
            </g>
          </g>
        </g>
        <g
           id="xtick_4">
          <g
             id="line2d_4">
            <g
               id="g74">
              <use
                 style="stroke:#000000;stroke-width:0.8;"
                 x="515.718094"
                 xlink:href="#m47ec1d6d71"
                 y="784.12"
                 id="use72" />
            </g>
          </g>
          <g
             id="text_4">
            <!-- 800 -->
            <g
               transform="translate(488.995594 812.395625)scale(0.28 -0.28)"
               id="g86">
              <defs
                 id="defs78">
                <path
                   d="M 31.78125 34.625  Q 24.75 34.625 20.71875 30.859375  Q 16.703125 27.09375 16.703125 20.515625  Q 16.703125 13.921875 20.71875 10.15625  Q 24.75 6.390625 31.78125 6.390625  Q 38.8125 6.390625 42.859375 10.171875  Q 46.921875 13.96875 46.921875 20.515625  Q 46.921875 27.09375 42.890625 30.859375  Q 38.875 34.625 31.78125 34.625  z M 21.921875 38.8125  Q 15.578125 40.375 12.03125 44.71875  Q 8.5 49.078125 8.5 55.328125  Q 8.5 64.0625 14.71875 69.140625  Q 20.953125 74.21875 31.78125 74.21875  Q 42.671875 74.21875 48.875 69.140625  Q 55.078125 64.0625 55.078125 55.328125  Q 55.078125 49.078125 51.53125 44.71875  Q 48 40.375 41.703125 38.8125  Q 48.828125 37.15625 52.796875 32.3125  Q 56.78125 27.484375 56.78125 20.515625  Q 56.78125 9.90625 50.3125 4.234375  Q 43.84375 -1.421875 31.78125 -1.421875  Q 19.734375 -1.421875 13.25 4.234375  Q 6.78125 9.90625 6.78125 20.515625  Q 6.78125 27.484375 10.78125 32.3125  Q 14.796875 37.15625 21.921875 38.8125  z M 18.3125 54.390625  Q 18.3125 48.734375 21.84375 45.5625  Q 25.390625 42.390625 31.78125 42.390625  Q 38.140625 42.390625 41.71875 45.5625  Q 45.3125 48.734375 45.3125 54.390625  Q 45.3125 60.0625 41.71875 63.234375  Q 38.140625 66.40625 31.78125 66.40625  Q 25.390625 66.40625 21.84375 63.234375  Q 18.3125 60.0625 18.3125 54.390625  z "
                   id="DejaVuSans-56" />
              </defs>
              <use
                 xlink:href="#DejaVuSans-56"
                 id="use80" />
              <use
                 x="63.623047"
                 xlink:href="#DejaVuSans-48"
                 id="use82" />
              <use
                 x="127.246094"
                 xlink:href="#DejaVuSans-48"
                 id="use84" />
            </g>
          </g>
        </g>
        <g
           id="xtick_5">
          <g
             id="line2d_5">
            <g
               id="g92">
              <use
                 style="stroke:#000000;stroke-width:0.8;"
                 x="641.595717"
                 xlink:href="#m47ec1d6d71"
                 y="784.12"
                 id="use90" />
            </g>
          </g>
          <g
             id="text_5">
            <!-- 1000 -->
            <g
               transform="translate(605.965717 812.395625)scale(0.28 -0.28)"
               id="g106">
              <defs
                 id="defs96">
                <path
                   d="M 12.40625 8.296875  L 28.515625 8.296875  L 28.515625 63.921875  L 10.984375 60.40625  L 10.984375 69.390625  L 28.421875 72.90625  L 38.28125 72.90625  L 38.28125 8.296875  L 54.390625 8.296875  L 54.390625 0  L 12.40625 0  z "
                   id="DejaVuSans-49" />
              </defs>
              <use
                 xlink:href="#DejaVuSans-49"
                 id="use98" />
              <use
                 x="63.623047"
                 xlink:href="#DejaVuSans-48"
                 id="use100" />
              <use
                 x="127.246094"
                 xlink:href="#DejaVuSans-48"
                 id="use102" />
              <use
                 x="190.869141"
                 xlink:href="#DejaVuSans-48"
                 id="use104" />
            </g>
          </g>
        </g>
        <g
           id="xtick_6">
          <g
             id="line2d_6">
            <g
               id="g112">
              <use
                 style="stroke:#000000;stroke-width:0.8;"
                 x="767.473339"
                 xlink:href="#m47ec1d6d71"
                 y="784.12"
                 id="use110" />
            </g>
          </g>
          <g
             id="text_6">
            <!-- 1200 -->
            <g
               transform="translate(731.843339 812.395625)scale(0.28 -0.28)"
               id="g123">
              <use
                 xlink:href="#DejaVuSans-49"
                 id="use115" />
              <use
                 x="63.623047"
                 xlink:href="#DejaVuSans-50"
                 id="use117" />
              <use
                 x="127.246094"
                 xlink:href="#DejaVuSans-48"
                 id="use119" />
              <use
                 x="190.869141"
                 xlink:href="#DejaVuSans-48"
                 id="use121" />
            </g>
          </g>
        </g>
        <g
           id="xtick_7">
          <g
             id="line2d_7">
            <g
               id="g129">
              <use
                 style="stroke:#000000;stroke-width:0.8;"
                 x="893.350962"
                 xlink:href="#m47ec1d6d71"
                 y="784.12"
                 id="use127" />
            </g>
          </g>
          <g
             id="text_7">
            <!-- 1400 -->
            <g
               transform="translate(857.720962 812.395625)scale(0.28 -0.28)"
               id="g140">
              <use
                 xlink:href="#DejaVuSans-49"
                 id="use132" />
              <use
                 x="63.623047"
                 xlink:href="#DejaVuSans-52"
                 id="use134" />
              <use
                 x="127.246094"
                 xlink:href="#DejaVuSans-48"
                 id="use136" />
              <use
                 x="190.869141"
                 xlink:href="#DejaVuSans-48"
                 id="use138" />
            </g>
          </g>
        </g>
        <g
           id="text_8">
          <!-- Network depth in time -->
          <g
             transform="translate(367.8225 846.53375)scale(0.32 -0.32)"
             id="g202">
            <defs
               id="defs158">
              <path
                 d="M 9.8125 72.90625  L 23.09375 72.90625  L 55.421875 11.921875  L 55.421875 72.90625  L 64.984375 72.90625  L 64.984375 0  L 51.703125 0  L 19.390625 60.984375  L 19.390625 0  L 9.8125 0  z "
                 id="DejaVuSans-78" />
              <path
                 d="M 56.203125 29.59375  L 56.203125 25.203125  L 14.890625 25.203125  Q 15.484375 15.921875 20.484375 11.0625  Q 25.484375 6.203125 34.421875 6.203125  Q 39.59375 6.203125 44.453125 7.46875  Q 49.3125 8.734375 54.109375 11.28125  L 54.109375 2.78125  Q 49.265625 0.734375 44.1875 -0.34375  Q 39.109375 -1.421875 33.890625 -1.421875  Q 20.796875 -1.421875 13.15625 6.1875  Q 5.515625 13.8125 5.515625 26.8125  Q 5.515625 40.234375 12.765625 48.109375  Q 20.015625 56 32.328125 56  Q 43.359375 56 49.78125 48.890625  Q 56.203125 41.796875 56.203125 29.59375  z M 47.21875 32.234375  Q 47.125 39.59375 43.09375 43.984375  Q 39.0625 48.390625 32.421875 48.390625  Q 24.90625 48.390625 20.390625 44.140625  Q 15.875 39.890625 15.1875 32.171875  z "
                 id="DejaVuSans-101" />
              <path
                 d="M 18.3125 70.21875  L 18.3125 54.6875  L 36.8125 54.6875  L 36.8125 47.703125  L 18.3125 47.703125  L 18.3125 18.015625  Q 18.3125 11.328125 20.140625 9.421875  Q 21.96875 7.515625 27.59375 7.515625  L 36.8125 7.515625  L 36.8125 0  L 27.59375 0  Q 17.1875 0 13.234375 3.875  Q 9.28125 7.765625 9.28125 18.015625  L 9.28125 47.703125  L 2.6875 47.703125  L 2.6875 54.6875  L 9.28125 54.6875  L 9.28125 70.21875  z "
                 id="DejaVuSans-116" />
              <path
                 d="M 4.203125 54.6875  L 13.1875 54.6875  L 24.421875 12.015625  L 35.59375 54.6875  L 46.1875 54.6875  L 57.421875 12.015625  L 68.609375 54.6875  L 77.59375 54.6875  L 63.28125 0  L 52.6875 0  L 40.921875 44.828125  L 29.109375 0  L 18.5 0  z "
                 id="DejaVuSans-119" />
              <path
                 d="M 30.609375 48.390625  Q 23.390625 48.390625 19.1875 42.75  Q 14.984375 37.109375 14.984375 27.296875  Q 14.984375 17.484375 19.15625 11.84375  Q 23.34375 6.203125 30.609375 6.203125  Q 37.796875 6.203125 41.984375 11.859375  Q 46.1875 17.53125 46.1875 27.296875  Q 46.1875 37.015625 41.984375 42.703125  Q 37.796875 48.390625 30.609375 48.390625  z M 30.609375 56  Q 42.328125 56 49.015625 48.375  Q 55.71875 40.765625 55.71875 27.296875  Q 55.71875 13.875 49.015625 6.21875  Q 42.328125 -1.421875 30.609375 -1.421875  Q 18.84375 -1.421875 12.171875 6.21875  Q 5.515625 13.875 5.515625 27.296875  Q 5.515625 40.765625 12.171875 48.375  Q 18.84375 56 30.609375 56  z "
                 id="DejaVuSans-111" />
              <path
                 d="M 41.109375 46.296875  Q 39.59375 47.171875 37.8125 47.578125  Q 36.03125 48 33.890625 48  Q 26.265625 48 22.1875 43.046875  Q 18.109375 38.09375 18.109375 28.8125  L 18.109375 0  L 9.078125 0  L 9.078125 54.6875  L 18.109375 54.6875  L 18.109375 46.1875  Q 20.953125 51.171875 25.484375 53.578125  Q 30.03125 56 36.53125 56  Q 37.453125 56 38.578125 55.875  Q 39.703125 55.765625 41.0625 55.515625  z "
                 id="DejaVuSans-114" />
              <path
                 d="M 9.078125 75.984375  L 18.109375 75.984375  L 18.109375 31.109375  L 44.921875 54.6875  L 56.390625 54.6875  L 27.390625 29.109375  L 57.625 0  L 45.90625 0  L 18.109375 26.703125  L 18.109375 0  L 9.078125 0  z "
                 id="DejaVuSans-107" />
              <path
                 id="DejaVuSans-32" />
              <path
                 d="M 45.40625 46.390625  L 45.40625 75.984375  L 54.390625 75.984375  L 54.390625 0  L 45.40625 0  L 45.40625 8.203125  Q 42.578125 3.328125 38.25 0.953125  Q 33.9375 -1.421875 27.875 -1.421875  Q 17.96875 -1.421875 11.734375 6.484375  Q 5.515625 14.40625 5.515625 27.296875  Q 5.515625 40.1875 11.734375 48.09375  Q 17.96875 56 27.875 56  Q 33.9375 56 38.25 53.625  Q 42.578125 51.265625 45.40625 46.390625  z M 14.796875 27.296875  Q 14.796875 17.390625 18.875 11.75  Q 22.953125 6.109375 30.078125 6.109375  Q 37.203125 6.109375 41.296875 11.75  Q 45.40625 17.390625 45.40625 27.296875  Q 45.40625 37.203125 41.296875 42.84375  Q 37.203125 48.484375 30.078125 48.484375  Q 22.953125 48.484375 18.875 42.84375  Q 14.796875 37.203125 14.796875 27.296875  z "
                 id="DejaVuSans-100" />
              <path
                 d="M 18.109375 8.203125  L 18.109375 -20.796875  L 9.078125 -20.796875  L 9.078125 54.6875  L 18.109375 54.6875  L 18.109375 46.390625  Q 20.953125 51.265625 25.265625 53.625  Q 29.59375 56 35.59375 56  Q 45.5625 56 51.78125 48.09375  Q 58.015625 40.1875 58.015625 27.296875  Q 58.015625 14.40625 51.78125 6.484375  Q 45.5625 -1.421875 35.59375 -1.421875  Q 29.59375 -1.421875 25.265625 0.953125  Q 20.953125 3.328125 18.109375 8.203125  z M 48.6875 27.296875  Q 48.6875 37.203125 44.609375 42.84375  Q 40.53125 48.484375 33.40625 48.484375  Q 26.265625 48.484375 22.1875 42.84375  Q 18.109375 37.203125 18.109375 27.296875  Q 18.109375 17.390625 22.1875 11.75  Q 26.265625 6.109375 33.40625 6.109375  Q 40.53125 6.109375 44.609375 11.75  Q 48.6875 17.390625 48.6875 27.296875  z "
                 id="DejaVuSans-112" />
              <path
                 d="M 54.890625 33.015625  L 54.890625 0  L 45.90625 0  L 45.90625 32.71875  Q 45.90625 40.484375 42.875 44.328125  Q 39.84375 48.1875 33.796875 48.1875  Q 26.515625 48.1875 22.3125 43.546875  Q 18.109375 38.921875 18.109375 30.90625  L 18.109375 0  L 9.078125 0  L 9.078125 75.984375  L 18.109375 75.984375  L 18.109375 46.1875  Q 21.34375 51.125 25.703125 53.5625  Q 30.078125 56 35.796875 56  Q 45.21875 56 50.046875 50.171875  Q 54.890625 44.34375 54.890625 33.015625  z "
                 id="DejaVuSans-104" />
              <path
                 d="M 9.421875 54.6875  L 18.40625 54.6875  L 18.40625 0  L 9.421875 0  z M 9.421875 75.984375  L 18.40625 75.984375  L 18.40625 64.59375  L 9.421875 64.59375  z "
                 id="DejaVuSans-105" />
              <path
                 d="M 54.890625 33.015625  L 54.890625 0  L 45.90625 0  L 45.90625 32.71875  Q 45.90625 40.484375 42.875 44.328125  Q 39.84375 48.1875 33.796875 48.1875  Q 26.515625 48.1875 22.3125 43.546875  Q 18.109375 38.921875 18.109375 30.90625  L 18.109375 0  L 9.078125 0  L 9.078125 54.6875  L 18.109375 54.6875  L 18.109375 46.1875  Q 21.34375 51.125 25.703125 53.5625  Q 30.078125 56 35.796875 56  Q 45.21875 56 50.046875 50.171875  Q 54.890625 44.34375 54.890625 33.015625  z "
                 id="DejaVuSans-110" />
              <path
                 d="M 52 44.1875  Q 55.375 50.25 60.0625 53.125  Q 64.75 56 71.09375 56  Q 79.640625 56 84.28125 50.015625  Q 88.921875 44.046875 88.921875 33.015625  L 88.921875 0  L 79.890625 0  L 79.890625 32.71875  Q 79.890625 40.578125 77.09375 44.375  Q 74.3125 48.1875 68.609375 48.1875  Q 61.625 48.1875 57.5625 43.546875  Q 53.515625 38.921875 53.515625 30.90625  L 53.515625 0  L 44.484375 0  L 44.484375 32.71875  Q 44.484375 40.625 41.703125 44.40625  Q 38.921875 48.1875 33.109375 48.1875  Q 26.21875 48.1875 22.15625 43.53125  Q 18.109375 38.875 18.109375 30.90625  L 18.109375 0  L 9.078125 0  L 9.078125 54.6875  L 18.109375 54.6875  L 18.109375 46.1875  Q 21.1875 51.21875 25.484375 53.609375  Q 29.78125 56 35.6875 56  Q 41.65625 56 45.828125 52.96875  Q 50 49.953125 52 44.1875  z "
                 id="DejaVuSans-109" />
            </defs>
            <use
               xlink:href="#DejaVuSans-78"
               id="use160" />
            <use
               x="74.804688"
               xlink:href="#DejaVuSans-101"
               id="use162" />
            <use
               x="136.328125"
               xlink:href="#DejaVuSans-116"
               id="use164" />
            <use
               x="175.537109"
               xlink:href="#DejaVuSans-119"
               id="use166" />
            <use
               x="257.324219"
               xlink:href="#DejaVuSans-111"
               id="use168" />
            <use
               x="318.505859"
               xlink:href="#DejaVuSans-114"
               id="use170" />
            <use
               x="359.619141"
               xlink:href="#DejaVuSans-107"
               id="use172" />
            <use
               x="417.529297"
               xlink:href="#DejaVuSans-32"
               id="use174" />
            <use
               x="449.316406"
               xlink:href="#DejaVuSans-100"
               id="use176" />
            <use
               x="512.792969"
               xlink:href="#DejaVuSans-101"
               id="use178" />
            <use
               x="574.316406"
               xlink:href="#DejaVuSans-112"
               id="use180" />
            <use
               x="637.792969"
               xlink:href="#DejaVuSans-116"
               id="use182" />
            <use
               x="677.001953"
               xlink:href="#DejaVuSans-104"
               id="use184" />
            <use
               x="740.380859"
               xlink:href="#DejaVuSans-32"
               id="use186" />
            <use
               x="772.167969"
               xlink:href="#DejaVuSans-105"
               id="use188" />
            <use
               x="799.951172"
               xlink:href="#DejaVuSans-110"
               id="use190" />
            <use
               x="863.330078"
               xlink:href="#DejaVuSans-32"
               id="use192" />
            <use
               x="895.117188"
               xlink:href="#DejaVuSans-116"
               id="use194" />
            <use
               x="934.326172"
               xlink:href="#DejaVuSans-105"
               id="use196" />
            <use
               x="962.109375"
               xlink:href="#DejaVuSans-109"
               id="use198" />
            <use
               x="1059.521484"
               xlink:href="#DejaVuSans-101"
               id="use200" />
          </g>
        </g>
      </g>
      <g
         id="matplotlib.axis_2">
        <g
           id="ytick_1">
          <g
             id="line2d_8">
            <defs
               id="defs207">
              <path
                 d="M 0 0  L -3.5 0  "
                 id="m8ed1791129"
                 style="stroke:#000000;stroke-width:0.8;" />
            </defs>
            <g
               id="g211">
              <use
                 style="stroke:#000000;stroke-width:0.8;"
                 x="97.175"
                 xlink:href="#m8ed1791129"
                 y="725.968819"
                 id="use209" />
            </g>
          </g>
          <g
             id="text_9">
            <!-- 0.6 -->
            <g
               transform="translate(45.64625 736.606631)scale(0.28 -0.28)"
               id="g223">
              <defs
                 id="defs215">
                <path
                   d="M 10.6875 12.40625  L 21 12.40625  L 21 0  L 10.6875 0  z "
                   id="DejaVuSans-46" />
              </defs>
              <use
                 xlink:href="#DejaVuSans-48"
                 id="use217" />
              <use
                 x="63.623047"
                 xlink:href="#DejaVuSans-46"
                 id="use219" />
              <use
                 x="95.410156"
                 xlink:href="#DejaVuSans-54"
                 id="use221" />
            </g>
          </g>
        </g>
        <g
           id="ytick_2">
          <g
             id="line2d_9">
            <g
               id="g229">
              <use
                 style="stroke:#000000;stroke-width:0.8;"
                 x="97.175"
                 xlink:href="#m8ed1791129"
                 y="609.666457"
                 id="use227" />
            </g>
          </g>
          <g
             id="text_10">
            <!-- 0.8 -->
            <g
               transform="translate(45.64625 620.304269)scale(0.28 -0.28)"
               id="g238">
              <use
                 xlink:href="#DejaVuSans-48"
                 id="use232" />
              <use
                 x="63.623047"
                 xlink:href="#DejaVuSans-46"
                 id="use234" />
              <use
                 x="95.410156"
                 xlink:href="#DejaVuSans-56"
                 id="use236" />
            </g>
          </g>
        </g>
        <g
           id="ytick_3">
          <g
             id="line2d_10">
            <g
               id="g244">
              <use
                 style="stroke:#000000;stroke-width:0.8;"
                 x="97.175"
                 xlink:href="#m8ed1791129"
                 y="493.364094"
                 id="use242" />
            </g>
          </g>
          <g
             id="text_11">
            <!-- 1.0 -->
            <g
               transform="translate(45.64625 504.001907)scale(0.28 -0.28)"
               id="g253">
              <use
                 xlink:href="#DejaVuSans-49"
                 id="use247" />
              <use
                 x="63.623047"
                 xlink:href="#DejaVuSans-46"
                 id="use249" />
              <use
                 x="95.410156"
                 xlink:href="#DejaVuSans-48"
                 id="use251" />
            </g>
          </g>
        </g>
        <g
           id="ytick_4">
          <g
             id="line2d_11">
            <g
               id="g259">
              <use
                 style="stroke:#000000;stroke-width:0.8;"
                 x="97.175"
                 xlink:href="#m8ed1791129"
                 y="377.061732"
                 id="use257" />
            </g>
          </g>
          <g
             id="text_12">
            <!-- 1.2 -->
            <g
               transform="translate(45.64625 387.699545)scale(0.28 -0.28)"
               id="g268">
              <use
                 xlink:href="#DejaVuSans-49"
                 id="use262" />
              <use
                 x="63.623047"
                 xlink:href="#DejaVuSans-46"
                 id="use264" />
              <use
                 x="95.410156"
                 xlink:href="#DejaVuSans-50"
                 id="use266" />
            </g>
          </g>
        </g>
        <g
           id="ytick_5">
          <g
             id="line2d_12">
            <g
               id="g274">
              <use
                 style="stroke:#000000;stroke-width:0.8;"
                 x="97.175"
                 xlink:href="#m8ed1791129"
                 y="260.75937"
                 id="use272" />
            </g>
          </g>
          <g
             id="text_13">
            <!-- 1.4 -->
            <g
               transform="translate(45.64625 271.397183)scale(0.28 -0.28)"
               id="g283">
              <use
                 xlink:href="#DejaVuSans-49"
                 id="use277" />
              <use
                 x="63.623047"
                 xlink:href="#DejaVuSans-46"
                 id="use279" />
              <use
                 x="95.410156"
                 xlink:href="#DejaVuSans-52"
                 id="use281" />
            </g>
          </g>
        </g>
        <g
           id="ytick_6">
          <g
             id="line2d_13">
            <g
               id="g289">
              <use
                 style="stroke:#000000;stroke-width:0.8;"
                 x="97.175"
                 xlink:href="#m8ed1791129"
                 y="144.457008"
                 id="use287" />
            </g>
          </g>
          <g
             id="text_14">
            <!-- 1.6 -->
            <g
               transform="translate(45.64625 155.09482)scale(0.28 -0.28)"
               id="g298">
              <use
                 xlink:href="#DejaVuSans-49"
                 id="use292" />
              <use
                 x="63.623047"
                 xlink:href="#DejaVuSans-46"
                 id="use294" />
              <use
                 x="95.410156"
                 xlink:href="#DejaVuSans-54"
                 id="use296" />
            </g>
          </g>
        </g>
        <g
           id="text_15">
          <!-- Error -->
          <g
             transform="translate(34.99125 453.8525)rotate(-90)scale(0.32 -0.32)"
             id="g315">
            <defs
               id="defs303">
              <path
                 d="M 9.8125 72.90625  L 55.90625 72.90625  L 55.90625 64.59375  L 19.671875 64.59375  L 19.671875 43.015625  L 54.390625 43.015625  L 54.390625 34.71875  L 19.671875 34.71875  L 19.671875 8.296875  L 56.78125 8.296875  L 56.78125 0  L 9.8125 0  z "
                 id="DejaVuSans-69" />
            </defs>
            <use
               xlink:href="#DejaVuSans-69"
               id="use305" />
            <use
               x="63.183594"
               xlink:href="#DejaVuSans-114"
               id="use307" />
            <use
               x="102.546875"
               xlink:href="#DejaVuSans-114"
               id="use309" />
            <use
               x="141.410156"
               xlink:href="#DejaVuSans-111"
               id="use311" />
            <use
               x="202.591797"
               xlink:href="#DejaVuSans-114"
               id="use313" />
          </g>
        </g>
      </g>
      <g
         id="line2d_14">
        <path
           clip-path="url(#p3794e25b35)"
           d="M 138.085227 202.608189  L 169.554633 317.166016  L 248.228147 610.713178  L 326.901661 684.099969  L 641.595717 741.669638  L 956.289773 764.697506  "
           style="fill:none;stroke:#0000ff;stroke-linecap:square;stroke-width:1.5;"
           id="path319" />
      </g>
      <g
         id="line2d_15">
        <defs
           id="defs323">
          <path
             d="M -3 3  L 3 -3  M -3 -3  L 3 3  "
             id="m25c090a126"
             style="stroke:#0000ff;" />
        </defs>
        <g
           clip-path="url(#p3794e25b35)"
           id="g331">
          <use
             style="fill:#0000ff;stroke:#0000ff;"
             x="169.554633"
             xlink:href="#m25c090a126"
             y="317.166016"
             id="use325" />
          <use
             style="fill:#0000ff;stroke:#0000ff;"
             x="326.901661"
             xlink:href="#m25c090a126"
             y="684.099969"
             id="use327" />
          <use
             style="fill:#0000ff;stroke:#0000ff;"
             x="641.595717"
             xlink:href="#m25c090a126"
             y="741.669638"
             id="use329" />
        </g>
      </g>
      <g
         id="line2d_16">
        <path
           clip-path="url(#p3794e25b35)"
           d="M 152.376538 -1  L 169.554633 103.751181  L 248.228147 479.175206  L 326.901661 573.031213  L 641.595717 673.632756  L 956.289773 713.931524  "
           style="fill:none;stroke:#ff0000;stroke-dasharray:5.55,2.4;stroke-dashoffset:0;stroke-width:1.5;"
           id="path334" />
      </g>
      <g
         id="line2d_17">
        <defs
           id="defs338">
          <path
             d="M -3 3  L 3 -3  M -3 -3  L 3 3  "
             id="m5ba6645971"
             style="stroke:#ff0000;" />
        </defs>
        <g
           clip-path="url(#p3794e25b35)"
           id="g346">
          <use
             style="fill:#ff0000;stroke:#ff0000;"
             x="169.554633"
             xlink:href="#m5ba6645971"
             y="103.751181"
             id="use340" />
          <use
             style="fill:#ff0000;stroke:#ff0000;"
             x="326.901661"
             xlink:href="#m5ba6645971"
             y="573.031213"
             id="use342" />
          <use
             style="fill:#ff0000;stroke:#ff0000;"
             x="641.595717"
             xlink:href="#m5ba6645971"
             y="673.632756"
             id="use344" />
        </g>
      </g>
      <g
         id="patch_3">
        <path
           d="M 97.175 784.12  L 97.175 45.6  "
           style="fill:none;stroke:#000000;stroke-linecap:square;stroke-linejoin:miter;stroke-width:0.8;"
           id="path349" />
      </g>
      <g
         id="patch_4">
        <path
           d="M 997.2 784.12  L 997.2 45.6  "
           style="fill:none;stroke:#000000;stroke-linecap:square;stroke-linejoin:miter;stroke-width:0.8;"
           id="path352" />
      </g>
      <g
         id="patch_5">
        <path
           d="M 97.175 784.12  L 997.2 784.12  "
           style="fill:none;stroke:#000000;stroke-linecap:square;stroke-linejoin:miter;stroke-width:0.8;"
           id="path355" />
      </g>
      <g
         id="patch_6">
        <path
           d="M 97.175 45.6  L 997.2 45.6  "
           style="fill:none;stroke:#000000;stroke-linecap:square;stroke-linejoin:miter;stroke-width:0.8;"
           id="path358" />
      </g>
      <g
         id="text_16">
        <!-- 1.303 -->
        <g
           transform="translate(100.321941 340.426488)scale(0.24 -0.24)"
           id="g374">
          <defs
             id="defs362">
            <path
               d="M 40.578125 39.3125  Q 47.65625 37.796875 51.625 33  Q 55.609375 28.21875 55.609375 21.1875  Q 55.609375 10.40625 48.1875 4.484375  Q 40.765625 -1.421875 27.09375 -1.421875  Q 22.515625 -1.421875 17.65625 -0.515625  Q 12.796875 0.390625 7.625 2.203125  L 7.625 11.71875  Q 11.71875 9.328125 16.59375 8.109375  Q 21.484375 6.890625 26.8125 6.890625  Q 36.078125 6.890625 40.9375 10.546875  Q 45.796875 14.203125 45.796875 21.1875  Q 45.796875 27.640625 41.28125 31.265625  Q 36.765625 34.90625 28.71875 34.90625  L 20.21875 34.90625  L 20.21875 43.015625  L 29.109375 43.015625  Q 36.375 43.015625 40.234375 45.921875  Q 44.09375 48.828125 44.09375 54.296875  Q 44.09375 59.90625 40.109375 62.90625  Q 36.140625 65.921875 28.71875 65.921875  Q 24.65625 65.921875 20.015625 65.03125  Q 15.375 64.15625 9.8125 62.3125  L 9.8125 71.09375  Q 15.4375 72.65625 20.34375 73.4375  Q 25.25 74.21875 29.59375 74.21875  Q 40.828125 74.21875 47.359375 69.109375  Q 53.90625 64.015625 53.90625 55.328125  Q 53.90625 49.265625 50.4375 45.09375  Q 46.96875 40.921875 40.578125 39.3125  z "
               id="DejaVuSans-51" />
          </defs>
          <use
             xlink:href="#DejaVuSans-49"
             id="use364" />
          <use
             x="63.623047"
             xlink:href="#DejaVuSans-46"
             id="use366" />
          <use
             x="95.410156"
             xlink:href="#DejaVuSans-51"
             id="use368" />
          <use
             x="159.033203"
             xlink:href="#DejaVuSans-48"
             id="use370" />
          <use
             x="222.65625"
             xlink:href="#DejaVuSans-51"
             id="use372" />
        </g>
      </g>
      <g
         id="text_17">
        <!-- 0.672 -->
        <g
           transform="translate(326.901661 667.817638)scale(0.24 -0.24)"
           id="g390">
          <defs
             id="defs378">
            <path
               d="M 8.203125 72.90625  L 55.078125 72.90625  L 55.078125 68.703125  L 28.609375 0  L 18.3125 0  L 43.21875 64.59375  L 8.203125 64.59375  z "
               id="DejaVuSans-55" />
          </defs>
          <use
             xlink:href="#DejaVuSans-48"
             id="use380" />
          <use
             x="63.623047"
             xlink:href="#DejaVuSans-46"
             id="use382" />
          <use
             x="95.410156"
             xlink:href="#DejaVuSans-54"
             id="use384" />
          <use
             x="159.033203"
             xlink:href="#DejaVuSans-55"
             id="use386" />
          <use
             x="222.65625"
             xlink:href="#DejaVuSans-50"
             id="use388" />
        </g>
      </g>
      <g
         id="text_18">
        <!-- 0.573 -->
        <g
           transform="translate(641.595717 725.968819)scale(0.24 -0.24)"
           id="g406">
          <defs
             id="defs394">
            <path
               d="M 10.796875 72.90625  L 49.515625 72.90625  L 49.515625 64.59375  L 19.828125 64.59375  L 19.828125 46.734375  Q 21.96875 47.46875 24.109375 47.828125  Q 26.265625 48.1875 28.421875 48.1875  Q 40.625 48.1875 47.75 41.5  Q 54.890625 34.8125 54.890625 23.390625  Q 54.890625 11.625 47.5625 5.09375  Q 40.234375 -1.421875 26.90625 -1.421875  Q 22.3125 -1.421875 17.546875 -0.640625  Q 12.796875 0.140625 7.71875 1.703125  L 7.71875 11.625  Q 12.109375 9.234375 16.796875 8.0625  Q 21.484375 6.890625 26.703125 6.890625  Q 35.15625 6.890625 40.078125 11.328125  Q 45.015625 15.765625 45.015625 23.390625  Q 45.015625 31 40.078125 35.4375  Q 35.15625 39.890625 26.703125 39.890625  Q 22.75 39.890625 18.8125 39.015625  Q 14.890625 38.140625 10.796875 36.28125  z "
               id="DejaVuSans-53" />
          </defs>
          <use
             xlink:href="#DejaVuSans-48"
             id="use396" />
          <use
             x="63.623047"
             xlink:href="#DejaVuSans-46"
             id="use398" />
          <use
             x="95.410156"
             xlink:href="#DejaVuSans-53"
             id="use400" />
          <use
             x="159.033203"
             xlink:href="#DejaVuSans-55"
             id="use402" />
          <use
             x="222.65625"
             xlink:href="#DejaVuSans-51"
             id="use404" />
        </g>
      </g>
      <g
         id="text_19">
        <!-- 1.670 -->
        <g
           transform="translate(175.848514 103.751181)scale(0.24 -0.24)"
           id="g419">
          <use
             xlink:href="#DejaVuSans-49"
             id="use409" />
          <use
             x="63.623047"
             xlink:href="#DejaVuSans-46"
             id="use411" />
          <use
             x="95.410156"
             xlink:href="#DejaVuSans-54"
             id="use413" />
          <use
             x="159.033203"
             xlink:href="#DejaVuSans-55"
             id="use415" />
          <use
             x="222.65625"
             xlink:href="#DejaVuSans-48"
             id="use417" />
        </g>
      </g>
      <g
         id="text_20">
        <!-- 0.863 -->
        <g
           transform="translate(326.901661 555.585858)scale(0.24 -0.24)"
           id="g432">
          <use
             xlink:href="#DejaVuSans-48"
             id="use422" />
          <use
             x="63.623047"
             xlink:href="#DejaVuSans-46"
             id="use424" />
          <use
             x="95.410156"
             xlink:href="#DejaVuSans-56"
             id="use426" />
          <use
             x="159.033203"
             xlink:href="#DejaVuSans-54"
             id="use428" />
          <use
             x="222.65625"
             xlink:href="#DejaVuSans-51"
             id="use430" />
        </g>
      </g>
      <g
         id="text_21">
        <!-- 0.690 -->
        <g
           transform="translate(641.595717 656.187402)scale(0.24 -0.24)"
           id="g448">
          <defs
             id="defs436">
            <path
               d="M 10.984375 1.515625  L 10.984375 10.5  Q 14.703125 8.734375 18.5 7.8125  Q 22.3125 6.890625 25.984375 6.890625  Q 35.75 6.890625 40.890625 13.453125  Q 46.046875 20.015625 46.78125 33.40625  Q 43.953125 29.203125 39.59375 26.953125  Q 35.25 24.703125 29.984375 24.703125  Q 19.046875 24.703125 12.671875 31.3125  Q 6.296875 37.9375 6.296875 49.421875  Q 6.296875 60.640625 12.9375 67.421875  Q 19.578125 74.21875 30.609375 74.21875  Q 43.265625 74.21875 49.921875 64.515625  Q 56.59375 54.828125 56.59375 36.375  Q 56.59375 19.140625 48.40625 8.859375  Q 40.234375 -1.421875 26.421875 -1.421875  Q 22.703125 -1.421875 18.890625 -0.6875  Q 15.09375 0.046875 10.984375 1.515625  z M 30.609375 32.421875  Q 37.25 32.421875 41.125 36.953125  Q 45.015625 41.5 45.015625 49.421875  Q 45.015625 57.28125 41.125 61.84375  Q 37.25 66.40625 30.609375 66.40625  Q 23.96875 66.40625 20.09375 61.84375  Q 16.21875 57.28125 16.21875 49.421875  Q 16.21875 41.5 20.09375 36.953125  Q 23.96875 32.421875 30.609375 32.421875  z "
               id="DejaVuSans-57" />
          </defs>
          <use
             xlink:href="#DejaVuSans-48"
             id="use438" />
          <use
             x="63.623047"
             xlink:href="#DejaVuSans-46"
             id="use440" />
          <use
             x="95.410156"
             xlink:href="#DejaVuSans-54"
             id="use442" />
          <use
             x="159.033203"
             xlink:href="#DejaVuSans-57"
             id="use444" />
          <use
             x="222.65625"
             xlink:href="#DejaVuSans-48"
             id="use446" />
        </g>
      </g>
      <g
         id="text_22">
        <!-- Accuracy of LSTM-RNN with varios network depths -->
        <g
           transform="translate(91.88875 38.113125)scale(0.36 -0.36)"
           id="g561">
          <defs
             id="defs465">
            <path
               d="M 34.1875 63.1875  L 20.796875 26.90625  L 47.609375 26.90625  z M 28.609375 72.90625  L 39.796875 72.90625  L 67.578125 0  L 57.328125 0  L 50.6875 18.703125  L 17.828125 18.703125  L 11.1875 0  L 0.78125 0  z "
               id="DejaVuSans-65" />
            <path
               d="M 48.78125 52.59375  L 48.78125 44.1875  Q 44.96875 46.296875 41.140625 47.34375  Q 37.3125 48.390625 33.40625 48.390625  Q 24.65625 48.390625 19.8125 42.84375  Q 14.984375 37.3125 14.984375 27.296875  Q 14.984375 17.28125 19.8125 11.734375  Q 24.65625 6.203125 33.40625 6.203125  Q 37.3125 6.203125 41.140625 7.25  Q 44.96875 8.296875 48.78125 10.40625  L 48.78125 2.09375  Q 45.015625 0.34375 40.984375 -0.53125  Q 36.96875 -1.421875 32.421875 -1.421875  Q 20.0625 -1.421875 12.78125 6.34375  Q 5.515625 14.109375 5.515625 27.296875  Q 5.515625 40.671875 12.859375 48.328125  Q 20.21875 56 33.015625 56  Q 37.15625 56 41.109375 55.140625  Q 45.0625 54.296875 48.78125 52.59375  z "
               id="DejaVuSans-99" />
            <path
               d="M 8.5 21.578125  L 8.5 54.6875  L 17.484375 54.6875  L 17.484375 21.921875  Q 17.484375 14.15625 20.5 10.265625  Q 23.53125 6.390625 29.59375 6.390625  Q 36.859375 6.390625 41.078125 11.03125  Q 45.3125 15.671875 45.3125 23.6875  L 45.3125 54.6875  L 54.296875 54.6875  L 54.296875 0  L 45.3125 0  L 45.3125 8.40625  Q 42.046875 3.421875 37.71875 1  Q 33.40625 -1.421875 27.6875 -1.421875  Q 18.265625 -1.421875 13.375 4.4375  Q 8.5 10.296875 8.5 21.578125  z M 31.109375 56  z "
               id="DejaVuSans-117" />
            <path
               d="M 34.28125 27.484375  Q 23.390625 27.484375 19.1875 25  Q 14.984375 22.515625 14.984375 16.5  Q 14.984375 11.71875 18.140625 8.90625  Q 21.296875 6.109375 26.703125 6.109375  Q 34.1875 6.109375 38.703125 11.40625  Q 43.21875 16.703125 43.21875 25.484375  L 43.21875 27.484375  z M 52.203125 31.203125  L 52.203125 0  L 43.21875 0  L 43.21875 8.296875  Q 40.140625 3.328125 35.546875 0.953125  Q 30.953125 -1.421875 24.3125 -1.421875  Q 15.921875 -1.421875 10.953125 3.296875  Q 6 8.015625 6 15.921875  Q 6 25.140625 12.171875 29.828125  Q 18.359375 34.515625 30.609375 34.515625  L 43.21875 34.515625  L 43.21875 35.40625  Q 43.21875 41.609375 39.140625 45  Q 35.0625 48.390625 27.6875 48.390625  Q 23 48.390625 18.546875 47.265625  Q 14.109375 46.140625 10.015625 43.890625  L 10.015625 52.203125  Q 14.9375 54.109375 19.578125 55.046875  Q 24.21875 56 28.609375 56  Q 40.484375 56 46.34375 49.84375  Q 52.203125 43.703125 52.203125 31.203125  z "
               id="DejaVuSans-97" />
            <path
               d="M 32.171875 -5.078125  Q 28.375 -14.84375 24.75 -17.8125  Q 21.140625 -20.796875 15.09375 -20.796875  L 7.90625 -20.796875  L 7.90625 -13.28125  L 13.1875 -13.28125  Q 16.890625 -13.28125 18.9375 -11.515625  Q 21 -9.765625 23.484375 -3.21875  L 25.09375 0.875  L 2.984375 54.6875  L 12.5 54.6875  L 29.59375 11.921875  L 46.6875 54.6875  L 56.203125 54.6875  z "
               id="DejaVuSans-121" />
            <path
               d="M 37.109375 75.984375  L 37.109375 68.5  L 28.515625 68.5  Q 23.6875 68.5 21.796875 66.546875  Q 19.921875 64.59375 19.921875 59.515625  L 19.921875 54.6875  L 34.71875 54.6875  L 34.71875 47.703125  L 19.921875 47.703125  L 19.921875 0  L 10.890625 0  L 10.890625 47.703125  L 2.296875 47.703125  L 2.296875 54.6875  L 10.890625 54.6875  L 10.890625 58.5  Q 10.890625 67.625 15.140625 71.796875  Q 19.390625 75.984375 28.609375 75.984375  z "
               id="DejaVuSans-102" />
            <path
               d="M 9.8125 72.90625  L 19.671875 72.90625  L 19.671875 8.296875  L 55.171875 8.296875  L 55.171875 0  L 9.8125 0  z "
               id="DejaVuSans-76" />
            <path
               d="M 53.515625 70.515625  L 53.515625 60.890625  Q 47.90625 63.578125 42.921875 64.890625  Q 37.9375 66.21875 33.296875 66.21875  Q 25.25 66.21875 20.875 63.09375  Q 16.5 59.96875 16.5 54.203125  Q 16.5 49.359375 19.40625 46.890625  Q 22.3125 44.4375 30.421875 42.921875  L 36.375 41.703125  Q 47.40625 39.59375 52.65625 34.296875  Q 57.90625 29 57.90625 20.125  Q 57.90625 9.515625 50.796875 4.046875  Q 43.703125 -1.421875 29.984375 -1.421875  Q 24.8125 -1.421875 18.96875 -0.25  Q 13.140625 0.921875 6.890625 3.21875  L 6.890625 13.375  Q 12.890625 10.015625 18.65625 8.296875  Q 24.421875 6.59375 29.984375 6.59375  Q 38.421875 6.59375 43.015625 9.90625  Q 47.609375 13.234375 47.609375 19.390625  Q 47.609375 24.75 44.3125 27.78125  Q 41.015625 30.8125 33.5 32.328125  L 27.484375 33.5  Q 16.453125 35.6875 11.515625 40.375  Q 6.59375 45.0625 6.59375 53.421875  Q 6.59375 63.09375 13.40625 68.65625  Q 20.21875 74.21875 32.171875 74.21875  Q 37.3125 74.21875 42.625 73.28125  Q 47.953125 72.359375 53.515625 70.515625  z "
               id="DejaVuSans-83" />
            <path
               d="M -0.296875 72.90625  L 61.375 72.90625  L 61.375 64.59375  L 35.5 64.59375  L 35.5 0  L 25.59375 0  L 25.59375 64.59375  L -0.296875 64.59375  z "
               id="DejaVuSans-84" />
            <path
               d="M 9.8125 72.90625  L 24.515625 72.90625  L 43.109375 23.296875  L 61.8125 72.90625  L 76.515625 72.90625  L 76.515625 0  L 66.890625 0  L 66.890625 64.015625  L 48.09375 14.015625  L 38.1875 14.015625  L 19.390625 64.015625  L 19.390625 0  L 9.8125 0  z "
               id="DejaVuSans-77" />
            <path
               d="M 4.890625 31.390625  L 31.203125 31.390625  L 31.203125 23.390625  L 4.890625 23.390625  z "
               id="DejaVuSans-45" />
            <path
               d="M 44.390625 34.1875  Q 47.5625 33.109375 50.5625 29.59375  Q 53.5625 26.078125 56.59375 19.921875  L 66.609375 0  L 56 0  L 46.6875 18.703125  Q 43.0625 26.03125 39.671875 28.421875  Q 36.28125 30.8125 30.421875 30.8125  L 19.671875 30.8125  L 19.671875 0  L 9.8125 0  L 9.8125 72.90625  L 32.078125 72.90625  Q 44.578125 72.90625 50.734375 67.671875  Q 56.890625 62.453125 56.890625 51.90625  Q 56.890625 45.015625 53.6875 40.46875  Q 50.484375 35.9375 44.390625 34.1875  z M 19.671875 64.796875  L 19.671875 38.921875  L 32.078125 38.921875  Q 39.203125 38.921875 42.84375 42.21875  Q 46.484375 45.515625 46.484375 51.90625  Q 46.484375 58.296875 42.84375 61.546875  Q 39.203125 64.796875 32.078125 64.796875  z "
               id="DejaVuSans-82" />
            <path
               d="M 2.984375 54.6875  L 12.5 54.6875  L 29.59375 8.796875  L 46.6875 54.6875  L 56.203125 54.6875  L 35.6875 0  L 23.484375 0  z "
               id="DejaVuSans-118" />
            <path
               d="M 44.28125 53.078125  L 44.28125 44.578125  Q 40.484375 46.53125 36.375 47.5  Q 32.28125 48.484375 27.875 48.484375  Q 21.1875 48.484375 17.84375 46.4375  Q 14.5 44.390625 14.5 40.28125  Q 14.5 37.15625 16.890625 35.375  Q 19.28125 33.59375 26.515625 31.984375  L 29.59375 31.296875  Q 39.15625 29.25 43.1875 25.515625  Q 47.21875 21.78125 47.21875 15.09375  Q 47.21875 7.46875 41.1875 3.015625  Q 35.15625 -1.421875 24.609375 -1.421875  Q 20.21875 -1.421875 15.453125 -0.5625  Q 10.6875 0.296875 5.421875 2  L 5.421875 11.28125  Q 10.40625 8.6875 15.234375 7.390625  Q 20.0625 6.109375 24.8125 6.109375  Q 31.15625 6.109375 34.5625 8.28125  Q 37.984375 10.453125 37.984375 14.40625  Q 37.984375 18.0625 35.515625 20.015625  Q 33.0625 21.96875 24.703125 23.78125  L 21.578125 24.515625  Q 13.234375 26.265625 9.515625 29.90625  Q 5.8125 33.546875 5.8125 39.890625  Q 5.8125 47.609375 11.28125 51.796875  Q 16.75 56 26.8125 56  Q 31.78125 56 36.171875 55.265625  Q 40.578125 54.546875 44.28125 53.078125  z "
               id="DejaVuSans-115" />
          </defs>
          <use
             xlink:href="#DejaVuSans-65"
             id="use467"
             transform="translate(-33.333335)"
             x="0"
             y="0"
             width="100%"
             height="100%" />
          <use
             x="66.658203"
             xlink:href="#DejaVuSans-99"
             id="use469"
             transform="translate(-33.333335)"
             y="0"
             width="100%"
             height="100%" />
          <use
             x="121.63867"
             xlink:href="#DejaVuSans-99"
             id="use471"
             transform="translate(-33.333335)"
             y="0"
             width="100%"
             height="100%" />
          <use
             x="176.61914"
             xlink:href="#DejaVuSans-117"
             id="use473"
             transform="translate(-33.333335)"
             y="0"
             width="100%"
             height="100%" />
          <use
             x="176.61914"
             xlink:href="#DejaVuSans-117"
             id="use473-3"
             style="stroke-linecap:butt;stroke-linejoin:round"
             y="0"
             width="100%"
             height="100%"
             transform="translate(1454.3219,1.0562721)" />
          <use
             x="239.99805"
             xlink:href="#DejaVuSans-114"
             id="use475"
             transform="translate(-33.333335)"
             y="0"
             width="100%"
             height="100%" />
          <use
             x="281.11133"
             xlink:href="#DejaVuSans-97"
             id="use477"
             transform="translate(-33.333335)"
             y="0"
             width="100%"
             height="100%" />
          <use
             x="342.39062"
             xlink:href="#DejaVuSans-99"
             id="use479"
             transform="translate(-33.333335)"
             y="0"
             width="100%"
             height="100%" />
          <use
             x="397.37109"
             xlink:href="#DejaVuSans-121"
             id="use481"
             transform="translate(-33.333335)"
             y="0"
             width="100%"
             height="100%" />
          <use
             x="456.550781"
             xlink:href="#DejaVuSans-32"
             id="use483" />
          <use
             x="488.33789"
             xlink:href="#DejaVuSans-111"
             id="use485"
             transform="translate(-33.333335)"
             y="0"
             width="100%"
             height="100%" />
          <use
             x="549.51953"
             xlink:href="#DejaVuSans-102"
             id="use487"
             transform="translate(-33.333335)"
             y="0"
             width="100%"
             height="100%" />
          <use
             x="584.724609"
             xlink:href="#DejaVuSans-32"
             id="use489" />
          <use
             x="616.51172"
             xlink:href="#DejaVuSans-76"
             id="use491"
             transform="translate(-33.333335)"
             y="0"
             width="100%"
             height="100%" />
          <use
             x="672.22461"
             xlink:href="#DejaVuSans-83"
             id="use493"
             transform="translate(-33.333335)"
             y="0"
             width="100%"
             height="100%" />
          <use
             x="735.70117"
             xlink:href="#DejaVuSans-84"
             id="use495"
             transform="translate(-33.333335)"
             y="0"
             width="100%"
             height="100%" />
          <use
             x="796.78516"
             xlink:href="#DejaVuSans-77"
             id="use497"
             transform="translate(-33.333335)"
             y="0"
             width="100%"
             height="100%" />
          <use
             x="883.06445"
             xlink:href="#DejaVuSans-45"
             id="use499"
             transform="translate(-33.333335)"
             y="0"
             width="100%"
             height="100%" />
          <use
             x="919.14844"
             xlink:href="#DejaVuSans-82"
             id="use501"
             transform="translate(-33.333335)"
             y="0"
             width="100%"
             height="100%" />
          <use
             x="988.63086"
             xlink:href="#DejaVuSans-78"
             id="use503"
             transform="translate(-33.333335)"
             y="0"
             width="100%"
             height="100%" />
          <use
             x="1063.4355"
             xlink:href="#DejaVuSans-78"
             id="use505"
             transform="translate(-33.333335)"
             y="0"
             width="100%"
             height="100%" />
          <use
             x="1138.240234"
             xlink:href="#DejaVuSans-32"
             id="use507" />
          <use
             x="1170.0273"
             xlink:href="#DejaVuSans-119"
             id="use509"
             transform="translate(-33.333335)"
             y="0"
             width="100%"
             height="100%" />
          <use
             x="1251.8145"
             xlink:href="#DejaVuSans-105"
             id="use511"
             transform="translate(-33.333335)"
             y="0"
             width="100%"
             height="100%" />
          <use
             x="1279.5977"
             xlink:href="#DejaVuSans-116"
             id="use513"
             transform="translate(-33.333335)"
             y="0"
             width="100%"
             height="100%" />
          <use
             x="1318.8066"
             xlink:href="#DejaVuSans-104"
             id="use515"
             transform="translate(-33.333335)"
             y="0"
             width="100%"
             height="100%" />
          <use
             x="1382.185547"
             xlink:href="#DejaVuSans-32"
             id="use517" />
          <use
             x="1413.9727"
             xlink:href="#DejaVuSans-118"
             id="use519"
             transform="translate(-33.333335)"
             y="0"
             width="100%"
             height="100%" />
          <use
             x="1473.1523"
             xlink:href="#DejaVuSans-97"
             id="use521"
             transform="translate(-33.333335)"
             y="0"
             width="100%"
             height="100%" />
          <use
             x="1534.4316"
             xlink:href="#DejaVuSans-114"
             id="use523"
             transform="translate(-33.333335)"
             y="0"
             width="100%"
             height="100%" />
          <use
             x="1575.5449"
             xlink:href="#DejaVuSans-105"
             id="use525"
             transform="translate(-33.333335)"
             y="0"
             width="100%"
             height="100%" />
          <use
             x="1603.3281"
             xlink:href="#DejaVuSans-111"
             id="use527"
             transform="translate(-33.333335)"
             y="0"
             width="100%"
             height="100%" />
          <use
             x="1664.5098"
             xlink:href="#DejaVuSans-115"
             id="use529"
             y="0"
             width="100%"
             height="100%"
             transform="translate(29.166668)" />
          <use
             x="1716.609375"
             xlink:href="#DejaVuSans-32"
             id="use531" />
          <use
             x="1748.3965"
             xlink:href="#DejaVuSans-110"
             id="use533"
             transform="translate(16.666667)"
             y="0"
             width="100%"
             height="100%" />
          <use
             x="1811.7754"
             xlink:href="#DejaVuSans-101"
             id="use535"
             transform="translate(16.666667)"
             y="0"
             width="100%"
             height="100%" />
          <use
             x="1873.2988"
             xlink:href="#DejaVuSans-116"
             id="use537"
             transform="translate(16.666667)"
             y="0"
             width="100%"
             height="100%" />
          <use
             x="1912.5078"
             xlink:href="#DejaVuSans-119"
             id="use539"
             transform="translate(16.666667)"
             y="0"
             width="100%"
             height="100%" />
          <use
             x="1994.2949"
             xlink:href="#DejaVuSans-111"
             id="use541"
             transform="translate(16.666667)"
             y="0"
             width="100%"
             height="100%" />
          <use
             x="2055.4766"
             xlink:href="#DejaVuSans-114"
             id="use543"
             transform="translate(16.666667)"
             y="0"
             width="100%"
             height="100%" />
          <use
             x="2096.5898"
             xlink:href="#DejaVuSans-107"
             id="use545"
             transform="translate(16.666667)"
             y="0"
             width="100%"
             height="100%" />
          <use
             x="2154.5"
             xlink:href="#DejaVuSans-32"
             id="use547" />
          <use
             x="2186.2871"
             xlink:href="#DejaVuSans-100"
             id="use549"
             transform="translate(16.666667)"
             y="0"
             width="100%"
             height="100%" />
          <use
             x="2249.7637"
             xlink:href="#DejaVuSans-101"
             id="use551"
             transform="translate(16.666667)"
             y="0"
             width="100%"
             height="100%" />
          <use
             x="2311.2871"
             xlink:href="#DejaVuSans-112"
             id="use553"
             transform="translate(12.5)"
             y="0"
             width="100%"
             height="100%" />
          <use
             x="2374.7637"
             xlink:href="#DejaVuSans-116"
             id="use555"
             transform="translate(16.666667)"
             y="0"
             width="100%"
             height="100%" />
          <use
             x="2413.9727"
             xlink:href="#DejaVuSans-104"
             id="use557"
             transform="translate(16.666667)"
             y="0"
             width="100%"
             height="100%" />
          <use
             x="2477.3516"
             xlink:href="#DejaVuSans-115"
             id="use559"
             transform="translate(16.666667)"
             y="0"
             width="100%"
             height="100%" />
        </g>
      </g>
      <g
         id="legend_1">
        <g
           id="patch_7">
          <path
             d="M 746.865 165.14  L 974.8 165.14  Q 981.2 165.14 981.2 158.74  L 981.2 68  Q 981.2 61.6 974.8 61.6  L 746.865 61.6  Q 740.465 61.6 740.465 68  L 740.465 158.74  Q 740.465 165.14 746.865 165.14  z "
             style="fill:#ffffff;opacity:0.8;stroke:#cccccc;stroke-linejoin:miter;"
             id="path564" />
        </g>
        <g
           id="line2d_18">
          <path
             d="M 753.265 87.515  L 817.265 87.515  "
             style="fill:none;stroke:#0000ff;stroke-linecap:square;stroke-width:1.5;"
             id="path567" />
        </g>
        <g
           id="line2d_19" />
        <g
           id="text_23">
          <!-- MAE(%) -->
          <g
             transform="translate(842.865 98.715)scale(0.32 -0.32)"
             id="g588">
            <defs
               id="defs574">
              <path
                 d="M 31 75.875  Q 24.46875 64.65625 21.28125 53.65625  Q 18.109375 42.671875 18.109375 31.390625  Q 18.109375 20.125 21.3125 9.0625  Q 24.515625 -2 31 -13.1875  L 23.1875 -13.1875  Q 15.875 -1.703125 12.234375 9.375  Q 8.59375 20.453125 8.59375 31.390625  Q 8.59375 42.28125 12.203125 53.3125  Q 15.828125 64.359375 23.1875 75.875  z "
                 id="DejaVuSans-40" />
              <path
                 d="M 72.703125 32.078125  Q 68.453125 32.078125 66.03125 28.46875  Q 63.625 24.859375 63.625 18.40625  Q 63.625 12.0625 66.03125 8.421875  Q 68.453125 4.78125 72.703125 4.78125  Q 76.859375 4.78125 79.265625 8.421875  Q 81.6875 12.0625 81.6875 18.40625  Q 81.6875 24.8125 79.265625 28.4375  Q 76.859375 32.078125 72.703125 32.078125  z M 72.703125 38.28125  Q 80.421875 38.28125 84.953125 32.90625  Q 89.5 27.546875 89.5 18.40625  Q 89.5 9.28125 84.9375 3.921875  Q 80.375 -1.421875 72.703125 -1.421875  Q 64.890625 -1.421875 60.34375 3.921875  Q 55.8125 9.28125 55.8125 18.40625  Q 55.8125 27.59375 60.375 32.9375  Q 64.9375 38.28125 72.703125 38.28125  z M 22.3125 68.015625  Q 18.109375 68.015625 15.6875 64.375  Q 13.28125 60.75 13.28125 54.390625  Q 13.28125 47.953125 15.671875 44.328125  Q 18.0625 40.71875 22.3125 40.71875  Q 26.5625 40.71875 28.96875 44.328125  Q 31.390625 47.953125 31.390625 54.390625  Q 31.390625 60.6875 28.953125 64.34375  Q 26.515625 68.015625 22.3125 68.015625  z M 66.40625 74.21875  L 74.21875 74.21875  L 28.609375 -1.421875  L 20.796875 -1.421875  z M 22.3125 74.21875  Q 30.03125 74.21875 34.609375 68.875  Q 39.203125 63.53125 39.203125 54.390625  Q 39.203125 45.171875 34.640625 39.84375  Q 30.078125 34.515625 22.3125 34.515625  Q 14.546875 34.515625 10.03125 39.859375  Q 5.515625 45.21875 5.515625 54.390625  Q 5.515625 63.484375 10.046875 68.84375  Q 14.59375 74.21875 22.3125 74.21875  z "
                 id="DejaVuSans-37" />
              <path
                 d="M 8.015625 75.875  L 15.828125 75.875  Q 23.140625 64.359375 26.78125 53.3125  Q 30.421875 42.28125 30.421875 31.390625  Q 30.421875 20.453125 26.78125 9.375  Q 23.140625 -1.703125 15.828125 -13.1875  L 8.015625 -13.1875  Q 14.5 -2 17.703125 9.0625  Q 20.90625 20.125 20.90625 31.390625  Q 20.90625 42.671875 17.703125 53.65625  Q 14.5 64.65625 8.015625 75.875  z "
                 id="DejaVuSans-41" />
            </defs>
            <use
               xlink:href="#DejaVuSans-77"
               id="use576" />
            <use
               x="86.279297"
               xlink:href="#DejaVuSans-65"
               id="use578" />
            <use
               x="154.6875"
               xlink:href="#DejaVuSans-69"
               id="use580" />
            <use
               x="217.871094"
               xlink:href="#DejaVuSans-40"
               id="use582" />
            <use
               x="256.884766"
               xlink:href="#DejaVuSans-37"
               id="use584" />
            <use
               x="351.904297"
               xlink:href="#DejaVuSans-41"
               id="use586" />
          </g>
        </g>
        <g
           id="line2d_20">
          <path
             d="M 753.265 134.485  L 817.265 134.485  "
             style="fill:none;stroke:#ff0000;stroke-dasharray:5.55,2.4;stroke-dashoffset:0;stroke-width:1.5;"
             id="path591" />
        </g>
        <g
           id="line2d_21" />
        <g
           id="text_24">
          <!-- RMS(%) -->
          <g
             transform="translate(842.865 145.685)scale(0.32 -0.32)"
             id="g607">
            <use
               xlink:href="#DejaVuSans-82"
               id="use595" />
            <use
               x="69.482422"
               xlink:href="#DejaVuSans-77"
               id="use597" />
            <use
               x="155.761719"
               xlink:href="#DejaVuSans-83"
               id="use599" />
            <use
               x="219.238281"
               xlink:href="#DejaVuSans-40"
               id="use601" />
            <use
               x="258.251953"
               xlink:href="#DejaVuSans-37"
               id="use603" />
            <use
               x="353.271484"
               xlink:href="#DejaVuSans-41"
               id="use605" />
          </g>
        </g>
      </g>
    </g>
  </g>
  <defs
     id="defs616">
    <clipPath
       id="p3794e25b35">
      <rect
         height="738.52"
         width="900.025"
         x="97.175"
         y="45.6"
         id="rect613" />
    </clipPath>
  </defs>
</svg>
