<?xml version="1.0" encoding="utf-8" standalone="no"?>
<!DOCTYPE svg PUBLIC "-//W3C//DTD SVG 1.1//EN"
  "http://www.w3.org/Graphics/SVG/1.1/DTD/svg11.dtd">
<svg xmlns:xlink="http://www.w3.org/1999/xlink" width="576pt" height="432pt" viewBox="0 0 576 432" xmlns="http://www.w3.org/2000/svg" version="1.1">
 <metadata>
  <rdf:RDF xmlns:dc="http://purl.org/dc/elements/1.1/" xmlns:cc="http://creativecommons.org/ns#" xmlns:rdf="http://www.w3.org/1999/02/22-rdf-syntax-ns#">
   <cc:Work>
    <dc:type rdf:resource="http://purl.org/dc/dcmitype/StillImage"/>
    <dc:date>2022-08-30T17:29:08.083216</dc:date>
    <dc:format>image/svg+xml</dc:format>
    <dc:creator>
     <cc:Agent>
      <dc:title>Matplotlib v3.5.1, https://matplotlib.org/</dc:title>
     </cc:Agent>
    </dc:creator>
   </cc:Work>
  </rdf:RDF>
 </metadata>
 <defs>
  <style type="text/css">*{stroke-linejoin: round; stroke-linecap: butt}</style>
 </defs>
 <g id="figure_1">
  <g id="patch_1">
   <path d="M 0 432 
L 576 432 
L 576 0 
L 0 0 
L 0 432 
z
" style="fill: none"/>
  </g>
  <g id="axes_1">
   <g id="patch_2">
    <path d="M 72 378 
L 518.4 378 
L 518.4 51.84 
L 72 51.84 
L 72 378 
z
" style="fill: none"/>
   </g>
   <g id="matplotlib.axis_1">
    <g id="xtick_1">
     <g id="line2d_1">
      <defs>
       <path id="ma98bb82266" d="M 0 0 
L 0 3.5 
" style="stroke: #000000; stroke-width: 0.8"/>
      </defs>
      <g>
       <use xlink:href="#ma98bb82266" x="92.290909" y="378" style="stroke: #000000; stroke-width: 0.8"/>
      </g>
     </g>
     <g id="text_1">
      <!-- 0 -->
      <g transform="translate(89.109659 392.598437)scale(0.1 -0.1)">
       <defs>
        <path id="DejaVuSans-30" d="M 2034 4250 
Q 1547 4250 1301 3770 
Q 1056 3291 1056 2328 
Q 1056 1369 1301 889 
Q 1547 409 2034 409 
Q 2525 409 2770 889 
Q 3016 1369 3016 2328 
Q 3016 3291 2770 3770 
Q 2525 4250 2034 4250 
z
M 2034 4750 
Q 2819 4750 3233 4129 
Q 3647 3509 3647 2328 
Q 3647 1150 3233 529 
Q 2819 -91 2034 -91 
Q 1250 -91 836 529 
Q 422 1150 422 2328 
Q 422 3509 836 4129 
Q 1250 4750 2034 4750 
z
" transform="scale(0.015625)"/>
       </defs>
       <use xlink:href="#DejaVuSans-30"/>
      </g>
     </g>
    </g>
    <g id="xtick_2">
     <g id="line2d_2">
      <g>
       <use xlink:href="#ma98bb82266" x="156.401206" y="378" style="stroke: #000000; stroke-width: 0.8"/>
      </g>
     </g>
     <g id="text_2">
      <!-- 2000 -->
      <g transform="translate(143.676206 392.598437)scale(0.1 -0.1)">
       <defs>
        <path id="DejaVuSans-32" d="M 1228 531 
L 3431 531 
L 3431 0 
L 469 0 
L 469 531 
Q 828 903 1448 1529 
Q 2069 2156 2228 2338 
Q 2531 2678 2651 2914 
Q 2772 3150 2772 3378 
Q 2772 3750 2511 3984 
Q 2250 4219 1831 4219 
Q 1534 4219 1204 4116 
Q 875 4013 500 3803 
L 500 4441 
Q 881 4594 1212 4672 
Q 1544 4750 1819 4750 
Q 2544 4750 2975 4387 
Q 3406 4025 3406 3419 
Q 3406 3131 3298 2873 
Q 3191 2616 2906 2266 
Q 2828 2175 2409 1742 
Q 1991 1309 1228 531 
z
" transform="scale(0.015625)"/>
       </defs>
       <use xlink:href="#DejaVuSans-32"/>
       <use xlink:href="#DejaVuSans-30" x="63.623047"/>
       <use xlink:href="#DejaVuSans-30" x="127.246094"/>
       <use xlink:href="#DejaVuSans-30" x="190.869141"/>
      </g>
     </g>
    </g>
    <g id="xtick_3">
     <g id="line2d_3">
      <g>
       <use xlink:href="#ma98bb82266" x="220.511504" y="378" style="stroke: #000000; stroke-width: 0.8"/>
      </g>
     </g>
     <g id="text_3">
      <!-- 4000 -->
      <g transform="translate(207.786504 392.598437)scale(0.1 -0.1)">
       <defs>
        <path id="DejaVuSans-34" d="M 2419 4116 
L 825 1625 
L 2419 1625 
L 2419 4116 
z
M 2253 4666 
L 3047 4666 
L 3047 1625 
L 3713 1625 
L 3713 1100 
L 3047 1100 
L 3047 0 
L 2419 0 
L 2419 1100 
L 313 1100 
L 313 1709 
L 2253 4666 
z
" transform="scale(0.015625)"/>
       </defs>
       <use xlink:href="#DejaVuSans-34"/>
       <use xlink:href="#DejaVuSans-30" x="63.623047"/>
       <use xlink:href="#DejaVuSans-30" x="127.246094"/>
       <use xlink:href="#DejaVuSans-30" x="190.869141"/>
      </g>
     </g>
    </g>
    <g id="xtick_4">
     <g id="line2d_4">
      <g>
       <use xlink:href="#ma98bb82266" x="284.621801" y="378" style="stroke: #000000; stroke-width: 0.8"/>
      </g>
     </g>
     <g id="text_4">
      <!-- 6000 -->
      <g transform="translate(271.896801 392.598437)scale(0.1 -0.1)">
       <defs>
        <path id="DejaVuSans-36" d="M 2113 2584 
Q 1688 2584 1439 2293 
Q 1191 2003 1191 1497 
Q 1191 994 1439 701 
Q 1688 409 2113 409 
Q 2538 409 2786 701 
Q 3034 994 3034 1497 
Q 3034 2003 2786 2293 
Q 2538 2584 2113 2584 
z
M 3366 4563 
L 3366 3988 
Q 3128 4100 2886 4159 
Q 2644 4219 2406 4219 
Q 1781 4219 1451 3797 
Q 1122 3375 1075 2522 
Q 1259 2794 1537 2939 
Q 1816 3084 2150 3084 
Q 2853 3084 3261 2657 
Q 3669 2231 3669 1497 
Q 3669 778 3244 343 
Q 2819 -91 2113 -91 
Q 1303 -91 875 529 
Q 447 1150 447 2328 
Q 447 3434 972 4092 
Q 1497 4750 2381 4750 
Q 2619 4750 2861 4703 
Q 3103 4656 3366 4563 
z
" transform="scale(0.015625)"/>
       </defs>
       <use xlink:href="#DejaVuSans-36"/>
       <use xlink:href="#DejaVuSans-30" x="63.623047"/>
       <use xlink:href="#DejaVuSans-30" x="127.246094"/>
       <use xlink:href="#DejaVuSans-30" x="190.869141"/>
      </g>
     </g>
    </g>
    <g id="xtick_5">
     <g id="line2d_5">
      <g>
       <use xlink:href="#ma98bb82266" x="348.732098" y="378" style="stroke: #000000; stroke-width: 0.8"/>
      </g>
     </g>
     <g id="text_5">
      <!-- 8000 -->
      <g transform="translate(336.007098 392.598437)scale(0.1 -0.1)">
       <defs>
        <path id="DejaVuSans-38" d="M 2034 2216 
Q 1584 2216 1326 1975 
Q 1069 1734 1069 1313 
Q 1069 891 1326 650 
Q 1584 409 2034 409 
Q 2484 409 2743 651 
Q 3003 894 3003 1313 
Q 3003 1734 2745 1975 
Q 2488 2216 2034 2216 
z
M 1403 2484 
Q 997 2584 770 2862 
Q 544 3141 544 3541 
Q 544 4100 942 4425 
Q 1341 4750 2034 4750 
Q 2731 4750 3128 4425 
Q 3525 4100 3525 3541 
Q 3525 3141 3298 2862 
Q 3072 2584 2669 2484 
Q 3125 2378 3379 2068 
Q 3634 1759 3634 1313 
Q 3634 634 3220 271 
Q 2806 -91 2034 -91 
Q 1263 -91 848 271 
Q 434 634 434 1313 
Q 434 1759 690 2068 
Q 947 2378 1403 2484 
z
M 1172 3481 
Q 1172 3119 1398 2916 
Q 1625 2713 2034 2713 
Q 2441 2713 2670 2916 
Q 2900 3119 2900 3481 
Q 2900 3844 2670 4047 
Q 2441 4250 2034 4250 
Q 1625 4250 1398 4047 
Q 1172 3844 1172 3481 
z
" transform="scale(0.015625)"/>
       </defs>
       <use xlink:href="#DejaVuSans-38"/>
       <use xlink:href="#DejaVuSans-30" x="63.623047"/>
       <use xlink:href="#DejaVuSans-30" x="127.246094"/>
       <use xlink:href="#DejaVuSans-30" x="190.869141"/>
      </g>
     </g>
    </g>
    <g id="xtick_6">
     <g id="line2d_6">
      <g>
       <use xlink:href="#ma98bb82266" x="412.842396" y="378" style="stroke: #000000; stroke-width: 0.8"/>
      </g>
     </g>
     <g id="text_6">
      <!-- 10000 -->
      <g transform="translate(396.936146 392.598437)scale(0.1 -0.1)">
       <defs>
        <path id="DejaVuSans-31" d="M 794 531 
L 1825 531 
L 1825 4091 
L 703 3866 
L 703 4441 
L 1819 4666 
L 2450 4666 
L 2450 531 
L 3481 531 
L 3481 0 
L 794 0 
L 794 531 
z
" transform="scale(0.015625)"/>
       </defs>
       <use xlink:href="#DejaVuSans-31"/>
       <use xlink:href="#DejaVuSans-30" x="63.623047"/>
       <use xlink:href="#DejaVuSans-30" x="127.246094"/>
       <use xlink:href="#DejaVuSans-30" x="190.869141"/>
       <use xlink:href="#DejaVuSans-30" x="254.492188"/>
      </g>
     </g>
    </g>
    <g id="xtick_7">
     <g id="line2d_7">
      <g>
       <use xlink:href="#ma98bb82266" x="476.952693" y="378" style="stroke: #000000; stroke-width: 0.8"/>
      </g>
     </g>
     <g id="text_7">
      <!-- 12000 -->
      <g transform="translate(461.046443 392.598437)scale(0.1 -0.1)">
       <use xlink:href="#DejaVuSans-31"/>
       <use xlink:href="#DejaVuSans-32" x="63.623047"/>
       <use xlink:href="#DejaVuSans-30" x="127.246094"/>
       <use xlink:href="#DejaVuSans-30" x="190.869141"/>
       <use xlink:href="#DejaVuSans-30" x="254.492188"/>
      </g>
     </g>
    </g>
    <g id="text_8">
     <!-- time(s) -->
     <g transform="translate(277.397656 406.276563)scale(0.1 -0.1)">
      <defs>
       <path id="DejaVuSans-74" d="M 1172 4494 
L 1172 3500 
L 2356 3500 
L 2356 3053 
L 1172 3053 
L 1172 1153 
Q 1172 725 1289 603 
Q 1406 481 1766 481 
L 2356 481 
L 2356 0 
L 1766 0 
Q 1100 0 847 248 
Q 594 497 594 1153 
L 594 3053 
L 172 3053 
L 172 3500 
L 594 3500 
L 594 4494 
L 1172 4494 
z
" transform="scale(0.015625)"/>
       <path id="DejaVuSans-69" d="M 603 3500 
L 1178 3500 
L 1178 0 
L 603 0 
L 603 3500 
z
M 603 4863 
L 1178 4863 
L 1178 4134 
L 603 4134 
L 603 4863 
z
" transform="scale(0.015625)"/>
       <path id="DejaVuSans-6d" d="M 3328 2828 
Q 3544 3216 3844 3400 
Q 4144 3584 4550 3584 
Q 5097 3584 5394 3201 
Q 5691 2819 5691 2113 
L 5691 0 
L 5113 0 
L 5113 2094 
Q 5113 2597 4934 2840 
Q 4756 3084 4391 3084 
Q 3944 3084 3684 2787 
Q 3425 2491 3425 1978 
L 3425 0 
L 2847 0 
L 2847 2094 
Q 2847 2600 2669 2842 
Q 2491 3084 2119 3084 
Q 1678 3084 1418 2786 
Q 1159 2488 1159 1978 
L 1159 0 
L 581 0 
L 581 3500 
L 1159 3500 
L 1159 2956 
Q 1356 3278 1631 3431 
Q 1906 3584 2284 3584 
Q 2666 3584 2933 3390 
Q 3200 3197 3328 2828 
z
" transform="scale(0.015625)"/>
       <path id="DejaVuSans-65" d="M 3597 1894 
L 3597 1613 
L 953 1613 
Q 991 1019 1311 708 
Q 1631 397 2203 397 
Q 2534 397 2845 478 
Q 3156 559 3463 722 
L 3463 178 
Q 3153 47 2828 -22 
Q 2503 -91 2169 -91 
Q 1331 -91 842 396 
Q 353 884 353 1716 
Q 353 2575 817 3079 
Q 1281 3584 2069 3584 
Q 2775 3584 3186 3129 
Q 3597 2675 3597 1894 
z
M 3022 2063 
Q 3016 2534 2758 2815 
Q 2500 3097 2075 3097 
Q 1594 3097 1305 2825 
Q 1016 2553 972 2059 
L 3022 2063 
z
" transform="scale(0.015625)"/>
       <path id="DejaVuSans-28" d="M 1984 4856 
Q 1566 4138 1362 3434 
Q 1159 2731 1159 2009 
Q 1159 1288 1364 580 
Q 1569 -128 1984 -844 
L 1484 -844 
Q 1016 -109 783 600 
Q 550 1309 550 2009 
Q 550 2706 781 3412 
Q 1013 4119 1484 4856 
L 1984 4856 
z
" transform="scale(0.015625)"/>
       <path id="DejaVuSans-73" d="M 2834 3397 
L 2834 2853 
Q 2591 2978 2328 3040 
Q 2066 3103 1784 3103 
Q 1356 3103 1142 2972 
Q 928 2841 928 2578 
Q 928 2378 1081 2264 
Q 1234 2150 1697 2047 
L 1894 2003 
Q 2506 1872 2764 1633 
Q 3022 1394 3022 966 
Q 3022 478 2636 193 
Q 2250 -91 1575 -91 
Q 1294 -91 989 -36 
Q 684 19 347 128 
L 347 722 
Q 666 556 975 473 
Q 1284 391 1588 391 
Q 1994 391 2212 530 
Q 2431 669 2431 922 
Q 2431 1156 2273 1281 
Q 2116 1406 1581 1522 
L 1381 1569 
Q 847 1681 609 1914 
Q 372 2147 372 2553 
Q 372 3047 722 3315 
Q 1072 3584 1716 3584 
Q 2034 3584 2315 3537 
Q 2597 3491 2834 3397 
z
" transform="scale(0.015625)"/>
       <path id="DejaVuSans-29" d="M 513 4856 
L 1013 4856 
Q 1481 4119 1714 3412 
Q 1947 2706 1947 2009 
Q 1947 1309 1714 600 
Q 1481 -109 1013 -844 
L 513 -844 
Q 928 -128 1133 580 
Q 1338 1288 1338 2009 
Q 1338 2731 1133 3434 
Q 928 4138 513 4856 
z
" transform="scale(0.015625)"/>
      </defs>
      <use xlink:href="#DejaVuSans-74"/>
      <use xlink:href="#DejaVuSans-69" x="39.208984"/>
      <use xlink:href="#DejaVuSans-6d" x="66.992188"/>
      <use xlink:href="#DejaVuSans-65" x="164.404297"/>
      <use xlink:href="#DejaVuSans-28" x="225.927734"/>
      <use xlink:href="#DejaVuSans-73" x="264.941406"/>
      <use xlink:href="#DejaVuSans-29" x="317.041016"/>
     </g>
    </g>
   </g>
   <g id="matplotlib.axis_2">
    <g id="ytick_1">
     <g id="line2d_8">
      <defs>
       <path id="mf60d962a97" d="M 0 0 
L -3.5 0 
" style="stroke: #000000; stroke-width: 0.8"/>
      </defs>
      <g>
       <use xlink:href="#mf60d962a97" x="72" y="354.702857" style="stroke: #000000; stroke-width: 0.8"/>
      </g>
     </g>
     <g id="text_9">
      <!-- −4 -->
      <g transform="translate(50.257812 358.502076)scale(0.1 -0.1)">
       <defs>
        <path id="DejaVuSans-2212" d="M 678 2272 
L 4684 2272 
L 4684 1741 
L 678 1741 
L 678 2272 
z
" transform="scale(0.015625)"/>
       </defs>
       <use xlink:href="#DejaVuSans-2212"/>
       <use xlink:href="#DejaVuSans-34" x="83.789062"/>
      </g>
     </g>
    </g>
    <g id="ytick_2">
     <g id="line2d_9">
      <g>
       <use xlink:href="#mf60d962a97" x="72" y="308.108571" style="stroke: #000000; stroke-width: 0.8"/>
      </g>
     </g>
     <g id="text_10">
      <!-- −3 -->
      <g transform="translate(50.257812 311.90779)scale(0.1 -0.1)">
       <defs>
        <path id="DejaVuSans-33" d="M 2597 2516 
Q 3050 2419 3304 2112 
Q 3559 1806 3559 1356 
Q 3559 666 3084 287 
Q 2609 -91 1734 -91 
Q 1441 -91 1130 -33 
Q 819 25 488 141 
L 488 750 
Q 750 597 1062 519 
Q 1375 441 1716 441 
Q 2309 441 2620 675 
Q 2931 909 2931 1356 
Q 2931 1769 2642 2001 
Q 2353 2234 1838 2234 
L 1294 2234 
L 1294 2753 
L 1863 2753 
Q 2328 2753 2575 2939 
Q 2822 3125 2822 3475 
Q 2822 3834 2567 4026 
Q 2313 4219 1838 4219 
Q 1578 4219 1281 4162 
Q 984 4106 628 3988 
L 628 4550 
Q 988 4650 1302 4700 
Q 1616 4750 1894 4750 
Q 2613 4750 3031 4423 
Q 3450 4097 3450 3541 
Q 3450 3153 3228 2886 
Q 3006 2619 2597 2516 
z
" transform="scale(0.015625)"/>
       </defs>
       <use xlink:href="#DejaVuSans-2212"/>
       <use xlink:href="#DejaVuSans-33" x="83.789062"/>
      </g>
     </g>
    </g>
    <g id="ytick_3">
     <g id="line2d_10">
      <g>
       <use xlink:href="#mf60d962a97" x="72" y="261.514286" style="stroke: #000000; stroke-width: 0.8"/>
      </g>
     </g>
     <g id="text_11">
      <!-- −2 -->
      <g transform="translate(50.257812 265.313504)scale(0.1 -0.1)">
       <use xlink:href="#DejaVuSans-2212"/>
       <use xlink:href="#DejaVuSans-32" x="83.789062"/>
      </g>
     </g>
    </g>
    <g id="ytick_4">
     <g id="line2d_11">
      <g>
       <use xlink:href="#mf60d962a97" x="72" y="214.92" style="stroke: #000000; stroke-width: 0.8"/>
      </g>
     </g>
     <g id="text_12">
      <!-- −1 -->
      <g transform="translate(50.257812 218.719219)scale(0.1 -0.1)">
       <use xlink:href="#DejaVuSans-2212"/>
       <use xlink:href="#DejaVuSans-31" x="83.789062"/>
      </g>
     </g>
    </g>
    <g id="ytick_5">
     <g id="line2d_12">
      <g>
       <use xlink:href="#mf60d962a97" x="72" y="168.325714" style="stroke: #000000; stroke-width: 0.8"/>
      </g>
     </g>
     <g id="text_13">
      <!-- 0 -->
      <g transform="translate(58.6375 172.124933)scale(0.1 -0.1)">
       <use xlink:href="#DejaVuSans-30"/>
      </g>
     </g>
    </g>
    <g id="ytick_6">
     <g id="line2d_13">
      <g>
       <use xlink:href="#mf60d962a97" x="72" y="121.731429" style="stroke: #000000; stroke-width: 0.8"/>
      </g>
     </g>
     <g id="text_14">
      <!-- 1 -->
      <g transform="translate(58.6375 125.530647)scale(0.1 -0.1)">
       <use xlink:href="#DejaVuSans-31"/>
      </g>
     </g>
    </g>
    <g id="ytick_7">
     <g id="line2d_14">
      <g>
       <use xlink:href="#mf60d962a97" x="72" y="75.137143" style="stroke: #000000; stroke-width: 0.8"/>
      </g>
     </g>
     <g id="text_15">
      <!-- 2 -->
      <g transform="translate(58.6375 78.936362)scale(0.1 -0.1)">
       <use xlink:href="#DejaVuSans-32"/>
      </g>
     </g>
    </g>
    <g id="text_16">
     <!-- Current(A) -->
     <g transform="translate(44.178125 241.018438)rotate(-90)scale(0.1 -0.1)">
      <defs>
       <path id="DejaVuSans-43" d="M 4122 4306 
L 4122 3641 
Q 3803 3938 3442 4084 
Q 3081 4231 2675 4231 
Q 1875 4231 1450 3742 
Q 1025 3253 1025 2328 
Q 1025 1406 1450 917 
Q 1875 428 2675 428 
Q 3081 428 3442 575 
Q 3803 722 4122 1019 
L 4122 359 
Q 3791 134 3420 21 
Q 3050 -91 2638 -91 
Q 1578 -91 968 557 
Q 359 1206 359 2328 
Q 359 3453 968 4101 
Q 1578 4750 2638 4750 
Q 3056 4750 3426 4639 
Q 3797 4528 4122 4306 
z
" transform="scale(0.015625)"/>
       <path id="DejaVuSans-75" d="M 544 1381 
L 544 3500 
L 1119 3500 
L 1119 1403 
Q 1119 906 1312 657 
Q 1506 409 1894 409 
Q 2359 409 2629 706 
Q 2900 1003 2900 1516 
L 2900 3500 
L 3475 3500 
L 3475 0 
L 2900 0 
L 2900 538 
Q 2691 219 2414 64 
Q 2138 -91 1772 -91 
Q 1169 -91 856 284 
Q 544 659 544 1381 
z
M 1991 3584 
L 1991 3584 
z
" transform="scale(0.015625)"/>
       <path id="DejaVuSans-72" d="M 2631 2963 
Q 2534 3019 2420 3045 
Q 2306 3072 2169 3072 
Q 1681 3072 1420 2755 
Q 1159 2438 1159 1844 
L 1159 0 
L 581 0 
L 581 3500 
L 1159 3500 
L 1159 2956 
Q 1341 3275 1631 3429 
Q 1922 3584 2338 3584 
Q 2397 3584 2469 3576 
Q 2541 3569 2628 3553 
L 2631 2963 
z
" transform="scale(0.015625)"/>
       <path id="DejaVuSans-6e" d="M 3513 2113 
L 3513 0 
L 2938 0 
L 2938 2094 
Q 2938 2591 2744 2837 
Q 2550 3084 2163 3084 
Q 1697 3084 1428 2787 
Q 1159 2491 1159 1978 
L 1159 0 
L 581 0 
L 581 3500 
L 1159 3500 
L 1159 2956 
Q 1366 3272 1645 3428 
Q 1925 3584 2291 3584 
Q 2894 3584 3203 3211 
Q 3513 2838 3513 2113 
z
" transform="scale(0.015625)"/>
       <path id="DejaVuSans-41" d="M 2188 4044 
L 1331 1722 
L 3047 1722 
L 2188 4044 
z
M 1831 4666 
L 2547 4666 
L 4325 0 
L 3669 0 
L 3244 1197 
L 1141 1197 
L 716 0 
L 50 0 
L 1831 4666 
z
" transform="scale(0.015625)"/>
      </defs>
      <use xlink:href="#DejaVuSans-43"/>
      <use xlink:href="#DejaVuSans-75" x="69.824219"/>
      <use xlink:href="#DejaVuSans-72" x="133.203125"/>
      <use xlink:href="#DejaVuSans-72" x="172.566406"/>
      <use xlink:href="#DejaVuSans-65" x="211.429688"/>
      <use xlink:href="#DejaVuSans-6e" x="272.953125"/>
      <use xlink:href="#DejaVuSans-74" x="336.332031"/>
      <use xlink:href="#DejaVuSans-28" x="375.541016"/>
      <use xlink:href="#DejaVuSans-41" x="414.554688"/>
      <use xlink:href="#DejaVuSans-29" x="482.962891"/>
     </g>
    </g>
   </g>
   <g id="line2d_15">
    <path d="M 92.290909 168.325714 
L 95.977251 168.325714 
L 96.233692 117.09064 
L 169.447652 117.000246 
L 169.639983 116.899133 
L 177.108832 119.497231 
L 186.180439 122.515612 
L 189.962947 124.453 
L 193.873675 127.486756 
L 195.412322 129.092395 
L 196.790694 130.77072 
L 199.707712 135.112842 
L 203.137613 141.060601 
L 206.888065 147.326602 
L 209.420422 150.849595 
L 210.862904 152.554481 
L 212.722103 154.44481 
L 214.036364 155.588235 
L 215.831452 156.957174 
L 218.075312 158.359662 
L 220.479449 159.600468 
L 221.409048 160.012828 
L 224.967169 161.341231 
L 229.294614 162.546625 
L 235.192762 163.720801 
L 243.655321 164.839064 
L 251.444722 165.52167 
L 254.970788 165.765358 
L 255.22723 168.325714 
L 259.458509 168.338295 
L 259.58673 190.754339 
L 260.356053 190.754339 
L 260.484274 213.161999 
L 260.740715 213.170386 
L 260.836881 145.913863 
L 260.868936 145.92225 
L 260.997156 145.913863 
L 261.125377 168.346682 
L 261.510039 168.338295 
L 261.638259 190.754339 
L 262.279362 190.754339 
L 262.375528 213.170386 
L 262.407583 213.161999 
L 262.664024 213.170386 
L 262.792245 145.913863 
L 262.920465 145.905475 
L 262.95252 190.762726 
L 263.048686 190.754339 
L 264.330892 190.762726 
L 264.395002 213.170386 
L 264.459112 213.161999 
L 264.715554 213.170386 
L 264.811719 145.913863 
L 264.843774 145.930637 
L 264.971995 145.92225 
L 265.100215 168.346682 
L 265.452822 168.346682 
L 265.516932 190.762726 
L 265.581043 190.754339 
L 266.606807 190.754339 
L 266.670918 347.691814 
L 266.735028 347.683427 
L 266.863249 347.691814 
L 266.927359 280.410132 
L 266.991469 280.418519 
L 267.408186 280.410132 
L 267.632572 280.426906 
L 267.760793 123.472658 
L 267.889013 123.472658 
L 267.921069 213.170386 
L 268.017234 213.161999 
L 268.466006 213.170386 
L 268.914778 213.161999 
L 269.010944 78.640565 
L 269.042999 78.648952 
L 269.171219 78.648952 
L 269.267385 168.346682 
L 269.29944 168.338295 
L 269.748212 168.346682 
L 271.030418 168.346682 
L 271.158639 190.762726 
L 271.607411 190.754339 
L 271.927962 190.754339 
L 272.056183 213.161999 
L 272.312624 213.161999 
L 272.440844 145.913863 
L 272.569065 145.913863 
L 272.633175 168.346682 
L 272.697286 168.338295 
L 273.081947 168.338295 
L 273.210168 190.754339 
L 273.851271 190.754339 
L 273.947436 213.161999 
L 273.979492 213.153611 
L 274.235933 213.153611 
L 274.364153 145.913863 
L 274.492374 145.913863 
L 274.620595 190.754339 
L 275.902801 190.745953 
L 275.998966 213.170386 
L 276.031021 213.161999 
L 276.287462 213.161999 
L 276.415683 145.905475 
L 276.543903 145.913863 
L 276.608014 168.346682 
L 276.672124 168.338295 
L 277.056786 168.355069 
L 277.185006 190.754339 
L 278.178716 190.762726 
L 278.274882 347.691814 
L 278.306937 347.683427 
L 278.435157 347.683427 
L 278.467212 280.410132 
L 278.563378 280.418519 
L 278.980095 280.418519 
L 279.204481 280.418519 
L 279.332701 123.464271 
L 279.460922 123.481043 
L 279.589143 213.161999 
L 280.486687 213.161999 
L 280.550797 78.632178 
L 280.614907 78.640565 
L 280.743128 78.640565 
L 280.871349 168.346682 
L 282.602327 168.346682 
L 282.730547 190.754339 
L 283.499871 190.762726 
L 283.563981 213.170386 
L 283.628091 213.161999 
L 283.884533 213.170386 
L 284.012753 145.913863 
L 284.140974 145.913863 
L 284.269194 168.346682 
L 284.653856 168.338295 
L 284.685911 190.762726 
L 284.782077 190.754339 
L 285.42318 190.762726 
L 285.519345 213.170386 
L 285.5514 213.161999 
L 285.807841 213.170386 
L 285.936062 145.905475 
L 286.064283 145.92225 
L 286.160448 190.762726 
L 286.192503 190.754339 
L 287.474709 190.762726 
L 287.60293 213.161999 
L 287.859371 213.161999 
L 287.891426 145.905475 
L 287.987592 145.913863 
L 288.115812 145.92225 
L 288.244033 168.346682 
L 288.628695 168.338295 
L 288.756915 190.754339 
L 289.750625 190.754339 
L 289.878845 347.691814 
L 290.007066 347.683427 
L 290.103231 280.410132 
L 290.135287 280.418519 
L 290.776389 280.410132 
L 290.872555 123.464271 
L 290.90461 123.481043 
L 291.032831 123.472658 
L 291.096941 213.170386 
L 291.161051 213.161999 
L 292.058595 213.161999 
L 292.154761 78.632178 
L 292.186816 78.640565 
L 292.315037 78.632178 
L 292.379147 168.346682 
L 292.443257 168.338295 
L 292.892029 168.346682 
L 294.174235 168.338295 
L 294.302456 190.762726 
L 295.071779 190.754339 
L 295.103835 213.170386 
L 295.2 213.161999 
L 295.456441 213.170386 
L 295.584662 145.913863 
L 295.712882 145.913863 
L 295.809048 168.346682 
L 295.841103 168.338295 
L 296.225765 168.346682 
L 296.289875 190.762726 
L 296.353985 190.745953 
L 296.802757 190.754339 
L 296.995088 190.762726 
L 297.123309 213.170386 
L 297.37975 213.161999 
L 297.507971 145.913863 
L 297.636191 145.92225 
L 297.764412 190.762726 
L 298.213184 190.745953 
L 298.469625 190.762726 
L 298.918397 190.754339 
L 299.046618 190.745953 
L 299.174838 213.161999 
L 299.43128 213.170386 
L 299.5595 145.913863 
L 299.687721 145.92225 
L 299.815941 168.346682 
L 300.200603 168.338295 
L 300.328824 190.754339 
L 301.322533 190.754339 
L 301.418699 347.691814 
L 301.450754 347.683427 
L 301.578975 347.683427 
L 301.707195 280.418519 
L 302.123912 280.410132 
L 302.348298 280.410132 
L 302.476519 123.464271 
L 302.604739 123.472658 
L 302.66885 213.170386 
L 302.73296 213.161999 
L 303.181732 213.170386 
L 303.598449 213.161999 
L 303.630504 213.170386 
L 303.758725 78.640565 
L 303.886945 78.640565 
L 304.015166 168.346682 
L 305.746144 168.338295 
L 305.778199 190.762726 
L 305.874364 190.754339 
L 306.643688 190.754339 
L 306.771909 213.161999 
L 307.02835 213.161999 
L 307.15657 145.913863 
L 307.284791 145.913863 
L 307.413012 168.346682 
L 307.797673 168.346682 
L 307.893839 190.762726 
L 307.925894 190.754339 
L 308.374666 190.762726 
L 308.566997 190.754339 
L 308.695218 213.161999 
L 308.951659 213.161999 
L 309.079879 145.913863 
L 309.2081 145.913863 
L 309.336321 190.754339 
L 309.753037 190.754339 
L 310.618526 190.754339 
L 310.650582 213.170386 
L 310.746747 213.153611 
L 311.003188 213.161999 
L 311.131409 145.913863 
L 311.259629 145.92225 
L 311.38785 168.346682 
L 311.772512 168.346682 
L 311.836622 190.762726 
L 311.900732 190.754339 
L 312.317449 190.754339 
L 312.894442 190.745953 
L 312.990607 347.691814 
L 313.022663 347.683427 
L 313.150883 347.683427 
L 313.247049 280.410132 
L 313.279104 280.418519 
L 313.920207 280.418519 
L 314.048427 123.464271 
L 314.176648 123.464271 
L 314.240758 213.170386 
L 314.304869 213.161999 
L 315.202413 213.170386 
L 315.330633 78.640565 
L 315.458854 78.648952 
L 315.587075 168.346682 
L 317.318053 168.338295 
L 317.446273 190.754339 
L 317.86299 190.754339 
L 318.215597 190.754339 
L 318.279707 213.170386 
L 318.343817 213.161999 
L 318.600259 213.161999 
L 318.728479 145.913863 
L 318.8567 145.905475 
L 318.92081 168.346682 
L 318.98492 168.338295 
L 319.369582 168.346682 
L 319.401637 190.762726 
L 319.497803 190.745953 
L 319.97863 190.762726 
L 320.138906 190.754339 
L 320.235071 213.170386 
L 320.267126 213.161999 
L 320.523567 213.161999 
L 320.651788 145.913863 
L 320.780009 145.913863 
L 320.844119 190.762726 
L 320.908229 190.754339 
L 322.190435 190.754339 
L 322.254545 213.170386 
L 322.318656 213.161999 
L 322.575097 213.161999 
L 322.671262 145.905475 
L 322.703318 145.92225 
L 322.831538 145.92225 
L 322.895648 168.346682 
L 322.959759 168.338295 
L 323.344421 168.346682 
L 323.408531 190.762726 
L 323.472641 190.754339 
L 324.466351 190.754339 
L 324.530461 347.691814 
L 324.594571 347.683427 
L 324.722792 347.691814 
L 324.851012 280.410132 
L 325.267729 280.418519 
L 325.492115 280.418519 
L 325.588281 123.464271 
L 325.620336 123.472658 
L 325.748557 123.472658 
L 325.812667 213.170386 
L 325.876777 213.161999 
L 326.774321 213.161999 
L 326.902542 78.640565 
L 327.030763 78.640565 
L 327.158983 168.346682 
L 327.607755 168.338295 
L 328.056527 168.346682 
L 328.889961 168.346682 
L 329.018182 190.754339 
L 329.434899 190.754339 
L 329.787505 190.754339 
L 329.851616 213.170386 
L 329.915726 213.161999 
L 330.172167 213.161999 
L 330.300388 145.905475 
L 330.428608 145.905475 
L 330.460664 168.346682 
L 330.556829 168.338295 
L 330.941491 168.346682 
L 331.069711 190.754339 
L 331.486428 190.754339 
L 331.710814 190.762726 
L 331.839035 213.161999 
L 332.095476 213.161999 
L 332.223697 145.913863 
L 332.351917 145.913863 
L 332.480138 190.754339 
L 333.762344 190.762726 
L 333.890564 213.170386 
L 334.147006 213.161999 
L 334.243171 145.913863 
L 334.275226 145.92225 
L 334.403447 145.92225 
L 334.435502 168.346682 
L 334.531667 168.338295 
L 334.916329 168.346682 
L 335.012495 190.762726 
L 335.04455 190.754339 
L 336.038259 190.754339 
L 336.16648 347.691814 
L 336.294701 347.67504 
L 336.422921 280.410132 
L 336.871693 280.418519 
L 337.064024 280.426906 
L 337.16019 123.464271 
L 337.192245 123.472658 
L 337.320465 123.472658 
L 337.448686 213.170386 
L 337.865403 213.161999 
L 338.28212 213.161999 
L 338.34623 213.161999 
L 338.442396 78.632178 
L 338.474451 78.648952 
L 338.602671 78.640565 
L 338.730892 168.346682 
L 339.179664 168.338295 
L 339.628436 168.346682 
L 340.045153 168.346682 
L 340.46187 168.346682 
L 340.59009 190.762726 
L 341.359414 190.754339 
L 341.391469 213.170386 
L 341.487635 213.161999 
L 341.744076 213.161999 
L 341.872296 145.913863 
L 342.000517 145.92225 
L 342.128738 168.346682 
L 342.513399 168.346682 
L 342.64162 190.754339 
L 343.058337 190.762726 
L 343.282723 190.762726 
L 343.410944 213.161999 
L 343.667385 213.161999 
L 343.795605 145.913863 
L 343.923826 145.913863 
L 344.019991 190.762726 
L 344.052047 190.754339 
L 344.436708 190.762726 
L 344.629039 190.754339 
L 344.853425 190.754339 
L 345.334252 190.754339 
L 345.430418 213.161999 
L 345.462473 213.153611 
L 345.686859 213.153611 
L 345.718914 213.161999 
L 345.847135 145.913863 
L 345.975355 145.92225 
L 346.103576 168.346682 
L 346.488238 168.346682 
L 346.584403 190.762726 
L 346.616458 190.754339 
L 347.033175 190.754339 
L 347.610168 190.754339 
L 347.738389 347.683427 
L 347.866609 347.691814 
L 347.99483 280.410132 
L 348.443602 280.418519 
L 348.635933 280.418519 
L 348.764153 123.472658 
L 348.892374 123.472658 
L 348.988539 213.170386 
L 349.020595 213.161999 
L 349.918139 213.161999 
L 350.046359 78.640565 
L 350.17458 78.648952 
L 350.270745 168.346682 
L 350.302801 168.338295 
L 350.719517 168.338295 
L 352.033779 168.338295 
L 352.097889 190.762726 
L 352.161999 190.754339 
L 352.578716 190.754339 
L 352.931323 190.762726 
L 353.027488 213.170386 
L 353.059543 213.161999 
L 353.315984 213.161999 
L 353.41215 145.913863 
L 353.444205 145.92225 
L 353.572426 145.913863 
L 353.700646 168.346682 
L 354.085308 168.346682 
L 354.213529 190.762726 
L 354.662301 190.754339 
L 354.854632 190.754339 
L 354.982852 213.161999 
L 355.239293 213.161999 
L 355.367514 145.913863 
L 355.495735 145.905475 
L 355.623955 190.754339 
L 356.906161 190.762726 
L 357.034382 213.170386 
L 357.290823 213.170386 
L 357.386988 145.913863 
L 357.419044 145.92225 
L 357.547264 145.913863 
L 357.675485 168.346682 
L 358.060146 168.346682 
L 358.188367 190.754339 
L 359.182077 190.754339 
L 359.310297 347.683427 
L 359.438518 347.691814 
L 359.502628 280.410132 
L 359.566738 280.418519 
L 359.983455 280.418519 
L 360.207841 280.410132 
L 360.304007 123.464271 
L 360.336062 123.472658 
L 360.464283 123.464271 
L 360.560448 213.170386 
L 360.592503 213.161999 
L 361.00922 213.161999 
L 361.490047 213.153611 
L 361.618268 78.640565 
L 361.746489 78.640565 
L 361.874709 168.346682 
L 363.605687 168.346682 
L 363.701853 190.762726 
L 363.733908 190.754339 
L 364.503231 190.762726 
L 364.631452 213.170386 
L 364.887893 213.161999 
L 365.016114 145.913863 
L 365.144334 145.905475 
L 365.176389 168.355069 
L 365.272555 168.338295 
L 365.657217 168.338295 
L 365.785437 190.754339 
L 366.234209 190.762726 
L 366.42654 190.754339 
L 366.458595 213.170386 
L 366.554761 213.161999 
L 366.811202 213.161999 
L 366.939423 145.913863 
L 367.067643 145.913863 
L 367.195864 190.754339 
L 368.47807 190.754339 
L 368.60629 213.170386 
L 368.862732 213.153611 
L 368.958897 145.905475 
L 368.990952 145.913863 
L 369.119173 145.92225 
L 369.215338 168.355069 
L 369.247393 168.346682 
L 369.632055 168.338295 
L 369.760276 190.754339 
L 370.176993 190.745953 
L 370.625765 190.762726 
L 370.753985 190.762726 
L 370.882206 347.683427 
L 371.010427 347.691814 
L 371.138647 280.418519 
L 371.555364 280.410132 
L 371.77975 280.418519 
L 371.875916 123.464271 
L 371.907971 123.472658 
L 372.036191 123.472658 
L 372.164412 213.170386 
L 372.613184 213.161999 
L 373.061956 213.170386 
L 373.190177 78.640565 
L 373.318397 78.640565 
L 373.382508 168.355069 
L 373.446618 168.346682 
L 373.863335 168.338295 
L 374.280052 168.338295 
L 375.177596 168.338295 
L 375.209651 190.762726 
L 375.305816 190.754339 
L 375.722533 190.754339 
L 376.07514 190.754339 
L 376.203361 213.161999 
L 376.459802 213.170386 
L 376.523912 145.913863 
L 376.588022 145.92225 
L 376.716243 145.92225 
L 376.812408 168.346682 
L 376.844464 168.338295 
L 377.229125 168.346682 
L 377.357346 190.762726 
L 377.806118 190.754339 
L 377.998449 190.762726 
L 378.030504 213.170386 
L 378.12667 213.161999 
L 378.383111 213.170386 
L 378.479276 145.905475 
L 378.511331 145.92225 
L 378.639552 145.913863 
L 378.735717 190.762726 
L 378.767773 190.754339 
L 380.049978 190.754339 
L 380.114089 213.170386 
L 380.178199 213.153611 
L 380.43464 213.170386 
L 380.562861 145.913863 
L 380.691081 145.913863 
L 380.787247 168.346682 
L 380.819302 168.338295 
L 381.203964 168.346682 
L 381.332184 190.754339 
L 382.325894 190.745953 
L 382.454115 347.683427 
L 382.582335 347.683427 
L 382.710556 280.418519 
L 383.351659 280.418519 
L 383.479879 123.472658 
L 383.6081 123.472658 
L 383.704265 213.170386 
L 383.736321 213.161999 
L 384.633865 213.170386 
L 384.73003 78.640565 
L 384.762085 78.648952 
L 384.890306 78.632178 
L 385.018526 168.346682 
L 386.749505 168.338295 
L 386.877725 190.754339 
L 387.647049 190.754339 
L 387.711159 213.170386 
L 387.775269 213.161999 
L 388.03171 213.170386 
L 388.127876 145.905475 
L 388.159931 145.913863 
L 388.288152 145.913863 
L 388.352262 168.346682 
L 388.416372 168.338295 
L 388.801034 168.346682 
L 388.897199 190.762726 
L 388.929255 190.754339 
L 389.570358 190.762726 
L 389.698578 213.161999 
L 389.955019 213.161999 
L 390.051185 145.913863 
L 390.08324 145.92225 
L 390.211461 145.913863 
L 390.339681 190.754339 
L 391.621887 190.754339 
L 391.718053 213.170386 
L 391.750108 213.161999 
L 392.006549 213.170386 
L 392.134769 145.913863 
L 392.26299 145.913863 
L 392.391211 168.346682 
L 392.775872 168.338295 
L 392.904093 190.754339 
L 393.897803 190.754339 
L 393.993968 347.691814 
L 394.026023 347.683427 
L 394.154244 347.691814 
L 394.250409 280.410132 
L 394.282464 280.418519 
L 394.923567 280.418519 
L 395.051788 123.472658 
L 395.180009 123.472658 
L 395.308229 213.170386 
L 396.205773 213.161999 
L 396.333994 78.632178 
L 396.462215 78.640565 
L 396.590435 168.355069 
L 397.039207 168.338295 
L 397.455924 168.338295 
L 398.321413 168.346682 
L 398.449634 190.762726 
L 398.898406 190.754339 
L 399.218957 190.754339 
L 399.347178 213.170386 
L 399.571564 213.161999 
L 399.603619 213.161999 
L 399.73184 145.913863 
L 399.86006 145.913863 
L 399.988281 168.346682 
L 400.372943 168.346682 
L 400.501163 190.762726 
L 400.949935 190.745953 
L 401.142266 190.762726 
L 401.270487 213.161999 
L 401.526928 213.161999 
L 401.655149 145.913863 
L 401.783369 145.913863 
L 401.879535 190.762726 
L 401.91159 190.754339 
L 402.328307 190.754339 
L 402.745024 190.754339 
L 403.193796 190.745953 
L 403.322016 213.161999 
L 403.578458 213.161999 
L 403.674623 145.913863 
L 403.706678 145.92225 
L 403.834899 145.913863 
L 403.963119 168.346682 
L 404.347781 168.338295 
L 404.476002 190.762726 
L 404.924774 190.754339 
L 405.469711 190.754339 
L 405.597932 347.683427 
L 405.726153 347.683427 
L 405.854373 280.410132 
L 406.303145 280.418519 
L 406.495476 280.410132 
L 406.623697 123.464271 
L 406.751917 123.472658 
L 406.880138 213.161999 
L 407.296855 213.161999 
L 407.777682 213.161999 
L 407.905903 78.632178 
L 408.034123 78.640565 
L 408.130289 168.346682 
L 408.162344 168.338295 
L 408.611116 168.346682 
L 409.893322 168.346682 
L 410.021542 190.754339 
L 410.790866 190.745953 
L 410.854976 213.170386 
L 410.919087 213.161999 
L 411.175528 213.161999 
L 411.239638 145.905475 
L 411.303748 145.92225 
L 411.431969 145.913863 
L 411.56019 168.346682 
L 411.944851 168.346682 
L 412.073072 190.754339 
L 412.714175 190.754339 
L 412.74623 213.170386 
L 412.842396 213.161999 
L 413.098837 213.161999 
L 413.130892 145.905475 
L 413.227057 145.913863 
L 413.355278 145.905475 
L 413.483498 190.754339 
L 413.932271 190.745953 
L 414.348988 190.754339 
L 414.765704 190.745953 
L 414.86187 213.161999 
L 414.893925 213.153611 
L 415.150366 213.161999 
L 415.246532 145.913863 
L 415.278587 145.92225 
L 415.406807 145.905475 
L 415.535028 168.338295 
L 415.91969 168.346682 
L 416.015855 190.762726 
L 416.04791 190.754339 
L 417.04162 190.754339 
L 417.169841 347.683427 
L 417.298061 347.683427 
L 417.394227 280.410132 
L 417.426282 280.418519 
L 418.067385 280.410132 
L 418.131495 123.464271 
L 418.195605 123.472658 
L 418.323826 123.472658 
L 418.452047 213.161999 
L 418.868763 213.161999 
L 419.349591 213.161999 
L 419.445756 78.640565 
L 419.477811 78.648952 
L 419.606032 78.640565 
L 419.702197 168.346682 
L 419.734252 168.338295 
L 420.150969 168.346682 
L 420.599741 168.338295 
L 421.016458 168.338295 
L 421.465231 168.346682 
L 421.593451 190.754339 
L 422.362775 190.754339 
L 422.39483 213.170386 
L 422.490995 213.153611 
L 422.747436 213.161999 
L 422.811547 145.905475 
L 422.875657 145.92225 
L 423.003878 145.913863 
L 423.132098 168.346682 
L 423.324429 168.338295 
L 423.51676 168.346682 
L 423.644981 190.762726 
L 424.061698 190.754339 
L 424.286084 190.754339 
L 424.414304 213.170386 
L 424.670745 213.153611 
L 424.798966 145.913863 
L 424.927187 145.92225 
L 425.055407 190.762726 
L 425.536234 190.745953 
L 425.985006 190.754339 
L 426.337613 190.754339 
L 426.433779 213.170386 
L 426.465834 213.153611 
L 426.69022 213.153611 
L 426.722275 213.153611 
L 426.850495 145.913863 
L 426.978716 145.905475 
L 427.106937 168.346682 
L 427.491598 168.346682 
L 427.619819 190.754339 
L 428.036536 190.754339 
L 428.613529 190.754339 
L 428.741749 347.683427 
L 428.86997 347.683427 
L 428.99819 280.418519 
L 429.414907 280.418519 
L 429.639293 280.418519 
L 429.735459 123.464271 
L 429.767514 123.472658 
L 429.895735 123.472658 
L 430.023955 213.170386 
L 430.921499 213.161999 
L 430.953555 78.632178 
L 431.04972 78.640565 
L 431.177941 78.640565 
L 431.306161 168.346682 
L 433.037139 168.338295 
L 433.069194 190.762726 
L 433.16536 190.754339 
L 433.934683 190.754339 
L 434.062904 213.161999 
L 434.319345 213.170386 
L 434.447566 145.913863 
L 434.575786 145.905475 
L 434.704007 168.346682 
L 435.088669 168.338295 
L 435.152779 190.762726 
L 435.216889 190.754339 
L 435.857992 190.754339 
L 435.890047 213.170386 
L 435.986213 213.161999 
L 436.242654 213.17877 
L 436.370875 145.913863 
L 436.499095 145.92225 
L 436.627316 190.754339 
L 437.909522 190.754339 
L 438.037742 213.170386 
L 438.294184 213.170386 
L 438.390349 145.905475 
L 438.422404 145.913863 
L 438.550625 145.913863 
L 438.678845 168.346682 
L 439.063507 168.338295 
L 439.191728 190.754339 
L 439.608445 190.754339 
L 440.185437 190.745953 
L 440.313658 347.683427 
L 440.441879 347.683427 
L 440.473934 280.410132 
L 440.570099 280.418519 
L 441.211202 280.418519 
L 441.339423 123.464271 
L 441.467643 123.472658 
L 441.531754 213.170386 
L 441.595864 213.161999 
L 442.012581 213.161999 
L 442.493408 213.161999 
L 442.621629 78.640565 
L 442.749849 78.648952 
L 442.846015 168.346682 
L 442.87807 168.338295 
L 443.326842 168.346682 
L 443.743559 168.338295 
L 444.192331 168.346682 
L 444.609048 168.338295 
L 444.737268 190.754339 
L 445.506592 190.754339 
L 445.602757 213.161999 
L 445.634813 213.153611 
L 445.891254 213.170386 
L 446.019474 145.913863 
L 446.147695 145.92225 
L 446.275916 168.346682 
L 446.660577 168.346682 
L 446.692632 190.762726 
L 446.788798 190.754339 
L 447.429901 190.754339 
L 447.558121 213.170386 
L 447.782508 213.161999 
L 447.814563 213.161999 
L 447.942783 145.913863 
L 448.071004 145.913863 
L 448.199224 190.754339 
L 449.48143 190.754339 
L 449.577596 213.170386 
L 449.609651 213.161999 
L 449.866092 213.161999 
L 449.962258 145.905475 
L 449.994313 145.913863 
L 450.122533 145.905475 
L 450.250754 168.346682 
L 450.603361 168.346682 
L 450.699526 190.754339 
L 450.731581 190.745953 
L 451.180353 190.754339 
L 451.757346 190.754339 
L 451.885567 347.683427 
L 452.013787 347.683427 
L 452.142008 280.418519 
L 452.783111 280.418519 
L 452.911331 123.472658 
L 453.039552 123.464271 
L 453.135717 213.170386 
L 453.167773 213.161999 
L 453.584489 213.170386 
L 454.033262 213.161999 
L 454.065317 213.161999 
L 454.193537 78.640565 
L 454.321758 78.640565 
L 454.449978 168.346682 
L 456.180956 168.346682 
L 456.309177 190.762726 
L 456.565618 190.745953 
L 457.01439 190.762726 
L 457.078501 190.745953 
L 457.142611 213.170386 
L 457.206721 213.161999 
L 457.463162 213.161999 
L 457.591383 145.913863 
L 457.719604 145.92225 
L 457.815769 168.355069 
L 457.847824 168.338295 
L 458.232486 168.338295 
L 458.360707 190.754339 
L 459.00181 190.745953 
L 459.13003 213.161999 
L 459.386471 213.161999 
L 459.514692 145.913863 
L 459.642913 145.905475 
L 459.771133 190.754339 
L 461.053339 190.754339 
L 461.18156 213.161999 
L 461.438001 213.161999 
L 461.566221 145.913863 
L 461.694442 145.913863 
L 461.822663 168.346682 
L 462.175269 168.338295 
L 462.23938 190.762726 
L 462.30349 190.754339 
L 462.752262 190.762726 
L 463.201034 190.754339 
L 463.329255 190.754339 
L 463.42542 347.683427 
L 463.457475 347.67504 
L 463.585696 347.683427 
L 463.681861 280.410132 
L 463.713916 280.418519 
L 464.355019 280.418519 
L 464.41913 123.464271 
L 464.48324 123.472658 
L 464.611461 123.472658 
L 464.739681 213.161999 
L 465.637225 213.161999 
L 465.765446 78.640565 
L 465.893667 78.648952 
L 465.989832 168.346682 
L 466.021887 168.338295 
L 466.438604 168.346682 
L 466.855321 168.338295 
L 467.336148 168.355069 
L 467.752865 168.346682 
L 467.78492 190.762726 
L 467.881086 190.754339 
L 468.650409 190.754339 
L 468.77863 213.170386 
L 469.035071 213.161999 
L 469.131237 145.913863 
L 469.163292 145.92225 
L 469.291512 145.913863 
L 469.419733 168.346682 
L 469.804395 168.338295 
L 469.932615 190.762726 
L 470.157001 190.754339 
L 470.573718 190.762726 
L 470.701939 213.161999 
L 470.95838 213.161999 
L 471.054545 145.905475 
L 471.086601 145.913863 
L 471.214821 145.913863 
L 471.343042 190.754339 
L 472.625248 190.754339 
L 472.689358 213.170386 
L 472.753468 213.161999 
L 473.00991 213.161999 
L 473.13813 145.913863 
L 473.266351 145.913863 
L 473.394571 168.346682 
L 473.779233 168.346682 
L 473.907454 190.754339 
L 474.901163 190.754339 
L 474.997329 347.691814 
L 475.029384 347.683427 
L 475.157604 347.691814 
L 475.221715 280.410132 
L 475.285825 280.418519 
L 475.702542 280.418519 
L 475.926928 280.418519 
L 476.055149 123.464271 
L 476.183369 123.464271 
L 476.31159 213.161999 
L 477.209134 213.161999 
L 477.305299 78.632178 
L 477.337355 78.640565 
L 477.465575 78.640565 
L 477.593796 168.346682 
L 479.324774 168.346682 
L 479.452994 190.754339 
L 480.254373 190.754339 
L 480.350539 213.170386 
L 480.382594 213.161999 
L 480.60698 213.161999 
L 480.7352 145.913863 
L 480.863421 145.913863 
L 480.959586 168.346682 
L 480.991642 168.338295 
L 481.376303 168.346682 
L 481.504524 190.762726 
L 481.953296 190.754339 
L 482.145627 190.754339 
L 482.273847 213.170386 
L 482.530289 213.161999 
L 482.594399 145.913863 
L 482.658509 145.92225 
L 482.78673 145.905475 
L 482.882895 190.762726 
L 482.91495 190.754339 
L 483.331667 190.762726 
L 483.780439 190.754339 
L 484.197156 190.754339 
L 484.261267 213.170386 
L 484.325377 213.161999 
L 484.581818 213.161999 
L 484.710039 145.913863 
L 484.838259 145.913863 
L 484.934425 168.346682 
L 484.96648 168.338295 
L 485.351142 168.338295 
L 485.479362 190.754339 
L 486.473072 190.754339 
L 486.569237 347.691814 
L 486.601293 347.683427 
L 486.729513 347.683427 
L 486.761568 280.410132 
L 486.857734 280.418519 
L 487.274451 280.418519 
L 487.498837 280.418519 
L 487.627057 123.464271 
L 487.755278 123.472658 
L 487.851443 213.161999 
L 487.883498 213.153611 
L 488.332271 213.161999 
L 488.781043 213.153611 
L 488.909263 78.640565 
L 489.037484 78.640565 
L 489.133649 168.346682 
L 489.165704 168.338295 
L 490.896682 168.338295 
L 491.024903 190.754339 
L 491.44162 190.754339 
L 491.794227 190.754339 
L 491.922447 213.161999 
L 492.178888 213.161999 
L 492.275054 145.905475 
L 492.307109 145.913863 
L 492.43533 145.913863 
L 492.467385 168.346682 
L 492.56355 168.338295 
L 492.948212 168.338295 
L 493.076433 190.754339 
L 493.49315 190.754339 
L 493.717536 190.745953 
L 493.813701 213.170386 
L 493.845756 213.161999 
L 494.102197 213.153611 
L 494.198363 145.905475 
L 494.230418 145.913863 
L 494.358639 145.905475 
L 494.390694 190.762726 
L 494.486859 190.754339 
L 495.769065 190.754339 
L 495.865231 213.170386 
L 495.897286 213.161999 
L 496.153727 213.161999 
L 496.281947 145.913863 
L 496.410168 145.905475 
L 496.506333 168.346682 
L 496.538389 168.338295 
L 496.92305 168.338295 
L 497.051271 190.762726 
L 498.044981 190.762726 
L 498.109091 347.683427 
L 498.109091 347.683427 
" clip-path="url(#p6a3aaed5c4)" style="fill: none; stroke: #1f77b4; stroke-width: 1.5; stroke-linecap: square"/>
   </g>
   <g id="line2d_16">
    <path d="M 278.210771 359.362286 
L 278.210771 70.477714 
" clip-path="url(#p6a3aaed5c4)" style="fill: none; stroke: #000000; stroke-width: 1.5; stroke-linecap: square"/>
   </g>
   <g id="line2d_17">
    <path d="M 289.9109 359.362286 
L 289.9109 70.477714 
" clip-path="url(#p6a3aaed5c4)" style="fill: none; stroke: #000000; stroke-width: 1.5; stroke-linecap: square"/>
   </g>
   <g id="line2d_18">
    <path d="M 278.210771 70.477714 
L 289.9109 70.477714 
" clip-path="url(#p6a3aaed5c4)" style="fill: none; stroke: #000000; stroke-width: 1.5; stroke-linecap: square"/>
   </g>
   <g id="line2d_19">
    <path d="M 278.210771 359.362286 
L 289.9109 359.362286 
" clip-path="url(#p6a3aaed5c4)" style="fill: none; stroke: #000000; stroke-width: 1.5; stroke-linecap: square"/>
   </g>
   <g id="line2d_20">
    <path d="M 278.210771 75.137143 
L 289.9109 75.137143 
" clip-path="url(#p6a3aaed5c4)" style="fill: none; stroke-dasharray: 2.96,1.28; stroke-dashoffset: 0; stroke: #808080; stroke-width: 0.8"/>
   </g>
   <g id="line2d_21">
    <path d="M 278.210771 121.731429 
L 289.9109 121.731429 
" clip-path="url(#p6a3aaed5c4)" style="fill: none; stroke-dasharray: 2.96,1.28; stroke-dashoffset: 0; stroke: #808080; stroke-width: 0.8"/>
   </g>
   <g id="line2d_22">
    <path d="M 278.210771 168.325714 
L 289.9109 168.325714 
" clip-path="url(#p6a3aaed5c4)" style="fill: none; stroke-dasharray: 2.96,1.28; stroke-dashoffset: 0; stroke: #808080; stroke-width: 0.8"/>
   </g>
   <g id="line2d_23">
    <path d="M 278.210771 214.92 
L 289.9109 214.92 
" clip-path="url(#p6a3aaed5c4)" style="fill: none; stroke-dasharray: 2.96,1.28; stroke-dashoffset: 0; stroke: #808080; stroke-width: 0.8"/>
   </g>
   <g id="line2d_24">
    <path d="M 278.210771 261.514286 
L 289.9109 261.514286 
" clip-path="url(#p6a3aaed5c4)" style="fill: none; stroke-dasharray: 2.96,1.28; stroke-dashoffset: 0; stroke: #808080; stroke-width: 0.8"/>
   </g>
   <g id="line2d_25">
    <path d="M 278.210771 308.108571 
L 289.9109 308.108571 
" clip-path="url(#p6a3aaed5c4)" style="fill: none; stroke-dasharray: 2.96,1.28; stroke-dashoffset: 0; stroke: #808080; stroke-width: 0.8"/>
   </g>
   <g id="line2d_26">
    <path d="M 278.210771 354.702857 
L 289.9109 354.702857 
" clip-path="url(#p6a3aaed5c4)" style="fill: none; stroke-dasharray: 2.96,1.28; stroke-dashoffset: 0; stroke: #808080; stroke-width: 0.8"/>
   </g>
   <g id="patch_3">
    <path d="M 72 378 
L 72 51.84 
" style="fill: none; stroke: #000000; stroke-width: 0.8; stroke-linejoin: miter; stroke-linecap: square"/>
   </g>
   <g id="patch_4">
    <path d="M 518.4 378 
L 518.4 51.84 
" style="fill: none; stroke: #000000; stroke-width: 0.8; stroke-linejoin: miter; stroke-linecap: square"/>
   </g>
   <g id="patch_5">
    <path d="M 72 378 
L 518.4 378 
" style="fill: none; stroke: #000000; stroke-width: 0.8; stroke-linejoin: miter; stroke-linecap: square"/>
   </g>
   <g id="patch_6">
    <path d="M 72 51.84 
L 518.4 51.84 
" style="fill: none; stroke: #000000; stroke-width: 0.8; stroke-linejoin: miter; stroke-linecap: square"/>
   </g>
   <g id="text_17">
    <!-- Interpolated current of a single cycle DST profile sampled at 1Hz -->
    <g transform="translate(100.823437 45.84)scale(0.12 -0.12)">
     <defs>
      <path id="DejaVuSans-49" d="M 628 4666 
L 1259 4666 
L 1259 0 
L 628 0 
L 628 4666 
z
" transform="scale(0.015625)"/>
      <path id="DejaVuSans-70" d="M 1159 525 
L 1159 -1331 
L 581 -1331 
L 581 3500 
L 1159 3500 
L 1159 2969 
Q 1341 3281 1617 3432 
Q 1894 3584 2278 3584 
Q 2916 3584 3314 3078 
Q 3713 2572 3713 1747 
Q 3713 922 3314 415 
Q 2916 -91 2278 -91 
Q 1894 -91 1617 61 
Q 1341 213 1159 525 
z
M 3116 1747 
Q 3116 2381 2855 2742 
Q 2594 3103 2138 3103 
Q 1681 3103 1420 2742 
Q 1159 2381 1159 1747 
Q 1159 1113 1420 752 
Q 1681 391 2138 391 
Q 2594 391 2855 752 
Q 3116 1113 3116 1747 
z
" transform="scale(0.015625)"/>
      <path id="DejaVuSans-6f" d="M 1959 3097 
Q 1497 3097 1228 2736 
Q 959 2375 959 1747 
Q 959 1119 1226 758 
Q 1494 397 1959 397 
Q 2419 397 2687 759 
Q 2956 1122 2956 1747 
Q 2956 2369 2687 2733 
Q 2419 3097 1959 3097 
z
M 1959 3584 
Q 2709 3584 3137 3096 
Q 3566 2609 3566 1747 
Q 3566 888 3137 398 
Q 2709 -91 1959 -91 
Q 1206 -91 779 398 
Q 353 888 353 1747 
Q 353 2609 779 3096 
Q 1206 3584 1959 3584 
z
" transform="scale(0.015625)"/>
      <path id="DejaVuSans-6c" d="M 603 4863 
L 1178 4863 
L 1178 0 
L 603 0 
L 603 4863 
z
" transform="scale(0.015625)"/>
      <path id="DejaVuSans-61" d="M 2194 1759 
Q 1497 1759 1228 1600 
Q 959 1441 959 1056 
Q 959 750 1161 570 
Q 1363 391 1709 391 
Q 2188 391 2477 730 
Q 2766 1069 2766 1631 
L 2766 1759 
L 2194 1759 
z
M 3341 1997 
L 3341 0 
L 2766 0 
L 2766 531 
Q 2569 213 2275 61 
Q 1981 -91 1556 -91 
Q 1019 -91 701 211 
Q 384 513 384 1019 
Q 384 1609 779 1909 
Q 1175 2209 1959 2209 
L 2766 2209 
L 2766 2266 
Q 2766 2663 2505 2880 
Q 2244 3097 1772 3097 
Q 1472 3097 1187 3025 
Q 903 2953 641 2809 
L 641 3341 
Q 956 3463 1253 3523 
Q 1550 3584 1831 3584 
Q 2591 3584 2966 3190 
Q 3341 2797 3341 1997 
z
" transform="scale(0.015625)"/>
      <path id="DejaVuSans-64" d="M 2906 2969 
L 2906 4863 
L 3481 4863 
L 3481 0 
L 2906 0 
L 2906 525 
Q 2725 213 2448 61 
Q 2172 -91 1784 -91 
Q 1150 -91 751 415 
Q 353 922 353 1747 
Q 353 2572 751 3078 
Q 1150 3584 1784 3584 
Q 2172 3584 2448 3432 
Q 2725 3281 2906 2969 
z
M 947 1747 
Q 947 1113 1208 752 
Q 1469 391 1925 391 
Q 2381 391 2643 752 
Q 2906 1113 2906 1747 
Q 2906 2381 2643 2742 
Q 2381 3103 1925 3103 
Q 1469 3103 1208 2742 
Q 947 2381 947 1747 
z
" transform="scale(0.015625)"/>
      <path id="DejaVuSans-20" transform="scale(0.015625)"/>
      <path id="DejaVuSans-63" d="M 3122 3366 
L 3122 2828 
Q 2878 2963 2633 3030 
Q 2388 3097 2138 3097 
Q 1578 3097 1268 2742 
Q 959 2388 959 1747 
Q 959 1106 1268 751 
Q 1578 397 2138 397 
Q 2388 397 2633 464 
Q 2878 531 3122 666 
L 3122 134 
Q 2881 22 2623 -34 
Q 2366 -91 2075 -91 
Q 1284 -91 818 406 
Q 353 903 353 1747 
Q 353 2603 823 3093 
Q 1294 3584 2113 3584 
Q 2378 3584 2631 3529 
Q 2884 3475 3122 3366 
z
" transform="scale(0.015625)"/>
      <path id="DejaVuSans-66" d="M 2375 4863 
L 2375 4384 
L 1825 4384 
Q 1516 4384 1395 4259 
Q 1275 4134 1275 3809 
L 1275 3500 
L 2222 3500 
L 2222 3053 
L 1275 3053 
L 1275 0 
L 697 0 
L 697 3053 
L 147 3053 
L 147 3500 
L 697 3500 
L 697 3744 
Q 697 4328 969 4595 
Q 1241 4863 1831 4863 
L 2375 4863 
z
" transform="scale(0.015625)"/>
      <path id="DejaVuSans-67" d="M 2906 1791 
Q 2906 2416 2648 2759 
Q 2391 3103 1925 3103 
Q 1463 3103 1205 2759 
Q 947 2416 947 1791 
Q 947 1169 1205 825 
Q 1463 481 1925 481 
Q 2391 481 2648 825 
Q 2906 1169 2906 1791 
z
M 3481 434 
Q 3481 -459 3084 -895 
Q 2688 -1331 1869 -1331 
Q 1566 -1331 1297 -1286 
Q 1028 -1241 775 -1147 
L 775 -588 
Q 1028 -725 1275 -790 
Q 1522 -856 1778 -856 
Q 2344 -856 2625 -561 
Q 2906 -266 2906 331 
L 2906 616 
Q 2728 306 2450 153 
Q 2172 0 1784 0 
Q 1141 0 747 490 
Q 353 981 353 1791 
Q 353 2603 747 3093 
Q 1141 3584 1784 3584 
Q 2172 3584 2450 3431 
Q 2728 3278 2906 2969 
L 2906 3500 
L 3481 3500 
L 3481 434 
z
" transform="scale(0.015625)"/>
      <path id="DejaVuSans-79" d="M 2059 -325 
Q 1816 -950 1584 -1140 
Q 1353 -1331 966 -1331 
L 506 -1331 
L 506 -850 
L 844 -850 
Q 1081 -850 1212 -737 
Q 1344 -625 1503 -206 
L 1606 56 
L 191 3500 
L 800 3500 
L 1894 763 
L 2988 3500 
L 3597 3500 
L 2059 -325 
z
" transform="scale(0.015625)"/>
      <path id="DejaVuSans-44" d="M 1259 4147 
L 1259 519 
L 2022 519 
Q 2988 519 3436 956 
Q 3884 1394 3884 2338 
Q 3884 3275 3436 3711 
Q 2988 4147 2022 4147 
L 1259 4147 
z
M 628 4666 
L 1925 4666 
Q 3281 4666 3915 4102 
Q 4550 3538 4550 2338 
Q 4550 1131 3912 565 
Q 3275 0 1925 0 
L 628 0 
L 628 4666 
z
" transform="scale(0.015625)"/>
      <path id="DejaVuSans-53" d="M 3425 4513 
L 3425 3897 
Q 3066 4069 2747 4153 
Q 2428 4238 2131 4238 
Q 1616 4238 1336 4038 
Q 1056 3838 1056 3469 
Q 1056 3159 1242 3001 
Q 1428 2844 1947 2747 
L 2328 2669 
Q 3034 2534 3370 2195 
Q 3706 1856 3706 1288 
Q 3706 609 3251 259 
Q 2797 -91 1919 -91 
Q 1588 -91 1214 -16 
Q 841 59 441 206 
L 441 856 
Q 825 641 1194 531 
Q 1563 422 1919 422 
Q 2459 422 2753 634 
Q 3047 847 3047 1241 
Q 3047 1584 2836 1778 
Q 2625 1972 2144 2069 
L 1759 2144 
Q 1053 2284 737 2584 
Q 422 2884 422 3419 
Q 422 4038 858 4394 
Q 1294 4750 2059 4750 
Q 2388 4750 2728 4690 
Q 3069 4631 3425 4513 
z
" transform="scale(0.015625)"/>
      <path id="DejaVuSans-54" d="M -19 4666 
L 3928 4666 
L 3928 4134 
L 2272 4134 
L 2272 0 
L 1638 0 
L 1638 4134 
L -19 4134 
L -19 4666 
z
" transform="scale(0.015625)"/>
      <path id="DejaVuSans-48" d="M 628 4666 
L 1259 4666 
L 1259 2753 
L 3553 2753 
L 3553 4666 
L 4184 4666 
L 4184 0 
L 3553 0 
L 3553 2222 
L 1259 2222 
L 1259 0 
L 628 0 
L 628 4666 
z
" transform="scale(0.015625)"/>
      <path id="DejaVuSans-7a" d="M 353 3500 
L 3084 3500 
L 3084 2975 
L 922 459 
L 3084 459 
L 3084 0 
L 275 0 
L 275 525 
L 2438 3041 
L 353 3041 
L 353 3500 
z
" transform="scale(0.015625)"/>
     </defs>
     <use xlink:href="#DejaVuSans-49"/>
     <use xlink:href="#DejaVuSans-6e" x="29.492188"/>
     <use xlink:href="#DejaVuSans-74" x="92.871094"/>
     <use xlink:href="#DejaVuSans-65" x="132.080078"/>
     <use xlink:href="#DejaVuSans-72" x="193.603516"/>
     <use xlink:href="#DejaVuSans-70" x="234.716797"/>
     <use xlink:href="#DejaVuSans-6f" x="298.193359"/>
     <use xlink:href="#DejaVuSans-6c" x="359.375"/>
     <use xlink:href="#DejaVuSans-61" x="387.158203"/>
     <use xlink:href="#DejaVuSans-74" x="448.4375"/>
     <use xlink:href="#DejaVuSans-65" x="487.646484"/>
     <use xlink:href="#DejaVuSans-64" x="549.169922"/>
     <use xlink:href="#DejaVuSans-20" x="612.646484"/>
     <use xlink:href="#DejaVuSans-63" x="644.433594"/>
     <use xlink:href="#DejaVuSans-75" x="699.414062"/>
     <use xlink:href="#DejaVuSans-72" x="762.792969"/>
     <use xlink:href="#DejaVuSans-72" x="802.15625"/>
     <use xlink:href="#DejaVuSans-65" x="841.019531"/>
     <use xlink:href="#DejaVuSans-6e" x="902.542969"/>
     <use xlink:href="#DejaVuSans-74" x="965.921875"/>
     <use xlink:href="#DejaVuSans-20" x="1005.130859"/>
     <use xlink:href="#DejaVuSans-6f" x="1036.917969"/>
     <use xlink:href="#DejaVuSans-66" x="1098.099609"/>
     <use xlink:href="#DejaVuSans-20" x="1133.304688"/>
     <use xlink:href="#DejaVuSans-61" x="1165.091797"/>
     <use xlink:href="#DejaVuSans-20" x="1226.371094"/>
     <use xlink:href="#DejaVuSans-73" x="1258.158203"/>
     <use xlink:href="#DejaVuSans-69" x="1310.257812"/>
     <use xlink:href="#DejaVuSans-6e" x="1338.041016"/>
     <use xlink:href="#DejaVuSans-67" x="1401.419922"/>
     <use xlink:href="#DejaVuSans-6c" x="1464.896484"/>
     <use xlink:href="#DejaVuSans-65" x="1492.679688"/>
     <use xlink:href="#DejaVuSans-20" x="1554.203125"/>
     <use xlink:href="#DejaVuSans-63" x="1585.990234"/>
     <use xlink:href="#DejaVuSans-79" x="1640.970703"/>
     <use xlink:href="#DejaVuSans-63" x="1700.150391"/>
     <use xlink:href="#DejaVuSans-6c" x="1755.130859"/>
     <use xlink:href="#DejaVuSans-65" x="1782.914062"/>
     <use xlink:href="#DejaVuSans-20" x="1844.4375"/>
     <use xlink:href="#DejaVuSans-44" x="1876.224609"/>
     <use xlink:href="#DejaVuSans-53" x="1953.226562"/>
     <use xlink:href="#DejaVuSans-54" x="2016.703125"/>
     <use xlink:href="#DejaVuSans-20" x="2077.787109"/>
     <use xlink:href="#DejaVuSans-70" x="2109.574219"/>
     <use xlink:href="#DejaVuSans-72" x="2173.050781"/>
     <use xlink:href="#DejaVuSans-6f" x="2211.914062"/>
     <use xlink:href="#DejaVuSans-66" x="2273.095703"/>
     <use xlink:href="#DejaVuSans-69" x="2308.300781"/>
     <use xlink:href="#DejaVuSans-6c" x="2336.083984"/>
     <use xlink:href="#DejaVuSans-65" x="2363.867188"/>
     <use xlink:href="#DejaVuSans-20" x="2425.390625"/>
     <use xlink:href="#DejaVuSans-73" x="2457.177734"/>
     <use xlink:href="#DejaVuSans-61" x="2509.277344"/>
     <use xlink:href="#DejaVuSans-6d" x="2570.556641"/>
     <use xlink:href="#DejaVuSans-70" x="2667.96875"/>
     <use xlink:href="#DejaVuSans-6c" x="2731.445312"/>
     <use xlink:href="#DejaVuSans-65" x="2759.228516"/>
     <use xlink:href="#DejaVuSans-64" x="2820.751953"/>
     <use xlink:href="#DejaVuSans-20" x="2884.228516"/>
     <use xlink:href="#DejaVuSans-61" x="2916.015625"/>
     <use xlink:href="#DejaVuSans-74" x="2977.294922"/>
     <use xlink:href="#DejaVuSans-20" x="3016.503906"/>
     <use xlink:href="#DejaVuSans-31" x="3048.291016"/>
     <use xlink:href="#DejaVuSans-48" x="3111.914062"/>
     <use xlink:href="#DejaVuSans-7a" x="3187.109375"/>
    </g>
   </g>
  </g>
  <g id="axes_2">
   <g id="patch_7">
    <path d="M 103.68 345.6 
L 247.68 345.6 
L 247.68 194.4 
L 103.68 194.4 
L 103.68 345.6 
z
" style="fill: none"/>
   </g>
   <g id="matplotlib.axis_3">
    <g id="xtick_8">
     <g id="line2d_27">
      <g>
       <use xlink:href="#ma98bb82266" x="110.225455" y="345.6" style="stroke: #000000; stroke-width: 0.8"/>
      </g>
     </g>
     <g id="text_18">
      <!-- 5800 -->
      <g transform="translate(97.500455 360.198438)scale(0.1 -0.1)">
       <defs>
        <path id="DejaVuSans-35" d="M 691 4666 
L 3169 4666 
L 3169 4134 
L 1269 4134 
L 1269 2991 
Q 1406 3038 1543 3061 
Q 1681 3084 1819 3084 
Q 2600 3084 3056 2656 
Q 3513 2228 3513 1497 
Q 3513 744 3044 326 
Q 2575 -91 1722 -91 
Q 1428 -91 1123 -41 
Q 819 9 494 109 
L 494 744 
Q 775 591 1075 516 
Q 1375 441 1709 441 
Q 2250 441 2565 725 
Q 2881 1009 2881 1497 
Q 2881 1984 2565 2268 
Q 2250 2553 1709 2553 
Q 1456 2553 1204 2497 
Q 953 2441 691 2322 
L 691 4666 
z
" transform="scale(0.015625)"/>
       </defs>
       <use xlink:href="#DejaVuSans-35"/>
       <use xlink:href="#DejaVuSans-38" x="63.623047"/>
       <use xlink:href="#DejaVuSans-30" x="127.246094"/>
       <use xlink:href="#DejaVuSans-30" x="190.869141"/>
      </g>
     </g>
    </g>
    <g id="xtick_9">
     <g id="line2d_28">
      <g>
       <use xlink:href="#ma98bb82266" x="138.996683" y="345.6" style="stroke: #000000; stroke-width: 0.8"/>
      </g>
     </g>
     <g id="text_19">
      <!-- 5880 -->
      <g transform="translate(126.271683 360.198438)scale(0.1 -0.1)">
       <use xlink:href="#DejaVuSans-35"/>
       <use xlink:href="#DejaVuSans-38" x="63.623047"/>
       <use xlink:href="#DejaVuSans-38" x="127.246094"/>
       <use xlink:href="#DejaVuSans-30" x="190.869141"/>
      </g>
     </g>
    </g>
    <g id="xtick_10">
     <g id="line2d_29">
      <g>
       <use xlink:href="#ma98bb82266" x="167.767912" y="345.6" style="stroke: #000000; stroke-width: 0.8"/>
      </g>
     </g>
     <g id="text_20">
      <!-- 5960 -->
      <g transform="translate(155.042912 360.198438)scale(0.1 -0.1)">
       <defs>
        <path id="DejaVuSans-39" d="M 703 97 
L 703 672 
Q 941 559 1184 500 
Q 1428 441 1663 441 
Q 2288 441 2617 861 
Q 2947 1281 2994 2138 
Q 2813 1869 2534 1725 
Q 2256 1581 1919 1581 
Q 1219 1581 811 2004 
Q 403 2428 403 3163 
Q 403 3881 828 4315 
Q 1253 4750 1959 4750 
Q 2769 4750 3195 4129 
Q 3622 3509 3622 2328 
Q 3622 1225 3098 567 
Q 2575 -91 1691 -91 
Q 1453 -91 1209 -44 
Q 966 3 703 97 
z
M 1959 2075 
Q 2384 2075 2632 2365 
Q 2881 2656 2881 3163 
Q 2881 3666 2632 3958 
Q 2384 4250 1959 4250 
Q 1534 4250 1286 3958 
Q 1038 3666 1038 3163 
Q 1038 2656 1286 2365 
Q 1534 2075 1959 2075 
z
" transform="scale(0.015625)"/>
       </defs>
       <use xlink:href="#DejaVuSans-35"/>
       <use xlink:href="#DejaVuSans-39" x="63.623047"/>
       <use xlink:href="#DejaVuSans-36" x="127.246094"/>
       <use xlink:href="#DejaVuSans-30" x="190.869141"/>
      </g>
     </g>
    </g>
    <g id="xtick_11">
     <g id="line2d_30">
      <g>
       <use xlink:href="#ma98bb82266" x="196.539141" y="345.6" style="stroke: #000000; stroke-width: 0.8"/>
      </g>
     </g>
     <g id="text_21">
      <!-- 6040 -->
      <g transform="translate(183.814141 360.198438)scale(0.1 -0.1)">
       <use xlink:href="#DejaVuSans-36"/>
       <use xlink:href="#DejaVuSans-30" x="63.623047"/>
       <use xlink:href="#DejaVuSans-34" x="127.246094"/>
       <use xlink:href="#DejaVuSans-30" x="190.869141"/>
      </g>
     </g>
    </g>
    <g id="xtick_12">
     <g id="line2d_31">
      <g>
       <use xlink:href="#ma98bb82266" x="225.31037" y="345.6" style="stroke: #000000; stroke-width: 0.8"/>
      </g>
     </g>
     <g id="text_22">
      <!-- 6120 -->
      <g transform="translate(212.58537 360.198438)scale(0.1 -0.1)">
       <use xlink:href="#DejaVuSans-36"/>
       <use xlink:href="#DejaVuSans-31" x="63.623047"/>
       <use xlink:href="#DejaVuSans-32" x="127.246094"/>
       <use xlink:href="#DejaVuSans-30" x="190.869141"/>
      </g>
     </g>
    </g>
   </g>
   <g id="matplotlib.axis_4">
    <g id="ytick_8">
     <g id="line2d_32">
      <path d="M 103.68 340.875 
L 247.68 340.875 
" clip-path="url(#p953a3990ab)" style="fill: none; stroke-dasharray: 2.96,1.28; stroke-dashoffset: 0; stroke: #808080; stroke-width: 0.8"/>
     </g>
     <g id="line2d_33">
      <g>
       <use xlink:href="#mf60d962a97" x="103.68" y="340.875" style="stroke: #000000; stroke-width: 0.8"/>
      </g>
     </g>
     <g id="text_23">
      <!-- −4 -->
      <g transform="translate(81.937812 344.674219)scale(0.1 -0.1)">
       <use xlink:href="#DejaVuSans-2212"/>
       <use xlink:href="#DejaVuSans-34" x="83.789062"/>
      </g>
     </g>
    </g>
    <g id="ytick_9">
     <g id="line2d_34">
      <path d="M 103.68 317.25 
L 247.68 317.25 
" clip-path="url(#p953a3990ab)" style="fill: none; stroke-dasharray: 2.96,1.28; stroke-dashoffset: 0; stroke: #808080; stroke-width: 0.8"/>
     </g>
     <g id="line2d_35">
      <g>
       <use xlink:href="#mf60d962a97" x="103.68" y="317.25" style="stroke: #000000; stroke-width: 0.8"/>
      </g>
     </g>
     <g id="text_24">
      <!-- −3 -->
      <g transform="translate(81.937812 321.049219)scale(0.1 -0.1)">
       <use xlink:href="#DejaVuSans-2212"/>
       <use xlink:href="#DejaVuSans-33" x="83.789062"/>
      </g>
     </g>
    </g>
    <g id="ytick_10">
     <g id="line2d_36">
      <path d="M 103.68 293.625 
L 247.68 293.625 
" clip-path="url(#p953a3990ab)" style="fill: none; stroke-dasharray: 2.96,1.28; stroke-dashoffset: 0; stroke: #808080; stroke-width: 0.8"/>
     </g>
     <g id="line2d_37">
      <g>
       <use xlink:href="#mf60d962a97" x="103.68" y="293.625" style="stroke: #000000; stroke-width: 0.8"/>
      </g>
     </g>
     <g id="text_25">
      <!-- −2 -->
      <g transform="translate(81.937812 297.424219)scale(0.1 -0.1)">
       <use xlink:href="#DejaVuSans-2212"/>
       <use xlink:href="#DejaVuSans-32" x="83.789062"/>
      </g>
     </g>
    </g>
    <g id="ytick_11">
     <g id="line2d_38">
      <path d="M 103.68 270 
L 247.68 270 
" clip-path="url(#p953a3990ab)" style="fill: none; stroke-dasharray: 2.96,1.28; stroke-dashoffset: 0; stroke: #808080; stroke-width: 0.8"/>
     </g>
     <g id="line2d_39">
      <g>
       <use xlink:href="#mf60d962a97" x="103.68" y="270" style="stroke: #000000; stroke-width: 0.8"/>
      </g>
     </g>
     <g id="text_26">
      <!-- −1 -->
      <g transform="translate(81.937812 273.799219)scale(0.1 -0.1)">
       <use xlink:href="#DejaVuSans-2212"/>
       <use xlink:href="#DejaVuSans-31" x="83.789062"/>
      </g>
     </g>
    </g>
    <g id="ytick_12">
     <g id="line2d_40">
      <path d="M 103.68 246.375 
L 247.68 246.375 
" clip-path="url(#p953a3990ab)" style="fill: none; stroke-dasharray: 2.96,1.28; stroke-dashoffset: 0; stroke: #808080; stroke-width: 0.8"/>
     </g>
     <g id="line2d_41">
      <g>
       <use xlink:href="#mf60d962a97" x="103.68" y="246.375" style="stroke: #000000; stroke-width: 0.8"/>
      </g>
     </g>
     <g id="text_27">
      <!-- 0 -->
      <g transform="translate(90.3175 250.174219)scale(0.1 -0.1)">
       <use xlink:href="#DejaVuSans-30"/>
      </g>
     </g>
    </g>
    <g id="ytick_13">
     <g id="line2d_42">
      <path d="M 103.68 222.75 
L 247.68 222.75 
" clip-path="url(#p953a3990ab)" style="fill: none; stroke-dasharray: 2.96,1.28; stroke-dashoffset: 0; stroke: #808080; stroke-width: 0.8"/>
     </g>
     <g id="line2d_43">
      <g>
       <use xlink:href="#mf60d962a97" x="103.68" y="222.75" style="stroke: #000000; stroke-width: 0.8"/>
      </g>
     </g>
     <g id="text_28">
      <!-- 1 -->
      <g transform="translate(90.3175 226.549219)scale(0.1 -0.1)">
       <use xlink:href="#DejaVuSans-31"/>
      </g>
     </g>
    </g>
    <g id="ytick_14">
     <g id="line2d_44">
      <path d="M 103.68 199.125 
L 247.68 199.125 
" clip-path="url(#p953a3990ab)" style="fill: none; stroke-dasharray: 2.96,1.28; stroke-dashoffset: 0; stroke: #808080; stroke-width: 0.8"/>
     </g>
     <g id="line2d_45">
      <g>
       <use xlink:href="#mf60d962a97" x="103.68" y="199.125" style="stroke: #000000; stroke-width: 0.8"/>
      </g>
     </g>
     <g id="text_29">
      <!-- 2 -->
      <g transform="translate(90.3175 202.924219)scale(0.1 -0.1)">
       <use xlink:href="#DejaVuSans-32"/>
      </g>
     </g>
    </g>
   </g>
   <g id="line2d_46">
    <path d="M 110.225455 337.315893 
L 112.742937 337.315893 
L 113.102577 303.205882 
L 121.374306 303.210135 
L 121.733946 223.632867 
L 124.251429 223.637118 
L 124.611069 269.108629 
L 135.75992 269.108629 
L 136.11956 200.901363 
L 138.637043 200.901363 
L 138.996683 246.381379 
L 148.347333 246.385631 
L 157.697982 246.385631 
L 159.496184 246.385631 
L 159.855824 257.74713 
L 169.566114 257.751382 
L 169.925754 269.112882 
L 173.881798 269.112882 
L 174.241439 235.011375 
L 176.758921 235.011375 
L 177.118561 246.385631 
L 182.513167 246.381379 
L 182.872807 257.751382 
L 191.144535 257.751382 
L 191.504176 269.112882 
L 195.46022 269.112882 
L 195.81986 235.011375 
L 198.337343 235.015627 
L 198.696983 257.751382 
L 208.766913 257.742878 
L 214.161518 257.751382 
L 214.521159 269.108629 
L 218.477203 269.108629 
L 218.836843 235.007122 
L 221.354326 235.015627 
L 221.713966 246.385631 
L 227.108571 246.381379 
L 227.468212 257.74713 
L 239.695984 257.74713 
L 240.055624 337.315893 
L 241.134545 337.320146 
L 241.134545 337.320146 
" clip-path="url(#p953a3990ab)" style="fill: none; stroke: #1f77b4; stroke-width: 1.5; stroke-linecap: square"/>
   </g>
   <g id="patch_8">
    <path d="M 103.68 345.6 
L 103.68 194.4 
" style="fill: none; stroke: #000000; stroke-width: 0.8; stroke-linejoin: miter; stroke-linecap: square"/>
   </g>
   <g id="patch_9">
    <path d="M 247.68 345.6 
L 247.68 194.4 
" style="fill: none; stroke: #000000; stroke-width: 0.8; stroke-linejoin: miter; stroke-linecap: square"/>
   </g>
   <g id="patch_10">
    <path d="M 103.68 345.6 
L 247.68 345.6 
" style="fill: none; stroke: #000000; stroke-width: 0.8; stroke-linejoin: miter; stroke-linecap: square"/>
   </g>
   <g id="patch_11">
    <path d="M 103.68 194.4 
L 247.68 194.4 
" style="fill: none; stroke: #000000; stroke-width: 0.8; stroke-linejoin: miter; stroke-linecap: square"/>
   </g>
   <g id="text_30">
    <!-- Repeated subcycle - 365s -->
    <g transform="translate(98.349375 188.4)scale(0.12 -0.12)">
     <defs>
      <path id="DejaVuSans-52" d="M 2841 2188 
Q 3044 2119 3236 1894 
Q 3428 1669 3622 1275 
L 4263 0 
L 3584 0 
L 2988 1197 
Q 2756 1666 2539 1819 
Q 2322 1972 1947 1972 
L 1259 1972 
L 1259 0 
L 628 0 
L 628 4666 
L 2053 4666 
Q 2853 4666 3247 4331 
Q 3641 3997 3641 3322 
Q 3641 2881 3436 2590 
Q 3231 2300 2841 2188 
z
M 1259 4147 
L 1259 2491 
L 2053 2491 
Q 2509 2491 2742 2702 
Q 2975 2913 2975 3322 
Q 2975 3731 2742 3939 
Q 2509 4147 2053 4147 
L 1259 4147 
z
" transform="scale(0.015625)"/>
      <path id="DejaVuSans-62" d="M 3116 1747 
Q 3116 2381 2855 2742 
Q 2594 3103 2138 3103 
Q 1681 3103 1420 2742 
Q 1159 2381 1159 1747 
Q 1159 1113 1420 752 
Q 1681 391 2138 391 
Q 2594 391 2855 752 
Q 3116 1113 3116 1747 
z
M 1159 2969 
Q 1341 3281 1617 3432 
Q 1894 3584 2278 3584 
Q 2916 3584 3314 3078 
Q 3713 2572 3713 1747 
Q 3713 922 3314 415 
Q 2916 -91 2278 -91 
Q 1894 -91 1617 61 
Q 1341 213 1159 525 
L 1159 0 
L 581 0 
L 581 4863 
L 1159 4863 
L 1159 2969 
z
" transform="scale(0.015625)"/>
      <path id="DejaVuSans-2d" d="M 313 2009 
L 1997 2009 
L 1997 1497 
L 313 1497 
L 313 2009 
z
" transform="scale(0.015625)"/>
     </defs>
     <use xlink:href="#DejaVuSans-52"/>
     <use xlink:href="#DejaVuSans-65" x="64.982422"/>
     <use xlink:href="#DejaVuSans-70" x="126.505859"/>
     <use xlink:href="#DejaVuSans-65" x="189.982422"/>
     <use xlink:href="#DejaVuSans-61" x="251.505859"/>
     <use xlink:href="#DejaVuSans-74" x="312.785156"/>
     <use xlink:href="#DejaVuSans-65" x="351.994141"/>
     <use xlink:href="#DejaVuSans-64" x="413.517578"/>
     <use xlink:href="#DejaVuSans-20" x="476.994141"/>
     <use xlink:href="#DejaVuSans-73" x="508.78125"/>
     <use xlink:href="#DejaVuSans-75" x="560.880859"/>
     <use xlink:href="#DejaVuSans-62" x="624.259766"/>
     <use xlink:href="#DejaVuSans-63" x="687.736328"/>
     <use xlink:href="#DejaVuSans-79" x="742.716797"/>
     <use xlink:href="#DejaVuSans-63" x="801.896484"/>
     <use xlink:href="#DejaVuSans-6c" x="856.876953"/>
     <use xlink:href="#DejaVuSans-65" x="884.660156"/>
     <use xlink:href="#DejaVuSans-20" x="946.183594"/>
     <use xlink:href="#DejaVuSans-2d" x="977.970703"/>
     <use xlink:href="#DejaVuSans-20" x="1014.054688"/>
     <use xlink:href="#DejaVuSans-33" x="1045.841797"/>
     <use xlink:href="#DejaVuSans-36" x="1109.464844"/>
     <use xlink:href="#DejaVuSans-35" x="1173.087891"/>
     <use xlink:href="#DejaVuSans-73" x="1236.710938"/>
    </g>
   </g>
  </g>
 </g>
 <defs>
  <clipPath id="p6a3aaed5c4">
   <rect x="72" y="51.84" width="446.4" height="326.16"/>
  </clipPath>
  <clipPath id="p953a3990ab">
   <rect x="103.68" y="194.4" width="144" height="151.2"/>
  </clipPath>
 </defs>
</svg>
