<?xml version="1.0" encoding="utf-8" standalone="no"?>
<!DOCTYPE svg PUBLIC "-//W3C//DTD SVG 1.1//EN"
  "http://www.w3.org/Graphics/SVG/1.1/DTD/svg11.dtd">
<svg xmlns:xlink="http://www.w3.org/1999/xlink" width="2016pt" height="864pt" viewBox="0 0 2016 864" xmlns="http://www.w3.org/2000/svg" version="1.1">
 <metadata>
  <rdf:RDF xmlns:dc="http://purl.org/dc/elements/1.1/" xmlns:cc="http://creativecommons.org/ns#" xmlns:rdf="http://www.w3.org/1999/02/22-rdf-syntax-ns#">
   <cc:Work>
    <dc:type rdf:resource="http://purl.org/dc/dcmitype/StillImage"/>
    <dc:date>2022-07-15T15:50:07.019214</dc:date>
    <dc:format>image/svg+xml</dc:format>
    <dc:creator>
     <cc:Agent>
      <dc:title>Matplotlib v3.5.1, https://matplotlib.org/</dc:title>
     </cc:Agent>
    </dc:creator>
   </cc:Work>
  </rdf:RDF>
 </metadata>
 <defs>
  <style type="text/css">*{stroke-linejoin: round; stroke-linecap: butt}</style>
 </defs>
 <g id="figure_1">
  <g id="patch_1">
   <path d="M 0 864 
L 2016 864 
L 2016 0 
L 0 0 
z
" style="fill: #ffffff"/>
  </g>
  <g id="axes_1">
   <g id="patch_2">
    <path d="M 62.335 784.12 
L 2005.2 784.12 
L 2005.2 67.08 
L 62.335 67.08 
z
" style="fill: #ffffff"/>
   </g>
   <g id="matplotlib.axis_1">
    <g id="xtick_1">
     <g id="line2d_1">
      <defs>
       <path id="ma082d05d22" d="M 0 0 
L 0 3.5 
" style="stroke: #000000; stroke-width: 0.8"/>
      </defs>
      <g>
       <use xlink:href="#ma082d05d22" x="150.647045" y="784.12" style="stroke: #000000; stroke-width: 0.8"/>
      </g>
     </g>
     <g id="text_1">
      <!-- 0 -->
      <g transform="translate(141.739545 812.395625)scale(0.28 -0.28)">
       <defs>
        <path id="DejaVuSans-30" d="M 2034 4250 
Q 1547 4250 1301 3770 
Q 1056 3291 1056 2328 
Q 1056 1369 1301 889 
Q 1547 409 2034 409 
Q 2525 409 2770 889 
Q 3016 1369 3016 2328 
Q 3016 3291 2770 3770 
Q 2525 4250 2034 4250 
z
M 2034 4750 
Q 2819 4750 3233 4129 
Q 3647 3509 3647 2328 
Q 3647 1150 3233 529 
Q 2819 -91 2034 -91 
Q 1250 -91 836 529 
Q 422 1150 422 2328 
Q 422 3509 836 4129 
Q 1250 4750 2034 4750 
z
" transform="scale(0.015625)"/>
       </defs>
       <use xlink:href="#DejaVuSans-30"/>
      </g>
     </g>
    </g>
    <g id="xtick_2">
     <g id="line2d_2">
      <g>
       <use xlink:href="#ma082d05d22" x="450.009911" y="784.12" style="stroke: #000000; stroke-width: 0.8"/>
      </g>
     </g>
     <g id="text_2">
      <!-- 10 -->
      <g transform="translate(432.194911 812.395625)scale(0.28 -0.28)">
       <defs>
        <path id="DejaVuSans-31" d="M 794 531 
L 1825 531 
L 1825 4091 
L 703 3866 
L 703 4441 
L 1819 4666 
L 2450 4666 
L 2450 531 
L 3481 531 
L 3481 0 
L 794 0 
L 794 531 
z
" transform="scale(0.015625)"/>
       </defs>
       <use xlink:href="#DejaVuSans-31"/>
       <use xlink:href="#DejaVuSans-30" x="63.623047"/>
      </g>
     </g>
    </g>
    <g id="xtick_3">
     <g id="line2d_3">
      <g>
       <use xlink:href="#ma082d05d22" x="749.372777" y="784.12" style="stroke: #000000; stroke-width: 0.8"/>
      </g>
     </g>
     <g id="text_3">
      <!-- 20 -->
      <g transform="translate(731.557777 812.395625)scale(0.28 -0.28)">
       <defs>
        <path id="DejaVuSans-32" d="M 1228 531 
L 3431 531 
L 3431 0 
L 469 0 
L 469 531 
Q 828 903 1448 1529 
Q 2069 2156 2228 2338 
Q 2531 2678 2651 2914 
Q 2772 3150 2772 3378 
Q 2772 3750 2511 3984 
Q 2250 4219 1831 4219 
Q 1534 4219 1204 4116 
Q 875 4013 500 3803 
L 500 4441 
Q 881 4594 1212 4672 
Q 1544 4750 1819 4750 
Q 2544 4750 2975 4387 
Q 3406 4025 3406 3419 
Q 3406 3131 3298 2873 
Q 3191 2616 2906 2266 
Q 2828 2175 2409 1742 
Q 1991 1309 1228 531 
z
" transform="scale(0.015625)"/>
       </defs>
       <use xlink:href="#DejaVuSans-32"/>
       <use xlink:href="#DejaVuSans-30" x="63.623047"/>
      </g>
     </g>
    </g>
    <g id="xtick_4">
     <g id="line2d_4">
      <g>
       <use xlink:href="#ma082d05d22" x="1048.735643" y="784.12" style="stroke: #000000; stroke-width: 0.8"/>
      </g>
     </g>
     <g id="text_4">
      <!-- 30 -->
      <g transform="translate(1030.920643 812.395625)scale(0.28 -0.28)">
       <defs>
        <path id="DejaVuSans-33" d="M 2597 2516 
Q 3050 2419 3304 2112 
Q 3559 1806 3559 1356 
Q 3559 666 3084 287 
Q 2609 -91 1734 -91 
Q 1441 -91 1130 -33 
Q 819 25 488 141 
L 488 750 
Q 750 597 1062 519 
Q 1375 441 1716 441 
Q 2309 441 2620 675 
Q 2931 909 2931 1356 
Q 2931 1769 2642 2001 
Q 2353 2234 1838 2234 
L 1294 2234 
L 1294 2753 
L 1863 2753 
Q 2328 2753 2575 2939 
Q 2822 3125 2822 3475 
Q 2822 3834 2567 4026 
Q 2313 4219 1838 4219 
Q 1578 4219 1281 4162 
Q 984 4106 628 3988 
L 628 4550 
Q 988 4650 1302 4700 
Q 1616 4750 1894 4750 
Q 2613 4750 3031 4423 
Q 3450 4097 3450 3541 
Q 3450 3153 3228 2886 
Q 3006 2619 2597 2516 
z
" transform="scale(0.015625)"/>
       </defs>
       <use xlink:href="#DejaVuSans-33"/>
       <use xlink:href="#DejaVuSans-30" x="63.623047"/>
      </g>
     </g>
    </g>
    <g id="xtick_5">
     <g id="line2d_5">
      <g>
       <use xlink:href="#ma082d05d22" x="1348.098509" y="784.12" style="stroke: #000000; stroke-width: 0.8"/>
      </g>
     </g>
     <g id="text_5">
      <!-- 40 -->
      <g transform="translate(1330.283509 812.395625)scale(0.28 -0.28)">
       <defs>
        <path id="DejaVuSans-34" d="M 2419 4116 
L 825 1625 
L 2419 1625 
L 2419 4116 
z
M 2253 4666 
L 3047 4666 
L 3047 1625 
L 3713 1625 
L 3713 1100 
L 3047 1100 
L 3047 0 
L 2419 0 
L 2419 1100 
L 313 1100 
L 313 1709 
L 2253 4666 
z
" transform="scale(0.015625)"/>
       </defs>
       <use xlink:href="#DejaVuSans-34"/>
       <use xlink:href="#DejaVuSans-30" x="63.623047"/>
      </g>
     </g>
    </g>
    <g id="xtick_6">
     <g id="line2d_6">
      <g>
       <use xlink:href="#ma082d05d22" x="1647.461375" y="784.12" style="stroke: #000000; stroke-width: 0.8"/>
      </g>
     </g>
     <g id="text_6">
      <!-- 50 -->
      <g transform="translate(1629.646375 812.395625)scale(0.28 -0.28)">
       <defs>
        <path id="DejaVuSans-35" d="M 691 4666 
L 3169 4666 
L 3169 4134 
L 1269 4134 
L 1269 2991 
Q 1406 3038 1543 3061 
Q 1681 3084 1819 3084 
Q 2600 3084 3056 2656 
Q 3513 2228 3513 1497 
Q 3513 744 3044 326 
Q 2575 -91 1722 -91 
Q 1428 -91 1123 -41 
Q 819 9 494 109 
L 494 744 
Q 775 591 1075 516 
Q 1375 441 1709 441 
Q 2250 441 2565 725 
Q 2881 1009 2881 1497 
Q 2881 1984 2565 2268 
Q 2250 2553 1709 2553 
Q 1456 2553 1204 2497 
Q 953 2441 691 2322 
L 691 4666 
z
" transform="scale(0.015625)"/>
       </defs>
       <use xlink:href="#DejaVuSans-35"/>
       <use xlink:href="#DejaVuSans-30" x="63.623047"/>
      </g>
     </g>
    </g>
    <g id="xtick_7">
     <g id="line2d_7">
      <g>
       <use xlink:href="#ma082d05d22" x="1946.824241" y="784.12" style="stroke: #000000; stroke-width: 0.8"/>
      </g>
     </g>
     <g id="text_7">
      <!-- 60 -->
      <g transform="translate(1929.009241 812.395625)scale(0.28 -0.28)">
       <defs>
        <path id="DejaVuSans-36" d="M 2113 2584 
Q 1688 2584 1439 2293 
Q 1191 2003 1191 1497 
Q 1191 994 1439 701 
Q 1688 409 2113 409 
Q 2538 409 2786 701 
Q 3034 994 3034 1497 
Q 3034 2003 2786 2293 
Q 2538 2584 2113 2584 
z
M 3366 4563 
L 3366 3988 
Q 3128 4100 2886 4159 
Q 2644 4219 2406 4219 
Q 1781 4219 1451 3797 
Q 1122 3375 1075 2522 
Q 1259 2794 1537 2939 
Q 1816 3084 2150 3084 
Q 2853 3084 3261 2657 
Q 3669 2231 3669 1497 
Q 3669 778 3244 343 
Q 2819 -91 2113 -91 
Q 1303 -91 875 529 
Q 447 1150 447 2328 
Q 447 3434 972 4092 
Q 1497 4750 2381 4750 
Q 2619 4750 2861 4703 
Q 3103 4656 3366 4563 
z
" transform="scale(0.015625)"/>
       </defs>
       <use xlink:href="#DejaVuSans-36"/>
       <use xlink:href="#DejaVuSans-30" x="63.623047"/>
      </g>
     </g>
    </g>
    <g id="text_8">
     <!-- Passes -->
     <g transform="translate(980.185 846.53375)scale(0.32 -0.32)">
      <defs>
       <path id="DejaVuSans-50" d="M 1259 4147 
L 1259 2394 
L 2053 2394 
Q 2494 2394 2734 2622 
Q 2975 2850 2975 3272 
Q 2975 3691 2734 3919 
Q 2494 4147 2053 4147 
L 1259 4147 
z
M 628 4666 
L 2053 4666 
Q 2838 4666 3239 4311 
Q 3641 3956 3641 3272 
Q 3641 2581 3239 2228 
Q 2838 1875 2053 1875 
L 1259 1875 
L 1259 0 
L 628 0 
L 628 4666 
z
" transform="scale(0.015625)"/>
       <path id="DejaVuSans-61" d="M 2194 1759 
Q 1497 1759 1228 1600 
Q 959 1441 959 1056 
Q 959 750 1161 570 
Q 1363 391 1709 391 
Q 2188 391 2477 730 
Q 2766 1069 2766 1631 
L 2766 1759 
L 2194 1759 
z
M 3341 1997 
L 3341 0 
L 2766 0 
L 2766 531 
Q 2569 213 2275 61 
Q 1981 -91 1556 -91 
Q 1019 -91 701 211 
Q 384 513 384 1019 
Q 384 1609 779 1909 
Q 1175 2209 1959 2209 
L 2766 2209 
L 2766 2266 
Q 2766 2663 2505 2880 
Q 2244 3097 1772 3097 
Q 1472 3097 1187 3025 
Q 903 2953 641 2809 
L 641 3341 
Q 956 3463 1253 3523 
Q 1550 3584 1831 3584 
Q 2591 3584 2966 3190 
Q 3341 2797 3341 1997 
z
" transform="scale(0.015625)"/>
       <path id="DejaVuSans-73" d="M 2834 3397 
L 2834 2853 
Q 2591 2978 2328 3040 
Q 2066 3103 1784 3103 
Q 1356 3103 1142 2972 
Q 928 2841 928 2578 
Q 928 2378 1081 2264 
Q 1234 2150 1697 2047 
L 1894 2003 
Q 2506 1872 2764 1633 
Q 3022 1394 3022 966 
Q 3022 478 2636 193 
Q 2250 -91 1575 -91 
Q 1294 -91 989 -36 
Q 684 19 347 128 
L 347 722 
Q 666 556 975 473 
Q 1284 391 1588 391 
Q 1994 391 2212 530 
Q 2431 669 2431 922 
Q 2431 1156 2273 1281 
Q 2116 1406 1581 1522 
L 1381 1569 
Q 847 1681 609 1914 
Q 372 2147 372 2553 
Q 372 3047 722 3315 
Q 1072 3584 1716 3584 
Q 2034 3584 2315 3537 
Q 2597 3491 2834 3397 
z
" transform="scale(0.015625)"/>
       <path id="DejaVuSans-65" d="M 3597 1894 
L 3597 1613 
L 953 1613 
Q 991 1019 1311 708 
Q 1631 397 2203 397 
Q 2534 397 2845 478 
Q 3156 559 3463 722 
L 3463 178 
Q 3153 47 2828 -22 
Q 2503 -91 2169 -91 
Q 1331 -91 842 396 
Q 353 884 353 1716 
Q 353 2575 817 3079 
Q 1281 3584 2069 3584 
Q 2775 3584 3186 3129 
Q 3597 2675 3597 1894 
z
M 3022 2063 
Q 3016 2534 2758 2815 
Q 2500 3097 2075 3097 
Q 1594 3097 1305 2825 
Q 1016 2553 972 2059 
L 3022 2063 
z
" transform="scale(0.015625)"/>
      </defs>
      <use xlink:href="#DejaVuSans-50"/>
      <use xlink:href="#DejaVuSans-61" x="55.802734"/>
      <use xlink:href="#DejaVuSans-73" x="117.082031"/>
      <use xlink:href="#DejaVuSans-73" x="169.181641"/>
      <use xlink:href="#DejaVuSans-65" x="221.28125"/>
      <use xlink:href="#DejaVuSans-73" x="282.804688"/>
     </g>
    </g>
   </g>
   <g id="matplotlib.axis_2">
    <g id="ytick_1">
     <g id="line2d_8">
      <defs>
       <path id="m16aaa2f5bf" d="M 0 0 
L -3.5 0 
" style="stroke: #000000; stroke-width: 0.8"/>
      </defs>
      <g>
       <use xlink:href="#m16aaa2f5bf" x="62.335" y="751.542464" style="stroke: #000000; stroke-width: 0.8"/>
      </g>
     </g>
     <g id="text_9">
      <!-- 0.0 -->
      <g transform="translate(10.80625 762.180277)scale(0.28 -0.28)">
       <defs>
        <path id="DejaVuSans-2e" d="M 684 794 
L 1344 794 
L 1344 0 
L 684 0 
L 684 794 
z
" transform="scale(0.015625)"/>
       </defs>
       <use xlink:href="#DejaVuSans-30"/>
       <use xlink:href="#DejaVuSans-2e" x="63.623047"/>
       <use xlink:href="#DejaVuSans-30" x="95.410156"/>
      </g>
     </g>
    </g>
    <g id="ytick_2">
     <g id="line2d_9">
      <g>
       <use xlink:href="#m16aaa2f5bf" x="62.335" y="621.168517" style="stroke: #000000; stroke-width: 0.8"/>
      </g>
     </g>
     <g id="text_10">
      <!-- 0.2 -->
      <g transform="translate(10.80625 631.806329)scale(0.28 -0.28)">
       <use xlink:href="#DejaVuSans-30"/>
       <use xlink:href="#DejaVuSans-2e" x="63.623047"/>
       <use xlink:href="#DejaVuSans-32" x="95.410156"/>
      </g>
     </g>
    </g>
    <g id="ytick_3">
     <g id="line2d_10">
      <g>
       <use xlink:href="#m16aaa2f5bf" x="62.335" y="490.794569" style="stroke: #000000; stroke-width: 0.8"/>
      </g>
     </g>
     <g id="text_11">
      <!-- 0.4 -->
      <g transform="translate(10.80625 501.432382)scale(0.28 -0.28)">
       <use xlink:href="#DejaVuSans-30"/>
       <use xlink:href="#DejaVuSans-2e" x="63.623047"/>
       <use xlink:href="#DejaVuSans-34" x="95.410156"/>
      </g>
     </g>
    </g>
    <g id="ytick_4">
     <g id="line2d_11">
      <g>
       <use xlink:href="#m16aaa2f5bf" x="62.335" y="360.420622" style="stroke: #000000; stroke-width: 0.8"/>
      </g>
     </g>
     <g id="text_12">
      <!-- 0.6 -->
      <g transform="translate(10.80625 371.058435)scale(0.28 -0.28)">
       <use xlink:href="#DejaVuSans-30"/>
       <use xlink:href="#DejaVuSans-2e" x="63.623047"/>
       <use xlink:href="#DejaVuSans-36" x="95.410156"/>
      </g>
     </g>
    </g>
    <g id="ytick_5">
     <g id="line2d_12">
      <g>
       <use xlink:href="#m16aaa2f5bf" x="62.335" y="230.046675" style="stroke: #000000; stroke-width: 0.8"/>
      </g>
     </g>
     <g id="text_13">
      <!-- 0.8 -->
      <g transform="translate(10.80625 240.684487)scale(0.28 -0.28)">
       <defs>
        <path id="DejaVuSans-38" d="M 2034 2216 
Q 1584 2216 1326 1975 
Q 1069 1734 1069 1313 
Q 1069 891 1326 650 
Q 1584 409 2034 409 
Q 2484 409 2743 651 
Q 3003 894 3003 1313 
Q 3003 1734 2745 1975 
Q 2488 2216 2034 2216 
z
M 1403 2484 
Q 997 2584 770 2862 
Q 544 3141 544 3541 
Q 544 4100 942 4425 
Q 1341 4750 2034 4750 
Q 2731 4750 3128 4425 
Q 3525 4100 3525 3541 
Q 3525 3141 3298 2862 
Q 3072 2584 2669 2484 
Q 3125 2378 3379 2068 
Q 3634 1759 3634 1313 
Q 3634 634 3220 271 
Q 2806 -91 2034 -91 
Q 1263 -91 848 271 
Q 434 634 434 1313 
Q 434 1759 690 2068 
Q 947 2378 1403 2484 
z
M 1172 3481 
Q 1172 3119 1398 2916 
Q 1625 2713 2034 2713 
Q 2441 2713 2670 2916 
Q 2900 3119 2900 3481 
Q 2900 3844 2670 4047 
Q 2441 4250 2034 4250 
Q 1625 4250 1398 4047 
Q 1172 3844 1172 3481 
z
" transform="scale(0.015625)"/>
       </defs>
       <use xlink:href="#DejaVuSans-30"/>
       <use xlink:href="#DejaVuSans-2e" x="63.623047"/>
       <use xlink:href="#DejaVuSans-38" x="95.410156"/>
      </g>
     </g>
    </g>
    <g id="ytick_6">
     <g id="line2d_13">
      <g>
       <use xlink:href="#m16aaa2f5bf" x="62.335" y="99.672727" style="stroke: #000000; stroke-width: 0.8"/>
      </g>
     </g>
     <g id="text_14">
      <!-- 1.0 -->
      <g transform="translate(10.80625 110.31054)scale(0.28 -0.28)">
       <use xlink:href="#DejaVuSans-31"/>
       <use xlink:href="#DejaVuSans-2e" x="63.623047"/>
       <use xlink:href="#DejaVuSans-30" x="95.410156"/>
      </g>
     </g>
    </g>
    <g id="text_15">
     <!-- 1e−3 -->
     <g transform="translate(62.335 64.08)scale(0.1 -0.1)">
      <defs>
       <path id="DejaVuSans-2212" d="M 678 2272 
L 4684 2272 
L 4684 1741 
L 678 1741 
L 678 2272 
z
" transform="scale(0.015625)"/>
      </defs>
      <use xlink:href="#DejaVuSans-31"/>
      <use xlink:href="#DejaVuSans-65" x="63.623047"/>
      <use xlink:href="#DejaVuSans-2212" x="125.146484"/>
      <use xlink:href="#DejaVuSans-33" x="208.935547"/>
     </g>
    </g>
   </g>
   <g id="line2d_14">
    <path d="M 150.647045 99.672727 
L 180.583332 105.598745 
L 210.519619 111.524892 
L 240.455905 117.450975 
L 270.392192 123.377058 
L 300.328478 129.30314 
L 330.264765 135.229223 
L 360.201052 141.155305 
L 390.137338 147.081388 
L 420.073625 153.007503 
L 450.009911 158.933553 
L 479.946198 164.859675 
L 509.882485 170.785784 
L 539.818771 176.71184 
L 569.755058 461.164117 
L 599.691344 182.637949 
L 629.627631 188.564031 
L 659.563918 194.490114 
L 689.500204 200.416197 
L 719.436491 206.342318 
L 749.372777 212.268362 
L 779.309064 218.194483 
L 809.245351 481.905413 
L 839.181637 616.723939 
L 869.117924 224.120592 
L 899.05421 484.868474 
L 928.990497 618.205469 
L 958.926784 230.046649 
L 988.86307 487.831522 
L 1018.799357 619.686993 
L 1048.735643 235.972757 
L 1078.67193 490.794556 
L 1108.608216 621.16851 
L 1138.544503 241.89884 
L 1168.48079 493.757611 
L 1198.417076 622.650034 
L 1228.353363 247.824922 
L 1258.289649 496.720652 
L 1288.225936 624.131565 
L 1318.162223 687.837014 
L 1348.098509 253.751005 
L 1378.034796 499.683693 
L 1407.971082 625.613075 
L 1437.907369 688.577773 
L 1467.843656 720.060117 
L 1497.779942 502.646735 
L 1527.716229 627.094599 
L 1557.652515 689.318532 
L 1587.588802 720.430499 
L 1617.525089 735.986481 
L 1647.461375 743.764473 
L 1677.397662 747.653469 
L 1707.333948 749.597966 
L 1737.270235 750.570215 
L 1767.206522 751.05634 
L 1797.142808 751.299402 
L 1827.079095 751.420933 
L 1857.015381 751.481699 
L 1886.951668 751.512081 
L 1916.887955 751.527273 
" clip-path="url(#p1c7f7b58b0)" style="fill: none; stroke: #0000ff; stroke-width: 1.5; stroke-linecap: square"/>
    <defs>
     <path id="me32d89cdae" d="M 0 3 
C 0.795609 3 1.55874 2.683901 2.12132 2.12132 
C 2.683901 1.55874 3 0.795609 3 0 
C 3 -0.795609 2.683901 -1.55874 2.12132 -2.12132 
C 1.55874 -2.683901 0.795609 -3 0 -3 
C -0.795609 -3 -1.55874 -2.683901 -2.12132 -2.12132 
C -2.683901 -1.55874 -3 -0.795609 -3 0 
C -3 0.795609 -2.683901 1.55874 -2.12132 2.12132 
C -1.55874 2.683901 -0.795609 3 0 3 
z
" style="stroke: #0000ff"/>
    </defs>
    <g clip-path="url(#p1c7f7b58b0)">
     <use xlink:href="#me32d89cdae" x="150.647045" y="99.672727" style="fill: #0000ff; stroke: #0000ff"/>
     <use xlink:href="#me32d89cdae" x="180.583332" y="105.598745" style="fill: #0000ff; stroke: #0000ff"/>
     <use xlink:href="#me32d89cdae" x="210.519619" y="111.524892" style="fill: #0000ff; stroke: #0000ff"/>
     <use xlink:href="#me32d89cdae" x="240.455905" y="117.450975" style="fill: #0000ff; stroke: #0000ff"/>
     <use xlink:href="#me32d89cdae" x="270.392192" y="123.377058" style="fill: #0000ff; stroke: #0000ff"/>
     <use xlink:href="#me32d89cdae" x="300.328478" y="129.30314" style="fill: #0000ff; stroke: #0000ff"/>
     <use xlink:href="#me32d89cdae" x="330.264765" y="135.229223" style="fill: #0000ff; stroke: #0000ff"/>
     <use xlink:href="#me32d89cdae" x="360.201052" y="141.155305" style="fill: #0000ff; stroke: #0000ff"/>
     <use xlink:href="#me32d89cdae" x="390.137338" y="147.081388" style="fill: #0000ff; stroke: #0000ff"/>
     <use xlink:href="#me32d89cdae" x="420.073625" y="153.007503" style="fill: #0000ff; stroke: #0000ff"/>
     <use xlink:href="#me32d89cdae" x="450.009911" y="158.933553" style="fill: #0000ff; stroke: #0000ff"/>
     <use xlink:href="#me32d89cdae" x="479.946198" y="164.859675" style="fill: #0000ff; stroke: #0000ff"/>
     <use xlink:href="#me32d89cdae" x="509.882485" y="170.785784" style="fill: #0000ff; stroke: #0000ff"/>
     <use xlink:href="#me32d89cdae" x="539.818771" y="176.71184" style="fill: #0000ff; stroke: #0000ff"/>
     <use xlink:href="#me32d89cdae" x="569.755058" y="461.164117" style="fill: #0000ff; stroke: #0000ff"/>
     <use xlink:href="#me32d89cdae" x="599.691344" y="182.637949" style="fill: #0000ff; stroke: #0000ff"/>
     <use xlink:href="#me32d89cdae" x="629.627631" y="188.564031" style="fill: #0000ff; stroke: #0000ff"/>
     <use xlink:href="#me32d89cdae" x="659.563918" y="194.490114" style="fill: #0000ff; stroke: #0000ff"/>
     <use xlink:href="#me32d89cdae" x="689.500204" y="200.416197" style="fill: #0000ff; stroke: #0000ff"/>
     <use xlink:href="#me32d89cdae" x="719.436491" y="206.342318" style="fill: #0000ff; stroke: #0000ff"/>
     <use xlink:href="#me32d89cdae" x="749.372777" y="212.268362" style="fill: #0000ff; stroke: #0000ff"/>
     <use xlink:href="#me32d89cdae" x="779.309064" y="218.194483" style="fill: #0000ff; stroke: #0000ff"/>
     <use xlink:href="#me32d89cdae" x="809.245351" y="481.905413" style="fill: #0000ff; stroke: #0000ff"/>
     <use xlink:href="#me32d89cdae" x="839.181637" y="616.723939" style="fill: #0000ff; stroke: #0000ff"/>
     <use xlink:href="#me32d89cdae" x="869.117924" y="224.120592" style="fill: #0000ff; stroke: #0000ff"/>
     <use xlink:href="#me32d89cdae" x="899.05421" y="484.868474" style="fill: #0000ff; stroke: #0000ff"/>
     <use xlink:href="#me32d89cdae" x="928.990497" y="618.205469" style="fill: #0000ff; stroke: #0000ff"/>
     <use xlink:href="#me32d89cdae" x="958.926784" y="230.046649" style="fill: #0000ff; stroke: #0000ff"/>
     <use xlink:href="#me32d89cdae" x="988.86307" y="487.831522" style="fill: #0000ff; stroke: #0000ff"/>
     <use xlink:href="#me32d89cdae" x="1018.799357" y="619.686993" style="fill: #0000ff; stroke: #0000ff"/>
     <use xlink:href="#me32d89cdae" x="1048.735643" y="235.972757" style="fill: #0000ff; stroke: #0000ff"/>
     <use xlink:href="#me32d89cdae" x="1078.67193" y="490.794556" style="fill: #0000ff; stroke: #0000ff"/>
     <use xlink:href="#me32d89cdae" x="1108.608216" y="621.16851" style="fill: #0000ff; stroke: #0000ff"/>
     <use xlink:href="#me32d89cdae" x="1138.544503" y="241.89884" style="fill: #0000ff; stroke: #0000ff"/>
     <use xlink:href="#me32d89cdae" x="1168.48079" y="493.757611" style="fill: #0000ff; stroke: #0000ff"/>
     <use xlink:href="#me32d89cdae" x="1198.417076" y="622.650034" style="fill: #0000ff; stroke: #0000ff"/>
     <use xlink:href="#me32d89cdae" x="1228.353363" y="247.824922" style="fill: #0000ff; stroke: #0000ff"/>
     <use xlink:href="#me32d89cdae" x="1258.289649" y="496.720652" style="fill: #0000ff; stroke: #0000ff"/>
     <use xlink:href="#me32d89cdae" x="1288.225936" y="624.131565" style="fill: #0000ff; stroke: #0000ff"/>
     <use xlink:href="#me32d89cdae" x="1318.162223" y="687.837014" style="fill: #0000ff; stroke: #0000ff"/>
     <use xlink:href="#me32d89cdae" x="1348.098509" y="253.751005" style="fill: #0000ff; stroke: #0000ff"/>
     <use xlink:href="#me32d89cdae" x="1378.034796" y="499.683693" style="fill: #0000ff; stroke: #0000ff"/>
     <use xlink:href="#me32d89cdae" x="1407.971082" y="625.613075" style="fill: #0000ff; stroke: #0000ff"/>
     <use xlink:href="#me32d89cdae" x="1437.907369" y="688.577773" style="fill: #0000ff; stroke: #0000ff"/>
     <use xlink:href="#me32d89cdae" x="1467.843656" y="720.060117" style="fill: #0000ff; stroke: #0000ff"/>
     <use xlink:href="#me32d89cdae" x="1497.779942" y="502.646735" style="fill: #0000ff; stroke: #0000ff"/>
     <use xlink:href="#me32d89cdae" x="1527.716229" y="627.094599" style="fill: #0000ff; stroke: #0000ff"/>
     <use xlink:href="#me32d89cdae" x="1557.652515" y="689.318532" style="fill: #0000ff; stroke: #0000ff"/>
     <use xlink:href="#me32d89cdae" x="1587.588802" y="720.430499" style="fill: #0000ff; stroke: #0000ff"/>
     <use xlink:href="#me32d89cdae" x="1617.525089" y="735.986481" style="fill: #0000ff; stroke: #0000ff"/>
     <use xlink:href="#me32d89cdae" x="1647.461375" y="743.764473" style="fill: #0000ff; stroke: #0000ff"/>
     <use xlink:href="#me32d89cdae" x="1677.397662" y="747.653469" style="fill: #0000ff; stroke: #0000ff"/>
     <use xlink:href="#me32d89cdae" x="1707.333948" y="749.597966" style="fill: #0000ff; stroke: #0000ff"/>
     <use xlink:href="#me32d89cdae" x="1737.270235" y="750.570215" style="fill: #0000ff; stroke: #0000ff"/>
     <use xlink:href="#me32d89cdae" x="1767.206522" y="751.05634" style="fill: #0000ff; stroke: #0000ff"/>
     <use xlink:href="#me32d89cdae" x="1797.142808" y="751.299402" style="fill: #0000ff; stroke: #0000ff"/>
     <use xlink:href="#me32d89cdae" x="1827.079095" y="751.420933" style="fill: #0000ff; stroke: #0000ff"/>
     <use xlink:href="#me32d89cdae" x="1857.015381" y="751.481699" style="fill: #0000ff; stroke: #0000ff"/>
     <use xlink:href="#me32d89cdae" x="1886.951668" y="751.512081" style="fill: #0000ff; stroke: #0000ff"/>
     <use xlink:href="#me32d89cdae" x="1916.887955" y="751.527273" style="fill: #0000ff; stroke: #0000ff"/>
    </g>
   </g>
   <g id="patch_3">
    <path d="M 62.335 784.12 
L 62.335 67.08 
" style="fill: none; stroke: #000000; stroke-width: 0.8; stroke-linejoin: miter; stroke-linecap: square"/>
   </g>
   <g id="patch_4">
    <path d="M 2005.2 784.12 
L 2005.2 67.08 
" style="fill: none; stroke: #000000; stroke-width: 0.8; stroke-linejoin: miter; stroke-linecap: square"/>
   </g>
   <g id="patch_5">
    <path d="M 62.335 784.12 
L 2005.2 784.12 
" style="fill: none; stroke: #000000; stroke-width: 0.8; stroke-linejoin: miter; stroke-linecap: square"/>
   </g>
   <g id="patch_6">
    <path d="M 62.335 67.08 
L 2005.2 67.08 
" style="fill: none; stroke: #000000; stroke-width: 0.8; stroke-linejoin: miter; stroke-linecap: square"/>
   </g>
  </g>
  <g id="text_16">
   <!-- Learning rate degradation over single training -->
   <g transform="translate(592.228125 44.634375)scale(0.36 -0.36)">
    <defs>
     <path id="DejaVuSans-4c" d="M 628 4666 
L 1259 4666 
L 1259 531 
L 3531 531 
L 3531 0 
L 628 0 
L 628 4666 
z
" transform="scale(0.015625)"/>
     <path id="DejaVuSans-72" d="M 2631 2963 
Q 2534 3019 2420 3045 
Q 2306 3072 2169 3072 
Q 1681 3072 1420 2755 
Q 1159 2438 1159 1844 
L 1159 0 
L 581 0 
L 581 3500 
L 1159 3500 
L 1159 2956 
Q 1341 3275 1631 3429 
Q 1922 3584 2338 3584 
Q 2397 3584 2469 3576 
Q 2541 3569 2628 3553 
L 2631 2963 
z
" transform="scale(0.015625)"/>
     <path id="DejaVuSans-6e" d="M 3513 2113 
L 3513 0 
L 2938 0 
L 2938 2094 
Q 2938 2591 2744 2837 
Q 2550 3084 2163 3084 
Q 1697 3084 1428 2787 
Q 1159 2491 1159 1978 
L 1159 0 
L 581 0 
L 581 3500 
L 1159 3500 
L 1159 2956 
Q 1366 3272 1645 3428 
Q 1925 3584 2291 3584 
Q 2894 3584 3203 3211 
Q 3513 2838 3513 2113 
z
" transform="scale(0.015625)"/>
     <path id="DejaVuSans-69" d="M 603 3500 
L 1178 3500 
L 1178 0 
L 603 0 
L 603 3500 
z
M 603 4863 
L 1178 4863 
L 1178 4134 
L 603 4134 
L 603 4863 
z
" transform="scale(0.015625)"/>
     <path id="DejaVuSans-67" d="M 2906 1791 
Q 2906 2416 2648 2759 
Q 2391 3103 1925 3103 
Q 1463 3103 1205 2759 
Q 947 2416 947 1791 
Q 947 1169 1205 825 
Q 1463 481 1925 481 
Q 2391 481 2648 825 
Q 2906 1169 2906 1791 
z
M 3481 434 
Q 3481 -459 3084 -895 
Q 2688 -1331 1869 -1331 
Q 1566 -1331 1297 -1286 
Q 1028 -1241 775 -1147 
L 775 -588 
Q 1028 -725 1275 -790 
Q 1522 -856 1778 -856 
Q 2344 -856 2625 -561 
Q 2906 -266 2906 331 
L 2906 616 
Q 2728 306 2450 153 
Q 2172 0 1784 0 
Q 1141 0 747 490 
Q 353 981 353 1791 
Q 353 2603 747 3093 
Q 1141 3584 1784 3584 
Q 2172 3584 2450 3431 
Q 2728 3278 2906 2969 
L 2906 3500 
L 3481 3500 
L 3481 434 
z
" transform="scale(0.015625)"/>
     <path id="DejaVuSans-20" transform="scale(0.015625)"/>
     <path id="DejaVuSans-74" d="M 1172 4494 
L 1172 3500 
L 2356 3500 
L 2356 3053 
L 1172 3053 
L 1172 1153 
Q 1172 725 1289 603 
Q 1406 481 1766 481 
L 2356 481 
L 2356 0 
L 1766 0 
Q 1100 0 847 248 
Q 594 497 594 1153 
L 594 3053 
L 172 3053 
L 172 3500 
L 594 3500 
L 594 4494 
L 1172 4494 
z
" transform="scale(0.015625)"/>
     <path id="DejaVuSans-64" d="M 2906 2969 
L 2906 4863 
L 3481 4863 
L 3481 0 
L 2906 0 
L 2906 525 
Q 2725 213 2448 61 
Q 2172 -91 1784 -91 
Q 1150 -91 751 415 
Q 353 922 353 1747 
Q 353 2572 751 3078 
Q 1150 3584 1784 3584 
Q 2172 3584 2448 3432 
Q 2725 3281 2906 2969 
z
M 947 1747 
Q 947 1113 1208 752 
Q 1469 391 1925 391 
Q 2381 391 2643 752 
Q 2906 1113 2906 1747 
Q 2906 2381 2643 2742 
Q 2381 3103 1925 3103 
Q 1469 3103 1208 2742 
Q 947 2381 947 1747 
z
" transform="scale(0.015625)"/>
     <path id="DejaVuSans-6f" d="M 1959 3097 
Q 1497 3097 1228 2736 
Q 959 2375 959 1747 
Q 959 1119 1226 758 
Q 1494 397 1959 397 
Q 2419 397 2687 759 
Q 2956 1122 2956 1747 
Q 2956 2369 2687 2733 
Q 2419 3097 1959 3097 
z
M 1959 3584 
Q 2709 3584 3137 3096 
Q 3566 2609 3566 1747 
Q 3566 888 3137 398 
Q 2709 -91 1959 -91 
Q 1206 -91 779 398 
Q 353 888 353 1747 
Q 353 2609 779 3096 
Q 1206 3584 1959 3584 
z
" transform="scale(0.015625)"/>
     <path id="DejaVuSans-76" d="M 191 3500 
L 800 3500 
L 1894 563 
L 2988 3500 
L 3597 3500 
L 2284 0 
L 1503 0 
L 191 3500 
z
" transform="scale(0.015625)"/>
     <path id="DejaVuSans-6c" d="M 603 4863 
L 1178 4863 
L 1178 0 
L 603 0 
L 603 4863 
z
" transform="scale(0.015625)"/>
    </defs>
    <use xlink:href="#DejaVuSans-4c"/>
    <use xlink:href="#DejaVuSans-65" x="53.962891"/>
    <use xlink:href="#DejaVuSans-61" x="115.486328"/>
    <use xlink:href="#DejaVuSans-72" x="176.765625"/>
    <use xlink:href="#DejaVuSans-6e" x="216.128906"/>
    <use xlink:href="#DejaVuSans-69" x="279.507812"/>
    <use xlink:href="#DejaVuSans-6e" x="307.291016"/>
    <use xlink:href="#DejaVuSans-67" x="370.669922"/>
    <use xlink:href="#DejaVuSans-20" x="434.146484"/>
    <use xlink:href="#DejaVuSans-72" x="465.933594"/>
    <use xlink:href="#DejaVuSans-61" x="507.046875"/>
    <use xlink:href="#DejaVuSans-74" x="568.326172"/>
    <use xlink:href="#DejaVuSans-65" x="607.535156"/>
    <use xlink:href="#DejaVuSans-20" x="669.058594"/>
    <use xlink:href="#DejaVuSans-64" x="700.845703"/>
    <use xlink:href="#DejaVuSans-65" x="764.322266"/>
    <use xlink:href="#DejaVuSans-67" x="825.845703"/>
    <use xlink:href="#DejaVuSans-72" x="889.322266"/>
    <use xlink:href="#DejaVuSans-61" x="930.435547"/>
    <use xlink:href="#DejaVuSans-64" x="991.714844"/>
    <use xlink:href="#DejaVuSans-61" x="1055.191406"/>
    <use xlink:href="#DejaVuSans-74" x="1116.470703"/>
    <use xlink:href="#DejaVuSans-69" x="1155.679688"/>
    <use xlink:href="#DejaVuSans-6f" x="1183.462891"/>
    <use xlink:href="#DejaVuSans-6e" x="1244.644531"/>
    <use xlink:href="#DejaVuSans-20" x="1308.023438"/>
    <use xlink:href="#DejaVuSans-6f" x="1339.810547"/>
    <use xlink:href="#DejaVuSans-76" x="1400.992188"/>
    <use xlink:href="#DejaVuSans-65" x="1460.171875"/>
    <use xlink:href="#DejaVuSans-72" x="1521.695312"/>
    <use xlink:href="#DejaVuSans-20" x="1562.808594"/>
    <use xlink:href="#DejaVuSans-73" x="1594.595703"/>
    <use xlink:href="#DejaVuSans-69" x="1646.695312"/>
    <use xlink:href="#DejaVuSans-6e" x="1674.478516"/>
    <use xlink:href="#DejaVuSans-67" x="1737.857422"/>
    <use xlink:href="#DejaVuSans-6c" x="1801.333984"/>
    <use xlink:href="#DejaVuSans-65" x="1829.117188"/>
    <use xlink:href="#DejaVuSans-20" x="1890.640625"/>
    <use xlink:href="#DejaVuSans-74" x="1922.427734"/>
    <use xlink:href="#DejaVuSans-72" x="1961.636719"/>
    <use xlink:href="#DejaVuSans-61" x="2002.75"/>
    <use xlink:href="#DejaVuSans-69" x="2064.029297"/>
    <use xlink:href="#DejaVuSans-6e" x="2091.8125"/>
    <use xlink:href="#DejaVuSans-69" x="2155.191406"/>
    <use xlink:href="#DejaVuSans-6e" x="2182.974609"/>
    <use xlink:href="#DejaVuSans-67" x="2246.353516"/>
   </g>
  </g>
 </g>
 <defs>
  <clipPath id="p1c7f7b58b0">
   <rect x="62.335" y="67.08" width="1942.865" height="717.04"/>
  </clipPath>
 </defs>
</svg>
