<?xml version="1.0" encoding="utf-8" standalone="no"?>
<!DOCTYPE svg PUBLIC "-//W3C//DTD SVG 1.1//EN"
  "http://www.w3.org/Graphics/SVG/1.1/DTD/svg11.dtd">
<svg xmlns:xlink="http://www.w3.org/1999/xlink" width="1008pt" height="864pt" viewBox="0 0 1008 864" xmlns="http://www.w3.org/2000/svg" version="1.1">
 <metadata>
  <rdf:RDF xmlns:dc="http://purl.org/dc/elements/1.1/" xmlns:cc="http://creativecommons.org/ns#" xmlns:rdf="http://www.w3.org/1999/02/22-rdf-syntax-ns#">
   <cc:Work>
    <dc:type rdf:resource="http://purl.org/dc/dcmitype/StillImage"/>
    <dc:date>2022-09-21T17:27:29.334773</dc:date>
    <dc:format>image/svg+xml</dc:format>
    <dc:creator>
     <cc:Agent>
      <dc:title>Matplotlib v3.5.1, https://matplotlib.org/</dc:title>
     </cc:Agent>
    </dc:creator>
   </cc:Work>
  </rdf:RDF>
 </metadata>
 <defs>
  <style type="text/css">*{stroke-linejoin: round; stroke-linecap: butt}</style>
 </defs>
 <g id="figure_1">
  <g id="patch_1">
   <path d="M 0 864 
L 1008 864 
L 1008 0 
L 0 0 
L 0 864 
z
" style="fill: none"/>
  </g>
  <g id="axes_1">
   <g id="patch_2">
    <path d="M 70.46 784.12 
L 991.485584 784.12 
L 991.485584 56.55871 
L 70.46 56.55871 
z
" style="fill: #ffffff"/>
   </g>
   <g id="matplotlib.axis_1">
    <g id="xtick_1">
     <g id="line2d_1">
      <defs>
       <path id="m39e057da25" d="M 0 0 
L 0 3.5 
" style="stroke: #000000; stroke-width: 0.8"/>
      </defs>
      <g>
       <use xlink:href="#m39e057da25" x="112.324799" y="784.12" style="stroke: #000000; stroke-width: 0.8"/>
      </g>
     </g>
     <g id="text_1">
      <!-- 0 -->
      <g transform="translate(103.417299 812.395625)scale(0.28 -0.28)">
       <defs>
        <path id="DejaVuSans-30" d="M 2034 4250 
Q 1547 4250 1301 3770 
Q 1056 3291 1056 2328 
Q 1056 1369 1301 889 
Q 1547 409 2034 409 
Q 2525 409 2770 889 
Q 3016 1369 3016 2328 
Q 3016 3291 2770 3770 
Q 2525 4250 2034 4250 
z
M 2034 4750 
Q 2819 4750 3233 4129 
Q 3647 3509 3647 2328 
Q 3647 1150 3233 529 
Q 2819 -91 2034 -91 
Q 1250 -91 836 529 
Q 422 1150 422 2328 
Q 422 3509 836 4129 
Q 1250 4750 2034 4750 
z
" transform="scale(0.015625)"/>
       </defs>
       <use xlink:href="#DejaVuSans-30"/>
      </g>
     </g>
    </g>
    <g id="xtick_2">
     <g id="line2d_2">
      <g>
       <use xlink:href="#m39e057da25" x="283.201531" y="784.12" style="stroke: #000000; stroke-width: 0.8"/>
      </g>
     </g>
     <g id="text_2">
      <!-- 20 -->
      <g transform="translate(265.386531 812.395625)scale(0.28 -0.28)">
       <defs>
        <path id="DejaVuSans-32" d="M 1228 531 
L 3431 531 
L 3431 0 
L 469 0 
L 469 531 
Q 828 903 1448 1529 
Q 2069 2156 2228 2338 
Q 2531 2678 2651 2914 
Q 2772 3150 2772 3378 
Q 2772 3750 2511 3984 
Q 2250 4219 1831 4219 
Q 1534 4219 1204 4116 
Q 875 4013 500 3803 
L 500 4441 
Q 881 4594 1212 4672 
Q 1544 4750 1819 4750 
Q 2544 4750 2975 4387 
Q 3406 4025 3406 3419 
Q 3406 3131 3298 2873 
Q 3191 2616 2906 2266 
Q 2828 2175 2409 1742 
Q 1991 1309 1228 531 
z
" transform="scale(0.015625)"/>
       </defs>
       <use xlink:href="#DejaVuSans-32"/>
       <use xlink:href="#DejaVuSans-30" x="63.623047"/>
      </g>
     </g>
    </g>
    <g id="xtick_3">
     <g id="line2d_3">
      <g>
       <use xlink:href="#m39e057da25" x="454.078263" y="784.12" style="stroke: #000000; stroke-width: 0.8"/>
      </g>
     </g>
     <g id="text_3">
      <!-- 40 -->
      <g transform="translate(436.263263 812.395625)scale(0.28 -0.28)">
       <defs>
        <path id="DejaVuSans-34" d="M 2419 4116 
L 825 1625 
L 2419 1625 
L 2419 4116 
z
M 2253 4666 
L 3047 4666 
L 3047 1625 
L 3713 1625 
L 3713 1100 
L 3047 1100 
L 3047 0 
L 2419 0 
L 2419 1100 
L 313 1100 
L 313 1709 
L 2253 4666 
z
" transform="scale(0.015625)"/>
       </defs>
       <use xlink:href="#DejaVuSans-34"/>
       <use xlink:href="#DejaVuSans-30" x="63.623047"/>
      </g>
     </g>
    </g>
    <g id="xtick_4">
     <g id="line2d_4">
      <g>
       <use xlink:href="#m39e057da25" x="624.954995" y="784.12" style="stroke: #000000; stroke-width: 0.8"/>
      </g>
     </g>
     <g id="text_4">
      <!-- 60 -->
      <g transform="translate(607.139995 812.395625)scale(0.28 -0.28)">
       <defs>
        <path id="DejaVuSans-36" d="M 2113 2584 
Q 1688 2584 1439 2293 
Q 1191 2003 1191 1497 
Q 1191 994 1439 701 
Q 1688 409 2113 409 
Q 2538 409 2786 701 
Q 3034 994 3034 1497 
Q 3034 2003 2786 2293 
Q 2538 2584 2113 2584 
z
M 3366 4563 
L 3366 3988 
Q 3128 4100 2886 4159 
Q 2644 4219 2406 4219 
Q 1781 4219 1451 3797 
Q 1122 3375 1075 2522 
Q 1259 2794 1537 2939 
Q 1816 3084 2150 3084 
Q 2853 3084 3261 2657 
Q 3669 2231 3669 1497 
Q 3669 778 3244 343 
Q 2819 -91 2113 -91 
Q 1303 -91 875 529 
Q 447 1150 447 2328 
Q 447 3434 972 4092 
Q 1497 4750 2381 4750 
Q 2619 4750 2861 4703 
Q 3103 4656 3366 4563 
z
" transform="scale(0.015625)"/>
       </defs>
       <use xlink:href="#DejaVuSans-36"/>
       <use xlink:href="#DejaVuSans-30" x="63.623047"/>
      </g>
     </g>
    </g>
    <g id="xtick_5">
     <g id="line2d_5">
      <g>
       <use xlink:href="#m39e057da25" x="795.831727" y="784.12" style="stroke: #000000; stroke-width: 0.8"/>
      </g>
     </g>
     <g id="text_5">
      <!-- 80 -->
      <g transform="translate(778.016727 812.395625)scale(0.28 -0.28)">
       <defs>
        <path id="DejaVuSans-38" d="M 2034 2216 
Q 1584 2216 1326 1975 
Q 1069 1734 1069 1313 
Q 1069 891 1326 650 
Q 1584 409 2034 409 
Q 2484 409 2743 651 
Q 3003 894 3003 1313 
Q 3003 1734 2745 1975 
Q 2488 2216 2034 2216 
z
M 1403 2484 
Q 997 2584 770 2862 
Q 544 3141 544 3541 
Q 544 4100 942 4425 
Q 1341 4750 2034 4750 
Q 2731 4750 3128 4425 
Q 3525 4100 3525 3541 
Q 3525 3141 3298 2862 
Q 3072 2584 2669 2484 
Q 3125 2378 3379 2068 
Q 3634 1759 3634 1313 
Q 3634 634 3220 271 
Q 2806 -91 2034 -91 
Q 1263 -91 848 271 
Q 434 634 434 1313 
Q 434 1759 690 2068 
Q 947 2378 1403 2484 
z
M 1172 3481 
Q 1172 3119 1398 2916 
Q 1625 2713 2034 2713 
Q 2441 2713 2670 2916 
Q 2900 3119 2900 3481 
Q 2900 3844 2670 4047 
Q 2441 4250 2034 4250 
Q 1625 4250 1398 4047 
Q 1172 3844 1172 3481 
z
" transform="scale(0.015625)"/>
       </defs>
       <use xlink:href="#DejaVuSans-38"/>
       <use xlink:href="#DejaVuSans-30" x="63.623047"/>
      </g>
     </g>
    </g>
    <g id="xtick_6">
     <g id="line2d_6">
      <g>
       <use xlink:href="#m39e057da25" x="966.708458" y="784.12" style="stroke: #000000; stroke-width: 0.8"/>
      </g>
     </g>
     <g id="text_6">
      <!-- 100 -->
      <g transform="translate(939.985958 812.395625)scale(0.28 -0.28)">
       <defs>
        <path id="DejaVuSans-31" d="M 794 531 
L 1825 531 
L 1825 4091 
L 703 3866 
L 703 4441 
L 1819 4666 
L 2450 4666 
L 2450 531 
L 3481 531 
L 3481 0 
L 794 0 
L 794 531 
z
" transform="scale(0.015625)"/>
       </defs>
       <use xlink:href="#DejaVuSans-31"/>
       <use xlink:href="#DejaVuSans-30" x="63.623047"/>
       <use xlink:href="#DejaVuSans-30" x="127.246094"/>
      </g>
     </g>
    </g>
    <g id="text_7">
     <!-- Epochs -->
     <g transform="translate(473.642792 846.53375)scale(0.32 -0.32)">
      <defs>
       <path id="DejaVuSans-45" d="M 628 4666 
L 3578 4666 
L 3578 4134 
L 1259 4134 
L 1259 2753 
L 3481 2753 
L 3481 2222 
L 1259 2222 
L 1259 531 
L 3634 531 
L 3634 0 
L 628 0 
L 628 4666 
z
" transform="scale(0.015625)"/>
       <path id="DejaVuSans-70" d="M 1159 525 
L 1159 -1331 
L 581 -1331 
L 581 3500 
L 1159 3500 
L 1159 2969 
Q 1341 3281 1617 3432 
Q 1894 3584 2278 3584 
Q 2916 3584 3314 3078 
Q 3713 2572 3713 1747 
Q 3713 922 3314 415 
Q 2916 -91 2278 -91 
Q 1894 -91 1617 61 
Q 1341 213 1159 525 
z
M 3116 1747 
Q 3116 2381 2855 2742 
Q 2594 3103 2138 3103 
Q 1681 3103 1420 2742 
Q 1159 2381 1159 1747 
Q 1159 1113 1420 752 
Q 1681 391 2138 391 
Q 2594 391 2855 752 
Q 3116 1113 3116 1747 
z
" transform="scale(0.015625)"/>
       <path id="DejaVuSans-6f" d="M 1959 3097 
Q 1497 3097 1228 2736 
Q 959 2375 959 1747 
Q 959 1119 1226 758 
Q 1494 397 1959 397 
Q 2419 397 2687 759 
Q 2956 1122 2956 1747 
Q 2956 2369 2687 2733 
Q 2419 3097 1959 3097 
z
M 1959 3584 
Q 2709 3584 3137 3096 
Q 3566 2609 3566 1747 
Q 3566 888 3137 398 
Q 2709 -91 1959 -91 
Q 1206 -91 779 398 
Q 353 888 353 1747 
Q 353 2609 779 3096 
Q 1206 3584 1959 3584 
z
" transform="scale(0.015625)"/>
       <path id="DejaVuSans-63" d="M 3122 3366 
L 3122 2828 
Q 2878 2963 2633 3030 
Q 2388 3097 2138 3097 
Q 1578 3097 1268 2742 
Q 959 2388 959 1747 
Q 959 1106 1268 751 
Q 1578 397 2138 397 
Q 2388 397 2633 464 
Q 2878 531 3122 666 
L 3122 134 
Q 2881 22 2623 -34 
Q 2366 -91 2075 -91 
Q 1284 -91 818 406 
Q 353 903 353 1747 
Q 353 2603 823 3093 
Q 1294 3584 2113 3584 
Q 2378 3584 2631 3529 
Q 2884 3475 3122 3366 
z
" transform="scale(0.015625)"/>
       <path id="DejaVuSans-68" d="M 3513 2113 
L 3513 0 
L 2938 0 
L 2938 2094 
Q 2938 2591 2744 2837 
Q 2550 3084 2163 3084 
Q 1697 3084 1428 2787 
Q 1159 2491 1159 1978 
L 1159 0 
L 581 0 
L 581 4863 
L 1159 4863 
L 1159 2956 
Q 1366 3272 1645 3428 
Q 1925 3584 2291 3584 
Q 2894 3584 3203 3211 
Q 3513 2838 3513 2113 
z
" transform="scale(0.015625)"/>
       <path id="DejaVuSans-73" d="M 2834 3397 
L 2834 2853 
Q 2591 2978 2328 3040 
Q 2066 3103 1784 3103 
Q 1356 3103 1142 2972 
Q 928 2841 928 2578 
Q 928 2378 1081 2264 
Q 1234 2150 1697 2047 
L 1894 2003 
Q 2506 1872 2764 1633 
Q 3022 1394 3022 966 
Q 3022 478 2636 193 
Q 2250 -91 1575 -91 
Q 1294 -91 989 -36 
Q 684 19 347 128 
L 347 722 
Q 666 556 975 473 
Q 1284 391 1588 391 
Q 1994 391 2212 530 
Q 2431 669 2431 922 
Q 2431 1156 2273 1281 
Q 2116 1406 1581 1522 
L 1381 1569 
Q 847 1681 609 1914 
Q 372 2147 372 2553 
Q 372 3047 722 3315 
Q 1072 3584 1716 3584 
Q 2034 3584 2315 3537 
Q 2597 3491 2834 3397 
z
" transform="scale(0.015625)"/>
      </defs>
      <use xlink:href="#DejaVuSans-45"/>
      <use xlink:href="#DejaVuSans-70" x="63.183594"/>
      <use xlink:href="#DejaVuSans-6f" x="126.660156"/>
      <use xlink:href="#DejaVuSans-63" x="187.841797"/>
      <use xlink:href="#DejaVuSans-68" x="242.822266"/>
      <use xlink:href="#DejaVuSans-73" x="306.201172"/>
     </g>
    </g>
   </g>
   <g id="matplotlib.axis_2">
    <g id="ytick_1">
     <g id="line2d_7">
      <defs>
       <path id="m550767e1ca" d="M 0 0 
L -3.5 0 
" style="stroke: #000000; stroke-width: 0.8"/>
      </defs>
      <g>
       <use xlink:href="#m550767e1ca" x="70.46" y="772.38514" style="stroke: #000000; stroke-width: 0.8"/>
      </g>
     </g>
     <g id="text_8">
      <!-- 0 -->
      <g transform="translate(45.645 783.022953)scale(0.28 -0.28)">
       <use xlink:href="#DejaVuSans-30"/>
      </g>
     </g>
    </g>
    <g id="ytick_2">
     <g id="line2d_8">
      <g>
       <use xlink:href="#m550767e1ca" x="70.46" y="655.036545" style="stroke: #000000; stroke-width: 0.8"/>
      </g>
     </g>
     <g id="text_9">
      <!-- 1 -->
      <g transform="translate(45.645 665.674358)scale(0.28 -0.28)">
       <use xlink:href="#DejaVuSans-31"/>
      </g>
     </g>
    </g>
    <g id="ytick_3">
     <g id="line2d_9">
      <g>
       <use xlink:href="#m550767e1ca" x="70.46" y="537.68795" style="stroke: #000000; stroke-width: 0.8"/>
      </g>
     </g>
     <g id="text_10">
      <!-- 2 -->
      <g transform="translate(45.645 548.325763)scale(0.28 -0.28)">
       <use xlink:href="#DejaVuSans-32"/>
      </g>
     </g>
    </g>
    <g id="ytick_4">
     <g id="line2d_10">
      <g>
       <use xlink:href="#m550767e1ca" x="70.46" y="420.339355" style="stroke: #000000; stroke-width: 0.8"/>
      </g>
     </g>
     <g id="text_11">
      <!-- 3 -->
      <g transform="translate(45.645 430.977167)scale(0.28 -0.28)">
       <defs>
        <path id="DejaVuSans-33" d="M 2597 2516 
Q 3050 2419 3304 2112 
Q 3559 1806 3559 1356 
Q 3559 666 3084 287 
Q 2609 -91 1734 -91 
Q 1441 -91 1130 -33 
Q 819 25 488 141 
L 488 750 
Q 750 597 1062 519 
Q 1375 441 1716 441 
Q 2309 441 2620 675 
Q 2931 909 2931 1356 
Q 2931 1769 2642 2001 
Q 2353 2234 1838 2234 
L 1294 2234 
L 1294 2753 
L 1863 2753 
Q 2328 2753 2575 2939 
Q 2822 3125 2822 3475 
Q 2822 3834 2567 4026 
Q 2313 4219 1838 4219 
Q 1578 4219 1281 4162 
Q 984 4106 628 3988 
L 628 4550 
Q 988 4650 1302 4700 
Q 1616 4750 1894 4750 
Q 2613 4750 3031 4423 
Q 3450 4097 3450 3541 
Q 3450 3153 3228 2886 
Q 3006 2619 2597 2516 
z
" transform="scale(0.015625)"/>
       </defs>
       <use xlink:href="#DejaVuSans-33"/>
      </g>
     </g>
    </g>
    <g id="ytick_5">
     <g id="line2d_11">
      <g>
       <use xlink:href="#m550767e1ca" x="70.46" y="302.99076" style="stroke: #000000; stroke-width: 0.8"/>
      </g>
     </g>
     <g id="text_12">
      <!-- 4 -->
      <g transform="translate(45.645 313.628572)scale(0.28 -0.28)">
       <use xlink:href="#DejaVuSans-34"/>
      </g>
     </g>
    </g>
    <g id="ytick_6">
     <g id="line2d_12">
      <g>
       <use xlink:href="#m550767e1ca" x="70.46" y="185.642164" style="stroke: #000000; stroke-width: 0.8"/>
      </g>
     </g>
     <g id="text_13">
      <!-- 5 -->
      <g transform="translate(45.645 196.279977)scale(0.28 -0.28)">
       <defs>
        <path id="DejaVuSans-35" d="M 691 4666 
L 3169 4666 
L 3169 4134 
L 1269 4134 
L 1269 2991 
Q 1406 3038 1543 3061 
Q 1681 3084 1819 3084 
Q 2600 3084 3056 2656 
Q 3513 2228 3513 1497 
Q 3513 744 3044 326 
Q 2575 -91 1722 -91 
Q 1428 -91 1123 -41 
Q 819 9 494 109 
L 494 744 
Q 775 591 1075 516 
Q 1375 441 1709 441 
Q 2250 441 2565 725 
Q 2881 1009 2881 1497 
Q 2881 1984 2565 2268 
Q 2250 2553 1709 2553 
Q 1456 2553 1204 2497 
Q 953 2441 691 2322 
L 691 4666 
z
" transform="scale(0.015625)"/>
       </defs>
       <use xlink:href="#DejaVuSans-35"/>
      </g>
     </g>
    </g>
    <g id="ytick_7">
     <g id="line2d_13">
      <g>
       <use xlink:href="#m550767e1ca" x="70.46" y="68.293569" style="stroke: #000000; stroke-width: 0.8"/>
      </g>
     </g>
     <g id="text_14">
      <!-- 6 -->
      <g transform="translate(45.645 78.931382)scale(0.28 -0.28)">
       <use xlink:href="#DejaVuSans-36"/>
      </g>
     </g>
    </g>
    <g id="text_15">
     <!-- Error (%) -->
     <g transform="translate(34.99 492.104355)rotate(-90)scale(0.32 -0.32)">
      <defs>
       <path id="DejaVuSans-72" d="M 2631 2963 
Q 2534 3019 2420 3045 
Q 2306 3072 2169 3072 
Q 1681 3072 1420 2755 
Q 1159 2438 1159 1844 
L 1159 0 
L 581 0 
L 581 3500 
L 1159 3500 
L 1159 2956 
Q 1341 3275 1631 3429 
Q 1922 3584 2338 3584 
Q 2397 3584 2469 3576 
Q 2541 3569 2628 3553 
L 2631 2963 
z
" transform="scale(0.015625)"/>
       <path id="DejaVuSans-20" transform="scale(0.015625)"/>
       <path id="DejaVuSans-28" d="M 1984 4856 
Q 1566 4138 1362 3434 
Q 1159 2731 1159 2009 
Q 1159 1288 1364 580 
Q 1569 -128 1984 -844 
L 1484 -844 
Q 1016 -109 783 600 
Q 550 1309 550 2009 
Q 550 2706 781 3412 
Q 1013 4119 1484 4856 
L 1984 4856 
z
" transform="scale(0.015625)"/>
       <path id="DejaVuSans-25" d="M 4653 2053 
Q 4381 2053 4226 1822 
Q 4072 1591 4072 1178 
Q 4072 772 4226 539 
Q 4381 306 4653 306 
Q 4919 306 5073 539 
Q 5228 772 5228 1178 
Q 5228 1588 5073 1820 
Q 4919 2053 4653 2053 
z
M 4653 2450 
Q 5147 2450 5437 2106 
Q 5728 1763 5728 1178 
Q 5728 594 5436 251 
Q 5144 -91 4653 -91 
Q 4153 -91 3862 251 
Q 3572 594 3572 1178 
Q 3572 1766 3864 2108 
Q 4156 2450 4653 2450 
z
M 1428 4353 
Q 1159 4353 1004 4120 
Q 850 3888 850 3481 
Q 850 3069 1003 2837 
Q 1156 2606 1428 2606 
Q 1700 2606 1854 2837 
Q 2009 3069 2009 3481 
Q 2009 3884 1853 4118 
Q 1697 4353 1428 4353 
z
M 4250 4750 
L 4750 4750 
L 1831 -91 
L 1331 -91 
L 4250 4750 
z
M 1428 4750 
Q 1922 4750 2215 4408 
Q 2509 4066 2509 3481 
Q 2509 2891 2217 2550 
Q 1925 2209 1428 2209 
Q 931 2209 642 2551 
Q 353 2894 353 3481 
Q 353 4063 643 4406 
Q 934 4750 1428 4750 
z
" transform="scale(0.015625)"/>
       <path id="DejaVuSans-29" d="M 513 4856 
L 1013 4856 
Q 1481 4119 1714 3412 
Q 1947 2706 1947 2009 
Q 1947 1309 1714 600 
Q 1481 -109 1013 -844 
L 513 -844 
Q 928 -128 1133 580 
Q 1338 1288 1338 2009 
Q 1338 2731 1133 3434 
Q 928 4138 513 4856 
z
" transform="scale(0.015625)"/>
      </defs>
      <use xlink:href="#DejaVuSans-45"/>
      <use xlink:href="#DejaVuSans-72" x="63.183594"/>
      <use xlink:href="#DejaVuSans-72" x="102.546875"/>
      <use xlink:href="#DejaVuSans-6f" x="141.410156"/>
      <use xlink:href="#DejaVuSans-72" x="202.591797"/>
      <use xlink:href="#DejaVuSans-20" x="243.705078"/>
      <use xlink:href="#DejaVuSans-28" x="275.492188"/>
      <use xlink:href="#DejaVuSans-25" x="314.505859"/>
      <use xlink:href="#DejaVuSans-29" x="409.525391"/>
     </g>
    </g>
   </g>
   <g id="line2d_14">
    <path d="M 112.324799 377.901831 
L 120.868636 607.165443 
L 129.412472 653.205338 
L 137.956309 677.666458 
L 146.500146 689.509494 
L 155.043982 696.960195 
L 163.587819 702.040671 
L 172.131655 703.795837 
L 180.675492 706.251892 
L 189.219329 709.774961 
L 197.763165 712.39524 
L 206.307002 714.248138 
L 214.850838 714.922115 
L 223.394675 716.77327 
L 231.938512 718.018672 
L 240.482348 719.61128 
L 249.026185 720.078006 
L 257.570021 720.990414 
L 266.113858 722.007926 
L 274.657695 722.881536 
L 283.201531 723.462781 
L 291.745368 724.84798 
L 300.289204 724.876439 
L 308.833041 725.786557 
L 317.376877 726.538485 
L 325.920714 726.937935 
L 334.464551 727.994925 
L 343.008387 728.531503 
L 351.552224 729.276993 
L 360.09606 729.90383 
L 368.639897 730.296712 
L 377.183734 730.705504 
L 385.72757 731.531682 
L 394.271407 732.197758 
L 402.815243 732.266599 
L 411.35908 732.36155 
L 419.902917 733.117977 
L 428.446753 733.879303 
L 436.99059 734.14727 
L 445.534426 734.621097 
L 454.078263 734.733135 
L 462.622099 734.861495 
L 471.165936 735.646147 
L 479.709773 736.468205 
L 488.253609 736.583587 
L 496.797446 736.651287 
L 505.341282 737.562512 
L 513.885119 737.706632 
L 522.428956 737.771186 
L 530.972792 737.994347 
L 539.516629 738.69196 
L 548.060465 739.089241 
L 556.604302 739.449052 
L 565.148139 739.695286 
L 573.691975 739.925969 
L 582.235812 740.27052 
L 590.779648 740.541517 
L 599.323485 740.920406 
L 607.867322 741.378731 
L 616.411158 741.389807 
L 624.954995 741.789006 
L 633.498831 742.257461 
L 642.042668 742.44295 
L 650.586504 742.870255 
L 659.130341 742.877034 
L 667.674178 743.299981 
L 676.218014 743.48503 
L 684.761851 743.804556 
L 693.305687 744.016499 
L 701.849524 744.283643 
L 710.393361 744.568126 
L 718.937197 744.774265 
L 727.481034 745.230023 
L 736.02487 745.544856 
L 744.568707 745.584987 
L 753.112544 745.980292 
L 761.65638 746.186322 
L 770.200217 746.566496 
L 778.744053 746.861173 
L 787.28789 747.067593 
L 795.831727 747.536915 
L 804.375563 747.545825 
L 812.9194 747.565931 
L 821.463236 747.968086 
L 830.007073 748.118865 
L 838.550909 748.315348 
L 847.094746 748.539388 
L 855.638583 748.691948 
L 864.182419 749.056893 
L 872.726256 749.151488 
L 881.270092 749.453031 
L 889.813929 749.667885 
L 898.357766 749.990499 
L 906.901602 750.116892 
L 915.445439 750.143083 
L 923.989275 750.404376 
L 932.533112 750.569596 
L 941.076949 750.794276 
L 949.620785 751.032812 
" clip-path="url(#p39e395b8d5)" style="fill: none; stroke: #0000ff; stroke-width: 1.5; stroke-linecap: square"/>
    <defs>
     <path id="mdafc512c88" d="M 0 3 
C 0.795609 3 1.55874 2.683901 2.12132 2.12132 
C 2.683901 1.55874 3 0.795609 3 0 
C 3 -0.795609 2.683901 -1.55874 2.12132 -2.12132 
C 1.55874 -2.683901 0.795609 -3 0 -3 
C -0.795609 -3 -1.55874 -2.683901 -2.12132 -2.12132 
C -2.683901 -1.55874 -3 -0.795609 -3 0 
C -3 0.795609 -2.683901 1.55874 -2.12132 2.12132 
C -1.55874 2.683901 -0.795609 3 0 3 
z
" style="stroke: #0000ff"/>
    </defs>
    <g clip-path="url(#p39e395b8d5)">
     <use xlink:href="#mdafc512c88" x="112.324799" y="377.901831" style="fill: #0000ff; stroke: #0000ff"/>
     <use xlink:href="#mdafc512c88" x="120.868636" y="607.165443" style="fill: #0000ff; stroke: #0000ff"/>
     <use xlink:href="#mdafc512c88" x="129.412472" y="653.205338" style="fill: #0000ff; stroke: #0000ff"/>
     <use xlink:href="#mdafc512c88" x="137.956309" y="677.666458" style="fill: #0000ff; stroke: #0000ff"/>
     <use xlink:href="#mdafc512c88" x="146.500146" y="689.509494" style="fill: #0000ff; stroke: #0000ff"/>
     <use xlink:href="#mdafc512c88" x="155.043982" y="696.960195" style="fill: #0000ff; stroke: #0000ff"/>
     <use xlink:href="#mdafc512c88" x="163.587819" y="702.040671" style="fill: #0000ff; stroke: #0000ff"/>
     <use xlink:href="#mdafc512c88" x="172.131655" y="703.795837" style="fill: #0000ff; stroke: #0000ff"/>
     <use xlink:href="#mdafc512c88" x="180.675492" y="706.251892" style="fill: #0000ff; stroke: #0000ff"/>
     <use xlink:href="#mdafc512c88" x="189.219329" y="709.774961" style="fill: #0000ff; stroke: #0000ff"/>
     <use xlink:href="#mdafc512c88" x="197.763165" y="712.39524" style="fill: #0000ff; stroke: #0000ff"/>
     <use xlink:href="#mdafc512c88" x="206.307002" y="714.248138" style="fill: #0000ff; stroke: #0000ff"/>
     <use xlink:href="#mdafc512c88" x="214.850838" y="714.922115" style="fill: #0000ff; stroke: #0000ff"/>
     <use xlink:href="#mdafc512c88" x="223.394675" y="716.77327" style="fill: #0000ff; stroke: #0000ff"/>
     <use xlink:href="#mdafc512c88" x="231.938512" y="718.018672" style="fill: #0000ff; stroke: #0000ff"/>
     <use xlink:href="#mdafc512c88" x="240.482348" y="719.61128" style="fill: #0000ff; stroke: #0000ff"/>
     <use xlink:href="#mdafc512c88" x="249.026185" y="720.078006" style="fill: #0000ff; stroke: #0000ff"/>
     <use xlink:href="#mdafc512c88" x="257.570021" y="720.990414" style="fill: #0000ff; stroke: #0000ff"/>
     <use xlink:href="#mdafc512c88" x="266.113858" y="722.007926" style="fill: #0000ff; stroke: #0000ff"/>
     <use xlink:href="#mdafc512c88" x="274.657695" y="722.881536" style="fill: #0000ff; stroke: #0000ff"/>
     <use xlink:href="#mdafc512c88" x="283.201531" y="723.462781" style="fill: #0000ff; stroke: #0000ff"/>
     <use xlink:href="#mdafc512c88" x="291.745368" y="724.84798" style="fill: #0000ff; stroke: #0000ff"/>
     <use xlink:href="#mdafc512c88" x="300.289204" y="724.876439" style="fill: #0000ff; stroke: #0000ff"/>
     <use xlink:href="#mdafc512c88" x="308.833041" y="725.786557" style="fill: #0000ff; stroke: #0000ff"/>
     <use xlink:href="#mdafc512c88" x="317.376877" y="726.538485" style="fill: #0000ff; stroke: #0000ff"/>
     <use xlink:href="#mdafc512c88" x="325.920714" y="726.937935" style="fill: #0000ff; stroke: #0000ff"/>
     <use xlink:href="#mdafc512c88" x="334.464551" y="727.994925" style="fill: #0000ff; stroke: #0000ff"/>
     <use xlink:href="#mdafc512c88" x="343.008387" y="728.531503" style="fill: #0000ff; stroke: #0000ff"/>
     <use xlink:href="#mdafc512c88" x="351.552224" y="729.276993" style="fill: #0000ff; stroke: #0000ff"/>
     <use xlink:href="#mdafc512c88" x="360.09606" y="729.90383" style="fill: #0000ff; stroke: #0000ff"/>
     <use xlink:href="#mdafc512c88" x="368.639897" y="730.296712" style="fill: #0000ff; stroke: #0000ff"/>
     <use xlink:href="#mdafc512c88" x="377.183734" y="730.705504" style="fill: #0000ff; stroke: #0000ff"/>
     <use xlink:href="#mdafc512c88" x="385.72757" y="731.531682" style="fill: #0000ff; stroke: #0000ff"/>
     <use xlink:href="#mdafc512c88" x="394.271407" y="732.197758" style="fill: #0000ff; stroke: #0000ff"/>
     <use xlink:href="#mdafc512c88" x="402.815243" y="732.266599" style="fill: #0000ff; stroke: #0000ff"/>
     <use xlink:href="#mdafc512c88" x="411.35908" y="732.36155" style="fill: #0000ff; stroke: #0000ff"/>
     <use xlink:href="#mdafc512c88" x="419.902917" y="733.117977" style="fill: #0000ff; stroke: #0000ff"/>
     <use xlink:href="#mdafc512c88" x="428.446753" y="733.879303" style="fill: #0000ff; stroke: #0000ff"/>
     <use xlink:href="#mdafc512c88" x="436.99059" y="734.14727" style="fill: #0000ff; stroke: #0000ff"/>
     <use xlink:href="#mdafc512c88" x="445.534426" y="734.621097" style="fill: #0000ff; stroke: #0000ff"/>
     <use xlink:href="#mdafc512c88" x="454.078263" y="734.733135" style="fill: #0000ff; stroke: #0000ff"/>
     <use xlink:href="#mdafc512c88" x="462.622099" y="734.861495" style="fill: #0000ff; stroke: #0000ff"/>
     <use xlink:href="#mdafc512c88" x="471.165936" y="735.646147" style="fill: #0000ff; stroke: #0000ff"/>
     <use xlink:href="#mdafc512c88" x="479.709773" y="736.468205" style="fill: #0000ff; stroke: #0000ff"/>
     <use xlink:href="#mdafc512c88" x="488.253609" y="736.583587" style="fill: #0000ff; stroke: #0000ff"/>
     <use xlink:href="#mdafc512c88" x="496.797446" y="736.651287" style="fill: #0000ff; stroke: #0000ff"/>
     <use xlink:href="#mdafc512c88" x="505.341282" y="737.562512" style="fill: #0000ff; stroke: #0000ff"/>
     <use xlink:href="#mdafc512c88" x="513.885119" y="737.706632" style="fill: #0000ff; stroke: #0000ff"/>
     <use xlink:href="#mdafc512c88" x="522.428956" y="737.771186" style="fill: #0000ff; stroke: #0000ff"/>
     <use xlink:href="#mdafc512c88" x="530.972792" y="737.994347" style="fill: #0000ff; stroke: #0000ff"/>
     <use xlink:href="#mdafc512c88" x="539.516629" y="738.69196" style="fill: #0000ff; stroke: #0000ff"/>
     <use xlink:href="#mdafc512c88" x="548.060465" y="739.089241" style="fill: #0000ff; stroke: #0000ff"/>
     <use xlink:href="#mdafc512c88" x="556.604302" y="739.449052" style="fill: #0000ff; stroke: #0000ff"/>
     <use xlink:href="#mdafc512c88" x="565.148139" y="739.695286" style="fill: #0000ff; stroke: #0000ff"/>
     <use xlink:href="#mdafc512c88" x="573.691975" y="739.925969" style="fill: #0000ff; stroke: #0000ff"/>
     <use xlink:href="#mdafc512c88" x="582.235812" y="740.27052" style="fill: #0000ff; stroke: #0000ff"/>
     <use xlink:href="#mdafc512c88" x="590.779648" y="740.541517" style="fill: #0000ff; stroke: #0000ff"/>
     <use xlink:href="#mdafc512c88" x="599.323485" y="740.920406" style="fill: #0000ff; stroke: #0000ff"/>
     <use xlink:href="#mdafc512c88" x="607.867322" y="741.378731" style="fill: #0000ff; stroke: #0000ff"/>
     <use xlink:href="#mdafc512c88" x="616.411158" y="741.389807" style="fill: #0000ff; stroke: #0000ff"/>
     <use xlink:href="#mdafc512c88" x="624.954995" y="741.789006" style="fill: #0000ff; stroke: #0000ff"/>
     <use xlink:href="#mdafc512c88" x="633.498831" y="742.257461" style="fill: #0000ff; stroke: #0000ff"/>
     <use xlink:href="#mdafc512c88" x="642.042668" y="742.44295" style="fill: #0000ff; stroke: #0000ff"/>
     <use xlink:href="#mdafc512c88" x="650.586504" y="742.870255" style="fill: #0000ff; stroke: #0000ff"/>
     <use xlink:href="#mdafc512c88" x="659.130341" y="742.877034" style="fill: #0000ff; stroke: #0000ff"/>
     <use xlink:href="#mdafc512c88" x="667.674178" y="743.299981" style="fill: #0000ff; stroke: #0000ff"/>
     <use xlink:href="#mdafc512c88" x="676.218014" y="743.48503" style="fill: #0000ff; stroke: #0000ff"/>
     <use xlink:href="#mdafc512c88" x="684.761851" y="743.804556" style="fill: #0000ff; stroke: #0000ff"/>
     <use xlink:href="#mdafc512c88" x="693.305687" y="744.016499" style="fill: #0000ff; stroke: #0000ff"/>
     <use xlink:href="#mdafc512c88" x="701.849524" y="744.283643" style="fill: #0000ff; stroke: #0000ff"/>
     <use xlink:href="#mdafc512c88" x="710.393361" y="744.568126" style="fill: #0000ff; stroke: #0000ff"/>
     <use xlink:href="#mdafc512c88" x="718.937197" y="744.774265" style="fill: #0000ff; stroke: #0000ff"/>
     <use xlink:href="#mdafc512c88" x="727.481034" y="745.230023" style="fill: #0000ff; stroke: #0000ff"/>
     <use xlink:href="#mdafc512c88" x="736.02487" y="745.544856" style="fill: #0000ff; stroke: #0000ff"/>
     <use xlink:href="#mdafc512c88" x="744.568707" y="745.584987" style="fill: #0000ff; stroke: #0000ff"/>
     <use xlink:href="#mdafc512c88" x="753.112544" y="745.980292" style="fill: #0000ff; stroke: #0000ff"/>
     <use xlink:href="#mdafc512c88" x="761.65638" y="746.186322" style="fill: #0000ff; stroke: #0000ff"/>
     <use xlink:href="#mdafc512c88" x="770.200217" y="746.566496" style="fill: #0000ff; stroke: #0000ff"/>
     <use xlink:href="#mdafc512c88" x="778.744053" y="746.861173" style="fill: #0000ff; stroke: #0000ff"/>
     <use xlink:href="#mdafc512c88" x="787.28789" y="747.067593" style="fill: #0000ff; stroke: #0000ff"/>
     <use xlink:href="#mdafc512c88" x="795.831727" y="747.536915" style="fill: #0000ff; stroke: #0000ff"/>
     <use xlink:href="#mdafc512c88" x="804.375563" y="747.545825" style="fill: #0000ff; stroke: #0000ff"/>
     <use xlink:href="#mdafc512c88" x="812.9194" y="747.565931" style="fill: #0000ff; stroke: #0000ff"/>
     <use xlink:href="#mdafc512c88" x="821.463236" y="747.968086" style="fill: #0000ff; stroke: #0000ff"/>
     <use xlink:href="#mdafc512c88" x="830.007073" y="748.118865" style="fill: #0000ff; stroke: #0000ff"/>
     <use xlink:href="#mdafc512c88" x="838.550909" y="748.315348" style="fill: #0000ff; stroke: #0000ff"/>
     <use xlink:href="#mdafc512c88" x="847.094746" y="748.539388" style="fill: #0000ff; stroke: #0000ff"/>
     <use xlink:href="#mdafc512c88" x="855.638583" y="748.691948" style="fill: #0000ff; stroke: #0000ff"/>
     <use xlink:href="#mdafc512c88" x="864.182419" y="749.056893" style="fill: #0000ff; stroke: #0000ff"/>
     <use xlink:href="#mdafc512c88" x="872.726256" y="749.151488" style="fill: #0000ff; stroke: #0000ff"/>
     <use xlink:href="#mdafc512c88" x="881.270092" y="749.453031" style="fill: #0000ff; stroke: #0000ff"/>
     <use xlink:href="#mdafc512c88" x="889.813929" y="749.667885" style="fill: #0000ff; stroke: #0000ff"/>
     <use xlink:href="#mdafc512c88" x="898.357766" y="749.990499" style="fill: #0000ff; stroke: #0000ff"/>
     <use xlink:href="#mdafc512c88" x="906.901602" y="750.116892" style="fill: #0000ff; stroke: #0000ff"/>
     <use xlink:href="#mdafc512c88" x="915.445439" y="750.143083" style="fill: #0000ff; stroke: #0000ff"/>
     <use xlink:href="#mdafc512c88" x="923.989275" y="750.404376" style="fill: #0000ff; stroke: #0000ff"/>
     <use xlink:href="#mdafc512c88" x="932.533112" y="750.569596" style="fill: #0000ff; stroke: #0000ff"/>
     <use xlink:href="#mdafc512c88" x="941.076949" y="750.794276" style="fill: #0000ff; stroke: #0000ff"/>
     <use xlink:href="#mdafc512c88" x="949.620785" y="751.032812" style="fill: #0000ff; stroke: #0000ff"/>
    </g>
   </g>
   <g id="line2d_15">
    <path d="M 112.324799 429.278886 
L 120.868636 446.193758 
L 129.412472 335.692518 
L 137.956309 386.430601 
L 146.500146 340.903524 
L 155.043982 360.433408 
L 163.587819 336.558527 
L 172.131655 366.396412 
L 180.675492 351.539218 
L 189.219329 398.448325 
L 197.763165 372.789842 
L 206.307002 369.931574 
L 214.850838 456.373191 
L 223.394675 407.927978 
L 231.938512 394.314476 
L 240.482348 397.392721 
L 249.026185 388.484586 
L 257.570021 394.894234 
L 266.113858 439.433903 
L 274.657695 415.844858 
L 283.201531 431.84852 
L 291.745368 433.354549 
L 300.289204 397.482294 
L 308.833041 425.777887 
L 317.376877 427.559829 
L 325.920714 392.385037 
L 334.464551 424.874282 
L 343.008387 397.172087 
L 351.552224 384.671479 
L 360.09606 458.179876 
L 368.639897 434.111553 
L 377.183734 402.323115 
L 385.72757 441.123124 
L 394.271407 415.134018 
L 402.815243 385.113139 
L 411.35908 419.730992 
L 419.902917 411.376168 
L 428.446753 417.405882 
L 436.99059 421.720628 
L 445.534426 386.839256 
L 454.078263 367.316804 
L 462.622099 425.322282 
L 471.165936 420.110292 
L 479.709773 406.978953 
L 488.253609 452.661308 
L 496.797446 433.92386 
L 505.341282 442.870508 
L 513.885119 428.665357 
L 522.428956 417.598363 
L 530.972792 437.901841 
L 539.516629 428.237226 
L 548.060465 419.710402 
L 556.604302 432.162836 
L 565.148139 435.127027 
L 573.691975 404.383701 
L 582.235812 428.850056 
L 590.779648 426.21734 
L 599.323485 412.745651 
L 607.867322 432.020279 
L 616.411158 411.189327 
L 624.954995 422.693609 
L 633.498831 412.108975 
L 642.042668 407.010843 
L 650.586504 433.631554 
L 659.130341 425.473538 
L 667.674178 425.029648 
L 676.218014 410.03217 
L 684.761851 412.596406 
L 693.305687 418.882994 
L 701.849524 435.855528 
L 710.393361 425.61592 
L 718.937197 425.74357 
L 727.481034 432.456693 
L 736.02487 430.391167 
L 744.568707 432.727119 
L 753.112544 433.197872 
L 761.65638 428.744001 
L 770.200217 434.46399 
L 778.744053 424.969168 
L 787.28789 429.889158 
L 795.831727 433.917237 
L 804.375563 429.830535 
L 812.9194 434.512951 
L 821.463236 426.658323 
L 830.007073 426.835218 
L 838.550909 424.372863 
L 847.094746 439.889181 
L 855.638583 429.994862 
L 864.182419 433.799773 
L 872.726256 437.277361 
L 881.270092 437.440355 
L 889.813929 424.176929 
L 898.357766 430.553528 
L 906.901602 428.333795 
L 915.445439 424.05765 
L 923.989275 429.036897 
L 932.533112 425.430412 
L 941.076949 422.442069 
L 949.620785 421.062137 
" clip-path="url(#p39e395b8d5)" style="fill: none; stroke-dasharray: 5.55,2.4; stroke-dashoffset: 0; stroke: #ff0000; stroke-width: 1.5"/>
    <defs>
     <path id="meb9eea33d3" d="M 0 3 
C 0.795609 3 1.55874 2.683901 2.12132 2.12132 
C 2.683901 1.55874 3 0.795609 3 0 
C 3 -0.795609 2.683901 -1.55874 2.12132 -2.12132 
C 1.55874 -2.683901 0.795609 -3 0 -3 
C -0.795609 -3 -1.55874 -2.683901 -2.12132 -2.12132 
C -2.683901 -1.55874 -3 -0.795609 -3 0 
C -3 0.795609 -2.683901 1.55874 -2.12132 2.12132 
C -1.55874 2.683901 -0.795609 3 0 3 
z
" style="stroke: #ff0000"/>
    </defs>
    <g clip-path="url(#p39e395b8d5)">
     <use xlink:href="#meb9eea33d3" x="112.324799" y="429.278886" style="fill: #ff0000; stroke: #ff0000"/>
     <use xlink:href="#meb9eea33d3" x="120.868636" y="446.193758" style="fill: #ff0000; stroke: #ff0000"/>
     <use xlink:href="#meb9eea33d3" x="129.412472" y="335.692518" style="fill: #ff0000; stroke: #ff0000"/>
     <use xlink:href="#meb9eea33d3" x="137.956309" y="386.430601" style="fill: #ff0000; stroke: #ff0000"/>
     <use xlink:href="#meb9eea33d3" x="146.500146" y="340.903524" style="fill: #ff0000; stroke: #ff0000"/>
     <use xlink:href="#meb9eea33d3" x="155.043982" y="360.433408" style="fill: #ff0000; stroke: #ff0000"/>
     <use xlink:href="#meb9eea33d3" x="163.587819" y="336.558527" style="fill: #ff0000; stroke: #ff0000"/>
     <use xlink:href="#meb9eea33d3" x="172.131655" y="366.396412" style="fill: #ff0000; stroke: #ff0000"/>
     <use xlink:href="#meb9eea33d3" x="180.675492" y="351.539218" style="fill: #ff0000; stroke: #ff0000"/>
     <use xlink:href="#meb9eea33d3" x="189.219329" y="398.448325" style="fill: #ff0000; stroke: #ff0000"/>
     <use xlink:href="#meb9eea33d3" x="197.763165" y="372.789842" style="fill: #ff0000; stroke: #ff0000"/>
     <use xlink:href="#meb9eea33d3" x="206.307002" y="369.931574" style="fill: #ff0000; stroke: #ff0000"/>
     <use xlink:href="#meb9eea33d3" x="214.850838" y="456.373191" style="fill: #ff0000; stroke: #ff0000"/>
     <use xlink:href="#meb9eea33d3" x="223.394675" y="407.927978" style="fill: #ff0000; stroke: #ff0000"/>
     <use xlink:href="#meb9eea33d3" x="231.938512" y="394.314476" style="fill: #ff0000; stroke: #ff0000"/>
     <use xlink:href="#meb9eea33d3" x="240.482348" y="397.392721" style="fill: #ff0000; stroke: #ff0000"/>
     <use xlink:href="#meb9eea33d3" x="249.026185" y="388.484586" style="fill: #ff0000; stroke: #ff0000"/>
     <use xlink:href="#meb9eea33d3" x="257.570021" y="394.894234" style="fill: #ff0000; stroke: #ff0000"/>
     <use xlink:href="#meb9eea33d3" x="266.113858" y="439.433903" style="fill: #ff0000; stroke: #ff0000"/>
     <use xlink:href="#meb9eea33d3" x="274.657695" y="415.844858" style="fill: #ff0000; stroke: #ff0000"/>
     <use xlink:href="#meb9eea33d3" x="283.201531" y="431.84852" style="fill: #ff0000; stroke: #ff0000"/>
     <use xlink:href="#meb9eea33d3" x="291.745368" y="433.354549" style="fill: #ff0000; stroke: #ff0000"/>
     <use xlink:href="#meb9eea33d3" x="300.289204" y="397.482294" style="fill: #ff0000; stroke: #ff0000"/>
     <use xlink:href="#meb9eea33d3" x="308.833041" y="425.777887" style="fill: #ff0000; stroke: #ff0000"/>
     <use xlink:href="#meb9eea33d3" x="317.376877" y="427.559829" style="fill: #ff0000; stroke: #ff0000"/>
     <use xlink:href="#meb9eea33d3" x="325.920714" y="392.385037" style="fill: #ff0000; stroke: #ff0000"/>
     <use xlink:href="#meb9eea33d3" x="334.464551" y="424.874282" style="fill: #ff0000; stroke: #ff0000"/>
     <use xlink:href="#meb9eea33d3" x="343.008387" y="397.172087" style="fill: #ff0000; stroke: #ff0000"/>
     <use xlink:href="#meb9eea33d3" x="351.552224" y="384.671479" style="fill: #ff0000; stroke: #ff0000"/>
     <use xlink:href="#meb9eea33d3" x="360.09606" y="458.179876" style="fill: #ff0000; stroke: #ff0000"/>
     <use xlink:href="#meb9eea33d3" x="368.639897" y="434.111553" style="fill: #ff0000; stroke: #ff0000"/>
     <use xlink:href="#meb9eea33d3" x="377.183734" y="402.323115" style="fill: #ff0000; stroke: #ff0000"/>
     <use xlink:href="#meb9eea33d3" x="385.72757" y="441.123124" style="fill: #ff0000; stroke: #ff0000"/>
     <use xlink:href="#meb9eea33d3" x="394.271407" y="415.134018" style="fill: #ff0000; stroke: #ff0000"/>
     <use xlink:href="#meb9eea33d3" x="402.815243" y="385.113139" style="fill: #ff0000; stroke: #ff0000"/>
     <use xlink:href="#meb9eea33d3" x="411.35908" y="419.730992" style="fill: #ff0000; stroke: #ff0000"/>
     <use xlink:href="#meb9eea33d3" x="419.902917" y="411.376168" style="fill: #ff0000; stroke: #ff0000"/>
     <use xlink:href="#meb9eea33d3" x="428.446753" y="417.405882" style="fill: #ff0000; stroke: #ff0000"/>
     <use xlink:href="#meb9eea33d3" x="436.99059" y="421.720628" style="fill: #ff0000; stroke: #ff0000"/>
     <use xlink:href="#meb9eea33d3" x="445.534426" y="386.839256" style="fill: #ff0000; stroke: #ff0000"/>
     <use xlink:href="#meb9eea33d3" x="454.078263" y="367.316804" style="fill: #ff0000; stroke: #ff0000"/>
     <use xlink:href="#meb9eea33d3" x="462.622099" y="425.322282" style="fill: #ff0000; stroke: #ff0000"/>
     <use xlink:href="#meb9eea33d3" x="471.165936" y="420.110292" style="fill: #ff0000; stroke: #ff0000"/>
     <use xlink:href="#meb9eea33d3" x="479.709773" y="406.978953" style="fill: #ff0000; stroke: #ff0000"/>
     <use xlink:href="#meb9eea33d3" x="488.253609" y="452.661308" style="fill: #ff0000; stroke: #ff0000"/>
     <use xlink:href="#meb9eea33d3" x="496.797446" y="433.92386" style="fill: #ff0000; stroke: #ff0000"/>
     <use xlink:href="#meb9eea33d3" x="505.341282" y="442.870508" style="fill: #ff0000; stroke: #ff0000"/>
     <use xlink:href="#meb9eea33d3" x="513.885119" y="428.665357" style="fill: #ff0000; stroke: #ff0000"/>
     <use xlink:href="#meb9eea33d3" x="522.428956" y="417.598363" style="fill: #ff0000; stroke: #ff0000"/>
     <use xlink:href="#meb9eea33d3" x="530.972792" y="437.901841" style="fill: #ff0000; stroke: #ff0000"/>
     <use xlink:href="#meb9eea33d3" x="539.516629" y="428.237226" style="fill: #ff0000; stroke: #ff0000"/>
     <use xlink:href="#meb9eea33d3" x="548.060465" y="419.710402" style="fill: #ff0000; stroke: #ff0000"/>
     <use xlink:href="#meb9eea33d3" x="556.604302" y="432.162836" style="fill: #ff0000; stroke: #ff0000"/>
     <use xlink:href="#meb9eea33d3" x="565.148139" y="435.127027" style="fill: #ff0000; stroke: #ff0000"/>
     <use xlink:href="#meb9eea33d3" x="573.691975" y="404.383701" style="fill: #ff0000; stroke: #ff0000"/>
     <use xlink:href="#meb9eea33d3" x="582.235812" y="428.850056" style="fill: #ff0000; stroke: #ff0000"/>
     <use xlink:href="#meb9eea33d3" x="590.779648" y="426.21734" style="fill: #ff0000; stroke: #ff0000"/>
     <use xlink:href="#meb9eea33d3" x="599.323485" y="412.745651" style="fill: #ff0000; stroke: #ff0000"/>
     <use xlink:href="#meb9eea33d3" x="607.867322" y="432.020279" style="fill: #ff0000; stroke: #ff0000"/>
     <use xlink:href="#meb9eea33d3" x="616.411158" y="411.189327" style="fill: #ff0000; stroke: #ff0000"/>
     <use xlink:href="#meb9eea33d3" x="624.954995" y="422.693609" style="fill: #ff0000; stroke: #ff0000"/>
     <use xlink:href="#meb9eea33d3" x="633.498831" y="412.108975" style="fill: #ff0000; stroke: #ff0000"/>
     <use xlink:href="#meb9eea33d3" x="642.042668" y="407.010843" style="fill: #ff0000; stroke: #ff0000"/>
     <use xlink:href="#meb9eea33d3" x="650.586504" y="433.631554" style="fill: #ff0000; stroke: #ff0000"/>
     <use xlink:href="#meb9eea33d3" x="659.130341" y="425.473538" style="fill: #ff0000; stroke: #ff0000"/>
     <use xlink:href="#meb9eea33d3" x="667.674178" y="425.029648" style="fill: #ff0000; stroke: #ff0000"/>
     <use xlink:href="#meb9eea33d3" x="676.218014" y="410.03217" style="fill: #ff0000; stroke: #ff0000"/>
     <use xlink:href="#meb9eea33d3" x="684.761851" y="412.596406" style="fill: #ff0000; stroke: #ff0000"/>
     <use xlink:href="#meb9eea33d3" x="693.305687" y="418.882994" style="fill: #ff0000; stroke: #ff0000"/>
     <use xlink:href="#meb9eea33d3" x="701.849524" y="435.855528" style="fill: #ff0000; stroke: #ff0000"/>
     <use xlink:href="#meb9eea33d3" x="710.393361" y="425.61592" style="fill: #ff0000; stroke: #ff0000"/>
     <use xlink:href="#meb9eea33d3" x="718.937197" y="425.74357" style="fill: #ff0000; stroke: #ff0000"/>
     <use xlink:href="#meb9eea33d3" x="727.481034" y="432.456693" style="fill: #ff0000; stroke: #ff0000"/>
     <use xlink:href="#meb9eea33d3" x="736.02487" y="430.391167" style="fill: #ff0000; stroke: #ff0000"/>
     <use xlink:href="#meb9eea33d3" x="744.568707" y="432.727119" style="fill: #ff0000; stroke: #ff0000"/>
     <use xlink:href="#meb9eea33d3" x="753.112544" y="433.197872" style="fill: #ff0000; stroke: #ff0000"/>
     <use xlink:href="#meb9eea33d3" x="761.65638" y="428.744001" style="fill: #ff0000; stroke: #ff0000"/>
     <use xlink:href="#meb9eea33d3" x="770.200217" y="434.46399" style="fill: #ff0000; stroke: #ff0000"/>
     <use xlink:href="#meb9eea33d3" x="778.744053" y="424.969168" style="fill: #ff0000; stroke: #ff0000"/>
     <use xlink:href="#meb9eea33d3" x="787.28789" y="429.889158" style="fill: #ff0000; stroke: #ff0000"/>
     <use xlink:href="#meb9eea33d3" x="795.831727" y="433.917237" style="fill: #ff0000; stroke: #ff0000"/>
     <use xlink:href="#meb9eea33d3" x="804.375563" y="429.830535" style="fill: #ff0000; stroke: #ff0000"/>
     <use xlink:href="#meb9eea33d3" x="812.9194" y="434.512951" style="fill: #ff0000; stroke: #ff0000"/>
     <use xlink:href="#meb9eea33d3" x="821.463236" y="426.658323" style="fill: #ff0000; stroke: #ff0000"/>
     <use xlink:href="#meb9eea33d3" x="830.007073" y="426.835218" style="fill: #ff0000; stroke: #ff0000"/>
     <use xlink:href="#meb9eea33d3" x="838.550909" y="424.372863" style="fill: #ff0000; stroke: #ff0000"/>
     <use xlink:href="#meb9eea33d3" x="847.094746" y="439.889181" style="fill: #ff0000; stroke: #ff0000"/>
     <use xlink:href="#meb9eea33d3" x="855.638583" y="429.994862" style="fill: #ff0000; stroke: #ff0000"/>
     <use xlink:href="#meb9eea33d3" x="864.182419" y="433.799773" style="fill: #ff0000; stroke: #ff0000"/>
     <use xlink:href="#meb9eea33d3" x="872.726256" y="437.277361" style="fill: #ff0000; stroke: #ff0000"/>
     <use xlink:href="#meb9eea33d3" x="881.270092" y="437.440355" style="fill: #ff0000; stroke: #ff0000"/>
     <use xlink:href="#meb9eea33d3" x="889.813929" y="424.176929" style="fill: #ff0000; stroke: #ff0000"/>
     <use xlink:href="#meb9eea33d3" x="898.357766" y="430.553528" style="fill: #ff0000; stroke: #ff0000"/>
     <use xlink:href="#meb9eea33d3" x="906.901602" y="428.333795" style="fill: #ff0000; stroke: #ff0000"/>
     <use xlink:href="#meb9eea33d3" x="915.445439" y="424.05765" style="fill: #ff0000; stroke: #ff0000"/>
     <use xlink:href="#meb9eea33d3" x="923.989275" y="429.036897" style="fill: #ff0000; stroke: #ff0000"/>
     <use xlink:href="#meb9eea33d3" x="932.533112" y="425.430412" style="fill: #ff0000; stroke: #ff0000"/>
     <use xlink:href="#meb9eea33d3" x="941.076949" y="422.442069" style="fill: #ff0000; stroke: #ff0000"/>
     <use xlink:href="#meb9eea33d3" x="949.620785" y="421.062137" style="fill: #ff0000; stroke: #ff0000"/>
    </g>
   </g>
   <g id="patch_3">
    <path d="M 70.46 784.12 
L 70.46 56.55871 
" style="fill: none; stroke: #000000; stroke-width: 0.8; stroke-linejoin: miter; stroke-linecap: square"/>
   </g>
   <g id="patch_4">
    <path d="M 991.485584 784.12 
L 991.485584 56.55871 
" style="fill: none; stroke: #000000; stroke-width: 0.8; stroke-linejoin: miter; stroke-linecap: square"/>
   </g>
   <g id="patch_5">
    <path d="M 70.46 784.12 
L 991.485584 784.12 
" style="fill: none; stroke: #000000; stroke-width: 0.8; stroke-linejoin: miter; stroke-linecap: square"/>
   </g>
   <g id="patch_6">
    <path d="M 70.46 56.55871 
L 991.485584 56.55871 
" style="fill: none; stroke: #000000; stroke-width: 0.8; stroke-linejoin: miter; stroke-linecap: square"/>
   </g>
   <g id="legend_1">
    <g id="patch_7">
     <path d="M 740.440584 176.09871 
L 969.085584 176.09871 
Q 975.485584 176.09871 975.485584 169.69871 
L 975.485584 78.95871 
Q 975.485584 72.55871 969.085584 72.55871 
L 740.440584 72.55871 
Q 734.040584 72.55871 734.040584 78.95871 
L 734.040584 169.69871 
Q 734.040584 176.09871 740.440584 176.09871 
z
" style="fill: #ffffff; opacity: 0.8; stroke: #cccccc; stroke-linejoin: miter"/>
    </g>
    <g id="line2d_16">
     <path d="M 746.840584 98.47371 
L 778.840584 98.47371 
L 810.840584 98.47371 
" style="fill: none; stroke: #0000ff; stroke-width: 1.5; stroke-linecap: square"/>
     <g>
      <use xlink:href="#mdafc512c88" x="778.840584" y="98.47371" style="fill: #0000ff; stroke: #0000ff"/>
     </g>
    </g>
    <g id="text_16">
     <!-- Training -->
     <g transform="translate(836.440584 109.67371)scale(0.32 -0.32)">
      <defs>
       <path id="DejaVuSans-54" d="M -19 4666 
L 3928 4666 
L 3928 4134 
L 2272 4134 
L 2272 0 
L 1638 0 
L 1638 4134 
L -19 4134 
L -19 4666 
z
" transform="scale(0.015625)"/>
       <path id="DejaVuSans-61" d="M 2194 1759 
Q 1497 1759 1228 1600 
Q 959 1441 959 1056 
Q 959 750 1161 570 
Q 1363 391 1709 391 
Q 2188 391 2477 730 
Q 2766 1069 2766 1631 
L 2766 1759 
L 2194 1759 
z
M 3341 1997 
L 3341 0 
L 2766 0 
L 2766 531 
Q 2569 213 2275 61 
Q 1981 -91 1556 -91 
Q 1019 -91 701 211 
Q 384 513 384 1019 
Q 384 1609 779 1909 
Q 1175 2209 1959 2209 
L 2766 2209 
L 2766 2266 
Q 2766 2663 2505 2880 
Q 2244 3097 1772 3097 
Q 1472 3097 1187 3025 
Q 903 2953 641 2809 
L 641 3341 
Q 956 3463 1253 3523 
Q 1550 3584 1831 3584 
Q 2591 3584 2966 3190 
Q 3341 2797 3341 1997 
z
" transform="scale(0.015625)"/>
       <path id="DejaVuSans-69" d="M 603 3500 
L 1178 3500 
L 1178 0 
L 603 0 
L 603 3500 
z
M 603 4863 
L 1178 4863 
L 1178 4134 
L 603 4134 
L 603 4863 
z
" transform="scale(0.015625)"/>
       <path id="DejaVuSans-6e" d="M 3513 2113 
L 3513 0 
L 2938 0 
L 2938 2094 
Q 2938 2591 2744 2837 
Q 2550 3084 2163 3084 
Q 1697 3084 1428 2787 
Q 1159 2491 1159 1978 
L 1159 0 
L 581 0 
L 581 3500 
L 1159 3500 
L 1159 2956 
Q 1366 3272 1645 3428 
Q 1925 3584 2291 3584 
Q 2894 3584 3203 3211 
Q 3513 2838 3513 2113 
z
" transform="scale(0.015625)"/>
       <path id="DejaVuSans-67" d="M 2906 1791 
Q 2906 2416 2648 2759 
Q 2391 3103 1925 3103 
Q 1463 3103 1205 2759 
Q 947 2416 947 1791 
Q 947 1169 1205 825 
Q 1463 481 1925 481 
Q 2391 481 2648 825 
Q 2906 1169 2906 1791 
z
M 3481 434 
Q 3481 -459 3084 -895 
Q 2688 -1331 1869 -1331 
Q 1566 -1331 1297 -1286 
Q 1028 -1241 775 -1147 
L 775 -588 
Q 1028 -725 1275 -790 
Q 1522 -856 1778 -856 
Q 2344 -856 2625 -561 
Q 2906 -266 2906 331 
L 2906 616 
Q 2728 306 2450 153 
Q 2172 0 1784 0 
Q 1141 0 747 490 
Q 353 981 353 1791 
Q 353 2603 747 3093 
Q 1141 3584 1784 3584 
Q 2172 3584 2450 3431 
Q 2728 3278 2906 2969 
L 2906 3500 
L 3481 3500 
L 3481 434 
z
" transform="scale(0.015625)"/>
      </defs>
      <use xlink:href="#DejaVuSans-54"/>
      <use xlink:href="#DejaVuSans-72" x="46.333984"/>
      <use xlink:href="#DejaVuSans-61" x="87.447266"/>
      <use xlink:href="#DejaVuSans-69" x="148.726562"/>
      <use xlink:href="#DejaVuSans-6e" x="176.509766"/>
      <use xlink:href="#DejaVuSans-69" x="239.888672"/>
      <use xlink:href="#DejaVuSans-6e" x="267.671875"/>
      <use xlink:href="#DejaVuSans-67" x="331.050781"/>
     </g>
    </g>
    <g id="line2d_17">
     <path d="M 746.840584 145.44371 
L 778.840584 145.44371 
L 810.840584 145.44371 
" style="fill: none; stroke-dasharray: 5.55,2.4; stroke-dashoffset: 0; stroke: #ff0000; stroke-width: 1.5"/>
     <g>
      <use xlink:href="#meb9eea33d3" x="778.840584" y="145.44371" style="fill: #ff0000; stroke: #ff0000"/>
     </g>
    </g>
    <g id="text_17">
     <!-- Testing -->
     <g transform="translate(836.440584 156.64371)scale(0.32 -0.32)">
      <defs>
       <path id="DejaVuSans-65" d="M 3597 1894 
L 3597 1613 
L 953 1613 
Q 991 1019 1311 708 
Q 1631 397 2203 397 
Q 2534 397 2845 478 
Q 3156 559 3463 722 
L 3463 178 
Q 3153 47 2828 -22 
Q 2503 -91 2169 -91 
Q 1331 -91 842 396 
Q 353 884 353 1716 
Q 353 2575 817 3079 
Q 1281 3584 2069 3584 
Q 2775 3584 3186 3129 
Q 3597 2675 3597 1894 
z
M 3022 2063 
Q 3016 2534 2758 2815 
Q 2500 3097 2075 3097 
Q 1594 3097 1305 2825 
Q 1016 2553 972 2059 
L 3022 2063 
z
" transform="scale(0.015625)"/>
       <path id="DejaVuSans-74" d="M 1172 4494 
L 1172 3500 
L 2356 3500 
L 2356 3053 
L 1172 3053 
L 1172 1153 
Q 1172 725 1289 603 
Q 1406 481 1766 481 
L 2356 481 
L 2356 0 
L 1766 0 
Q 1100 0 847 248 
Q 594 497 594 1153 
L 594 3053 
L 172 3053 
L 172 3500 
L 594 3500 
L 594 4494 
L 1172 4494 
z
" transform="scale(0.015625)"/>
      </defs>
      <use xlink:href="#DejaVuSans-54"/>
      <use xlink:href="#DejaVuSans-65" x="44.083984"/>
      <use xlink:href="#DejaVuSans-73" x="105.607422"/>
      <use xlink:href="#DejaVuSans-74" x="157.707031"/>
      <use xlink:href="#DejaVuSans-69" x="196.916016"/>
      <use xlink:href="#DejaVuSans-6e" x="224.699219"/>
      <use xlink:href="#DejaVuSans-67" x="288.078125"/>
     </g>
    </g>
   </g>
  </g>
  <g id="text_18">
   <!-- Single model - FUDS training benchmark -->
   <g transform="translate(137.368125 44.634375)scale(0.36 -0.36)">
    <defs>
     <path id="DejaVuSans-53" d="M 3425 4513 
L 3425 3897 
Q 3066 4069 2747 4153 
Q 2428 4238 2131 4238 
Q 1616 4238 1336 4038 
Q 1056 3838 1056 3469 
Q 1056 3159 1242 3001 
Q 1428 2844 1947 2747 
L 2328 2669 
Q 3034 2534 3370 2195 
Q 3706 1856 3706 1288 
Q 3706 609 3251 259 
Q 2797 -91 1919 -91 
Q 1588 -91 1214 -16 
Q 841 59 441 206 
L 441 856 
Q 825 641 1194 531 
Q 1563 422 1919 422 
Q 2459 422 2753 634 
Q 3047 847 3047 1241 
Q 3047 1584 2836 1778 
Q 2625 1972 2144 2069 
L 1759 2144 
Q 1053 2284 737 2584 
Q 422 2884 422 3419 
Q 422 4038 858 4394 
Q 1294 4750 2059 4750 
Q 2388 4750 2728 4690 
Q 3069 4631 3425 4513 
z
" transform="scale(0.015625)"/>
     <path id="DejaVuSans-6c" d="M 603 4863 
L 1178 4863 
L 1178 0 
L 603 0 
L 603 4863 
z
" transform="scale(0.015625)"/>
     <path id="DejaVuSans-6d" d="M 3328 2828 
Q 3544 3216 3844 3400 
Q 4144 3584 4550 3584 
Q 5097 3584 5394 3201 
Q 5691 2819 5691 2113 
L 5691 0 
L 5113 0 
L 5113 2094 
Q 5113 2597 4934 2840 
Q 4756 3084 4391 3084 
Q 3944 3084 3684 2787 
Q 3425 2491 3425 1978 
L 3425 0 
L 2847 0 
L 2847 2094 
Q 2847 2600 2669 2842 
Q 2491 3084 2119 3084 
Q 1678 3084 1418 2786 
Q 1159 2488 1159 1978 
L 1159 0 
L 581 0 
L 581 3500 
L 1159 3500 
L 1159 2956 
Q 1356 3278 1631 3431 
Q 1906 3584 2284 3584 
Q 2666 3584 2933 3390 
Q 3200 3197 3328 2828 
z
" transform="scale(0.015625)"/>
     <path id="DejaVuSans-64" d="M 2906 2969 
L 2906 4863 
L 3481 4863 
L 3481 0 
L 2906 0 
L 2906 525 
Q 2725 213 2448 61 
Q 2172 -91 1784 -91 
Q 1150 -91 751 415 
Q 353 922 353 1747 
Q 353 2572 751 3078 
Q 1150 3584 1784 3584 
Q 2172 3584 2448 3432 
Q 2725 3281 2906 2969 
z
M 947 1747 
Q 947 1113 1208 752 
Q 1469 391 1925 391 
Q 2381 391 2643 752 
Q 2906 1113 2906 1747 
Q 2906 2381 2643 2742 
Q 2381 3103 1925 3103 
Q 1469 3103 1208 2742 
Q 947 2381 947 1747 
z
" transform="scale(0.015625)"/>
     <path id="DejaVuSans-2d" d="M 313 2009 
L 1997 2009 
L 1997 1497 
L 313 1497 
L 313 2009 
z
" transform="scale(0.015625)"/>
     <path id="DejaVuSans-46" d="M 628 4666 
L 3309 4666 
L 3309 4134 
L 1259 4134 
L 1259 2759 
L 3109 2759 
L 3109 2228 
L 1259 2228 
L 1259 0 
L 628 0 
L 628 4666 
z
" transform="scale(0.015625)"/>
     <path id="DejaVuSans-55" d="M 556 4666 
L 1191 4666 
L 1191 1831 
Q 1191 1081 1462 751 
Q 1734 422 2344 422 
Q 2950 422 3222 751 
Q 3494 1081 3494 1831 
L 3494 4666 
L 4128 4666 
L 4128 1753 
Q 4128 841 3676 375 
Q 3225 -91 2344 -91 
Q 1459 -91 1007 375 
Q 556 841 556 1753 
L 556 4666 
z
" transform="scale(0.015625)"/>
     <path id="DejaVuSans-44" d="M 1259 4147 
L 1259 519 
L 2022 519 
Q 2988 519 3436 956 
Q 3884 1394 3884 2338 
Q 3884 3275 3436 3711 
Q 2988 4147 2022 4147 
L 1259 4147 
z
M 628 4666 
L 1925 4666 
Q 3281 4666 3915 4102 
Q 4550 3538 4550 2338 
Q 4550 1131 3912 565 
Q 3275 0 1925 0 
L 628 0 
L 628 4666 
z
" transform="scale(0.015625)"/>
     <path id="DejaVuSans-62" d="M 3116 1747 
Q 3116 2381 2855 2742 
Q 2594 3103 2138 3103 
Q 1681 3103 1420 2742 
Q 1159 2381 1159 1747 
Q 1159 1113 1420 752 
Q 1681 391 2138 391 
Q 2594 391 2855 752 
Q 3116 1113 3116 1747 
z
M 1159 2969 
Q 1341 3281 1617 3432 
Q 1894 3584 2278 3584 
Q 2916 3584 3314 3078 
Q 3713 2572 3713 1747 
Q 3713 922 3314 415 
Q 2916 -91 2278 -91 
Q 1894 -91 1617 61 
Q 1341 213 1159 525 
L 1159 0 
L 581 0 
L 581 4863 
L 1159 4863 
L 1159 2969 
z
" transform="scale(0.015625)"/>
     <path id="DejaVuSans-6b" d="M 581 4863 
L 1159 4863 
L 1159 1991 
L 2875 3500 
L 3609 3500 
L 1753 1863 
L 3688 0 
L 2938 0 
L 1159 1709 
L 1159 0 
L 581 0 
L 581 4863 
z
" transform="scale(0.015625)"/>
    </defs>
    <use xlink:href="#DejaVuSans-53"/>
    <use xlink:href="#DejaVuSans-69" x="63.476562"/>
    <use xlink:href="#DejaVuSans-6e" x="91.259766"/>
    <use xlink:href="#DejaVuSans-67" x="154.638672"/>
    <use xlink:href="#DejaVuSans-6c" x="218.115234"/>
    <use xlink:href="#DejaVuSans-65" x="245.898438"/>
    <use xlink:href="#DejaVuSans-20" x="307.421875"/>
    <use xlink:href="#DejaVuSans-6d" x="339.208984"/>
    <use xlink:href="#DejaVuSans-6f" x="436.621094"/>
    <use xlink:href="#DejaVuSans-64" x="497.802734"/>
    <use xlink:href="#DejaVuSans-65" x="561.279297"/>
    <use xlink:href="#DejaVuSans-6c" x="622.802734"/>
    <use xlink:href="#DejaVuSans-20" x="650.585938"/>
    <use xlink:href="#DejaVuSans-2d" x="682.373047"/>
    <use xlink:href="#DejaVuSans-20" x="718.457031"/>
    <use xlink:href="#DejaVuSans-46" x="750.244141"/>
    <use xlink:href="#DejaVuSans-55" x="807.763672"/>
    <use xlink:href="#DejaVuSans-44" x="880.957031"/>
    <use xlink:href="#DejaVuSans-53" x="957.958984"/>
    <use xlink:href="#DejaVuSans-20" x="1021.435547"/>
    <use xlink:href="#DejaVuSans-74" x="1053.222656"/>
    <use xlink:href="#DejaVuSans-72" x="1092.431641"/>
    <use xlink:href="#DejaVuSans-61" x="1133.544922"/>
    <use xlink:href="#DejaVuSans-69" x="1194.824219"/>
    <use xlink:href="#DejaVuSans-6e" x="1222.607422"/>
    <use xlink:href="#DejaVuSans-69" x="1285.986328"/>
    <use xlink:href="#DejaVuSans-6e" x="1313.769531"/>
    <use xlink:href="#DejaVuSans-67" x="1377.148438"/>
    <use xlink:href="#DejaVuSans-20" x="1440.625"/>
    <use xlink:href="#DejaVuSans-62" x="1472.412109"/>
    <use xlink:href="#DejaVuSans-65" x="1535.888672"/>
    <use xlink:href="#DejaVuSans-6e" x="1597.412109"/>
    <use xlink:href="#DejaVuSans-63" x="1660.791016"/>
    <use xlink:href="#DejaVuSans-68" x="1715.771484"/>
    <use xlink:href="#DejaVuSans-6d" x="1779.150391"/>
    <use xlink:href="#DejaVuSans-61" x="1876.5625"/>
    <use xlink:href="#DejaVuSans-72" x="1937.841797"/>
    <use xlink:href="#DejaVuSans-6b" x="1978.955078"/>
   </g>
  </g>
 </g>
 <defs>
  <clipPath id="p39e395b8d5">
   <rect x="70.46" y="56.55871" width="921.025584" height="727.56129"/>
  </clipPath>
 </defs>
</svg>
