<?xml version="1.0" encoding="utf-8" standalone="no"?>
<!DOCTYPE svg PUBLIC "-//W3C//DTD SVG 1.1//EN"
  "http://www.w3.org/Graphics/SVG/1.1/DTD/svg11.dtd">
<svg xmlns:xlink="http://www.w3.org/1999/xlink" width="1008pt" height="864pt" viewBox="0 0 1008 864" xmlns="http://www.w3.org/2000/svg" version="1.1">
 <metadata>
  <rdf:RDF xmlns:dc="http://purl.org/dc/elements/1.1/" xmlns:cc="http://creativecommons.org/ns#" xmlns:rdf="http://www.w3.org/1999/02/22-rdf-syntax-ns#">
   <cc:Work>
    <dc:type rdf:resource="http://purl.org/dc/dcmitype/StillImage"/>
    <dc:date>2022-09-13T15:20:50.524265</dc:date>
    <dc:format>image/svg+xml</dc:format>
    <dc:creator>
     <cc:Agent>
      <dc:title>Matplotlib v3.5.1, https://matplotlib.org/</dc:title>
     </cc:Agent>
    </dc:creator>
   </cc:Work>
  </rdf:RDF>
 </metadata>
 <defs>
  <style type="text/css">*{stroke-linejoin: round; stroke-linecap: butt}</style>
 </defs>
 <g id="figure_1">
  <g id="patch_1">
   <path d="M 0 864 
L 1008 864 
L 1008 0 
L 0 0 
L 0 864 
z
" style="fill: none"/>
  </g>
  <g id="axes_1">
   <g id="patch_2">
    <path d="M 70.46 784.12 
L 983.089905 784.12 
L 983.089905 91.2 
L 70.46 91.2 
z
" style="fill: #ffffff"/>
   </g>
   <g id="matplotlib.axis_1">
    <g id="xtick_1">
     <g id="line2d_1">
      <defs>
       <path id="m3ffd5d8189" d="M 0 0 
L 0 3.5 
" style="stroke: #000000; stroke-width: 0.8"/>
      </defs>
      <g>
       <use xlink:href="#m3ffd5d8189" x="111.943178" y="784.12" style="stroke: #000000; stroke-width: 0.8"/>
      </g>
     </g>
     <g id="text_1">
      <!-- 0 -->
      <g transform="translate(103.035678 812.395625)scale(0.28 -0.28)">
       <defs>
        <path id="DejaVuSans-30" d="M 2034 4250 
Q 1547 4250 1301 3770 
Q 1056 3291 1056 2328 
Q 1056 1369 1301 889 
Q 1547 409 2034 409 
Q 2525 409 2770 889 
Q 3016 1369 3016 2328 
Q 3016 3291 2770 3770 
Q 2525 4250 2034 4250 
z
M 2034 4750 
Q 2819 4750 3233 4129 
Q 3647 3509 3647 2328 
Q 3647 1150 3233 529 
Q 2819 -91 2034 -91 
Q 1250 -91 836 529 
Q 422 1150 422 2328 
Q 422 3509 836 4129 
Q 1250 4750 2034 4750 
z
" transform="scale(0.015625)"/>
       </defs>
       <use xlink:href="#DejaVuSans-30"/>
      </g>
     </g>
    </g>
    <g id="xtick_2">
     <g id="line2d_2">
      <g>
       <use xlink:href="#m3ffd5d8189" x="235.773558" y="784.12" style="stroke: #000000; stroke-width: 0.8"/>
      </g>
     </g>
     <g id="text_2">
      <!-- 10 -->
      <g transform="translate(217.958558 812.395625)scale(0.28 -0.28)">
       <defs>
        <path id="DejaVuSans-31" d="M 794 531 
L 1825 531 
L 1825 4091 
L 703 3866 
L 703 4441 
L 1819 4666 
L 2450 4666 
L 2450 531 
L 3481 531 
L 3481 0 
L 794 0 
L 794 531 
z
" transform="scale(0.015625)"/>
       </defs>
       <use xlink:href="#DejaVuSans-31"/>
       <use xlink:href="#DejaVuSans-30" x="63.623047"/>
      </g>
     </g>
    </g>
    <g id="xtick_3">
     <g id="line2d_3">
      <g>
       <use xlink:href="#m3ffd5d8189" x="359.603939" y="784.12" style="stroke: #000000; stroke-width: 0.8"/>
      </g>
     </g>
     <g id="text_3">
      <!-- 20 -->
      <g transform="translate(341.788939 812.395625)scale(0.28 -0.28)">
       <defs>
        <path id="DejaVuSans-32" d="M 1228 531 
L 3431 531 
L 3431 0 
L 469 0 
L 469 531 
Q 828 903 1448 1529 
Q 2069 2156 2228 2338 
Q 2531 2678 2651 2914 
Q 2772 3150 2772 3378 
Q 2772 3750 2511 3984 
Q 2250 4219 1831 4219 
Q 1534 4219 1204 4116 
Q 875 4013 500 3803 
L 500 4441 
Q 881 4594 1212 4672 
Q 1544 4750 1819 4750 
Q 2544 4750 2975 4387 
Q 3406 4025 3406 3419 
Q 3406 3131 3298 2873 
Q 3191 2616 2906 2266 
Q 2828 2175 2409 1742 
Q 1991 1309 1228 531 
z
" transform="scale(0.015625)"/>
       </defs>
       <use xlink:href="#DejaVuSans-32"/>
       <use xlink:href="#DejaVuSans-30" x="63.623047"/>
      </g>
     </g>
    </g>
    <g id="xtick_4">
     <g id="line2d_4">
      <g>
       <use xlink:href="#m3ffd5d8189" x="483.434319" y="784.12" style="stroke: #000000; stroke-width: 0.8"/>
      </g>
     </g>
     <g id="text_4">
      <!-- 30 -->
      <g transform="translate(465.619319 812.395625)scale(0.28 -0.28)">
       <defs>
        <path id="DejaVuSans-33" d="M 2597 2516 
Q 3050 2419 3304 2112 
Q 3559 1806 3559 1356 
Q 3559 666 3084 287 
Q 2609 -91 1734 -91 
Q 1441 -91 1130 -33 
Q 819 25 488 141 
L 488 750 
Q 750 597 1062 519 
Q 1375 441 1716 441 
Q 2309 441 2620 675 
Q 2931 909 2931 1356 
Q 2931 1769 2642 2001 
Q 2353 2234 1838 2234 
L 1294 2234 
L 1294 2753 
L 1863 2753 
Q 2328 2753 2575 2939 
Q 2822 3125 2822 3475 
Q 2822 3834 2567 4026 
Q 2313 4219 1838 4219 
Q 1578 4219 1281 4162 
Q 984 4106 628 3988 
L 628 4550 
Q 988 4650 1302 4700 
Q 1616 4750 1894 4750 
Q 2613 4750 3031 4423 
Q 3450 4097 3450 3541 
Q 3450 3153 3228 2886 
Q 3006 2619 2597 2516 
z
" transform="scale(0.015625)"/>
       </defs>
       <use xlink:href="#DejaVuSans-33"/>
       <use xlink:href="#DejaVuSans-30" x="63.623047"/>
      </g>
     </g>
    </g>
    <g id="xtick_5">
     <g id="line2d_5">
      <g>
       <use xlink:href="#m3ffd5d8189" x="607.2647" y="784.12" style="stroke: #000000; stroke-width: 0.8"/>
      </g>
     </g>
     <g id="text_5">
      <!-- 40 -->
      <g transform="translate(589.4497 812.395625)scale(0.28 -0.28)">
       <defs>
        <path id="DejaVuSans-34" d="M 2419 4116 
L 825 1625 
L 2419 1625 
L 2419 4116 
z
M 2253 4666 
L 3047 4666 
L 3047 1625 
L 3713 1625 
L 3713 1100 
L 3047 1100 
L 3047 0 
L 2419 0 
L 2419 1100 
L 313 1100 
L 313 1709 
L 2253 4666 
z
" transform="scale(0.015625)"/>
       </defs>
       <use xlink:href="#DejaVuSans-34"/>
       <use xlink:href="#DejaVuSans-30" x="63.623047"/>
      </g>
     </g>
    </g>
    <g id="xtick_6">
     <g id="line2d_6">
      <g>
       <use xlink:href="#m3ffd5d8189" x="731.09508" y="784.12" style="stroke: #000000; stroke-width: 0.8"/>
      </g>
     </g>
     <g id="text_6">
      <!-- 50 -->
      <g transform="translate(713.28008 812.395625)scale(0.28 -0.28)">
       <defs>
        <path id="DejaVuSans-35" d="M 691 4666 
L 3169 4666 
L 3169 4134 
L 1269 4134 
L 1269 2991 
Q 1406 3038 1543 3061 
Q 1681 3084 1819 3084 
Q 2600 3084 3056 2656 
Q 3513 2228 3513 1497 
Q 3513 744 3044 326 
Q 2575 -91 1722 -91 
Q 1428 -91 1123 -41 
Q 819 9 494 109 
L 494 744 
Q 775 591 1075 516 
Q 1375 441 1709 441 
Q 2250 441 2565 725 
Q 2881 1009 2881 1497 
Q 2881 1984 2565 2268 
Q 2250 2553 1709 2553 
Q 1456 2553 1204 2497 
Q 953 2441 691 2322 
L 691 4666 
z
" transform="scale(0.015625)"/>
       </defs>
       <use xlink:href="#DejaVuSans-35"/>
       <use xlink:href="#DejaVuSans-30" x="63.623047"/>
      </g>
     </g>
    </g>
    <g id="xtick_7">
     <g id="line2d_7">
      <g>
       <use xlink:href="#m3ffd5d8189" x="854.925461" y="784.12" style="stroke: #000000; stroke-width: 0.8"/>
      </g>
     </g>
     <g id="text_7">
      <!-- 60 -->
      <g transform="translate(837.110461 812.395625)scale(0.28 -0.28)">
       <defs>
        <path id="DejaVuSans-36" d="M 2113 2584 
Q 1688 2584 1439 2293 
Q 1191 2003 1191 1497 
Q 1191 994 1439 701 
Q 1688 409 2113 409 
Q 2538 409 2786 701 
Q 3034 994 3034 1497 
Q 3034 2003 2786 2293 
Q 2538 2584 2113 2584 
z
M 3366 4563 
L 3366 3988 
Q 3128 4100 2886 4159 
Q 2644 4219 2406 4219 
Q 1781 4219 1451 3797 
Q 1122 3375 1075 2522 
Q 1259 2794 1537 2939 
Q 1816 3084 2150 3084 
Q 2853 3084 3261 2657 
Q 3669 2231 3669 1497 
Q 3669 778 3244 343 
Q 2819 -91 2113 -91 
Q 1303 -91 875 529 
Q 447 1150 447 2328 
Q 447 3434 972 4092 
Q 1497 4750 2381 4750 
Q 2619 4750 2861 4703 
Q 3103 4656 3366 4563 
z
" transform="scale(0.015625)"/>
       </defs>
       <use xlink:href="#DejaVuSans-36"/>
       <use xlink:href="#DejaVuSans-30" x="63.623047"/>
      </g>
     </g>
    </g>
    <g id="xtick_8">
     <g id="line2d_8">
      <g>
       <use xlink:href="#m3ffd5d8189" x="978.755842" y="784.12" style="stroke: #000000; stroke-width: 0.8"/>
      </g>
     </g>
     <g id="text_8">
      <!-- 70 -->
      <g transform="translate(960.940842 812.395625)scale(0.28 -0.28)">
       <defs>
        <path id="DejaVuSans-37" d="M 525 4666 
L 3525 4666 
L 3525 4397 
L 1831 0 
L 1172 0 
L 2766 4134 
L 525 4134 
L 525 4666 
z
" transform="scale(0.015625)"/>
       </defs>
       <use xlink:href="#DejaVuSans-37"/>
       <use xlink:href="#DejaVuSans-30" x="63.623047"/>
      </g>
     </g>
    </g>
    <g id="text_9">
     <!-- Epochs -->
     <g transform="translate(469.444953 846.53375)scale(0.32 -0.32)">
      <defs>
       <path id="DejaVuSans-45" d="M 628 4666 
L 3578 4666 
L 3578 4134 
L 1259 4134 
L 1259 2753 
L 3481 2753 
L 3481 2222 
L 1259 2222 
L 1259 531 
L 3634 531 
L 3634 0 
L 628 0 
L 628 4666 
z
" transform="scale(0.015625)"/>
       <path id="DejaVuSans-70" d="M 1159 525 
L 1159 -1331 
L 581 -1331 
L 581 3500 
L 1159 3500 
L 1159 2969 
Q 1341 3281 1617 3432 
Q 1894 3584 2278 3584 
Q 2916 3584 3314 3078 
Q 3713 2572 3713 1747 
Q 3713 922 3314 415 
Q 2916 -91 2278 -91 
Q 1894 -91 1617 61 
Q 1341 213 1159 525 
z
M 3116 1747 
Q 3116 2381 2855 2742 
Q 2594 3103 2138 3103 
Q 1681 3103 1420 2742 
Q 1159 2381 1159 1747 
Q 1159 1113 1420 752 
Q 1681 391 2138 391 
Q 2594 391 2855 752 
Q 3116 1113 3116 1747 
z
" transform="scale(0.015625)"/>
       <path id="DejaVuSans-6f" d="M 1959 3097 
Q 1497 3097 1228 2736 
Q 959 2375 959 1747 
Q 959 1119 1226 758 
Q 1494 397 1959 397 
Q 2419 397 2687 759 
Q 2956 1122 2956 1747 
Q 2956 2369 2687 2733 
Q 2419 3097 1959 3097 
z
M 1959 3584 
Q 2709 3584 3137 3096 
Q 3566 2609 3566 1747 
Q 3566 888 3137 398 
Q 2709 -91 1959 -91 
Q 1206 -91 779 398 
Q 353 888 353 1747 
Q 353 2609 779 3096 
Q 1206 3584 1959 3584 
z
" transform="scale(0.015625)"/>
       <path id="DejaVuSans-63" d="M 3122 3366 
L 3122 2828 
Q 2878 2963 2633 3030 
Q 2388 3097 2138 3097 
Q 1578 3097 1268 2742 
Q 959 2388 959 1747 
Q 959 1106 1268 751 
Q 1578 397 2138 397 
Q 2388 397 2633 464 
Q 2878 531 3122 666 
L 3122 134 
Q 2881 22 2623 -34 
Q 2366 -91 2075 -91 
Q 1284 -91 818 406 
Q 353 903 353 1747 
Q 353 2603 823 3093 
Q 1294 3584 2113 3584 
Q 2378 3584 2631 3529 
Q 2884 3475 3122 3366 
z
" transform="scale(0.015625)"/>
       <path id="DejaVuSans-68" d="M 3513 2113 
L 3513 0 
L 2938 0 
L 2938 2094 
Q 2938 2591 2744 2837 
Q 2550 3084 2163 3084 
Q 1697 3084 1428 2787 
Q 1159 2491 1159 1978 
L 1159 0 
L 581 0 
L 581 4863 
L 1159 4863 
L 1159 2956 
Q 1366 3272 1645 3428 
Q 1925 3584 2291 3584 
Q 2894 3584 3203 3211 
Q 3513 2838 3513 2113 
z
" transform="scale(0.015625)"/>
       <path id="DejaVuSans-73" d="M 2834 3397 
L 2834 2853 
Q 2591 2978 2328 3040 
Q 2066 3103 1784 3103 
Q 1356 3103 1142 2972 
Q 928 2841 928 2578 
Q 928 2378 1081 2264 
Q 1234 2150 1697 2047 
L 1894 2003 
Q 2506 1872 2764 1633 
Q 3022 1394 3022 966 
Q 3022 478 2636 193 
Q 2250 -91 1575 -91 
Q 1294 -91 989 -36 
Q 684 19 347 128 
L 347 722 
Q 666 556 975 473 
Q 1284 391 1588 391 
Q 1994 391 2212 530 
Q 2431 669 2431 922 
Q 2431 1156 2273 1281 
Q 2116 1406 1581 1522 
L 1381 1569 
Q 847 1681 609 1914 
Q 372 2147 372 2553 
Q 372 3047 722 3315 
Q 1072 3584 1716 3584 
Q 2034 3584 2315 3537 
Q 2597 3491 2834 3397 
z
" transform="scale(0.015625)"/>
      </defs>
      <use xlink:href="#DejaVuSans-45"/>
      <use xlink:href="#DejaVuSans-70" x="63.183594"/>
      <use xlink:href="#DejaVuSans-6f" x="126.660156"/>
      <use xlink:href="#DejaVuSans-63" x="187.841797"/>
      <use xlink:href="#DejaVuSans-68" x="242.822266"/>
      <use xlink:href="#DejaVuSans-73" x="306.201172"/>
     </g>
    </g>
   </g>
   <g id="matplotlib.axis_2">
    <g id="ytick_1">
     <g id="line2d_9">
      <defs>
       <path id="m2a7cc9daea" d="M 0 0 
L -3.5 0 
" style="stroke: #000000; stroke-width: 0.8"/>
      </defs>
      <g>
       <use xlink:href="#m2a7cc9daea" x="70.46" y="772.943871" style="stroke: #000000; stroke-width: 0.8"/>
      </g>
     </g>
     <g id="text_10">
      <!-- 0 -->
      <g transform="translate(45.645 783.581683)scale(0.28 -0.28)">
       <use xlink:href="#DejaVuSans-30"/>
      </g>
     </g>
    </g>
    <g id="ytick_2">
     <g id="line2d_10">
      <g>
       <use xlink:href="#m2a7cc9daea" x="70.46" y="661.182581" style="stroke: #000000; stroke-width: 0.8"/>
      </g>
     </g>
     <g id="text_11">
      <!-- 1 -->
      <g transform="translate(45.645 671.820393)scale(0.28 -0.28)">
       <use xlink:href="#DejaVuSans-31"/>
      </g>
     </g>
    </g>
    <g id="ytick_3">
     <g id="line2d_11">
      <g>
       <use xlink:href="#m2a7cc9daea" x="70.46" y="549.42129" style="stroke: #000000; stroke-width: 0.8"/>
      </g>
     </g>
     <g id="text_12">
      <!-- 2 -->
      <g transform="translate(45.645 560.059103)scale(0.28 -0.28)">
       <use xlink:href="#DejaVuSans-32"/>
      </g>
     </g>
    </g>
    <g id="ytick_4">
     <g id="line2d_12">
      <g>
       <use xlink:href="#m2a7cc9daea" x="70.46" y="437.66" style="stroke: #000000; stroke-width: 0.8"/>
      </g>
     </g>
     <g id="text_13">
      <!-- 3 -->
      <g transform="translate(45.645 448.297812)scale(0.28 -0.28)">
       <use xlink:href="#DejaVuSans-33"/>
      </g>
     </g>
    </g>
    <g id="ytick_5">
     <g id="line2d_13">
      <g>
       <use xlink:href="#m2a7cc9daea" x="70.46" y="325.89871" style="stroke: #000000; stroke-width: 0.8"/>
      </g>
     </g>
     <g id="text_14">
      <!-- 4 -->
      <g transform="translate(45.645 336.536522)scale(0.28 -0.28)">
       <use xlink:href="#DejaVuSans-34"/>
      </g>
     </g>
    </g>
    <g id="ytick_6">
     <g id="line2d_14">
      <g>
       <use xlink:href="#m2a7cc9daea" x="70.46" y="214.137419" style="stroke: #000000; stroke-width: 0.8"/>
      </g>
     </g>
     <g id="text_15">
      <!-- 5 -->
      <g transform="translate(45.645 224.775232)scale(0.28 -0.28)">
       <use xlink:href="#DejaVuSans-35"/>
      </g>
     </g>
    </g>
    <g id="ytick_7">
     <g id="line2d_15">
      <g>
       <use xlink:href="#m2a7cc9daea" x="70.46" y="102.376129" style="stroke: #000000; stroke-width: 0.8"/>
      </g>
     </g>
     <g id="text_16">
      <!-- 6 -->
      <g transform="translate(45.645 113.013942)scale(0.28 -0.28)">
       <use xlink:href="#DejaVuSans-36"/>
      </g>
     </g>
    </g>
    <g id="text_17">
     <!-- Error (%) -->
     <g transform="translate(34.99 509.425)rotate(-90)scale(0.32 -0.32)">
      <defs>
       <path id="DejaVuSans-72" d="M 2631 2963 
Q 2534 3019 2420 3045 
Q 2306 3072 2169 3072 
Q 1681 3072 1420 2755 
Q 1159 2438 1159 1844 
L 1159 0 
L 581 0 
L 581 3500 
L 1159 3500 
L 1159 2956 
Q 1341 3275 1631 3429 
Q 1922 3584 2338 3584 
Q 2397 3584 2469 3576 
Q 2541 3569 2628 3553 
L 2631 2963 
z
" transform="scale(0.015625)"/>
       <path id="DejaVuSans-20" transform="scale(0.015625)"/>
       <path id="DejaVuSans-28" d="M 1984 4856 
Q 1566 4138 1362 3434 
Q 1159 2731 1159 2009 
Q 1159 1288 1364 580 
Q 1569 -128 1984 -844 
L 1484 -844 
Q 1016 -109 783 600 
Q 550 1309 550 2009 
Q 550 2706 781 3412 
Q 1013 4119 1484 4856 
L 1984 4856 
z
" transform="scale(0.015625)"/>
       <path id="DejaVuSans-25" d="M 4653 2053 
Q 4381 2053 4226 1822 
Q 4072 1591 4072 1178 
Q 4072 772 4226 539 
Q 4381 306 4653 306 
Q 4919 306 5073 539 
Q 5228 772 5228 1178 
Q 5228 1588 5073 1820 
Q 4919 2053 4653 2053 
z
M 4653 2450 
Q 5147 2450 5437 2106 
Q 5728 1763 5728 1178 
Q 5728 594 5436 251 
Q 5144 -91 4653 -91 
Q 4153 -91 3862 251 
Q 3572 594 3572 1178 
Q 3572 1766 3864 2108 
Q 4156 2450 4653 2450 
z
M 1428 4353 
Q 1159 4353 1004 4120 
Q 850 3888 850 3481 
Q 850 3069 1003 2837 
Q 1156 2606 1428 2606 
Q 1700 2606 1854 2837 
Q 2009 3069 2009 3481 
Q 2009 3884 1853 4118 
Q 1697 4353 1428 4353 
z
M 4250 4750 
L 4750 4750 
L 1831 -91 
L 1331 -91 
L 4250 4750 
z
M 1428 4750 
Q 1922 4750 2215 4408 
Q 2509 4066 2509 3481 
Q 2509 2891 2217 2550 
Q 1925 2209 1428 2209 
Q 931 2209 642 2551 
Q 353 2894 353 3481 
Q 353 4063 643 4406 
Q 934 4750 1428 4750 
z
" transform="scale(0.015625)"/>
       <path id="DejaVuSans-29" d="M 513 4856 
L 1013 4856 
Q 1481 4119 1714 3412 
Q 1947 2706 1947 2009 
Q 1947 1309 1714 600 
Q 1481 -109 1013 -844 
L 513 -844 
Q 928 -128 1133 580 
Q 1338 1288 1338 2009 
Q 1338 2731 1133 3434 
Q 928 4138 513 4856 
z
" transform="scale(0.015625)"/>
      </defs>
      <use xlink:href="#DejaVuSans-45"/>
      <use xlink:href="#DejaVuSans-72" x="63.183594"/>
      <use xlink:href="#DejaVuSans-72" x="102.546875"/>
      <use xlink:href="#DejaVuSans-6f" x="141.410156"/>
      <use xlink:href="#DejaVuSans-72" x="202.591797"/>
      <use xlink:href="#DejaVuSans-20" x="243.705078"/>
      <use xlink:href="#DejaVuSans-28" x="275.492188"/>
      <use xlink:href="#DejaVuSans-25" x="314.505859"/>
      <use xlink:href="#DejaVuSans-29" x="409.525391"/>
     </g>
    </g>
   </g>
   <g id="line2d_16">
    <path d="M 111.943178 485.925442 
L 124.326216 635.314362 
L 136.709254 660.155388 
L 149.092292 673.87107 
L 161.47533 682.923856 
L 173.858368 689.30583 
L 186.241406 694.133666 
L 198.624444 698.442447 
L 211.007482 701.318272 
L 223.39052 704.383142 
L 235.773558 706.760993 
L 248.156596 710.238196 
L 260.539634 712.72661 
L 272.922672 714.61804 
L 285.30571 716.710703 
L 297.688748 719.088984 
L 310.071786 720.731601 
L 322.454825 723.405237 
L 334.837863 725.596637 
L 347.220901 727.059298 
L 359.603939 728.533274 
L 371.986977 729.810718 
L 384.370015 730.93099 
L 396.753053 731.587834 
L 409.136091 732.604537 
L 421.519129 734.481155 
L 433.902167 735.098838 
L 446.285205 737.642276 
L 458.668243 738.183982 
L 471.051281 737.510644 
L 483.434319 738.071889 
L 495.817357 739.708969 
L 508.200395 740.215339 
L 520.583433 737.606268 
L 532.966472 738.196455 
L 545.34951 738.441478 
L 557.732548 734.159957 
L 570.115586 734.597377 
L 582.498624 734.652387 
L 594.881662 735.287539 
L 607.2647 735.526299 
L 619.647738 735.981812 
L 632.030776 735.984167 
L 644.413814 736.115362 
L 656.796852 736.653746 
L 669.17989 737.01426 
L 681.562928 737.325911 
L 693.945966 737.4542 
L 706.329004 737.896239 
L 718.712042 737.95881 
L 731.09508 738.121226 
L 743.478119 738.633544 
L 755.861157 739.491011 
L 768.244195 742.28686 
L 780.627233 742.887076 
L 793.010271 743.296401 
L 805.393309 743.609733 
L 817.776347 743.75645 
L 830.159385 744.206866 
L 842.542423 745.836985 
L 854.925461 745.883441 
L 867.308499 746.566582 
L 879.691537 746.848699 
L 892.074575 747.139595 
L 904.457613 747.303122 
L 916.840651 747.379271 
L 929.223689 747.654422 
L 941.606728 747.729819 
" clip-path="url(#pe23f253eb0)" style="fill: none; stroke: #0000ff; stroke-width: 1.5; stroke-linecap: square"/>
    <defs>
     <path id="m55624375c5" d="M 0 3 
C 0.795609 3 1.55874 2.683901 2.12132 2.12132 
C 2.683901 1.55874 3 0.795609 3 0 
C 3 -0.795609 2.683901 -1.55874 2.12132 -2.12132 
C 1.55874 -2.683901 0.795609 -3 0 -3 
C -0.795609 -3 -1.55874 -2.683901 -2.12132 -2.12132 
C -2.683901 -1.55874 -3 -0.795609 -3 0 
C -3 0.795609 -2.683901 1.55874 -2.12132 2.12132 
C -1.55874 2.683901 -0.795609 3 0 3 
z
" style="stroke: #0000ff"/>
    </defs>
    <g clip-path="url(#pe23f253eb0)">
     <use xlink:href="#m55624375c5" x="111.943178" y="485.925442" style="fill: #0000ff; stroke: #0000ff"/>
     <use xlink:href="#m55624375c5" x="124.326216" y="635.314362" style="fill: #0000ff; stroke: #0000ff"/>
     <use xlink:href="#m55624375c5" x="136.709254" y="660.155388" style="fill: #0000ff; stroke: #0000ff"/>
     <use xlink:href="#m55624375c5" x="149.092292" y="673.87107" style="fill: #0000ff; stroke: #0000ff"/>
     <use xlink:href="#m55624375c5" x="161.47533" y="682.923856" style="fill: #0000ff; stroke: #0000ff"/>
     <use xlink:href="#m55624375c5" x="173.858368" y="689.30583" style="fill: #0000ff; stroke: #0000ff"/>
     <use xlink:href="#m55624375c5" x="186.241406" y="694.133666" style="fill: #0000ff; stroke: #0000ff"/>
     <use xlink:href="#m55624375c5" x="198.624444" y="698.442447" style="fill: #0000ff; stroke: #0000ff"/>
     <use xlink:href="#m55624375c5" x="211.007482" y="701.318272" style="fill: #0000ff; stroke: #0000ff"/>
     <use xlink:href="#m55624375c5" x="223.39052" y="704.383142" style="fill: #0000ff; stroke: #0000ff"/>
     <use xlink:href="#m55624375c5" x="235.773558" y="706.760993" style="fill: #0000ff; stroke: #0000ff"/>
     <use xlink:href="#m55624375c5" x="248.156596" y="710.238196" style="fill: #0000ff; stroke: #0000ff"/>
     <use xlink:href="#m55624375c5" x="260.539634" y="712.72661" style="fill: #0000ff; stroke: #0000ff"/>
     <use xlink:href="#m55624375c5" x="272.922672" y="714.61804" style="fill: #0000ff; stroke: #0000ff"/>
     <use xlink:href="#m55624375c5" x="285.30571" y="716.710703" style="fill: #0000ff; stroke: #0000ff"/>
     <use xlink:href="#m55624375c5" x="297.688748" y="719.088984" style="fill: #0000ff; stroke: #0000ff"/>
     <use xlink:href="#m55624375c5" x="310.071786" y="720.731601" style="fill: #0000ff; stroke: #0000ff"/>
     <use xlink:href="#m55624375c5" x="322.454825" y="723.405237" style="fill: #0000ff; stroke: #0000ff"/>
     <use xlink:href="#m55624375c5" x="334.837863" y="725.596637" style="fill: #0000ff; stroke: #0000ff"/>
     <use xlink:href="#m55624375c5" x="347.220901" y="727.059298" style="fill: #0000ff; stroke: #0000ff"/>
     <use xlink:href="#m55624375c5" x="359.603939" y="728.533274" style="fill: #0000ff; stroke: #0000ff"/>
     <use xlink:href="#m55624375c5" x="371.986977" y="729.810718" style="fill: #0000ff; stroke: #0000ff"/>
     <use xlink:href="#m55624375c5" x="384.370015" y="730.93099" style="fill: #0000ff; stroke: #0000ff"/>
     <use xlink:href="#m55624375c5" x="396.753053" y="731.587834" style="fill: #0000ff; stroke: #0000ff"/>
     <use xlink:href="#m55624375c5" x="409.136091" y="732.604537" style="fill: #0000ff; stroke: #0000ff"/>
     <use xlink:href="#m55624375c5" x="421.519129" y="734.481155" style="fill: #0000ff; stroke: #0000ff"/>
     <use xlink:href="#m55624375c5" x="433.902167" y="735.098838" style="fill: #0000ff; stroke: #0000ff"/>
     <use xlink:href="#m55624375c5" x="446.285205" y="737.642276" style="fill: #0000ff; stroke: #0000ff"/>
     <use xlink:href="#m55624375c5" x="458.668243" y="738.183982" style="fill: #0000ff; stroke: #0000ff"/>
     <use xlink:href="#m55624375c5" x="471.051281" y="737.510644" style="fill: #0000ff; stroke: #0000ff"/>
     <use xlink:href="#m55624375c5" x="483.434319" y="738.071889" style="fill: #0000ff; stroke: #0000ff"/>
     <use xlink:href="#m55624375c5" x="495.817357" y="739.708969" style="fill: #0000ff; stroke: #0000ff"/>
     <use xlink:href="#m55624375c5" x="508.200395" y="740.215339" style="fill: #0000ff; stroke: #0000ff"/>
     <use xlink:href="#m55624375c5" x="520.583433" y="737.606268" style="fill: #0000ff; stroke: #0000ff"/>
     <use xlink:href="#m55624375c5" x="532.966472" y="738.196455" style="fill: #0000ff; stroke: #0000ff"/>
     <use xlink:href="#m55624375c5" x="545.34951" y="738.441478" style="fill: #0000ff; stroke: #0000ff"/>
     <use xlink:href="#m55624375c5" x="557.732548" y="734.159957" style="fill: #0000ff; stroke: #0000ff"/>
     <use xlink:href="#m55624375c5" x="570.115586" y="734.597377" style="fill: #0000ff; stroke: #0000ff"/>
     <use xlink:href="#m55624375c5" x="582.498624" y="734.652387" style="fill: #0000ff; stroke: #0000ff"/>
     <use xlink:href="#m55624375c5" x="594.881662" y="735.287539" style="fill: #0000ff; stroke: #0000ff"/>
     <use xlink:href="#m55624375c5" x="607.2647" y="735.526299" style="fill: #0000ff; stroke: #0000ff"/>
     <use xlink:href="#m55624375c5" x="619.647738" y="735.981812" style="fill: #0000ff; stroke: #0000ff"/>
     <use xlink:href="#m55624375c5" x="632.030776" y="735.984167" style="fill: #0000ff; stroke: #0000ff"/>
     <use xlink:href="#m55624375c5" x="644.413814" y="736.115362" style="fill: #0000ff; stroke: #0000ff"/>
     <use xlink:href="#m55624375c5" x="656.796852" y="736.653746" style="fill: #0000ff; stroke: #0000ff"/>
     <use xlink:href="#m55624375c5" x="669.17989" y="737.01426" style="fill: #0000ff; stroke: #0000ff"/>
     <use xlink:href="#m55624375c5" x="681.562928" y="737.325911" style="fill: #0000ff; stroke: #0000ff"/>
     <use xlink:href="#m55624375c5" x="693.945966" y="737.4542" style="fill: #0000ff; stroke: #0000ff"/>
     <use xlink:href="#m55624375c5" x="706.329004" y="737.896239" style="fill: #0000ff; stroke: #0000ff"/>
     <use xlink:href="#m55624375c5" x="718.712042" y="737.95881" style="fill: #0000ff; stroke: #0000ff"/>
     <use xlink:href="#m55624375c5" x="731.09508" y="738.121226" style="fill: #0000ff; stroke: #0000ff"/>
     <use xlink:href="#m55624375c5" x="743.478119" y="738.633544" style="fill: #0000ff; stroke: #0000ff"/>
     <use xlink:href="#m55624375c5" x="755.861157" y="739.491011" style="fill: #0000ff; stroke: #0000ff"/>
     <use xlink:href="#m55624375c5" x="768.244195" y="742.28686" style="fill: #0000ff; stroke: #0000ff"/>
     <use xlink:href="#m55624375c5" x="780.627233" y="742.887076" style="fill: #0000ff; stroke: #0000ff"/>
     <use xlink:href="#m55624375c5" x="793.010271" y="743.296401" style="fill: #0000ff; stroke: #0000ff"/>
     <use xlink:href="#m55624375c5" x="805.393309" y="743.609733" style="fill: #0000ff; stroke: #0000ff"/>
     <use xlink:href="#m55624375c5" x="817.776347" y="743.75645" style="fill: #0000ff; stroke: #0000ff"/>
     <use xlink:href="#m55624375c5" x="830.159385" y="744.206866" style="fill: #0000ff; stroke: #0000ff"/>
     <use xlink:href="#m55624375c5" x="842.542423" y="745.836985" style="fill: #0000ff; stroke: #0000ff"/>
     <use xlink:href="#m55624375c5" x="854.925461" y="745.883441" style="fill: #0000ff; stroke: #0000ff"/>
     <use xlink:href="#m55624375c5" x="867.308499" y="746.566582" style="fill: #0000ff; stroke: #0000ff"/>
     <use xlink:href="#m55624375c5" x="879.691537" y="746.848699" style="fill: #0000ff; stroke: #0000ff"/>
     <use xlink:href="#m55624375c5" x="892.074575" y="747.139595" style="fill: #0000ff; stroke: #0000ff"/>
     <use xlink:href="#m55624375c5" x="904.457613" y="747.303122" style="fill: #0000ff; stroke: #0000ff"/>
     <use xlink:href="#m55624375c5" x="916.840651" y="747.379271" style="fill: #0000ff; stroke: #0000ff"/>
     <use xlink:href="#m55624375c5" x="929.223689" y="747.654422" style="fill: #0000ff; stroke: #0000ff"/>
     <use xlink:href="#m55624375c5" x="941.606728" y="747.729819" style="fill: #0000ff; stroke: #0000ff"/>
    </g>
   </g>
   <g id="line2d_17">
    <path d="M 111.943178 155.664824 
L 124.326216 238.993648 
L 136.709254 281.440925 
L 149.092292 280.183889 
L 161.47533 313.876883 
L 173.858368 334.196682 
L 186.241406 340.886802 
L 198.624444 378.872615 
L 211.007482 350.224144 
L 223.39052 370.068683 
L 235.773558 335.521869 
L 248.156596 366.178776 
L 260.539634 359.085832 
L 272.922672 366.49289 
L 285.30571 349.318723 
L 297.688748 364.388762 
L 310.071786 349.949903 
L 322.454825 367.637784 
L 334.837863 369.112054 
L 347.220901 379.40998 
L 359.603939 376.244502 
L 371.986977 359.36146 
L 384.370015 369.77753 
L 396.753053 372.115803 
L 409.136091 367.05579 
L 421.519129 373.457271 
L 433.902167 376.460745 
L 446.285205 373.857804 
L 458.668243 388.635069 
L 471.051281 372.24023 
L 483.434319 372.059895 
L 495.817357 373.52081 
L 508.200395 373.899266 
L 520.583433 316.797519 
L 532.966472 351.856639 
L 545.34951 350.124734 
L 557.732548 371.183917 
L 570.115586 384.2618 
L 582.498624 379.190239 
L 594.881662 406.822899 
L 607.2647 388.906608 
L 619.647738 414.512842 
L 632.030776 418.223335 
L 644.413814 404.386917 
L 656.796852 413.877045 
L 669.17989 402.397962 
L 681.562928 376.97113 
L 693.945966 424.627069 
L 706.329004 388.428854 
L 718.712042 422.411415 
L 731.09508 394.109483 
L 743.478119 382.821419 
L 755.861157 461.558922 
L 768.244195 414.965449 
L 780.627233 414.726385 
L 793.010271 412.017739 
L 805.393309 392.368669 
L 817.776347 399.490637 
L 830.159385 415.531634 
L 842.542423 398.232947 
L 854.925461 417.12752 
L 867.308499 404.322258 
L 879.691537 408.110982 
L 892.074575 428.062942 
L 904.457613 400.670553 
L 916.840651 399.272931 
L 929.223689 392.053664 
L 941.606728 396.477269 
" clip-path="url(#pe23f253eb0)" style="fill: none; stroke-dasharray: 5.55,2.4; stroke-dashoffset: 0; stroke: #ff0000; stroke-width: 1.5"/>
    <defs>
     <path id="m38aa09bdfc" d="M 0 3 
C 0.795609 3 1.55874 2.683901 2.12132 2.12132 
C 2.683901 1.55874 3 0.795609 3 0 
C 3 -0.795609 2.683901 -1.55874 2.12132 -2.12132 
C 1.55874 -2.683901 0.795609 -3 0 -3 
C -0.795609 -3 -1.55874 -2.683901 -2.12132 -2.12132 
C -2.683901 -1.55874 -3 -0.795609 -3 0 
C -3 0.795609 -2.683901 1.55874 -2.12132 2.12132 
C -1.55874 2.683901 -0.795609 3 0 3 
z
" style="stroke: #ff0000"/>
    </defs>
    <g clip-path="url(#pe23f253eb0)">
     <use xlink:href="#m38aa09bdfc" x="111.943178" y="155.664824" style="fill: #ff0000; stroke: #ff0000"/>
     <use xlink:href="#m38aa09bdfc" x="124.326216" y="238.993648" style="fill: #ff0000; stroke: #ff0000"/>
     <use xlink:href="#m38aa09bdfc" x="136.709254" y="281.440925" style="fill: #ff0000; stroke: #ff0000"/>
     <use xlink:href="#m38aa09bdfc" x="149.092292" y="280.183889" style="fill: #ff0000; stroke: #ff0000"/>
     <use xlink:href="#m38aa09bdfc" x="161.47533" y="313.876883" style="fill: #ff0000; stroke: #ff0000"/>
     <use xlink:href="#m38aa09bdfc" x="173.858368" y="334.196682" style="fill: #ff0000; stroke: #ff0000"/>
     <use xlink:href="#m38aa09bdfc" x="186.241406" y="340.886802" style="fill: #ff0000; stroke: #ff0000"/>
     <use xlink:href="#m38aa09bdfc" x="198.624444" y="378.872615" style="fill: #ff0000; stroke: #ff0000"/>
     <use xlink:href="#m38aa09bdfc" x="211.007482" y="350.224144" style="fill: #ff0000; stroke: #ff0000"/>
     <use xlink:href="#m38aa09bdfc" x="223.39052" y="370.068683" style="fill: #ff0000; stroke: #ff0000"/>
     <use xlink:href="#m38aa09bdfc" x="235.773558" y="335.521869" style="fill: #ff0000; stroke: #ff0000"/>
     <use xlink:href="#m38aa09bdfc" x="248.156596" y="366.178776" style="fill: #ff0000; stroke: #ff0000"/>
     <use xlink:href="#m38aa09bdfc" x="260.539634" y="359.085832" style="fill: #ff0000; stroke: #ff0000"/>
     <use xlink:href="#m38aa09bdfc" x="272.922672" y="366.49289" style="fill: #ff0000; stroke: #ff0000"/>
     <use xlink:href="#m38aa09bdfc" x="285.30571" y="349.318723" style="fill: #ff0000; stroke: #ff0000"/>
     <use xlink:href="#m38aa09bdfc" x="297.688748" y="364.388762" style="fill: #ff0000; stroke: #ff0000"/>
     <use xlink:href="#m38aa09bdfc" x="310.071786" y="349.949903" style="fill: #ff0000; stroke: #ff0000"/>
     <use xlink:href="#m38aa09bdfc" x="322.454825" y="367.637784" style="fill: #ff0000; stroke: #ff0000"/>
     <use xlink:href="#m38aa09bdfc" x="334.837863" y="369.112054" style="fill: #ff0000; stroke: #ff0000"/>
     <use xlink:href="#m38aa09bdfc" x="347.220901" y="379.40998" style="fill: #ff0000; stroke: #ff0000"/>
     <use xlink:href="#m38aa09bdfc" x="359.603939" y="376.244502" style="fill: #ff0000; stroke: #ff0000"/>
     <use xlink:href="#m38aa09bdfc" x="371.986977" y="359.36146" style="fill: #ff0000; stroke: #ff0000"/>
     <use xlink:href="#m38aa09bdfc" x="384.370015" y="369.77753" style="fill: #ff0000; stroke: #ff0000"/>
     <use xlink:href="#m38aa09bdfc" x="396.753053" y="372.115803" style="fill: #ff0000; stroke: #ff0000"/>
     <use xlink:href="#m38aa09bdfc" x="409.136091" y="367.05579" style="fill: #ff0000; stroke: #ff0000"/>
     <use xlink:href="#m38aa09bdfc" x="421.519129" y="373.457271" style="fill: #ff0000; stroke: #ff0000"/>
     <use xlink:href="#m38aa09bdfc" x="433.902167" y="376.460745" style="fill: #ff0000; stroke: #ff0000"/>
     <use xlink:href="#m38aa09bdfc" x="446.285205" y="373.857804" style="fill: #ff0000; stroke: #ff0000"/>
     <use xlink:href="#m38aa09bdfc" x="458.668243" y="388.635069" style="fill: #ff0000; stroke: #ff0000"/>
     <use xlink:href="#m38aa09bdfc" x="471.051281" y="372.24023" style="fill: #ff0000; stroke: #ff0000"/>
     <use xlink:href="#m38aa09bdfc" x="483.434319" y="372.059895" style="fill: #ff0000; stroke: #ff0000"/>
     <use xlink:href="#m38aa09bdfc" x="495.817357" y="373.52081" style="fill: #ff0000; stroke: #ff0000"/>
     <use xlink:href="#m38aa09bdfc" x="508.200395" y="373.899266" style="fill: #ff0000; stroke: #ff0000"/>
     <use xlink:href="#m38aa09bdfc" x="520.583433" y="316.797519" style="fill: #ff0000; stroke: #ff0000"/>
     <use xlink:href="#m38aa09bdfc" x="532.966472" y="351.856639" style="fill: #ff0000; stroke: #ff0000"/>
     <use xlink:href="#m38aa09bdfc" x="545.34951" y="350.124734" style="fill: #ff0000; stroke: #ff0000"/>
     <use xlink:href="#m38aa09bdfc" x="557.732548" y="371.183917" style="fill: #ff0000; stroke: #ff0000"/>
     <use xlink:href="#m38aa09bdfc" x="570.115586" y="384.2618" style="fill: #ff0000; stroke: #ff0000"/>
     <use xlink:href="#m38aa09bdfc" x="582.498624" y="379.190239" style="fill: #ff0000; stroke: #ff0000"/>
     <use xlink:href="#m38aa09bdfc" x="594.881662" y="406.822899" style="fill: #ff0000; stroke: #ff0000"/>
     <use xlink:href="#m38aa09bdfc" x="607.2647" y="388.906608" style="fill: #ff0000; stroke: #ff0000"/>
     <use xlink:href="#m38aa09bdfc" x="619.647738" y="414.512842" style="fill: #ff0000; stroke: #ff0000"/>
     <use xlink:href="#m38aa09bdfc" x="632.030776" y="418.223335" style="fill: #ff0000; stroke: #ff0000"/>
     <use xlink:href="#m38aa09bdfc" x="644.413814" y="404.386917" style="fill: #ff0000; stroke: #ff0000"/>
     <use xlink:href="#m38aa09bdfc" x="656.796852" y="413.877045" style="fill: #ff0000; stroke: #ff0000"/>
     <use xlink:href="#m38aa09bdfc" x="669.17989" y="402.397962" style="fill: #ff0000; stroke: #ff0000"/>
     <use xlink:href="#m38aa09bdfc" x="681.562928" y="376.97113" style="fill: #ff0000; stroke: #ff0000"/>
     <use xlink:href="#m38aa09bdfc" x="693.945966" y="424.627069" style="fill: #ff0000; stroke: #ff0000"/>
     <use xlink:href="#m38aa09bdfc" x="706.329004" y="388.428854" style="fill: #ff0000; stroke: #ff0000"/>
     <use xlink:href="#m38aa09bdfc" x="718.712042" y="422.411415" style="fill: #ff0000; stroke: #ff0000"/>
     <use xlink:href="#m38aa09bdfc" x="731.09508" y="394.109483" style="fill: #ff0000; stroke: #ff0000"/>
     <use xlink:href="#m38aa09bdfc" x="743.478119" y="382.821419" style="fill: #ff0000; stroke: #ff0000"/>
     <use xlink:href="#m38aa09bdfc" x="755.861157" y="461.558922" style="fill: #ff0000; stroke: #ff0000"/>
     <use xlink:href="#m38aa09bdfc" x="768.244195" y="414.965449" style="fill: #ff0000; stroke: #ff0000"/>
     <use xlink:href="#m38aa09bdfc" x="780.627233" y="414.726385" style="fill: #ff0000; stroke: #ff0000"/>
     <use xlink:href="#m38aa09bdfc" x="793.010271" y="412.017739" style="fill: #ff0000; stroke: #ff0000"/>
     <use xlink:href="#m38aa09bdfc" x="805.393309" y="392.368669" style="fill: #ff0000; stroke: #ff0000"/>
     <use xlink:href="#m38aa09bdfc" x="817.776347" y="399.490637" style="fill: #ff0000; stroke: #ff0000"/>
     <use xlink:href="#m38aa09bdfc" x="830.159385" y="415.531634" style="fill: #ff0000; stroke: #ff0000"/>
     <use xlink:href="#m38aa09bdfc" x="842.542423" y="398.232947" style="fill: #ff0000; stroke: #ff0000"/>
     <use xlink:href="#m38aa09bdfc" x="854.925461" y="417.12752" style="fill: #ff0000; stroke: #ff0000"/>
     <use xlink:href="#m38aa09bdfc" x="867.308499" y="404.322258" style="fill: #ff0000; stroke: #ff0000"/>
     <use xlink:href="#m38aa09bdfc" x="879.691537" y="408.110982" style="fill: #ff0000; stroke: #ff0000"/>
     <use xlink:href="#m38aa09bdfc" x="892.074575" y="428.062942" style="fill: #ff0000; stroke: #ff0000"/>
     <use xlink:href="#m38aa09bdfc" x="904.457613" y="400.670553" style="fill: #ff0000; stroke: #ff0000"/>
     <use xlink:href="#m38aa09bdfc" x="916.840651" y="399.272931" style="fill: #ff0000; stroke: #ff0000"/>
     <use xlink:href="#m38aa09bdfc" x="929.223689" y="392.053664" style="fill: #ff0000; stroke: #ff0000"/>
     <use xlink:href="#m38aa09bdfc" x="941.606728" y="396.477269" style="fill: #ff0000; stroke: #ff0000"/>
    </g>
   </g>
   <g id="patch_3">
    <path d="M 70.46 784.12 
L 70.46 91.2 
" style="fill: none; stroke: #000000; stroke-width: 0.8; stroke-linejoin: miter; stroke-linecap: square"/>
   </g>
   <g id="patch_4">
    <path d="M 983.089905 784.12 
L 983.089905 91.2 
" style="fill: none; stroke: #000000; stroke-width: 0.8; stroke-linejoin: miter; stroke-linecap: square"/>
   </g>
   <g id="patch_5">
    <path d="M 70.46 784.12 
L 983.089905 784.12 
" style="fill: none; stroke: #000000; stroke-width: 0.8; stroke-linejoin: miter; stroke-linecap: square"/>
   </g>
   <g id="patch_6">
    <path d="M 70.46 91.2 
L 983.089905 91.2 
" style="fill: none; stroke: #000000; stroke-width: 0.8; stroke-linejoin: miter; stroke-linecap: square"/>
   </g>
   <g id="text_18">
    <!-- 10-attempts average Mean Absoulute Error -->
    <g transform="translate(136.197453 83.713125)scale(0.36 -0.36)">
     <defs>
      <path id="DejaVuSans-2d" d="M 313 2009 
L 1997 2009 
L 1997 1497 
L 313 1497 
L 313 2009 
z
" transform="scale(0.015625)"/>
      <path id="DejaVuSans-61" d="M 2194 1759 
Q 1497 1759 1228 1600 
Q 959 1441 959 1056 
Q 959 750 1161 570 
Q 1363 391 1709 391 
Q 2188 391 2477 730 
Q 2766 1069 2766 1631 
L 2766 1759 
L 2194 1759 
z
M 3341 1997 
L 3341 0 
L 2766 0 
L 2766 531 
Q 2569 213 2275 61 
Q 1981 -91 1556 -91 
Q 1019 -91 701 211 
Q 384 513 384 1019 
Q 384 1609 779 1909 
Q 1175 2209 1959 2209 
L 2766 2209 
L 2766 2266 
Q 2766 2663 2505 2880 
Q 2244 3097 1772 3097 
Q 1472 3097 1187 3025 
Q 903 2953 641 2809 
L 641 3341 
Q 956 3463 1253 3523 
Q 1550 3584 1831 3584 
Q 2591 3584 2966 3190 
Q 3341 2797 3341 1997 
z
" transform="scale(0.015625)"/>
      <path id="DejaVuSans-74" d="M 1172 4494 
L 1172 3500 
L 2356 3500 
L 2356 3053 
L 1172 3053 
L 1172 1153 
Q 1172 725 1289 603 
Q 1406 481 1766 481 
L 2356 481 
L 2356 0 
L 1766 0 
Q 1100 0 847 248 
Q 594 497 594 1153 
L 594 3053 
L 172 3053 
L 172 3500 
L 594 3500 
L 594 4494 
L 1172 4494 
z
" transform="scale(0.015625)"/>
      <path id="DejaVuSans-65" d="M 3597 1894 
L 3597 1613 
L 953 1613 
Q 991 1019 1311 708 
Q 1631 397 2203 397 
Q 2534 397 2845 478 
Q 3156 559 3463 722 
L 3463 178 
Q 3153 47 2828 -22 
Q 2503 -91 2169 -91 
Q 1331 -91 842 396 
Q 353 884 353 1716 
Q 353 2575 817 3079 
Q 1281 3584 2069 3584 
Q 2775 3584 3186 3129 
Q 3597 2675 3597 1894 
z
M 3022 2063 
Q 3016 2534 2758 2815 
Q 2500 3097 2075 3097 
Q 1594 3097 1305 2825 
Q 1016 2553 972 2059 
L 3022 2063 
z
" transform="scale(0.015625)"/>
      <path id="DejaVuSans-6d" d="M 3328 2828 
Q 3544 3216 3844 3400 
Q 4144 3584 4550 3584 
Q 5097 3584 5394 3201 
Q 5691 2819 5691 2113 
L 5691 0 
L 5113 0 
L 5113 2094 
Q 5113 2597 4934 2840 
Q 4756 3084 4391 3084 
Q 3944 3084 3684 2787 
Q 3425 2491 3425 1978 
L 3425 0 
L 2847 0 
L 2847 2094 
Q 2847 2600 2669 2842 
Q 2491 3084 2119 3084 
Q 1678 3084 1418 2786 
Q 1159 2488 1159 1978 
L 1159 0 
L 581 0 
L 581 3500 
L 1159 3500 
L 1159 2956 
Q 1356 3278 1631 3431 
Q 1906 3584 2284 3584 
Q 2666 3584 2933 3390 
Q 3200 3197 3328 2828 
z
" transform="scale(0.015625)"/>
      <path id="DejaVuSans-76" d="M 191 3500 
L 800 3500 
L 1894 563 
L 2988 3500 
L 3597 3500 
L 2284 0 
L 1503 0 
L 191 3500 
z
" transform="scale(0.015625)"/>
      <path id="DejaVuSans-67" d="M 2906 1791 
Q 2906 2416 2648 2759 
Q 2391 3103 1925 3103 
Q 1463 3103 1205 2759 
Q 947 2416 947 1791 
Q 947 1169 1205 825 
Q 1463 481 1925 481 
Q 2391 481 2648 825 
Q 2906 1169 2906 1791 
z
M 3481 434 
Q 3481 -459 3084 -895 
Q 2688 -1331 1869 -1331 
Q 1566 -1331 1297 -1286 
Q 1028 -1241 775 -1147 
L 775 -588 
Q 1028 -725 1275 -790 
Q 1522 -856 1778 -856 
Q 2344 -856 2625 -561 
Q 2906 -266 2906 331 
L 2906 616 
Q 2728 306 2450 153 
Q 2172 0 1784 0 
Q 1141 0 747 490 
Q 353 981 353 1791 
Q 353 2603 747 3093 
Q 1141 3584 1784 3584 
Q 2172 3584 2450 3431 
Q 2728 3278 2906 2969 
L 2906 3500 
L 3481 3500 
L 3481 434 
z
" transform="scale(0.015625)"/>
      <path id="DejaVuSans-4d" d="M 628 4666 
L 1569 4666 
L 2759 1491 
L 3956 4666 
L 4897 4666 
L 4897 0 
L 4281 0 
L 4281 4097 
L 3078 897 
L 2444 897 
L 1241 4097 
L 1241 0 
L 628 0 
L 628 4666 
z
" transform="scale(0.015625)"/>
      <path id="DejaVuSans-6e" d="M 3513 2113 
L 3513 0 
L 2938 0 
L 2938 2094 
Q 2938 2591 2744 2837 
Q 2550 3084 2163 3084 
Q 1697 3084 1428 2787 
Q 1159 2491 1159 1978 
L 1159 0 
L 581 0 
L 581 3500 
L 1159 3500 
L 1159 2956 
Q 1366 3272 1645 3428 
Q 1925 3584 2291 3584 
Q 2894 3584 3203 3211 
Q 3513 2838 3513 2113 
z
" transform="scale(0.015625)"/>
      <path id="DejaVuSans-41" d="M 2188 4044 
L 1331 1722 
L 3047 1722 
L 2188 4044 
z
M 1831 4666 
L 2547 4666 
L 4325 0 
L 3669 0 
L 3244 1197 
L 1141 1197 
L 716 0 
L 50 0 
L 1831 4666 
z
" transform="scale(0.015625)"/>
      <path id="DejaVuSans-62" d="M 3116 1747 
Q 3116 2381 2855 2742 
Q 2594 3103 2138 3103 
Q 1681 3103 1420 2742 
Q 1159 2381 1159 1747 
Q 1159 1113 1420 752 
Q 1681 391 2138 391 
Q 2594 391 2855 752 
Q 3116 1113 3116 1747 
z
M 1159 2969 
Q 1341 3281 1617 3432 
Q 1894 3584 2278 3584 
Q 2916 3584 3314 3078 
Q 3713 2572 3713 1747 
Q 3713 922 3314 415 
Q 2916 -91 2278 -91 
Q 1894 -91 1617 61 
Q 1341 213 1159 525 
L 1159 0 
L 581 0 
L 581 4863 
L 1159 4863 
L 1159 2969 
z
" transform="scale(0.015625)"/>
      <path id="DejaVuSans-75" d="M 544 1381 
L 544 3500 
L 1119 3500 
L 1119 1403 
Q 1119 906 1312 657 
Q 1506 409 1894 409 
Q 2359 409 2629 706 
Q 2900 1003 2900 1516 
L 2900 3500 
L 3475 3500 
L 3475 0 
L 2900 0 
L 2900 538 
Q 2691 219 2414 64 
Q 2138 -91 1772 -91 
Q 1169 -91 856 284 
Q 544 659 544 1381 
z
M 1991 3584 
L 1991 3584 
z
" transform="scale(0.015625)"/>
      <path id="DejaVuSans-6c" d="M 603 4863 
L 1178 4863 
L 1178 0 
L 603 0 
L 603 4863 
z
" transform="scale(0.015625)"/>
     </defs>
     <use xlink:href="#DejaVuSans-31"/>
     <use xlink:href="#DejaVuSans-30" x="63.623047"/>
     <use xlink:href="#DejaVuSans-2d" x="127.246094"/>
     <use xlink:href="#DejaVuSans-61" x="163.330078"/>
     <use xlink:href="#DejaVuSans-74" x="224.609375"/>
     <use xlink:href="#DejaVuSans-74" x="263.818359"/>
     <use xlink:href="#DejaVuSans-65" x="303.027344"/>
     <use xlink:href="#DejaVuSans-6d" x="364.550781"/>
     <use xlink:href="#DejaVuSans-70" x="461.962891"/>
     <use xlink:href="#DejaVuSans-74" x="525.439453"/>
     <use xlink:href="#DejaVuSans-73" x="564.648438"/>
     <use xlink:href="#DejaVuSans-20" x="616.748047"/>
     <use xlink:href="#DejaVuSans-61" x="648.535156"/>
     <use xlink:href="#DejaVuSans-76" x="709.814453"/>
     <use xlink:href="#DejaVuSans-65" x="768.994141"/>
     <use xlink:href="#DejaVuSans-72" x="830.517578"/>
     <use xlink:href="#DejaVuSans-61" x="871.630859"/>
     <use xlink:href="#DejaVuSans-67" x="932.910156"/>
     <use xlink:href="#DejaVuSans-65" x="996.386719"/>
     <use xlink:href="#DejaVuSans-20" x="1057.910156"/>
     <use xlink:href="#DejaVuSans-4d" x="1089.697266"/>
     <use xlink:href="#DejaVuSans-65" x="1175.976562"/>
     <use xlink:href="#DejaVuSans-61" x="1237.5"/>
     <use xlink:href="#DejaVuSans-6e" x="1298.779297"/>
     <use xlink:href="#DejaVuSans-20" x="1362.158203"/>
     <use xlink:href="#DejaVuSans-41" x="1393.945312"/>
     <use xlink:href="#DejaVuSans-62" x="1462.353516"/>
     <use xlink:href="#DejaVuSans-73" x="1525.830078"/>
     <use xlink:href="#DejaVuSans-6f" x="1577.929688"/>
     <use xlink:href="#DejaVuSans-75" x="1639.111328"/>
     <use xlink:href="#DejaVuSans-6c" x="1702.490234"/>
     <use xlink:href="#DejaVuSans-75" x="1730.273438"/>
     <use xlink:href="#DejaVuSans-74" x="1793.652344"/>
     <use xlink:href="#DejaVuSans-65" x="1832.861328"/>
     <use xlink:href="#DejaVuSans-20" x="1894.384766"/>
     <use xlink:href="#DejaVuSans-45" x="1926.171875"/>
     <use xlink:href="#DejaVuSans-72" x="1989.355469"/>
     <use xlink:href="#DejaVuSans-72" x="2028.71875"/>
     <use xlink:href="#DejaVuSans-6f" x="2067.582031"/>
     <use xlink:href="#DejaVuSans-72" x="2128.763672"/>
    </g>
   </g>
   <g id="legend_1">
    <g id="patch_7">
     <path d="M 732.044905 210.74 
L 960.689905 210.74 
Q 967.089905 210.74 967.089905 204.34 
L 967.089905 113.6 
Q 967.089905 107.2 960.689905 107.2 
L 732.044905 107.2 
Q 725.644905 107.2 725.644905 113.6 
L 725.644905 204.34 
Q 725.644905 210.74 732.044905 210.74 
z
" style="fill: #ffffff; opacity: 0.8; stroke: #cccccc; stroke-linejoin: miter"/>
    </g>
    <g id="line2d_18">
     <path d="M 738.444905 133.115 
L 770.444905 133.115 
L 802.444905 133.115 
" style="fill: none; stroke: #0000ff; stroke-width: 1.5; stroke-linecap: square"/>
     <g>
      <use xlink:href="#m55624375c5" x="770.444905" y="133.115" style="fill: #0000ff; stroke: #0000ff"/>
     </g>
    </g>
    <g id="text_19">
     <!-- Training -->
     <g transform="translate(828.044905 144.315)scale(0.32 -0.32)">
      <defs>
       <path id="DejaVuSans-54" d="M -19 4666 
L 3928 4666 
L 3928 4134 
L 2272 4134 
L 2272 0 
L 1638 0 
L 1638 4134 
L -19 4134 
L -19 4666 
z
" transform="scale(0.015625)"/>
       <path id="DejaVuSans-69" d="M 603 3500 
L 1178 3500 
L 1178 0 
L 603 0 
L 603 3500 
z
M 603 4863 
L 1178 4863 
L 1178 4134 
L 603 4134 
L 603 4863 
z
" transform="scale(0.015625)"/>
      </defs>
      <use xlink:href="#DejaVuSans-54"/>
      <use xlink:href="#DejaVuSans-72" x="46.333984"/>
      <use xlink:href="#DejaVuSans-61" x="87.447266"/>
      <use xlink:href="#DejaVuSans-69" x="148.726562"/>
      <use xlink:href="#DejaVuSans-6e" x="176.509766"/>
      <use xlink:href="#DejaVuSans-69" x="239.888672"/>
      <use xlink:href="#DejaVuSans-6e" x="267.671875"/>
      <use xlink:href="#DejaVuSans-67" x="331.050781"/>
     </g>
    </g>
    <g id="line2d_19">
     <path d="M 738.444905 180.085 
L 770.444905 180.085 
L 802.444905 180.085 
" style="fill: none; stroke-dasharray: 5.55,2.4; stroke-dashoffset: 0; stroke: #ff0000; stroke-width: 1.5"/>
     <g>
      <use xlink:href="#m38aa09bdfc" x="770.444905" y="180.085" style="fill: #ff0000; stroke: #ff0000"/>
     </g>
    </g>
    <g id="text_20">
     <!-- Testing -->
     <g transform="translate(828.044905 191.285)scale(0.32 -0.32)">
      <use xlink:href="#DejaVuSans-54"/>
      <use xlink:href="#DejaVuSans-65" x="44.083984"/>
      <use xlink:href="#DejaVuSans-73" x="105.607422"/>
      <use xlink:href="#DejaVuSans-74" x="157.707031"/>
      <use xlink:href="#DejaVuSans-69" x="196.916016"/>
      <use xlink:href="#DejaVuSans-6e" x="224.699219"/>
      <use xlink:href="#DejaVuSans-67" x="288.078125"/>
     </g>
    </g>
   </g>
  </g>
  <g id="text_21">
   <!-- Model № 3 - US06 training benchmark -->
   <g transform="translate(160.124063 44.634375)scale(0.36 -0.36)">
    <defs>
     <path id="DejaVuSans-64" d="M 2906 2969 
L 2906 4863 
L 3481 4863 
L 3481 0 
L 2906 0 
L 2906 525 
Q 2725 213 2448 61 
Q 2172 -91 1784 -91 
Q 1150 -91 751 415 
Q 353 922 353 1747 
Q 353 2572 751 3078 
Q 1150 3584 1784 3584 
Q 2172 3584 2448 3432 
Q 2725 3281 2906 2969 
z
M 947 1747 
Q 947 1113 1208 752 
Q 1469 391 1925 391 
Q 2381 391 2643 752 
Q 2906 1113 2906 1747 
Q 2906 2381 2643 2742 
Q 2381 3103 1925 3103 
Q 1469 3103 1208 2742 
Q 947 2381 947 1747 
z
" transform="scale(0.015625)"/>
     <path id="DejaVuSans-2116" d="M 169 0 
L 169 531 
Q 628 531 628 866 
L 628 4666 
L 1478 4666 
L 3547 763 
L 3547 3800 
Q 3547 4200 3792 4433 
Q 4038 4666 4619 4666 
L 4619 4134 
Q 4159 4134 4159 3800 
L 4159 0 
L 3309 0 
L 1241 3903 
L 1241 866 
Q 1241 466 995 233 
Q 750 0 169 0 
z
M 4659 1944 
Q 4659 2375 4884 2673 
Q 5109 2972 5431 2972 
Q 5753 2972 5978 2673 
Q 6203 2375 6203 1944 
Q 6203 1513 5978 1214 
Q 5753 916 5431 916 
Q 5109 916 4884 1214 
Q 4659 1513 4659 1944 
z
M 5097 1944 
Q 5097 1700 5186 1539 
Q 5275 1378 5431 1378 
Q 5588 1378 5677 1539 
Q 5766 1700 5766 1944 
Q 5766 2188 5677 2348 
Q 5588 2509 5431 2509 
Q 5275 2509 5186 2348 
Q 5097 2188 5097 1944 
z
M 4659 0 
L 4659 384 
L 6203 384 
L 6203 0 
L 4659 0 
z
" transform="scale(0.015625)"/>
     <path id="DejaVuSans-55" d="M 556 4666 
L 1191 4666 
L 1191 1831 
Q 1191 1081 1462 751 
Q 1734 422 2344 422 
Q 2950 422 3222 751 
Q 3494 1081 3494 1831 
L 3494 4666 
L 4128 4666 
L 4128 1753 
Q 4128 841 3676 375 
Q 3225 -91 2344 -91 
Q 1459 -91 1007 375 
Q 556 841 556 1753 
L 556 4666 
z
" transform="scale(0.015625)"/>
     <path id="DejaVuSans-53" d="M 3425 4513 
L 3425 3897 
Q 3066 4069 2747 4153 
Q 2428 4238 2131 4238 
Q 1616 4238 1336 4038 
Q 1056 3838 1056 3469 
Q 1056 3159 1242 3001 
Q 1428 2844 1947 2747 
L 2328 2669 
Q 3034 2534 3370 2195 
Q 3706 1856 3706 1288 
Q 3706 609 3251 259 
Q 2797 -91 1919 -91 
Q 1588 -91 1214 -16 
Q 841 59 441 206 
L 441 856 
Q 825 641 1194 531 
Q 1563 422 1919 422 
Q 2459 422 2753 634 
Q 3047 847 3047 1241 
Q 3047 1584 2836 1778 
Q 2625 1972 2144 2069 
L 1759 2144 
Q 1053 2284 737 2584 
Q 422 2884 422 3419 
Q 422 4038 858 4394 
Q 1294 4750 2059 4750 
Q 2388 4750 2728 4690 
Q 3069 4631 3425 4513 
z
" transform="scale(0.015625)"/>
     <path id="DejaVuSans-6b" d="M 581 4863 
L 1159 4863 
L 1159 1991 
L 2875 3500 
L 3609 3500 
L 1753 1863 
L 3688 0 
L 2938 0 
L 1159 1709 
L 1159 0 
L 581 0 
L 581 4863 
z
" transform="scale(0.015625)"/>
    </defs>
    <use xlink:href="#DejaVuSans-4d"/>
    <use xlink:href="#DejaVuSans-6f" x="86.279297"/>
    <use xlink:href="#DejaVuSans-64" x="147.460938"/>
    <use xlink:href="#DejaVuSans-65" x="210.9375"/>
    <use xlink:href="#DejaVuSans-6c" x="272.460938"/>
    <use xlink:href="#DejaVuSans-20" x="300.244141"/>
    <use xlink:href="#DejaVuSans-2116" x="332.03125"/>
    <use xlink:href="#DejaVuSans-20" x="436.035156"/>
    <use xlink:href="#DejaVuSans-33" x="467.822266"/>
    <use xlink:href="#DejaVuSans-20" x="531.445312"/>
    <use xlink:href="#DejaVuSans-2d" x="563.232422"/>
    <use xlink:href="#DejaVuSans-20" x="599.316406"/>
    <use xlink:href="#DejaVuSans-55" x="631.103516"/>
    <use xlink:href="#DejaVuSans-53" x="704.296875"/>
    <use xlink:href="#DejaVuSans-30" x="767.773438"/>
    <use xlink:href="#DejaVuSans-36" x="831.396484"/>
    <use xlink:href="#DejaVuSans-20" x="895.019531"/>
    <use xlink:href="#DejaVuSans-74" x="926.806641"/>
    <use xlink:href="#DejaVuSans-72" x="966.015625"/>
    <use xlink:href="#DejaVuSans-61" x="1007.128906"/>
    <use xlink:href="#DejaVuSans-69" x="1068.408203"/>
    <use xlink:href="#DejaVuSans-6e" x="1096.191406"/>
    <use xlink:href="#DejaVuSans-69" x="1159.570312"/>
    <use xlink:href="#DejaVuSans-6e" x="1187.353516"/>
    <use xlink:href="#DejaVuSans-67" x="1250.732422"/>
    <use xlink:href="#DejaVuSans-20" x="1314.208984"/>
    <use xlink:href="#DejaVuSans-62" x="1345.996094"/>
    <use xlink:href="#DejaVuSans-65" x="1409.472656"/>
    <use xlink:href="#DejaVuSans-6e" x="1470.996094"/>
    <use xlink:href="#DejaVuSans-63" x="1534.375"/>
    <use xlink:href="#DejaVuSans-68" x="1589.355469"/>
    <use xlink:href="#DejaVuSans-6d" x="1652.734375"/>
    <use xlink:href="#DejaVuSans-61" x="1750.146484"/>
    <use xlink:href="#DejaVuSans-72" x="1811.425781"/>
    <use xlink:href="#DejaVuSans-6b" x="1852.539062"/>
   </g>
  </g>
 </g>
 <defs>
  <clipPath id="pe23f253eb0">
   <rect x="70.46" y="91.2" width="912.629905" height="692.92"/>
  </clipPath>
 </defs>
</svg>
