<?xml version="1.0" encoding="utf-8" standalone="no"?>
<!DOCTYPE svg PUBLIC "-//W3C//DTD SVG 1.1//EN"
  "http://www.w3.org/Graphics/SVG/1.1/DTD/svg11.dtd">
<svg xmlns:xlink="http://www.w3.org/1999/xlink" width="1008pt" height="864pt" viewBox="0 0 1008 864" xmlns="http://www.w3.org/2000/svg" version="1.1">
 <metadata>
  <rdf:RDF xmlns:dc="http://purl.org/dc/elements/1.1/" xmlns:cc="http://creativecommons.org/ns#" xmlns:rdf="http://www.w3.org/1999/02/22-rdf-syntax-ns#">
   <cc:Work>
    <dc:type rdf:resource="http://purl.org/dc/dcmitype/StillImage"/>
    <dc:date>2022-09-13T10:05:30.320632</dc:date>
    <dc:format>image/svg+xml</dc:format>
    <dc:creator>
     <cc:Agent>
      <dc:title>Matplotlib v3.5.1, https://matplotlib.org/</dc:title>
     </cc:Agent>
    </dc:creator>
   </cc:Work>
  </rdf:RDF>
 </metadata>
 <defs>
  <style type="text/css">*{stroke-linejoin: round; stroke-linecap: butt}</style>
 </defs>
 <g id="figure_1">
  <g id="patch_1">
   <path d="M 0 864 
L 1008 864 
L 1008 0 
L 0 0 
L 0 864 
z
" style="fill: none"/>
  </g>
  <g id="axes_1">
   <g id="patch_2">
    <path d="M 132.815 784.12 
L 991.485584 784.12 
L 991.485584 91.2 
L 132.815 91.2 
z
" style="fill: #ffffff"/>
   </g>
   <g id="matplotlib.axis_1">
    <g id="xtick_1">
     <g id="line2d_1">
      <defs>
       <path id="m7f4cf95957" d="M 0 0 
L 0 3.5 
" style="stroke: #000000; stroke-width: 0.8"/>
      </defs>
      <g>
       <use xlink:href="#m7f4cf95957" x="171.845481" y="784.12" style="stroke: #000000; stroke-width: 0.8"/>
      </g>
     </g>
     <g id="text_1">
      <!-- 0 -->
      <g transform="translate(162.937981 812.395625)scale(0.28 -0.28)">
       <defs>
        <path id="DejaVuSans-30" d="M 2034 4250 
Q 1547 4250 1301 3770 
Q 1056 3291 1056 2328 
Q 1056 1369 1301 889 
Q 1547 409 2034 409 
Q 2525 409 2770 889 
Q 3016 1369 3016 2328 
Q 3016 3291 2770 3770 
Q 2525 4250 2034 4250 
z
M 2034 4750 
Q 2819 4750 3233 4129 
Q 3647 3509 3647 2328 
Q 3647 1150 3233 529 
Q 2819 -91 2034 -91 
Q 1250 -91 836 529 
Q 422 1150 422 2328 
Q 422 3509 836 4129 
Q 1250 4750 2034 4750 
z
" transform="scale(0.015625)"/>
       </defs>
       <use xlink:href="#DejaVuSans-30"/>
      </g>
     </g>
    </g>
    <g id="xtick_2">
     <g id="line2d_2">
      <g>
       <use xlink:href="#m7f4cf95957" x="331.153567" y="784.12" style="stroke: #000000; stroke-width: 0.8"/>
      </g>
     </g>
     <g id="text_2">
      <!-- 20 -->
      <g transform="translate(313.338567 812.395625)scale(0.28 -0.28)">
       <defs>
        <path id="DejaVuSans-32" d="M 1228 531 
L 3431 531 
L 3431 0 
L 469 0 
L 469 531 
Q 828 903 1448 1529 
Q 2069 2156 2228 2338 
Q 2531 2678 2651 2914 
Q 2772 3150 2772 3378 
Q 2772 3750 2511 3984 
Q 2250 4219 1831 4219 
Q 1534 4219 1204 4116 
Q 875 4013 500 3803 
L 500 4441 
Q 881 4594 1212 4672 
Q 1544 4750 1819 4750 
Q 2544 4750 2975 4387 
Q 3406 4025 3406 3419 
Q 3406 3131 3298 2873 
Q 3191 2616 2906 2266 
Q 2828 2175 2409 1742 
Q 1991 1309 1228 531 
z
" transform="scale(0.015625)"/>
       </defs>
       <use xlink:href="#DejaVuSans-32"/>
       <use xlink:href="#DejaVuSans-30" x="63.623047"/>
      </g>
     </g>
    </g>
    <g id="xtick_3">
     <g id="line2d_3">
      <g>
       <use xlink:href="#m7f4cf95957" x="490.461653" y="784.12" style="stroke: #000000; stroke-width: 0.8"/>
      </g>
     </g>
     <g id="text_3">
      <!-- 40 -->
      <g transform="translate(472.646653 812.395625)scale(0.28 -0.28)">
       <defs>
        <path id="DejaVuSans-34" d="M 2419 4116 
L 825 1625 
L 2419 1625 
L 2419 4116 
z
M 2253 4666 
L 3047 4666 
L 3047 1625 
L 3713 1625 
L 3713 1100 
L 3047 1100 
L 3047 0 
L 2419 0 
L 2419 1100 
L 313 1100 
L 313 1709 
L 2253 4666 
z
" transform="scale(0.015625)"/>
       </defs>
       <use xlink:href="#DejaVuSans-34"/>
       <use xlink:href="#DejaVuSans-30" x="63.623047"/>
      </g>
     </g>
    </g>
    <g id="xtick_4">
     <g id="line2d_4">
      <g>
       <use xlink:href="#m7f4cf95957" x="649.76974" y="784.12" style="stroke: #000000; stroke-width: 0.8"/>
      </g>
     </g>
     <g id="text_4">
      <!-- 60 -->
      <g transform="translate(631.95474 812.395625)scale(0.28 -0.28)">
       <defs>
        <path id="DejaVuSans-36" d="M 2113 2584 
Q 1688 2584 1439 2293 
Q 1191 2003 1191 1497 
Q 1191 994 1439 701 
Q 1688 409 2113 409 
Q 2538 409 2786 701 
Q 3034 994 3034 1497 
Q 3034 2003 2786 2293 
Q 2538 2584 2113 2584 
z
M 3366 4563 
L 3366 3988 
Q 3128 4100 2886 4159 
Q 2644 4219 2406 4219 
Q 1781 4219 1451 3797 
Q 1122 3375 1075 2522 
Q 1259 2794 1537 2939 
Q 1816 3084 2150 3084 
Q 2853 3084 3261 2657 
Q 3669 2231 3669 1497 
Q 3669 778 3244 343 
Q 2819 -91 2113 -91 
Q 1303 -91 875 529 
Q 447 1150 447 2328 
Q 447 3434 972 4092 
Q 1497 4750 2381 4750 
Q 2619 4750 2861 4703 
Q 3103 4656 3366 4563 
z
" transform="scale(0.015625)"/>
       </defs>
       <use xlink:href="#DejaVuSans-36"/>
       <use xlink:href="#DejaVuSans-30" x="63.623047"/>
      </g>
     </g>
    </g>
    <g id="xtick_5">
     <g id="line2d_5">
      <g>
       <use xlink:href="#m7f4cf95957" x="809.077826" y="784.12" style="stroke: #000000; stroke-width: 0.8"/>
      </g>
     </g>
     <g id="text_5">
      <!-- 80 -->
      <g transform="translate(791.262826 812.395625)scale(0.28 -0.28)">
       <defs>
        <path id="DejaVuSans-38" d="M 2034 2216 
Q 1584 2216 1326 1975 
Q 1069 1734 1069 1313 
Q 1069 891 1326 650 
Q 1584 409 2034 409 
Q 2484 409 2743 651 
Q 3003 894 3003 1313 
Q 3003 1734 2745 1975 
Q 2488 2216 2034 2216 
z
M 1403 2484 
Q 997 2584 770 2862 
Q 544 3141 544 3541 
Q 544 4100 942 4425 
Q 1341 4750 2034 4750 
Q 2731 4750 3128 4425 
Q 3525 4100 3525 3541 
Q 3525 3141 3298 2862 
Q 3072 2584 2669 2484 
Q 3125 2378 3379 2068 
Q 3634 1759 3634 1313 
Q 3634 634 3220 271 
Q 2806 -91 2034 -91 
Q 1263 -91 848 271 
Q 434 634 434 1313 
Q 434 1759 690 2068 
Q 947 2378 1403 2484 
z
M 1172 3481 
Q 1172 3119 1398 2916 
Q 1625 2713 2034 2713 
Q 2441 2713 2670 2916 
Q 2900 3119 2900 3481 
Q 2900 3844 2670 4047 
Q 2441 4250 2034 4250 
Q 1625 4250 1398 4047 
Q 1172 3844 1172 3481 
z
" transform="scale(0.015625)"/>
       </defs>
       <use xlink:href="#DejaVuSans-38"/>
       <use xlink:href="#DejaVuSans-30" x="63.623047"/>
      </g>
     </g>
    </g>
    <g id="xtick_6">
     <g id="line2d_6">
      <g>
       <use xlink:href="#m7f4cf95957" x="968.385912" y="784.12" style="stroke: #000000; stroke-width: 0.8"/>
      </g>
     </g>
     <g id="text_6">
      <!-- 100 -->
      <g transform="translate(941.663412 812.395625)scale(0.28 -0.28)">
       <defs>
        <path id="DejaVuSans-31" d="M 794 531 
L 1825 531 
L 1825 4091 
L 703 3866 
L 703 4441 
L 1819 4666 
L 2450 4666 
L 2450 531 
L 3481 531 
L 3481 0 
L 794 0 
L 794 531 
z
" transform="scale(0.015625)"/>
       </defs>
       <use xlink:href="#DejaVuSans-31"/>
       <use xlink:href="#DejaVuSans-30" x="63.623047"/>
       <use xlink:href="#DejaVuSans-30" x="127.246094"/>
      </g>
     </g>
    </g>
    <g id="text_7">
     <!-- Epochs -->
     <g transform="translate(504.820292 846.53375)scale(0.32 -0.32)">
      <defs>
       <path id="DejaVuSans-45" d="M 628 4666 
L 3578 4666 
L 3578 4134 
L 1259 4134 
L 1259 2753 
L 3481 2753 
L 3481 2222 
L 1259 2222 
L 1259 531 
L 3634 531 
L 3634 0 
L 628 0 
L 628 4666 
z
" transform="scale(0.015625)"/>
       <path id="DejaVuSans-70" d="M 1159 525 
L 1159 -1331 
L 581 -1331 
L 581 3500 
L 1159 3500 
L 1159 2969 
Q 1341 3281 1617 3432 
Q 1894 3584 2278 3584 
Q 2916 3584 3314 3078 
Q 3713 2572 3713 1747 
Q 3713 922 3314 415 
Q 2916 -91 2278 -91 
Q 1894 -91 1617 61 
Q 1341 213 1159 525 
z
M 3116 1747 
Q 3116 2381 2855 2742 
Q 2594 3103 2138 3103 
Q 1681 3103 1420 2742 
Q 1159 2381 1159 1747 
Q 1159 1113 1420 752 
Q 1681 391 2138 391 
Q 2594 391 2855 752 
Q 3116 1113 3116 1747 
z
" transform="scale(0.015625)"/>
       <path id="DejaVuSans-6f" d="M 1959 3097 
Q 1497 3097 1228 2736 
Q 959 2375 959 1747 
Q 959 1119 1226 758 
Q 1494 397 1959 397 
Q 2419 397 2687 759 
Q 2956 1122 2956 1747 
Q 2956 2369 2687 2733 
Q 2419 3097 1959 3097 
z
M 1959 3584 
Q 2709 3584 3137 3096 
Q 3566 2609 3566 1747 
Q 3566 888 3137 398 
Q 2709 -91 1959 -91 
Q 1206 -91 779 398 
Q 353 888 353 1747 
Q 353 2609 779 3096 
Q 1206 3584 1959 3584 
z
" transform="scale(0.015625)"/>
       <path id="DejaVuSans-63" d="M 3122 3366 
L 3122 2828 
Q 2878 2963 2633 3030 
Q 2388 3097 2138 3097 
Q 1578 3097 1268 2742 
Q 959 2388 959 1747 
Q 959 1106 1268 751 
Q 1578 397 2138 397 
Q 2388 397 2633 464 
Q 2878 531 3122 666 
L 3122 134 
Q 2881 22 2623 -34 
Q 2366 -91 2075 -91 
Q 1284 -91 818 406 
Q 353 903 353 1747 
Q 353 2603 823 3093 
Q 1294 3584 2113 3584 
Q 2378 3584 2631 3529 
Q 2884 3475 3122 3366 
z
" transform="scale(0.015625)"/>
       <path id="DejaVuSans-68" d="M 3513 2113 
L 3513 0 
L 2938 0 
L 2938 2094 
Q 2938 2591 2744 2837 
Q 2550 3084 2163 3084 
Q 1697 3084 1428 2787 
Q 1159 2491 1159 1978 
L 1159 0 
L 581 0 
L 581 4863 
L 1159 4863 
L 1159 2956 
Q 1366 3272 1645 3428 
Q 1925 3584 2291 3584 
Q 2894 3584 3203 3211 
Q 3513 2838 3513 2113 
z
" transform="scale(0.015625)"/>
       <path id="DejaVuSans-73" d="M 2834 3397 
L 2834 2853 
Q 2591 2978 2328 3040 
Q 2066 3103 1784 3103 
Q 1356 3103 1142 2972 
Q 928 2841 928 2578 
Q 928 2378 1081 2264 
Q 1234 2150 1697 2047 
L 1894 2003 
Q 2506 1872 2764 1633 
Q 3022 1394 3022 966 
Q 3022 478 2636 193 
Q 2250 -91 1575 -91 
Q 1294 -91 989 -36 
Q 684 19 347 128 
L 347 722 
Q 666 556 975 473 
Q 1284 391 1588 391 
Q 1994 391 2212 530 
Q 2431 669 2431 922 
Q 2431 1156 2273 1281 
Q 2116 1406 1581 1522 
L 1381 1569 
Q 847 1681 609 1914 
Q 372 2147 372 2553 
Q 372 3047 722 3315 
Q 1072 3584 1716 3584 
Q 2034 3584 2315 3537 
Q 2597 3491 2834 3397 
z
" transform="scale(0.015625)"/>
      </defs>
      <use xlink:href="#DejaVuSans-45"/>
      <use xlink:href="#DejaVuSans-70" x="63.183594"/>
      <use xlink:href="#DejaVuSans-6f" x="126.660156"/>
      <use xlink:href="#DejaVuSans-63" x="187.841797"/>
      <use xlink:href="#DejaVuSans-68" x="242.822266"/>
      <use xlink:href="#DejaVuSans-73" x="306.201172"/>
     </g>
    </g>
   </g>
   <g id="matplotlib.axis_2">
    <g id="ytick_1">
     <g id="line2d_7">
      <defs>
       <path id="m2c8f3df302" d="M 0 0 
L -3.5 0 
" style="stroke: #000000; stroke-width: 0.8"/>
      </defs>
      <g>
       <use xlink:href="#m2c8f3df302" x="132.815" y="752.623636" style="stroke: #000000; stroke-width: 0.8"/>
      </g>
     </g>
     <g id="text_8">
      <!-- 80.0 -->
      <g transform="translate(63.47125 763.261449)scale(0.28 -0.28)">
       <defs>
        <path id="DejaVuSans-2e" d="M 684 794 
L 1344 794 
L 1344 0 
L 684 0 
L 684 794 
z
" transform="scale(0.015625)"/>
       </defs>
       <use xlink:href="#DejaVuSans-38"/>
       <use xlink:href="#DejaVuSans-30" x="63.623047"/>
       <use xlink:href="#DejaVuSans-2e" x="127.246094"/>
       <use xlink:href="#DejaVuSans-30" x="159.033203"/>
      </g>
     </g>
    </g>
    <g id="ytick_2">
     <g id="line2d_8">
      <g>
       <use xlink:href="#m2c8f3df302" x="132.815" y="673.882727" style="stroke: #000000; stroke-width: 0.8"/>
      </g>
     </g>
     <g id="text_9">
      <!-- 82.5 -->
      <g transform="translate(63.47125 684.52054)scale(0.28 -0.28)">
       <defs>
        <path id="DejaVuSans-35" d="M 691 4666 
L 3169 4666 
L 3169 4134 
L 1269 4134 
L 1269 2991 
Q 1406 3038 1543 3061 
Q 1681 3084 1819 3084 
Q 2600 3084 3056 2656 
Q 3513 2228 3513 1497 
Q 3513 744 3044 326 
Q 2575 -91 1722 -91 
Q 1428 -91 1123 -41 
Q 819 9 494 109 
L 494 744 
Q 775 591 1075 516 
Q 1375 441 1709 441 
Q 2250 441 2565 725 
Q 2881 1009 2881 1497 
Q 2881 1984 2565 2268 
Q 2250 2553 1709 2553 
Q 1456 2553 1204 2497 
Q 953 2441 691 2322 
L 691 4666 
z
" transform="scale(0.015625)"/>
       </defs>
       <use xlink:href="#DejaVuSans-38"/>
       <use xlink:href="#DejaVuSans-32" x="63.623047"/>
       <use xlink:href="#DejaVuSans-2e" x="127.246094"/>
       <use xlink:href="#DejaVuSans-35" x="159.033203"/>
      </g>
     </g>
    </g>
    <g id="ytick_3">
     <g id="line2d_9">
      <g>
       <use xlink:href="#m2c8f3df302" x="132.815" y="595.141818" style="stroke: #000000; stroke-width: 0.8"/>
      </g>
     </g>
     <g id="text_10">
      <!-- 85.0 -->
      <g transform="translate(63.47125 605.779631)scale(0.28 -0.28)">
       <use xlink:href="#DejaVuSans-38"/>
       <use xlink:href="#DejaVuSans-35" x="63.623047"/>
       <use xlink:href="#DejaVuSans-2e" x="127.246094"/>
       <use xlink:href="#DejaVuSans-30" x="159.033203"/>
      </g>
     </g>
    </g>
    <g id="ytick_4">
     <g id="line2d_10">
      <g>
       <use xlink:href="#m2c8f3df302" x="132.815" y="516.400909" style="stroke: #000000; stroke-width: 0.8"/>
      </g>
     </g>
     <g id="text_11">
      <!-- 87.5 -->
      <g transform="translate(63.47125 527.038722)scale(0.28 -0.28)">
       <defs>
        <path id="DejaVuSans-37" d="M 525 4666 
L 3525 4666 
L 3525 4397 
L 1831 0 
L 1172 0 
L 2766 4134 
L 525 4134 
L 525 4666 
z
" transform="scale(0.015625)"/>
       </defs>
       <use xlink:href="#DejaVuSans-38"/>
       <use xlink:href="#DejaVuSans-37" x="63.623047"/>
       <use xlink:href="#DejaVuSans-2e" x="127.246094"/>
       <use xlink:href="#DejaVuSans-35" x="159.033203"/>
      </g>
     </g>
    </g>
    <g id="ytick_5">
     <g id="line2d_11">
      <g>
       <use xlink:href="#m2c8f3df302" x="132.815" y="437.66" style="stroke: #000000; stroke-width: 0.8"/>
      </g>
     </g>
     <g id="text_12">
      <!-- 90.0 -->
      <g transform="translate(63.47125 448.297812)scale(0.28 -0.28)">
       <defs>
        <path id="DejaVuSans-39" d="M 703 97 
L 703 672 
Q 941 559 1184 500 
Q 1428 441 1663 441 
Q 2288 441 2617 861 
Q 2947 1281 2994 2138 
Q 2813 1869 2534 1725 
Q 2256 1581 1919 1581 
Q 1219 1581 811 2004 
Q 403 2428 403 3163 
Q 403 3881 828 4315 
Q 1253 4750 1959 4750 
Q 2769 4750 3195 4129 
Q 3622 3509 3622 2328 
Q 3622 1225 3098 567 
Q 2575 -91 1691 -91 
Q 1453 -91 1209 -44 
Q 966 3 703 97 
z
M 1959 2075 
Q 2384 2075 2632 2365 
Q 2881 2656 2881 3163 
Q 2881 3666 2632 3958 
Q 2384 4250 1959 4250 
Q 1534 4250 1286 3958 
Q 1038 3666 1038 3163 
Q 1038 2656 1286 2365 
Q 1534 2075 1959 2075 
z
" transform="scale(0.015625)"/>
       </defs>
       <use xlink:href="#DejaVuSans-39"/>
       <use xlink:href="#DejaVuSans-30" x="63.623047"/>
       <use xlink:href="#DejaVuSans-2e" x="127.246094"/>
       <use xlink:href="#DejaVuSans-30" x="159.033203"/>
      </g>
     </g>
    </g>
    <g id="ytick_6">
     <g id="line2d_12">
      <g>
       <use xlink:href="#m2c8f3df302" x="132.815" y="358.919091" style="stroke: #000000; stroke-width: 0.8"/>
      </g>
     </g>
     <g id="text_13">
      <!-- 92.5 -->
      <g transform="translate(63.47125 369.556903)scale(0.28 -0.28)">
       <use xlink:href="#DejaVuSans-39"/>
       <use xlink:href="#DejaVuSans-32" x="63.623047"/>
       <use xlink:href="#DejaVuSans-2e" x="127.246094"/>
       <use xlink:href="#DejaVuSans-35" x="159.033203"/>
      </g>
     </g>
    </g>
    <g id="ytick_7">
     <g id="line2d_13">
      <g>
       <use xlink:href="#m2c8f3df302" x="132.815" y="280.178182" style="stroke: #000000; stroke-width: 0.8"/>
      </g>
     </g>
     <g id="text_14">
      <!-- 95.0 -->
      <g transform="translate(63.47125 290.815994)scale(0.28 -0.28)">
       <use xlink:href="#DejaVuSans-39"/>
       <use xlink:href="#DejaVuSans-35" x="63.623047"/>
       <use xlink:href="#DejaVuSans-2e" x="127.246094"/>
       <use xlink:href="#DejaVuSans-30" x="159.033203"/>
      </g>
     </g>
    </g>
    <g id="ytick_8">
     <g id="line2d_14">
      <g>
       <use xlink:href="#m2c8f3df302" x="132.815" y="201.437273" style="stroke: #000000; stroke-width: 0.8"/>
      </g>
     </g>
     <g id="text_15">
      <!-- 97.5 -->
      <g transform="translate(63.47125 212.075085)scale(0.28 -0.28)">
       <use xlink:href="#DejaVuSans-39"/>
       <use xlink:href="#DejaVuSans-37" x="63.623047"/>
       <use xlink:href="#DejaVuSans-2e" x="127.246094"/>
       <use xlink:href="#DejaVuSans-35" x="159.033203"/>
      </g>
     </g>
    </g>
    <g id="ytick_9">
     <g id="line2d_15">
      <g>
       <use xlink:href="#m2c8f3df302" x="132.815" y="122.696364" style="stroke: #000000; stroke-width: 0.8"/>
      </g>
     </g>
     <g id="text_16">
      <!-- 100.0 -->
      <g transform="translate(45.65625 133.334176)scale(0.28 -0.28)">
       <use xlink:href="#DejaVuSans-31"/>
       <use xlink:href="#DejaVuSans-30" x="63.623047"/>
       <use xlink:href="#DejaVuSans-30" x="127.246094"/>
       <use xlink:href="#DejaVuSans-2e" x="190.869141"/>
       <use xlink:href="#DejaVuSans-30" x="222.65625"/>
      </g>
     </g>
    </g>
    <g id="text_17">
     <!-- Error (%) -->
     <g transform="translate(35.00125 509.425)rotate(-90)scale(0.32 -0.32)">
      <defs>
       <path id="DejaVuSans-72" d="M 2631 2963 
Q 2534 3019 2420 3045 
Q 2306 3072 2169 3072 
Q 1681 3072 1420 2755 
Q 1159 2438 1159 1844 
L 1159 0 
L 581 0 
L 581 3500 
L 1159 3500 
L 1159 2956 
Q 1341 3275 1631 3429 
Q 1922 3584 2338 3584 
Q 2397 3584 2469 3576 
Q 2541 3569 2628 3553 
L 2631 2963 
z
" transform="scale(0.015625)"/>
       <path id="DejaVuSans-20" transform="scale(0.015625)"/>
       <path id="DejaVuSans-28" d="M 1984 4856 
Q 1566 4138 1362 3434 
Q 1159 2731 1159 2009 
Q 1159 1288 1364 580 
Q 1569 -128 1984 -844 
L 1484 -844 
Q 1016 -109 783 600 
Q 550 1309 550 2009 
Q 550 2706 781 3412 
Q 1013 4119 1484 4856 
L 1984 4856 
z
" transform="scale(0.015625)"/>
       <path id="DejaVuSans-25" d="M 4653 2053 
Q 4381 2053 4226 1822 
Q 4072 1591 4072 1178 
Q 4072 772 4226 539 
Q 4381 306 4653 306 
Q 4919 306 5073 539 
Q 5228 772 5228 1178 
Q 5228 1588 5073 1820 
Q 4919 2053 4653 2053 
z
M 4653 2450 
Q 5147 2450 5437 2106 
Q 5728 1763 5728 1178 
Q 5728 594 5436 251 
Q 5144 -91 4653 -91 
Q 4153 -91 3862 251 
Q 3572 594 3572 1178 
Q 3572 1766 3864 2108 
Q 4156 2450 4653 2450 
z
M 1428 4353 
Q 1159 4353 1004 4120 
Q 850 3888 850 3481 
Q 850 3069 1003 2837 
Q 1156 2606 1428 2606 
Q 1700 2606 1854 2837 
Q 2009 3069 2009 3481 
Q 2009 3884 1853 4118 
Q 1697 4353 1428 4353 
z
M 4250 4750 
L 4750 4750 
L 1831 -91 
L 1331 -91 
L 4250 4750 
z
M 1428 4750 
Q 1922 4750 2215 4408 
Q 2509 4066 2509 3481 
Q 2509 2891 2217 2550 
Q 1925 2209 1428 2209 
Q 931 2209 642 2551 
Q 353 2894 353 3481 
Q 353 4063 643 4406 
Q 934 4750 1428 4750 
z
" transform="scale(0.015625)"/>
       <path id="DejaVuSans-29" d="M 513 4856 
L 1013 4856 
Q 1481 4119 1714 3412 
Q 1947 2706 1947 2009 
Q 1947 1309 1714 600 
Q 1481 -109 1013 -844 
L 513 -844 
Q 928 -128 1133 580 
Q 1338 1288 1338 2009 
Q 1338 2731 1133 3434 
Q 928 4138 513 4856 
z
" transform="scale(0.015625)"/>
      </defs>
      <use xlink:href="#DejaVuSans-45"/>
      <use xlink:href="#DejaVuSans-72" x="63.183594"/>
      <use xlink:href="#DejaVuSans-72" x="102.546875"/>
      <use xlink:href="#DejaVuSans-6f" x="141.410156"/>
      <use xlink:href="#DejaVuSans-72" x="202.591797"/>
      <use xlink:href="#DejaVuSans-20" x="243.705078"/>
      <use xlink:href="#DejaVuSans-28" x="275.492188"/>
      <use xlink:href="#DejaVuSans-25" x="314.505859"/>
      <use xlink:href="#DejaVuSans-29" x="409.525391"/>
     </g>
    </g>
   </g>
   <g id="line2d_16">
    <path d="M 171.845481 247.881787 
L 179.810885 138.992542 
L 187.77629 131.377999 
L 195.741694 129.173376 
L 203.707098 127.523241 
L 211.672503 126.775444 
L 219.637907 126.251857 
L 227.603311 125.832668 
L 235.568716 125.403867 
L 243.53412 125.168281 
L 251.499524 124.83742 
L 259.464928 124.676909 
L 267.430333 124.678016 
L 275.395737 124.482361 
L 283.361141 124.415922 
L 291.326546 124.30011 
L 299.29195 124.243002 
L 307.257354 124.143954 
L 315.222759 124.140612 
L 323.188163 123.983179 
L 331.153567 124.010701 
L 339.118972 123.892185 
L 347.084376 123.8341 
L 355.04978 123.820509 
L 363.015185 123.73034 
L 370.980589 123.693301 
L 378.945993 123.65459 
L 386.911397 123.67586 
L 394.876802 123.58909 
L 402.842206 123.58327 
L 410.80761 123.535305 
L 418.773015 123.518108 
L 426.738419 123.433028 
L 434.703823 123.441401 
L 442.669228 123.38418 
L 450.634632 123.388742 
L 458.600036 123.324743 
L 466.565441 123.307134 
L 474.530845 123.226615 
L 482.496249 123.195395 
L 490.461653 123.193499 
L 498.427058 123.186534 
L 506.392462 123.189482 
L 514.357866 123.143506 
L 522.323271 123.151741 
L 530.288675 123.1488 
L 538.254079 123.143126 
L 546.219484 123.132551 
L 554.184888 123.113548 
L 562.150292 123.093669 
L 570.115697 123.07548 
L 578.081101 123.059231 
L 586.046505 123.088866 
L 594.011909 123.042942 
L 601.977314 123.047401 
L 609.942718 123.022338 
L 617.908122 123.004386 
L 625.873527 122.9992 
L 633.838931 122.988148 
L 641.804335 122.987467 
L 649.76974 122.979629 
L 657.735144 122.978691 
L 665.700548 122.975476 
L 673.665953 122.975254 
L 681.631357 122.967879 
L 689.596761 122.96399 
L 697.562165 122.958224 
L 705.52757 122.948462 
L 713.492974 122.942133 
L 721.458378 122.94047 
L 729.423783 122.934489 
L 737.389187 122.930172 
L 745.354591 122.92816 
L 753.319996 122.921429 
L 761.2854 122.919578 
L 769.250804 122.924303 
L 777.216209 122.921049 
L 785.181613 122.918452 
L 793.147017 122.914096 
L 801.112421 122.918452 
L 809.077826 122.912397 
L 817.04323 122.911365 
L 825.008634 122.910473 
L 832.974039 122.91914 
L 840.939443 122.926618 
L 848.904847 122.930467 
L 856.870252 122.924459 
L 864.835656 122.973082 
L 872.80106 122.972143 
L 880.766465 122.97984 
L 888.731869 122.950366 
L 896.697273 122.961255 
L 904.662677 122.939478 
L 912.628082 122.936286 
L 920.593486 122.936662 
L 928.55889 122.930091 
L 936.524295 122.943796 
L 944.489699 122.926149 
L 952.455103 122.933658 
" clip-path="url(#p590e8864f1)" style="fill: none; stroke: #0000ff; stroke-width: 1.5; stroke-linecap: square"/>
    <defs>
     <path id="m8e3d2affc2" d="M 0 3 
C 0.795609 3 1.55874 2.683901 2.12132 2.12132 
C 2.683901 1.55874 3 0.795609 3 0 
C 3 -0.795609 2.683901 -1.55874 2.12132 -2.12132 
C 1.55874 -2.683901 0.795609 -3 0 -3 
C -0.795609 -3 -1.55874 -2.683901 -2.12132 -2.12132 
C -2.683901 -1.55874 -3 -0.795609 -3 0 
C -3 0.795609 -2.683901 1.55874 -2.12132 2.12132 
C -1.55874 2.683901 -0.795609 3 0 3 
z
" style="stroke: #0000ff"/>
    </defs>
    <g clip-path="url(#p590e8864f1)">
     <use xlink:href="#m8e3d2affc2" x="171.845481" y="247.881787" style="fill: #0000ff; stroke: #0000ff"/>
     <use xlink:href="#m8e3d2affc2" x="179.810885" y="138.992542" style="fill: #0000ff; stroke: #0000ff"/>
     <use xlink:href="#m8e3d2affc2" x="187.77629" y="131.377999" style="fill: #0000ff; stroke: #0000ff"/>
     <use xlink:href="#m8e3d2affc2" x="195.741694" y="129.173376" style="fill: #0000ff; stroke: #0000ff"/>
     <use xlink:href="#m8e3d2affc2" x="203.707098" y="127.523241" style="fill: #0000ff; stroke: #0000ff"/>
     <use xlink:href="#m8e3d2affc2" x="211.672503" y="126.775444" style="fill: #0000ff; stroke: #0000ff"/>
     <use xlink:href="#m8e3d2affc2" x="219.637907" y="126.251857" style="fill: #0000ff; stroke: #0000ff"/>
     <use xlink:href="#m8e3d2affc2" x="227.603311" y="125.832668" style="fill: #0000ff; stroke: #0000ff"/>
     <use xlink:href="#m8e3d2affc2" x="235.568716" y="125.403867" style="fill: #0000ff; stroke: #0000ff"/>
     <use xlink:href="#m8e3d2affc2" x="243.53412" y="125.168281" style="fill: #0000ff; stroke: #0000ff"/>
     <use xlink:href="#m8e3d2affc2" x="251.499524" y="124.83742" style="fill: #0000ff; stroke: #0000ff"/>
     <use xlink:href="#m8e3d2affc2" x="259.464928" y="124.676909" style="fill: #0000ff; stroke: #0000ff"/>
     <use xlink:href="#m8e3d2affc2" x="267.430333" y="124.678016" style="fill: #0000ff; stroke: #0000ff"/>
     <use xlink:href="#m8e3d2affc2" x="275.395737" y="124.482361" style="fill: #0000ff; stroke: #0000ff"/>
     <use xlink:href="#m8e3d2affc2" x="283.361141" y="124.415922" style="fill: #0000ff; stroke: #0000ff"/>
     <use xlink:href="#m8e3d2affc2" x="291.326546" y="124.30011" style="fill: #0000ff; stroke: #0000ff"/>
     <use xlink:href="#m8e3d2affc2" x="299.29195" y="124.243002" style="fill: #0000ff; stroke: #0000ff"/>
     <use xlink:href="#m8e3d2affc2" x="307.257354" y="124.143954" style="fill: #0000ff; stroke: #0000ff"/>
     <use xlink:href="#m8e3d2affc2" x="315.222759" y="124.140612" style="fill: #0000ff; stroke: #0000ff"/>
     <use xlink:href="#m8e3d2affc2" x="323.188163" y="123.983179" style="fill: #0000ff; stroke: #0000ff"/>
     <use xlink:href="#m8e3d2affc2" x="331.153567" y="124.010701" style="fill: #0000ff; stroke: #0000ff"/>
     <use xlink:href="#m8e3d2affc2" x="339.118972" y="123.892185" style="fill: #0000ff; stroke: #0000ff"/>
     <use xlink:href="#m8e3d2affc2" x="347.084376" y="123.8341" style="fill: #0000ff; stroke: #0000ff"/>
     <use xlink:href="#m8e3d2affc2" x="355.04978" y="123.820509" style="fill: #0000ff; stroke: #0000ff"/>
     <use xlink:href="#m8e3d2affc2" x="363.015185" y="123.73034" style="fill: #0000ff; stroke: #0000ff"/>
     <use xlink:href="#m8e3d2affc2" x="370.980589" y="123.693301" style="fill: #0000ff; stroke: #0000ff"/>
     <use xlink:href="#m8e3d2affc2" x="378.945993" y="123.65459" style="fill: #0000ff; stroke: #0000ff"/>
     <use xlink:href="#m8e3d2affc2" x="386.911397" y="123.67586" style="fill: #0000ff; stroke: #0000ff"/>
     <use xlink:href="#m8e3d2affc2" x="394.876802" y="123.58909" style="fill: #0000ff; stroke: #0000ff"/>
     <use xlink:href="#m8e3d2affc2" x="402.842206" y="123.58327" style="fill: #0000ff; stroke: #0000ff"/>
     <use xlink:href="#m8e3d2affc2" x="410.80761" y="123.535305" style="fill: #0000ff; stroke: #0000ff"/>
     <use xlink:href="#m8e3d2affc2" x="418.773015" y="123.518108" style="fill: #0000ff; stroke: #0000ff"/>
     <use xlink:href="#m8e3d2affc2" x="426.738419" y="123.433028" style="fill: #0000ff; stroke: #0000ff"/>
     <use xlink:href="#m8e3d2affc2" x="434.703823" y="123.441401" style="fill: #0000ff; stroke: #0000ff"/>
     <use xlink:href="#m8e3d2affc2" x="442.669228" y="123.38418" style="fill: #0000ff; stroke: #0000ff"/>
     <use xlink:href="#m8e3d2affc2" x="450.634632" y="123.388742" style="fill: #0000ff; stroke: #0000ff"/>
     <use xlink:href="#m8e3d2affc2" x="458.600036" y="123.324743" style="fill: #0000ff; stroke: #0000ff"/>
     <use xlink:href="#m8e3d2affc2" x="466.565441" y="123.307134" style="fill: #0000ff; stroke: #0000ff"/>
     <use xlink:href="#m8e3d2affc2" x="474.530845" y="123.226615" style="fill: #0000ff; stroke: #0000ff"/>
     <use xlink:href="#m8e3d2affc2" x="482.496249" y="123.195395" style="fill: #0000ff; stroke: #0000ff"/>
     <use xlink:href="#m8e3d2affc2" x="490.461653" y="123.193499" style="fill: #0000ff; stroke: #0000ff"/>
     <use xlink:href="#m8e3d2affc2" x="498.427058" y="123.186534" style="fill: #0000ff; stroke: #0000ff"/>
     <use xlink:href="#m8e3d2affc2" x="506.392462" y="123.189482" style="fill: #0000ff; stroke: #0000ff"/>
     <use xlink:href="#m8e3d2affc2" x="514.357866" y="123.143506" style="fill: #0000ff; stroke: #0000ff"/>
     <use xlink:href="#m8e3d2affc2" x="522.323271" y="123.151741" style="fill: #0000ff; stroke: #0000ff"/>
     <use xlink:href="#m8e3d2affc2" x="530.288675" y="123.1488" style="fill: #0000ff; stroke: #0000ff"/>
     <use xlink:href="#m8e3d2affc2" x="538.254079" y="123.143126" style="fill: #0000ff; stroke: #0000ff"/>
     <use xlink:href="#m8e3d2affc2" x="546.219484" y="123.132551" style="fill: #0000ff; stroke: #0000ff"/>
     <use xlink:href="#m8e3d2affc2" x="554.184888" y="123.113548" style="fill: #0000ff; stroke: #0000ff"/>
     <use xlink:href="#m8e3d2affc2" x="562.150292" y="123.093669" style="fill: #0000ff; stroke: #0000ff"/>
     <use xlink:href="#m8e3d2affc2" x="570.115697" y="123.07548" style="fill: #0000ff; stroke: #0000ff"/>
     <use xlink:href="#m8e3d2affc2" x="578.081101" y="123.059231" style="fill: #0000ff; stroke: #0000ff"/>
     <use xlink:href="#m8e3d2affc2" x="586.046505" y="123.088866" style="fill: #0000ff; stroke: #0000ff"/>
     <use xlink:href="#m8e3d2affc2" x="594.011909" y="123.042942" style="fill: #0000ff; stroke: #0000ff"/>
     <use xlink:href="#m8e3d2affc2" x="601.977314" y="123.047401" style="fill: #0000ff; stroke: #0000ff"/>
     <use xlink:href="#m8e3d2affc2" x="609.942718" y="123.022338" style="fill: #0000ff; stroke: #0000ff"/>
     <use xlink:href="#m8e3d2affc2" x="617.908122" y="123.004386" style="fill: #0000ff; stroke: #0000ff"/>
     <use xlink:href="#m8e3d2affc2" x="625.873527" y="122.9992" style="fill: #0000ff; stroke: #0000ff"/>
     <use xlink:href="#m8e3d2affc2" x="633.838931" y="122.988148" style="fill: #0000ff; stroke: #0000ff"/>
     <use xlink:href="#m8e3d2affc2" x="641.804335" y="122.987467" style="fill: #0000ff; stroke: #0000ff"/>
     <use xlink:href="#m8e3d2affc2" x="649.76974" y="122.979629" style="fill: #0000ff; stroke: #0000ff"/>
     <use xlink:href="#m8e3d2affc2" x="657.735144" y="122.978691" style="fill: #0000ff; stroke: #0000ff"/>
     <use xlink:href="#m8e3d2affc2" x="665.700548" y="122.975476" style="fill: #0000ff; stroke: #0000ff"/>
     <use xlink:href="#m8e3d2affc2" x="673.665953" y="122.975254" style="fill: #0000ff; stroke: #0000ff"/>
     <use xlink:href="#m8e3d2affc2" x="681.631357" y="122.967879" style="fill: #0000ff; stroke: #0000ff"/>
     <use xlink:href="#m8e3d2affc2" x="689.596761" y="122.96399" style="fill: #0000ff; stroke: #0000ff"/>
     <use xlink:href="#m8e3d2affc2" x="697.562165" y="122.958224" style="fill: #0000ff; stroke: #0000ff"/>
     <use xlink:href="#m8e3d2affc2" x="705.52757" y="122.948462" style="fill: #0000ff; stroke: #0000ff"/>
     <use xlink:href="#m8e3d2affc2" x="713.492974" y="122.942133" style="fill: #0000ff; stroke: #0000ff"/>
     <use xlink:href="#m8e3d2affc2" x="721.458378" y="122.94047" style="fill: #0000ff; stroke: #0000ff"/>
     <use xlink:href="#m8e3d2affc2" x="729.423783" y="122.934489" style="fill: #0000ff; stroke: #0000ff"/>
     <use xlink:href="#m8e3d2affc2" x="737.389187" y="122.930172" style="fill: #0000ff; stroke: #0000ff"/>
     <use xlink:href="#m8e3d2affc2" x="745.354591" y="122.92816" style="fill: #0000ff; stroke: #0000ff"/>
     <use xlink:href="#m8e3d2affc2" x="753.319996" y="122.921429" style="fill: #0000ff; stroke: #0000ff"/>
     <use xlink:href="#m8e3d2affc2" x="761.2854" y="122.919578" style="fill: #0000ff; stroke: #0000ff"/>
     <use xlink:href="#m8e3d2affc2" x="769.250804" y="122.924303" style="fill: #0000ff; stroke: #0000ff"/>
     <use xlink:href="#m8e3d2affc2" x="777.216209" y="122.921049" style="fill: #0000ff; stroke: #0000ff"/>
     <use xlink:href="#m8e3d2affc2" x="785.181613" y="122.918452" style="fill: #0000ff; stroke: #0000ff"/>
     <use xlink:href="#m8e3d2affc2" x="793.147017" y="122.914096" style="fill: #0000ff; stroke: #0000ff"/>
     <use xlink:href="#m8e3d2affc2" x="801.112421" y="122.918452" style="fill: #0000ff; stroke: #0000ff"/>
     <use xlink:href="#m8e3d2affc2" x="809.077826" y="122.912397" style="fill: #0000ff; stroke: #0000ff"/>
     <use xlink:href="#m8e3d2affc2" x="817.04323" y="122.911365" style="fill: #0000ff; stroke: #0000ff"/>
     <use xlink:href="#m8e3d2affc2" x="825.008634" y="122.910473" style="fill: #0000ff; stroke: #0000ff"/>
     <use xlink:href="#m8e3d2affc2" x="832.974039" y="122.91914" style="fill: #0000ff; stroke: #0000ff"/>
     <use xlink:href="#m8e3d2affc2" x="840.939443" y="122.926618" style="fill: #0000ff; stroke: #0000ff"/>
     <use xlink:href="#m8e3d2affc2" x="848.904847" y="122.930467" style="fill: #0000ff; stroke: #0000ff"/>
     <use xlink:href="#m8e3d2affc2" x="856.870252" y="122.924459" style="fill: #0000ff; stroke: #0000ff"/>
     <use xlink:href="#m8e3d2affc2" x="864.835656" y="122.973082" style="fill: #0000ff; stroke: #0000ff"/>
     <use xlink:href="#m8e3d2affc2" x="872.80106" y="122.972143" style="fill: #0000ff; stroke: #0000ff"/>
     <use xlink:href="#m8e3d2affc2" x="880.766465" y="122.97984" style="fill: #0000ff; stroke: #0000ff"/>
     <use xlink:href="#m8e3d2affc2" x="888.731869" y="122.950366" style="fill: #0000ff; stroke: #0000ff"/>
     <use xlink:href="#m8e3d2affc2" x="896.697273" y="122.961255" style="fill: #0000ff; stroke: #0000ff"/>
     <use xlink:href="#m8e3d2affc2" x="904.662677" y="122.939478" style="fill: #0000ff; stroke: #0000ff"/>
     <use xlink:href="#m8e3d2affc2" x="912.628082" y="122.936286" style="fill: #0000ff; stroke: #0000ff"/>
     <use xlink:href="#m8e3d2affc2" x="920.593486" y="122.936662" style="fill: #0000ff; stroke: #0000ff"/>
     <use xlink:href="#m8e3d2affc2" x="928.55889" y="122.930091" style="fill: #0000ff; stroke: #0000ff"/>
     <use xlink:href="#m8e3d2affc2" x="936.524295" y="122.943796" style="fill: #0000ff; stroke: #0000ff"/>
     <use xlink:href="#m8e3d2affc2" x="944.489699" y="122.926149" style="fill: #0000ff; stroke: #0000ff"/>
     <use xlink:href="#m8e3d2affc2" x="952.455103" y="122.933658" style="fill: #0000ff; stroke: #0000ff"/>
    </g>
   </g>
   <g id="line2d_17">
    <path d="M 171.845481 223.381003 
L 179.810885 187.96963 
L 187.77629 185.346418 
L 195.741694 183.692848 
L 203.707098 183.409596 
L 211.672503 184.296691 
L 219.637907 178.284505 
L 227.603311 178.73987 
L 235.568716 182.176378 
L 243.53412 177.5197 
L 251.499524 179.983657 
L 259.464928 183.569901 
L 267.430333 177.136218 
L 275.395737 180.759877 
L 283.361141 181.514995 
L 291.326546 178.840401 
L 299.29195 179.944402 
L 307.257354 182.945652 
L 315.222759 180.234994 
L 323.188163 181.894723 
L 331.153567 179.575432 
L 339.118972 180.780434 
L 347.084376 181.835399 
L 355.04978 184.572358 
L 363.015185 183.44427 
L 370.980589 184.584879 
L 378.945993 185.941194 
L 386.911397 185.118435 
L 394.876802 188.615975 
L 402.842206 186.861142 
L 410.80761 183.359265 
L 418.773015 181.933921 
L 426.738419 184.330858 
L 434.703823 183.792233 
L 442.669228 185.547424 
L 450.634632 184.831354 
L 458.600036 186.460613 
L 466.565441 189.003813 
L 474.530845 187.170676 
L 482.496249 186.618647 
L 490.461653 192.237663 
L 498.427058 184.305007 
L 506.392462 185.881194 
L 514.357866 188.947831 
L 522.323271 189.918383 
L 530.288675 190.518169 
L 538.254079 190.036509 
L 546.219484 189.629525 
L 554.184888 191.386684 
L 562.150292 189.016973 
L 570.115697 190.178977 
L 578.081101 188.857588 
L 586.046505 189.747395 
L 594.011909 189.993419 
L 601.977314 191.371848 
L 609.942718 189.84809 
L 617.908122 191.108201 
L 625.873527 190.566591 
L 633.838931 190.343963 
L 641.804335 192.631137 
L 649.76974 190.065555 
L 657.735144 193.137007 
L 665.700548 192.560339 
L 673.665953 195.622437 
L 681.631357 194.70976 
L 689.596761 192.934665 
L 697.562165 194.734139 
L 705.52757 194.843185 
L 713.492974 193.824626 
L 721.458378 193.505105 
L 729.423783 194.864908 
L 737.389187 194.931902 
L 745.354591 194.541686 
L 753.319996 193.94558 
L 761.2854 196.072594 
L 769.250804 194.707096 
L 777.216209 195.139883 
L 785.181613 195.211522 
L 793.147017 196.377607 
L 801.112421 192.820677 
L 809.077826 194.957595 
L 817.04323 193.671108 
L 825.008634 193.073131 
L 832.974039 193.220376 
L 840.939443 182.672913 
L 848.904847 183.587642 
L 856.870252 182.05499 
L 864.835656 175.524418 
L 872.80106 174.085257 
L 880.766465 174.148523 
L 888.731869 173.407729 
L 896.697273 177.685975 
L 904.662677 175.820285 
L 912.628082 176.526536 
L 920.593486 177.676213 
L 928.55889 176.765145 
L 936.524295 177.698928 
L 944.489699 178.520448 
L 952.455103 179.095474 
" clip-path="url(#p590e8864f1)" style="fill: none; stroke-dasharray: 5.55,2.4; stroke-dashoffset: 0; stroke: #ff0000; stroke-width: 1.5"/>
    <defs>
     <path id="mbc5b250e62" d="M 0 3 
C 0.795609 3 1.55874 2.683901 2.12132 2.12132 
C 2.683901 1.55874 3 0.795609 3 0 
C 3 -0.795609 2.683901 -1.55874 2.12132 -2.12132 
C 1.55874 -2.683901 0.795609 -3 0 -3 
C -0.795609 -3 -1.55874 -2.683901 -2.12132 -2.12132 
C -2.683901 -1.55874 -3 -0.795609 -3 0 
C -3 0.795609 -2.683901 1.55874 -2.12132 2.12132 
C -1.55874 2.683901 -0.795609 3 0 3 
z
" style="stroke: #ff0000"/>
    </defs>
    <g clip-path="url(#p590e8864f1)">
     <use xlink:href="#mbc5b250e62" x="171.845481" y="223.381003" style="fill: #ff0000; stroke: #ff0000"/>
     <use xlink:href="#mbc5b250e62" x="179.810885" y="187.96963" style="fill: #ff0000; stroke: #ff0000"/>
     <use xlink:href="#mbc5b250e62" x="187.77629" y="185.346418" style="fill: #ff0000; stroke: #ff0000"/>
     <use xlink:href="#mbc5b250e62" x="195.741694" y="183.692848" style="fill: #ff0000; stroke: #ff0000"/>
     <use xlink:href="#mbc5b250e62" x="203.707098" y="183.409596" style="fill: #ff0000; stroke: #ff0000"/>
     <use xlink:href="#mbc5b250e62" x="211.672503" y="184.296691" style="fill: #ff0000; stroke: #ff0000"/>
     <use xlink:href="#mbc5b250e62" x="219.637907" y="178.284505" style="fill: #ff0000; stroke: #ff0000"/>
     <use xlink:href="#mbc5b250e62" x="227.603311" y="178.73987" style="fill: #ff0000; stroke: #ff0000"/>
     <use xlink:href="#mbc5b250e62" x="235.568716" y="182.176378" style="fill: #ff0000; stroke: #ff0000"/>
     <use xlink:href="#mbc5b250e62" x="243.53412" y="177.5197" style="fill: #ff0000; stroke: #ff0000"/>
     <use xlink:href="#mbc5b250e62" x="251.499524" y="179.983657" style="fill: #ff0000; stroke: #ff0000"/>
     <use xlink:href="#mbc5b250e62" x="259.464928" y="183.569901" style="fill: #ff0000; stroke: #ff0000"/>
     <use xlink:href="#mbc5b250e62" x="267.430333" y="177.136218" style="fill: #ff0000; stroke: #ff0000"/>
     <use xlink:href="#mbc5b250e62" x="275.395737" y="180.759877" style="fill: #ff0000; stroke: #ff0000"/>
     <use xlink:href="#mbc5b250e62" x="283.361141" y="181.514995" style="fill: #ff0000; stroke: #ff0000"/>
     <use xlink:href="#mbc5b250e62" x="291.326546" y="178.840401" style="fill: #ff0000; stroke: #ff0000"/>
     <use xlink:href="#mbc5b250e62" x="299.29195" y="179.944402" style="fill: #ff0000; stroke: #ff0000"/>
     <use xlink:href="#mbc5b250e62" x="307.257354" y="182.945652" style="fill: #ff0000; stroke: #ff0000"/>
     <use xlink:href="#mbc5b250e62" x="315.222759" y="180.234994" style="fill: #ff0000; stroke: #ff0000"/>
     <use xlink:href="#mbc5b250e62" x="323.188163" y="181.894723" style="fill: #ff0000; stroke: #ff0000"/>
     <use xlink:href="#mbc5b250e62" x="331.153567" y="179.575432" style="fill: #ff0000; stroke: #ff0000"/>
     <use xlink:href="#mbc5b250e62" x="339.118972" y="180.780434" style="fill: #ff0000; stroke: #ff0000"/>
     <use xlink:href="#mbc5b250e62" x="347.084376" y="181.835399" style="fill: #ff0000; stroke: #ff0000"/>
     <use xlink:href="#mbc5b250e62" x="355.04978" y="184.572358" style="fill: #ff0000; stroke: #ff0000"/>
     <use xlink:href="#mbc5b250e62" x="363.015185" y="183.44427" style="fill: #ff0000; stroke: #ff0000"/>
     <use xlink:href="#mbc5b250e62" x="370.980589" y="184.584879" style="fill: #ff0000; stroke: #ff0000"/>
     <use xlink:href="#mbc5b250e62" x="378.945993" y="185.941194" style="fill: #ff0000; stroke: #ff0000"/>
     <use xlink:href="#mbc5b250e62" x="386.911397" y="185.118435" style="fill: #ff0000; stroke: #ff0000"/>
     <use xlink:href="#mbc5b250e62" x="394.876802" y="188.615975" style="fill: #ff0000; stroke: #ff0000"/>
     <use xlink:href="#mbc5b250e62" x="402.842206" y="186.861142" style="fill: #ff0000; stroke: #ff0000"/>
     <use xlink:href="#mbc5b250e62" x="410.80761" y="183.359265" style="fill: #ff0000; stroke: #ff0000"/>
     <use xlink:href="#mbc5b250e62" x="418.773015" y="181.933921" style="fill: #ff0000; stroke: #ff0000"/>
     <use xlink:href="#mbc5b250e62" x="426.738419" y="184.330858" style="fill: #ff0000; stroke: #ff0000"/>
     <use xlink:href="#mbc5b250e62" x="434.703823" y="183.792233" style="fill: #ff0000; stroke: #ff0000"/>
     <use xlink:href="#mbc5b250e62" x="442.669228" y="185.547424" style="fill: #ff0000; stroke: #ff0000"/>
     <use xlink:href="#mbc5b250e62" x="450.634632" y="184.831354" style="fill: #ff0000; stroke: #ff0000"/>
     <use xlink:href="#mbc5b250e62" x="458.600036" y="186.460613" style="fill: #ff0000; stroke: #ff0000"/>
     <use xlink:href="#mbc5b250e62" x="466.565441" y="189.003813" style="fill: #ff0000; stroke: #ff0000"/>
     <use xlink:href="#mbc5b250e62" x="474.530845" y="187.170676" style="fill: #ff0000; stroke: #ff0000"/>
     <use xlink:href="#mbc5b250e62" x="482.496249" y="186.618647" style="fill: #ff0000; stroke: #ff0000"/>
     <use xlink:href="#mbc5b250e62" x="490.461653" y="192.237663" style="fill: #ff0000; stroke: #ff0000"/>
     <use xlink:href="#mbc5b250e62" x="498.427058" y="184.305007" style="fill: #ff0000; stroke: #ff0000"/>
     <use xlink:href="#mbc5b250e62" x="506.392462" y="185.881194" style="fill: #ff0000; stroke: #ff0000"/>
     <use xlink:href="#mbc5b250e62" x="514.357866" y="188.947831" style="fill: #ff0000; stroke: #ff0000"/>
     <use xlink:href="#mbc5b250e62" x="522.323271" y="189.918383" style="fill: #ff0000; stroke: #ff0000"/>
     <use xlink:href="#mbc5b250e62" x="530.288675" y="190.518169" style="fill: #ff0000; stroke: #ff0000"/>
     <use xlink:href="#mbc5b250e62" x="538.254079" y="190.036509" style="fill: #ff0000; stroke: #ff0000"/>
     <use xlink:href="#mbc5b250e62" x="546.219484" y="189.629525" style="fill: #ff0000; stroke: #ff0000"/>
     <use xlink:href="#mbc5b250e62" x="554.184888" y="191.386684" style="fill: #ff0000; stroke: #ff0000"/>
     <use xlink:href="#mbc5b250e62" x="562.150292" y="189.016973" style="fill: #ff0000; stroke: #ff0000"/>
     <use xlink:href="#mbc5b250e62" x="570.115697" y="190.178977" style="fill: #ff0000; stroke: #ff0000"/>
     <use xlink:href="#mbc5b250e62" x="578.081101" y="188.857588" style="fill: #ff0000; stroke: #ff0000"/>
     <use xlink:href="#mbc5b250e62" x="586.046505" y="189.747395" style="fill: #ff0000; stroke: #ff0000"/>
     <use xlink:href="#mbc5b250e62" x="594.011909" y="189.993419" style="fill: #ff0000; stroke: #ff0000"/>
     <use xlink:href="#mbc5b250e62" x="601.977314" y="191.371848" style="fill: #ff0000; stroke: #ff0000"/>
     <use xlink:href="#mbc5b250e62" x="609.942718" y="189.84809" style="fill: #ff0000; stroke: #ff0000"/>
     <use xlink:href="#mbc5b250e62" x="617.908122" y="191.108201" style="fill: #ff0000; stroke: #ff0000"/>
     <use xlink:href="#mbc5b250e62" x="625.873527" y="190.566591" style="fill: #ff0000; stroke: #ff0000"/>
     <use xlink:href="#mbc5b250e62" x="633.838931" y="190.343963" style="fill: #ff0000; stroke: #ff0000"/>
     <use xlink:href="#mbc5b250e62" x="641.804335" y="192.631137" style="fill: #ff0000; stroke: #ff0000"/>
     <use xlink:href="#mbc5b250e62" x="649.76974" y="190.065555" style="fill: #ff0000; stroke: #ff0000"/>
     <use xlink:href="#mbc5b250e62" x="657.735144" y="193.137007" style="fill: #ff0000; stroke: #ff0000"/>
     <use xlink:href="#mbc5b250e62" x="665.700548" y="192.560339" style="fill: #ff0000; stroke: #ff0000"/>
     <use xlink:href="#mbc5b250e62" x="673.665953" y="195.622437" style="fill: #ff0000; stroke: #ff0000"/>
     <use xlink:href="#mbc5b250e62" x="681.631357" y="194.70976" style="fill: #ff0000; stroke: #ff0000"/>
     <use xlink:href="#mbc5b250e62" x="689.596761" y="192.934665" style="fill: #ff0000; stroke: #ff0000"/>
     <use xlink:href="#mbc5b250e62" x="697.562165" y="194.734139" style="fill: #ff0000; stroke: #ff0000"/>
     <use xlink:href="#mbc5b250e62" x="705.52757" y="194.843185" style="fill: #ff0000; stroke: #ff0000"/>
     <use xlink:href="#mbc5b250e62" x="713.492974" y="193.824626" style="fill: #ff0000; stroke: #ff0000"/>
     <use xlink:href="#mbc5b250e62" x="721.458378" y="193.505105" style="fill: #ff0000; stroke: #ff0000"/>
     <use xlink:href="#mbc5b250e62" x="729.423783" y="194.864908" style="fill: #ff0000; stroke: #ff0000"/>
     <use xlink:href="#mbc5b250e62" x="737.389187" y="194.931902" style="fill: #ff0000; stroke: #ff0000"/>
     <use xlink:href="#mbc5b250e62" x="745.354591" y="194.541686" style="fill: #ff0000; stroke: #ff0000"/>
     <use xlink:href="#mbc5b250e62" x="753.319996" y="193.94558" style="fill: #ff0000; stroke: #ff0000"/>
     <use xlink:href="#mbc5b250e62" x="761.2854" y="196.072594" style="fill: #ff0000; stroke: #ff0000"/>
     <use xlink:href="#mbc5b250e62" x="769.250804" y="194.707096" style="fill: #ff0000; stroke: #ff0000"/>
     <use xlink:href="#mbc5b250e62" x="777.216209" y="195.139883" style="fill: #ff0000; stroke: #ff0000"/>
     <use xlink:href="#mbc5b250e62" x="785.181613" y="195.211522" style="fill: #ff0000; stroke: #ff0000"/>
     <use xlink:href="#mbc5b250e62" x="793.147017" y="196.377607" style="fill: #ff0000; stroke: #ff0000"/>
     <use xlink:href="#mbc5b250e62" x="801.112421" y="192.820677" style="fill: #ff0000; stroke: #ff0000"/>
     <use xlink:href="#mbc5b250e62" x="809.077826" y="194.957595" style="fill: #ff0000; stroke: #ff0000"/>
     <use xlink:href="#mbc5b250e62" x="817.04323" y="193.671108" style="fill: #ff0000; stroke: #ff0000"/>
     <use xlink:href="#mbc5b250e62" x="825.008634" y="193.073131" style="fill: #ff0000; stroke: #ff0000"/>
     <use xlink:href="#mbc5b250e62" x="832.974039" y="193.220376" style="fill: #ff0000; stroke: #ff0000"/>
     <use xlink:href="#mbc5b250e62" x="840.939443" y="182.672913" style="fill: #ff0000; stroke: #ff0000"/>
     <use xlink:href="#mbc5b250e62" x="848.904847" y="183.587642" style="fill: #ff0000; stroke: #ff0000"/>
     <use xlink:href="#mbc5b250e62" x="856.870252" y="182.05499" style="fill: #ff0000; stroke: #ff0000"/>
     <use xlink:href="#mbc5b250e62" x="864.835656" y="175.524418" style="fill: #ff0000; stroke: #ff0000"/>
     <use xlink:href="#mbc5b250e62" x="872.80106" y="174.085257" style="fill: #ff0000; stroke: #ff0000"/>
     <use xlink:href="#mbc5b250e62" x="880.766465" y="174.148523" style="fill: #ff0000; stroke: #ff0000"/>
     <use xlink:href="#mbc5b250e62" x="888.731869" y="173.407729" style="fill: #ff0000; stroke: #ff0000"/>
     <use xlink:href="#mbc5b250e62" x="896.697273" y="177.685975" style="fill: #ff0000; stroke: #ff0000"/>
     <use xlink:href="#mbc5b250e62" x="904.662677" y="175.820285" style="fill: #ff0000; stroke: #ff0000"/>
     <use xlink:href="#mbc5b250e62" x="912.628082" y="176.526536" style="fill: #ff0000; stroke: #ff0000"/>
     <use xlink:href="#mbc5b250e62" x="920.593486" y="177.676213" style="fill: #ff0000; stroke: #ff0000"/>
     <use xlink:href="#mbc5b250e62" x="928.55889" y="176.765145" style="fill: #ff0000; stroke: #ff0000"/>
     <use xlink:href="#mbc5b250e62" x="936.524295" y="177.698928" style="fill: #ff0000; stroke: #ff0000"/>
     <use xlink:href="#mbc5b250e62" x="944.489699" y="178.520448" style="fill: #ff0000; stroke: #ff0000"/>
     <use xlink:href="#mbc5b250e62" x="952.455103" y="179.095474" style="fill: #ff0000; stroke: #ff0000"/>
    </g>
   </g>
   <g id="patch_3">
    <path d="M 132.815 784.12 
L 132.815 91.2 
" style="fill: none; stroke: #000000; stroke-width: 0.8; stroke-linejoin: miter; stroke-linecap: square"/>
   </g>
   <g id="patch_4">
    <path d="M 991.485584 784.12 
L 991.485584 91.2 
" style="fill: none; stroke: #000000; stroke-width: 0.8; stroke-linejoin: miter; stroke-linecap: square"/>
   </g>
   <g id="patch_5">
    <path d="M 132.815 784.12 
L 991.485584 784.12 
" style="fill: none; stroke: #000000; stroke-width: 0.8; stroke-linejoin: miter; stroke-linecap: square"/>
   </g>
   <g id="patch_6">
    <path d="M 132.815 91.2 
L 991.485584 91.2 
" style="fill: none; stroke: #000000; stroke-width: 0.8; stroke-linejoin: miter; stroke-linecap: square"/>
   </g>
   <g id="text_18">
    <!-- 10-attempts average Mean Absoulute Error -->
    <g transform="translate(171.572792 83.713125)scale(0.36 -0.36)">
     <defs>
      <path id="DejaVuSans-2d" d="M 313 2009 
L 1997 2009 
L 1997 1497 
L 313 1497 
L 313 2009 
z
" transform="scale(0.015625)"/>
      <path id="DejaVuSans-61" d="M 2194 1759 
Q 1497 1759 1228 1600 
Q 959 1441 959 1056 
Q 959 750 1161 570 
Q 1363 391 1709 391 
Q 2188 391 2477 730 
Q 2766 1069 2766 1631 
L 2766 1759 
L 2194 1759 
z
M 3341 1997 
L 3341 0 
L 2766 0 
L 2766 531 
Q 2569 213 2275 61 
Q 1981 -91 1556 -91 
Q 1019 -91 701 211 
Q 384 513 384 1019 
Q 384 1609 779 1909 
Q 1175 2209 1959 2209 
L 2766 2209 
L 2766 2266 
Q 2766 2663 2505 2880 
Q 2244 3097 1772 3097 
Q 1472 3097 1187 3025 
Q 903 2953 641 2809 
L 641 3341 
Q 956 3463 1253 3523 
Q 1550 3584 1831 3584 
Q 2591 3584 2966 3190 
Q 3341 2797 3341 1997 
z
" transform="scale(0.015625)"/>
      <path id="DejaVuSans-74" d="M 1172 4494 
L 1172 3500 
L 2356 3500 
L 2356 3053 
L 1172 3053 
L 1172 1153 
Q 1172 725 1289 603 
Q 1406 481 1766 481 
L 2356 481 
L 2356 0 
L 1766 0 
Q 1100 0 847 248 
Q 594 497 594 1153 
L 594 3053 
L 172 3053 
L 172 3500 
L 594 3500 
L 594 4494 
L 1172 4494 
z
" transform="scale(0.015625)"/>
      <path id="DejaVuSans-65" d="M 3597 1894 
L 3597 1613 
L 953 1613 
Q 991 1019 1311 708 
Q 1631 397 2203 397 
Q 2534 397 2845 478 
Q 3156 559 3463 722 
L 3463 178 
Q 3153 47 2828 -22 
Q 2503 -91 2169 -91 
Q 1331 -91 842 396 
Q 353 884 353 1716 
Q 353 2575 817 3079 
Q 1281 3584 2069 3584 
Q 2775 3584 3186 3129 
Q 3597 2675 3597 1894 
z
M 3022 2063 
Q 3016 2534 2758 2815 
Q 2500 3097 2075 3097 
Q 1594 3097 1305 2825 
Q 1016 2553 972 2059 
L 3022 2063 
z
" transform="scale(0.015625)"/>
      <path id="DejaVuSans-6d" d="M 3328 2828 
Q 3544 3216 3844 3400 
Q 4144 3584 4550 3584 
Q 5097 3584 5394 3201 
Q 5691 2819 5691 2113 
L 5691 0 
L 5113 0 
L 5113 2094 
Q 5113 2597 4934 2840 
Q 4756 3084 4391 3084 
Q 3944 3084 3684 2787 
Q 3425 2491 3425 1978 
L 3425 0 
L 2847 0 
L 2847 2094 
Q 2847 2600 2669 2842 
Q 2491 3084 2119 3084 
Q 1678 3084 1418 2786 
Q 1159 2488 1159 1978 
L 1159 0 
L 581 0 
L 581 3500 
L 1159 3500 
L 1159 2956 
Q 1356 3278 1631 3431 
Q 1906 3584 2284 3584 
Q 2666 3584 2933 3390 
Q 3200 3197 3328 2828 
z
" transform="scale(0.015625)"/>
      <path id="DejaVuSans-76" d="M 191 3500 
L 800 3500 
L 1894 563 
L 2988 3500 
L 3597 3500 
L 2284 0 
L 1503 0 
L 191 3500 
z
" transform="scale(0.015625)"/>
      <path id="DejaVuSans-67" d="M 2906 1791 
Q 2906 2416 2648 2759 
Q 2391 3103 1925 3103 
Q 1463 3103 1205 2759 
Q 947 2416 947 1791 
Q 947 1169 1205 825 
Q 1463 481 1925 481 
Q 2391 481 2648 825 
Q 2906 1169 2906 1791 
z
M 3481 434 
Q 3481 -459 3084 -895 
Q 2688 -1331 1869 -1331 
Q 1566 -1331 1297 -1286 
Q 1028 -1241 775 -1147 
L 775 -588 
Q 1028 -725 1275 -790 
Q 1522 -856 1778 -856 
Q 2344 -856 2625 -561 
Q 2906 -266 2906 331 
L 2906 616 
Q 2728 306 2450 153 
Q 2172 0 1784 0 
Q 1141 0 747 490 
Q 353 981 353 1791 
Q 353 2603 747 3093 
Q 1141 3584 1784 3584 
Q 2172 3584 2450 3431 
Q 2728 3278 2906 2969 
L 2906 3500 
L 3481 3500 
L 3481 434 
z
" transform="scale(0.015625)"/>
      <path id="DejaVuSans-4d" d="M 628 4666 
L 1569 4666 
L 2759 1491 
L 3956 4666 
L 4897 4666 
L 4897 0 
L 4281 0 
L 4281 4097 
L 3078 897 
L 2444 897 
L 1241 4097 
L 1241 0 
L 628 0 
L 628 4666 
z
" transform="scale(0.015625)"/>
      <path id="DejaVuSans-6e" d="M 3513 2113 
L 3513 0 
L 2938 0 
L 2938 2094 
Q 2938 2591 2744 2837 
Q 2550 3084 2163 3084 
Q 1697 3084 1428 2787 
Q 1159 2491 1159 1978 
L 1159 0 
L 581 0 
L 581 3500 
L 1159 3500 
L 1159 2956 
Q 1366 3272 1645 3428 
Q 1925 3584 2291 3584 
Q 2894 3584 3203 3211 
Q 3513 2838 3513 2113 
z
" transform="scale(0.015625)"/>
      <path id="DejaVuSans-41" d="M 2188 4044 
L 1331 1722 
L 3047 1722 
L 2188 4044 
z
M 1831 4666 
L 2547 4666 
L 4325 0 
L 3669 0 
L 3244 1197 
L 1141 1197 
L 716 0 
L 50 0 
L 1831 4666 
z
" transform="scale(0.015625)"/>
      <path id="DejaVuSans-62" d="M 3116 1747 
Q 3116 2381 2855 2742 
Q 2594 3103 2138 3103 
Q 1681 3103 1420 2742 
Q 1159 2381 1159 1747 
Q 1159 1113 1420 752 
Q 1681 391 2138 391 
Q 2594 391 2855 752 
Q 3116 1113 3116 1747 
z
M 1159 2969 
Q 1341 3281 1617 3432 
Q 1894 3584 2278 3584 
Q 2916 3584 3314 3078 
Q 3713 2572 3713 1747 
Q 3713 922 3314 415 
Q 2916 -91 2278 -91 
Q 1894 -91 1617 61 
Q 1341 213 1159 525 
L 1159 0 
L 581 0 
L 581 4863 
L 1159 4863 
L 1159 2969 
z
" transform="scale(0.015625)"/>
      <path id="DejaVuSans-75" d="M 544 1381 
L 544 3500 
L 1119 3500 
L 1119 1403 
Q 1119 906 1312 657 
Q 1506 409 1894 409 
Q 2359 409 2629 706 
Q 2900 1003 2900 1516 
L 2900 3500 
L 3475 3500 
L 3475 0 
L 2900 0 
L 2900 538 
Q 2691 219 2414 64 
Q 2138 -91 1772 -91 
Q 1169 -91 856 284 
Q 544 659 544 1381 
z
M 1991 3584 
L 1991 3584 
z
" transform="scale(0.015625)"/>
      <path id="DejaVuSans-6c" d="M 603 4863 
L 1178 4863 
L 1178 0 
L 603 0 
L 603 4863 
z
" transform="scale(0.015625)"/>
     </defs>
     <use xlink:href="#DejaVuSans-31"/>
     <use xlink:href="#DejaVuSans-30" x="63.623047"/>
     <use xlink:href="#DejaVuSans-2d" x="127.246094"/>
     <use xlink:href="#DejaVuSans-61" x="163.330078"/>
     <use xlink:href="#DejaVuSans-74" x="224.609375"/>
     <use xlink:href="#DejaVuSans-74" x="263.818359"/>
     <use xlink:href="#DejaVuSans-65" x="303.027344"/>
     <use xlink:href="#DejaVuSans-6d" x="364.550781"/>
     <use xlink:href="#DejaVuSans-70" x="461.962891"/>
     <use xlink:href="#DejaVuSans-74" x="525.439453"/>
     <use xlink:href="#DejaVuSans-73" x="564.648438"/>
     <use xlink:href="#DejaVuSans-20" x="616.748047"/>
     <use xlink:href="#DejaVuSans-61" x="648.535156"/>
     <use xlink:href="#DejaVuSans-76" x="709.814453"/>
     <use xlink:href="#DejaVuSans-65" x="768.994141"/>
     <use xlink:href="#DejaVuSans-72" x="830.517578"/>
     <use xlink:href="#DejaVuSans-61" x="871.630859"/>
     <use xlink:href="#DejaVuSans-67" x="932.910156"/>
     <use xlink:href="#DejaVuSans-65" x="996.386719"/>
     <use xlink:href="#DejaVuSans-20" x="1057.910156"/>
     <use xlink:href="#DejaVuSans-4d" x="1089.697266"/>
     <use xlink:href="#DejaVuSans-65" x="1175.976562"/>
     <use xlink:href="#DejaVuSans-61" x="1237.5"/>
     <use xlink:href="#DejaVuSans-6e" x="1298.779297"/>
     <use xlink:href="#DejaVuSans-20" x="1362.158203"/>
     <use xlink:href="#DejaVuSans-41" x="1393.945312"/>
     <use xlink:href="#DejaVuSans-62" x="1462.353516"/>
     <use xlink:href="#DejaVuSans-73" x="1525.830078"/>
     <use xlink:href="#DejaVuSans-6f" x="1577.929688"/>
     <use xlink:href="#DejaVuSans-75" x="1639.111328"/>
     <use xlink:href="#DejaVuSans-6c" x="1702.490234"/>
     <use xlink:href="#DejaVuSans-75" x="1730.273438"/>
     <use xlink:href="#DejaVuSans-74" x="1793.652344"/>
     <use xlink:href="#DejaVuSans-65" x="1832.861328"/>
     <use xlink:href="#DejaVuSans-20" x="1894.384766"/>
     <use xlink:href="#DejaVuSans-45" x="1926.171875"/>
     <use xlink:href="#DejaVuSans-72" x="1989.355469"/>
     <use xlink:href="#DejaVuSans-72" x="2028.71875"/>
     <use xlink:href="#DejaVuSans-6f" x="2067.582031"/>
     <use xlink:href="#DejaVuSans-72" x="2128.763672"/>
    </g>
   </g>
   <g id="legend_1">
    <g id="patch_7">
     <path d="M 155.215 768.12 
L 383.86 768.12 
Q 390.26 768.12 390.26 761.72 
L 390.26 670.98 
Q 390.26 664.58 383.86 664.58 
L 155.215 664.58 
Q 148.815 664.58 148.815 670.98 
L 148.815 761.72 
Q 148.815 768.12 155.215 768.12 
z
" style="fill: #ffffff; opacity: 0.8; stroke: #cccccc; stroke-linejoin: miter"/>
    </g>
    <g id="line2d_18">
     <path d="M 161.615 690.495 
L 193.615 690.495 
L 225.615 690.495 
" style="fill: none; stroke: #0000ff; stroke-width: 1.5; stroke-linecap: square"/>
     <g>
      <use xlink:href="#m8e3d2affc2" x="193.615" y="690.495" style="fill: #0000ff; stroke: #0000ff"/>
     </g>
    </g>
    <g id="text_19">
     <!-- Training -->
     <g transform="translate(251.215 701.695)scale(0.32 -0.32)">
      <defs>
       <path id="DejaVuSans-54" d="M -19 4666 
L 3928 4666 
L 3928 4134 
L 2272 4134 
L 2272 0 
L 1638 0 
L 1638 4134 
L -19 4134 
L -19 4666 
z
" transform="scale(0.015625)"/>
       <path id="DejaVuSans-69" d="M 603 3500 
L 1178 3500 
L 1178 0 
L 603 0 
L 603 3500 
z
M 603 4863 
L 1178 4863 
L 1178 4134 
L 603 4134 
L 603 4863 
z
" transform="scale(0.015625)"/>
      </defs>
      <use xlink:href="#DejaVuSans-54"/>
      <use xlink:href="#DejaVuSans-72" x="46.333984"/>
      <use xlink:href="#DejaVuSans-61" x="87.447266"/>
      <use xlink:href="#DejaVuSans-69" x="148.726562"/>
      <use xlink:href="#DejaVuSans-6e" x="176.509766"/>
      <use xlink:href="#DejaVuSans-69" x="239.888672"/>
      <use xlink:href="#DejaVuSans-6e" x="267.671875"/>
      <use xlink:href="#DejaVuSans-67" x="331.050781"/>
     </g>
    </g>
    <g id="line2d_19">
     <path d="M 161.615 737.465 
L 193.615 737.465 
L 225.615 737.465 
" style="fill: none; stroke-dasharray: 5.55,2.4; stroke-dashoffset: 0; stroke: #ff0000; stroke-width: 1.5"/>
     <g>
      <use xlink:href="#mbc5b250e62" x="193.615" y="737.465" style="fill: #ff0000; stroke: #ff0000"/>
     </g>
    </g>
    <g id="text_20">
     <!-- Testing -->
     <g transform="translate(251.215 748.665)scale(0.32 -0.32)">
      <use xlink:href="#DejaVuSans-54"/>
      <use xlink:href="#DejaVuSans-65" x="44.083984"/>
      <use xlink:href="#DejaVuSans-73" x="105.607422"/>
      <use xlink:href="#DejaVuSans-74" x="157.707031"/>
      <use xlink:href="#DejaVuSans-69" x="196.916016"/>
      <use xlink:href="#DejaVuSans-6e" x="224.699219"/>
      <use xlink:href="#DejaVuSans-67" x="288.078125"/>
     </g>
    </g>
   </g>
  </g>
  <g id="text_21">
   <!-- Model  4 - FUDS training benchmark -->
   <g transform="translate(158.81625 44.634375)scale(0.36 -0.36)">
    <defs>
     <path id="DejaVuSans-64" d="M 2906 2969 
L 2906 4863 
L 3481 4863 
L 3481 0 
L 2906 0 
L 2906 525 
Q 2725 213 2448 61 
Q 2172 -91 1784 -91 
Q 1150 -91 751 415 
Q 353 922 353 1747 
Q 353 2572 751 3078 
Q 1150 3584 1784 3584 
Q 2172 3584 2448 3432 
Q 2725 3281 2906 2969 
z
M 947 1747 
Q 947 1113 1208 752 
Q 1469 391 1925 391 
Q 2381 391 2643 752 
Q 2906 1113 2906 1747 
Q 2906 2381 2643 2742 
Q 2381 3103 1925 3103 
Q 1469 3103 1208 2742 
Q 947 2381 947 1747 
z
" transform="scale(0.015625)"/>
     <path id="DejaVuSans-2116" d="M 169 0 
L 169 531 
Q 628 531 628 866 
L 628 4666 
L 1478 4666 
L 3547 763 
L 3547 3800 
Q 3547 4200 3792 4433 
Q 4038 4666 4619 4666 
L 4619 4134 
Q 4159 4134 4159 3800 
L 4159 0 
L 3309 0 
L 1241 3903 
L 1241 866 
Q 1241 466 995 233 
Q 750 0 169 0 
z
M 4659 1944 
Q 4659 2375 4884 2673 
Q 5109 2972 5431 2972 
Q 5753 2972 5978 2673 
Q 6203 2375 6203 1944 
Q 6203 1513 5978 1214 
Q 5753 916 5431 916 
Q 5109 916 4884 1214 
Q 4659 1513 4659 1944 
z
M 5097 1944 
Q 5097 1700 5186 1539 
Q 5275 1378 5431 1378 
Q 5588 1378 5677 1539 
Q 5766 1700 5766 1944 
Q 5766 2188 5677 2348 
Q 5588 2509 5431 2509 
Q 5275 2509 5186 2348 
Q 5097 2188 5097 1944 
z
M 4659 0 
L 4659 384 
L 6203 384 
L 6203 0 
L 4659 0 
z
" transform="scale(0.015625)"/>
     <path id="DejaVuSans-46" d="M 628 4666 
L 3309 4666 
L 3309 4134 
L 1259 4134 
L 1259 2759 
L 3109 2759 
L 3109 2228 
L 1259 2228 
L 1259 0 
L 628 0 
L 628 4666 
z
" transform="scale(0.015625)"/>
     <path id="DejaVuSans-55" d="M 556 4666 
L 1191 4666 
L 1191 1831 
Q 1191 1081 1462 751 
Q 1734 422 2344 422 
Q 2950 422 3222 751 
Q 3494 1081 3494 1831 
L 3494 4666 
L 4128 4666 
L 4128 1753 
Q 4128 841 3676 375 
Q 3225 -91 2344 -91 
Q 1459 -91 1007 375 
Q 556 841 556 1753 
L 556 4666 
z
" transform="scale(0.015625)"/>
     <path id="DejaVuSans-44" d="M 1259 4147 
L 1259 519 
L 2022 519 
Q 2988 519 3436 956 
Q 3884 1394 3884 2338 
Q 3884 3275 3436 3711 
Q 2988 4147 2022 4147 
L 1259 4147 
z
M 628 4666 
L 1925 4666 
Q 3281 4666 3915 4102 
Q 4550 3538 4550 2338 
Q 4550 1131 3912 565 
Q 3275 0 1925 0 
L 628 0 
L 628 4666 
z
" transform="scale(0.015625)"/>
     <path id="DejaVuSans-53" d="M 3425 4513 
L 3425 3897 
Q 3066 4069 2747 4153 
Q 2428 4238 2131 4238 
Q 1616 4238 1336 4038 
Q 1056 3838 1056 3469 
Q 1056 3159 1242 3001 
Q 1428 2844 1947 2747 
L 2328 2669 
Q 3034 2534 3370 2195 
Q 3706 1856 3706 1288 
Q 3706 609 3251 259 
Q 2797 -91 1919 -91 
Q 1588 -91 1214 -16 
Q 841 59 441 206 
L 441 856 
Q 825 641 1194 531 
Q 1563 422 1919 422 
Q 2459 422 2753 634 
Q 3047 847 3047 1241 
Q 3047 1584 2836 1778 
Q 2625 1972 2144 2069 
L 1759 2144 
Q 1053 2284 737 2584 
Q 422 2884 422 3419 
Q 422 4038 858 4394 
Q 1294 4750 2059 4750 
Q 2388 4750 2728 4690 
Q 3069 4631 3425 4513 
z
" transform="scale(0.015625)"/>
     <path id="DejaVuSans-6b" d="M 581 4863 
L 1159 4863 
L 1159 1991 
L 2875 3500 
L 3609 3500 
L 1753 1863 
L 3688 0 
L 2938 0 
L 1159 1709 
L 1159 0 
L 581 0 
L 581 4863 
z
" transform="scale(0.015625)"/>
    </defs>
    <use xlink:href="#DejaVuSans-4d"/>
    <use xlink:href="#DejaVuSans-6f" x="86.279297"/>
    <use xlink:href="#DejaVuSans-64" x="147.460938"/>
    <use xlink:href="#DejaVuSans-65" x="210.9375"/>
    <use xlink:href="#DejaVuSans-6c" x="272.460938"/>
    <use xlink:href="#DejaVuSans-20" x="300.244141"/>
    <use xlink:href="#DejaVuSans-2116" x="332.03125"/>
    <use xlink:href="#DejaVuSans-20" x="436.035156"/>
    <use xlink:href="#DejaVuSans-34" x="467.822266"/>
    <use xlink:href="#DejaVuSans-20" x="531.445312"/>
    <use xlink:href="#DejaVuSans-2d" x="563.232422"/>
    <use xlink:href="#DejaVuSans-20" x="599.316406"/>
    <use xlink:href="#DejaVuSans-46" x="631.103516"/>
    <use xlink:href="#DejaVuSans-55" x="688.623047"/>
    <use xlink:href="#DejaVuSans-44" x="761.816406"/>
    <use xlink:href="#DejaVuSans-53" x="838.818359"/>
    <use xlink:href="#DejaVuSans-20" x="902.294922"/>
    <use xlink:href="#DejaVuSans-74" x="934.082031"/>
    <use xlink:href="#DejaVuSans-72" x="973.291016"/>
    <use xlink:href="#DejaVuSans-61" x="1014.404297"/>
    <use xlink:href="#DejaVuSans-69" x="1075.683594"/>
    <use xlink:href="#DejaVuSans-6e" x="1103.466797"/>
    <use xlink:href="#DejaVuSans-69" x="1166.845703"/>
    <use xlink:href="#DejaVuSans-6e" x="1194.628906"/>
    <use xlink:href="#DejaVuSans-67" x="1258.007812"/>
    <use xlink:href="#DejaVuSans-20" x="1321.484375"/>
    <use xlink:href="#DejaVuSans-62" x="1353.271484"/>
    <use xlink:href="#DejaVuSans-65" x="1416.748047"/>
    <use xlink:href="#DejaVuSans-6e" x="1478.271484"/>
    <use xlink:href="#DejaVuSans-63" x="1541.650391"/>
    <use xlink:href="#DejaVuSans-68" x="1596.630859"/>
    <use xlink:href="#DejaVuSans-6d" x="1660.009766"/>
    <use xlink:href="#DejaVuSans-61" x="1757.421875"/>
    <use xlink:href="#DejaVuSans-72" x="1818.701172"/>
    <use xlink:href="#DejaVuSans-6b" x="1859.814453"/>
   </g>
  </g>
 </g>
 <defs>
  <clipPath id="p590e8864f1">
   <rect x="132.815" y="91.2" width="858.670584" height="692.92"/>
  </clipPath>
 </defs>
</svg>
