<?xml version="1.0" encoding="utf-8" standalone="no"?>
<!DOCTYPE svg PUBLIC "-//W3C//DTD SVG 1.1//EN"
  "http://www.w3.org/Graphics/SVG/1.1/DTD/svg11.dtd">
<svg xmlns:xlink="http://www.w3.org/1999/xlink" width="1008pt" height="864pt" viewBox="0 0 1008 864" xmlns="http://www.w3.org/2000/svg" version="1.1">
 <metadata>
  <rdf:RDF xmlns:dc="http://purl.org/dc/elements/1.1/" xmlns:cc="http://creativecommons.org/ns#" xmlns:rdf="http://www.w3.org/1999/02/22-rdf-syntax-ns#">
   <cc:Work>
    <dc:type rdf:resource="http://purl.org/dc/dcmitype/StillImage"/>
    <dc:date>2022-09-21T15:21:51.597664</dc:date>
    <dc:format>image/svg+xml</dc:format>
    <dc:creator>
     <cc:Agent>
      <dc:title>Matplotlib v3.5.1, https://matplotlib.org/</dc:title>
     </cc:Agent>
    </dc:creator>
   </cc:Work>
  </rdf:RDF>
 </metadata>
 <defs>
  <style type="text/css">*{stroke-linejoin: round; stroke-linecap: butt}</style>
 </defs>
 <g id="figure_1">
  <g id="patch_1">
   <path d="M 0 864 
L 1008 864 
L 1008 0 
L 0 0 
L 0 864 
z
" style="fill: none"/>
  </g>
  <g id="axes_1">
   <g id="patch_2">
    <path d="M 70.46 784.12 
L 991.485584 784.12 
L 991.485584 91.2 
L 70.46 91.2 
z
" style="fill: #ffffff"/>
   </g>
   <g id="matplotlib.axis_1">
    <g id="xtick_1">
     <g id="line2d_1">
      <defs>
       <path id="m275657144c" d="M 0 0 
L 0 3.5 
" style="stroke: #000000; stroke-width: 0.8"/>
      </defs>
      <g>
       <use xlink:href="#m275657144c" x="112.324799" y="784.12" style="stroke: #000000; stroke-width: 0.8"/>
      </g>
     </g>
     <g id="text_1">
      <!-- 0 -->
      <g transform="translate(103.417299 812.395625)scale(0.28 -0.28)">
       <defs>
        <path id="DejaVuSans-30" d="M 2034 4250 
Q 1547 4250 1301 3770 
Q 1056 3291 1056 2328 
Q 1056 1369 1301 889 
Q 1547 409 2034 409 
Q 2525 409 2770 889 
Q 3016 1369 3016 2328 
Q 3016 3291 2770 3770 
Q 2525 4250 2034 4250 
z
M 2034 4750 
Q 2819 4750 3233 4129 
Q 3647 3509 3647 2328 
Q 3647 1150 3233 529 
Q 2819 -91 2034 -91 
Q 1250 -91 836 529 
Q 422 1150 422 2328 
Q 422 3509 836 4129 
Q 1250 4750 2034 4750 
z
" transform="scale(0.015625)"/>
       </defs>
       <use xlink:href="#DejaVuSans-30"/>
      </g>
     </g>
    </g>
    <g id="xtick_2">
     <g id="line2d_2">
      <g>
       <use xlink:href="#m275657144c" x="283.201531" y="784.12" style="stroke: #000000; stroke-width: 0.8"/>
      </g>
     </g>
     <g id="text_2">
      <!-- 20 -->
      <g transform="translate(265.386531 812.395625)scale(0.28 -0.28)">
       <defs>
        <path id="DejaVuSans-32" d="M 1228 531 
L 3431 531 
L 3431 0 
L 469 0 
L 469 531 
Q 828 903 1448 1529 
Q 2069 2156 2228 2338 
Q 2531 2678 2651 2914 
Q 2772 3150 2772 3378 
Q 2772 3750 2511 3984 
Q 2250 4219 1831 4219 
Q 1534 4219 1204 4116 
Q 875 4013 500 3803 
L 500 4441 
Q 881 4594 1212 4672 
Q 1544 4750 1819 4750 
Q 2544 4750 2975 4387 
Q 3406 4025 3406 3419 
Q 3406 3131 3298 2873 
Q 3191 2616 2906 2266 
Q 2828 2175 2409 1742 
Q 1991 1309 1228 531 
z
" transform="scale(0.015625)"/>
       </defs>
       <use xlink:href="#DejaVuSans-32"/>
       <use xlink:href="#DejaVuSans-30" x="63.623047"/>
      </g>
     </g>
    </g>
    <g id="xtick_3">
     <g id="line2d_3">
      <g>
       <use xlink:href="#m275657144c" x="454.078263" y="784.12" style="stroke: #000000; stroke-width: 0.8"/>
      </g>
     </g>
     <g id="text_3">
      <!-- 40 -->
      <g transform="translate(436.263263 812.395625)scale(0.28 -0.28)">
       <defs>
        <path id="DejaVuSans-34" d="M 2419 4116 
L 825 1625 
L 2419 1625 
L 2419 4116 
z
M 2253 4666 
L 3047 4666 
L 3047 1625 
L 3713 1625 
L 3713 1100 
L 3047 1100 
L 3047 0 
L 2419 0 
L 2419 1100 
L 313 1100 
L 313 1709 
L 2253 4666 
z
" transform="scale(0.015625)"/>
       </defs>
       <use xlink:href="#DejaVuSans-34"/>
       <use xlink:href="#DejaVuSans-30" x="63.623047"/>
      </g>
     </g>
    </g>
    <g id="xtick_4">
     <g id="line2d_4">
      <g>
       <use xlink:href="#m275657144c" x="624.954995" y="784.12" style="stroke: #000000; stroke-width: 0.8"/>
      </g>
     </g>
     <g id="text_4">
      <!-- 60 -->
      <g transform="translate(607.139995 812.395625)scale(0.28 -0.28)">
       <defs>
        <path id="DejaVuSans-36" d="M 2113 2584 
Q 1688 2584 1439 2293 
Q 1191 2003 1191 1497 
Q 1191 994 1439 701 
Q 1688 409 2113 409 
Q 2538 409 2786 701 
Q 3034 994 3034 1497 
Q 3034 2003 2786 2293 
Q 2538 2584 2113 2584 
z
M 3366 4563 
L 3366 3988 
Q 3128 4100 2886 4159 
Q 2644 4219 2406 4219 
Q 1781 4219 1451 3797 
Q 1122 3375 1075 2522 
Q 1259 2794 1537 2939 
Q 1816 3084 2150 3084 
Q 2853 3084 3261 2657 
Q 3669 2231 3669 1497 
Q 3669 778 3244 343 
Q 2819 -91 2113 -91 
Q 1303 -91 875 529 
Q 447 1150 447 2328 
Q 447 3434 972 4092 
Q 1497 4750 2381 4750 
Q 2619 4750 2861 4703 
Q 3103 4656 3366 4563 
z
" transform="scale(0.015625)"/>
       </defs>
       <use xlink:href="#DejaVuSans-36"/>
       <use xlink:href="#DejaVuSans-30" x="63.623047"/>
      </g>
     </g>
    </g>
    <g id="xtick_5">
     <g id="line2d_5">
      <g>
       <use xlink:href="#m275657144c" x="795.831727" y="784.12" style="stroke: #000000; stroke-width: 0.8"/>
      </g>
     </g>
     <g id="text_5">
      <!-- 80 -->
      <g transform="translate(778.016727 812.395625)scale(0.28 -0.28)">
       <defs>
        <path id="DejaVuSans-38" d="M 2034 2216 
Q 1584 2216 1326 1975 
Q 1069 1734 1069 1313 
Q 1069 891 1326 650 
Q 1584 409 2034 409 
Q 2484 409 2743 651 
Q 3003 894 3003 1313 
Q 3003 1734 2745 1975 
Q 2488 2216 2034 2216 
z
M 1403 2484 
Q 997 2584 770 2862 
Q 544 3141 544 3541 
Q 544 4100 942 4425 
Q 1341 4750 2034 4750 
Q 2731 4750 3128 4425 
Q 3525 4100 3525 3541 
Q 3525 3141 3298 2862 
Q 3072 2584 2669 2484 
Q 3125 2378 3379 2068 
Q 3634 1759 3634 1313 
Q 3634 634 3220 271 
Q 2806 -91 2034 -91 
Q 1263 -91 848 271 
Q 434 634 434 1313 
Q 434 1759 690 2068 
Q 947 2378 1403 2484 
z
M 1172 3481 
Q 1172 3119 1398 2916 
Q 1625 2713 2034 2713 
Q 2441 2713 2670 2916 
Q 2900 3119 2900 3481 
Q 2900 3844 2670 4047 
Q 2441 4250 2034 4250 
Q 1625 4250 1398 4047 
Q 1172 3844 1172 3481 
z
" transform="scale(0.015625)"/>
       </defs>
       <use xlink:href="#DejaVuSans-38"/>
       <use xlink:href="#DejaVuSans-30" x="63.623047"/>
      </g>
     </g>
    </g>
    <g id="xtick_6">
     <g id="line2d_6">
      <g>
       <use xlink:href="#m275657144c" x="966.708458" y="784.12" style="stroke: #000000; stroke-width: 0.8"/>
      </g>
     </g>
     <g id="text_6">
      <!-- 100 -->
      <g transform="translate(939.985958 812.395625)scale(0.28 -0.28)">
       <defs>
        <path id="DejaVuSans-31" d="M 794 531 
L 1825 531 
L 1825 4091 
L 703 3866 
L 703 4441 
L 1819 4666 
L 2450 4666 
L 2450 531 
L 3481 531 
L 3481 0 
L 794 0 
L 794 531 
z
" transform="scale(0.015625)"/>
       </defs>
       <use xlink:href="#DejaVuSans-31"/>
       <use xlink:href="#DejaVuSans-30" x="63.623047"/>
       <use xlink:href="#DejaVuSans-30" x="127.246094"/>
      </g>
     </g>
    </g>
    <g id="text_7">
     <!-- Epochs -->
     <g transform="translate(473.642792 846.53375)scale(0.32 -0.32)">
      <defs>
       <path id="DejaVuSans-45" d="M 628 4666 
L 3578 4666 
L 3578 4134 
L 1259 4134 
L 1259 2753 
L 3481 2753 
L 3481 2222 
L 1259 2222 
L 1259 531 
L 3634 531 
L 3634 0 
L 628 0 
L 628 4666 
z
" transform="scale(0.015625)"/>
       <path id="DejaVuSans-70" d="M 1159 525 
L 1159 -1331 
L 581 -1331 
L 581 3500 
L 1159 3500 
L 1159 2969 
Q 1341 3281 1617 3432 
Q 1894 3584 2278 3584 
Q 2916 3584 3314 3078 
Q 3713 2572 3713 1747 
Q 3713 922 3314 415 
Q 2916 -91 2278 -91 
Q 1894 -91 1617 61 
Q 1341 213 1159 525 
z
M 3116 1747 
Q 3116 2381 2855 2742 
Q 2594 3103 2138 3103 
Q 1681 3103 1420 2742 
Q 1159 2381 1159 1747 
Q 1159 1113 1420 752 
Q 1681 391 2138 391 
Q 2594 391 2855 752 
Q 3116 1113 3116 1747 
z
" transform="scale(0.015625)"/>
       <path id="DejaVuSans-6f" d="M 1959 3097 
Q 1497 3097 1228 2736 
Q 959 2375 959 1747 
Q 959 1119 1226 758 
Q 1494 397 1959 397 
Q 2419 397 2687 759 
Q 2956 1122 2956 1747 
Q 2956 2369 2687 2733 
Q 2419 3097 1959 3097 
z
M 1959 3584 
Q 2709 3584 3137 3096 
Q 3566 2609 3566 1747 
Q 3566 888 3137 398 
Q 2709 -91 1959 -91 
Q 1206 -91 779 398 
Q 353 888 353 1747 
Q 353 2609 779 3096 
Q 1206 3584 1959 3584 
z
" transform="scale(0.015625)"/>
       <path id="DejaVuSans-63" d="M 3122 3366 
L 3122 2828 
Q 2878 2963 2633 3030 
Q 2388 3097 2138 3097 
Q 1578 3097 1268 2742 
Q 959 2388 959 1747 
Q 959 1106 1268 751 
Q 1578 397 2138 397 
Q 2388 397 2633 464 
Q 2878 531 3122 666 
L 3122 134 
Q 2881 22 2623 -34 
Q 2366 -91 2075 -91 
Q 1284 -91 818 406 
Q 353 903 353 1747 
Q 353 2603 823 3093 
Q 1294 3584 2113 3584 
Q 2378 3584 2631 3529 
Q 2884 3475 3122 3366 
z
" transform="scale(0.015625)"/>
       <path id="DejaVuSans-68" d="M 3513 2113 
L 3513 0 
L 2938 0 
L 2938 2094 
Q 2938 2591 2744 2837 
Q 2550 3084 2163 3084 
Q 1697 3084 1428 2787 
Q 1159 2491 1159 1978 
L 1159 0 
L 581 0 
L 581 4863 
L 1159 4863 
L 1159 2956 
Q 1366 3272 1645 3428 
Q 1925 3584 2291 3584 
Q 2894 3584 3203 3211 
Q 3513 2838 3513 2113 
z
" transform="scale(0.015625)"/>
       <path id="DejaVuSans-73" d="M 2834 3397 
L 2834 2853 
Q 2591 2978 2328 3040 
Q 2066 3103 1784 3103 
Q 1356 3103 1142 2972 
Q 928 2841 928 2578 
Q 928 2378 1081 2264 
Q 1234 2150 1697 2047 
L 1894 2003 
Q 2506 1872 2764 1633 
Q 3022 1394 3022 966 
Q 3022 478 2636 193 
Q 2250 -91 1575 -91 
Q 1294 -91 989 -36 
Q 684 19 347 128 
L 347 722 
Q 666 556 975 473 
Q 1284 391 1588 391 
Q 1994 391 2212 530 
Q 2431 669 2431 922 
Q 2431 1156 2273 1281 
Q 2116 1406 1581 1522 
L 1381 1569 
Q 847 1681 609 1914 
Q 372 2147 372 2553 
Q 372 3047 722 3315 
Q 1072 3584 1716 3584 
Q 2034 3584 2315 3537 
Q 2597 3491 2834 3397 
z
" transform="scale(0.015625)"/>
      </defs>
      <use xlink:href="#DejaVuSans-45"/>
      <use xlink:href="#DejaVuSans-70" x="63.183594"/>
      <use xlink:href="#DejaVuSans-6f" x="126.660156"/>
      <use xlink:href="#DejaVuSans-63" x="187.841797"/>
      <use xlink:href="#DejaVuSans-68" x="242.822266"/>
      <use xlink:href="#DejaVuSans-73" x="306.201172"/>
     </g>
    </g>
   </g>
   <g id="matplotlib.axis_2">
    <g id="ytick_1">
     <g id="line2d_7">
      <defs>
       <path id="m14fde7afcb" d="M 0 0 
L -3.5 0 
" style="stroke: #000000; stroke-width: 0.8"/>
      </defs>
      <g>
       <use xlink:href="#m14fde7afcb" x="70.46" y="772.943871" style="stroke: #000000; stroke-width: 0.8"/>
      </g>
     </g>
     <g id="text_8">
      <!-- 0 -->
      <g transform="translate(45.645 783.581683)scale(0.28 -0.28)">
       <use xlink:href="#DejaVuSans-30"/>
      </g>
     </g>
    </g>
    <g id="ytick_2">
     <g id="line2d_8">
      <g>
       <use xlink:href="#m14fde7afcb" x="70.46" y="661.182581" style="stroke: #000000; stroke-width: 0.8"/>
      </g>
     </g>
     <g id="text_9">
      <!-- 1 -->
      <g transform="translate(45.645 671.820393)scale(0.28 -0.28)">
       <use xlink:href="#DejaVuSans-31"/>
      </g>
     </g>
    </g>
    <g id="ytick_3">
     <g id="line2d_9">
      <g>
       <use xlink:href="#m14fde7afcb" x="70.46" y="549.42129" style="stroke: #000000; stroke-width: 0.8"/>
      </g>
     </g>
     <g id="text_10">
      <!-- 2 -->
      <g transform="translate(45.645 560.059103)scale(0.28 -0.28)">
       <use xlink:href="#DejaVuSans-32"/>
      </g>
     </g>
    </g>
    <g id="ytick_4">
     <g id="line2d_10">
      <g>
       <use xlink:href="#m14fde7afcb" x="70.46" y="437.66" style="stroke: #000000; stroke-width: 0.8"/>
      </g>
     </g>
     <g id="text_11">
      <!-- 3 -->
      <g transform="translate(45.645 448.297812)scale(0.28 -0.28)">
       <defs>
        <path id="DejaVuSans-33" d="M 2597 2516 
Q 3050 2419 3304 2112 
Q 3559 1806 3559 1356 
Q 3559 666 3084 287 
Q 2609 -91 1734 -91 
Q 1441 -91 1130 -33 
Q 819 25 488 141 
L 488 750 
Q 750 597 1062 519 
Q 1375 441 1716 441 
Q 2309 441 2620 675 
Q 2931 909 2931 1356 
Q 2931 1769 2642 2001 
Q 2353 2234 1838 2234 
L 1294 2234 
L 1294 2753 
L 1863 2753 
Q 2328 2753 2575 2939 
Q 2822 3125 2822 3475 
Q 2822 3834 2567 4026 
Q 2313 4219 1838 4219 
Q 1578 4219 1281 4162 
Q 984 4106 628 3988 
L 628 4550 
Q 988 4650 1302 4700 
Q 1616 4750 1894 4750 
Q 2613 4750 3031 4423 
Q 3450 4097 3450 3541 
Q 3450 3153 3228 2886 
Q 3006 2619 2597 2516 
z
" transform="scale(0.015625)"/>
       </defs>
       <use xlink:href="#DejaVuSans-33"/>
      </g>
     </g>
    </g>
    <g id="ytick_5">
     <g id="line2d_11">
      <g>
       <use xlink:href="#m14fde7afcb" x="70.46" y="325.89871" style="stroke: #000000; stroke-width: 0.8"/>
      </g>
     </g>
     <g id="text_12">
      <!-- 4 -->
      <g transform="translate(45.645 336.536522)scale(0.28 -0.28)">
       <use xlink:href="#DejaVuSans-34"/>
      </g>
     </g>
    </g>
    <g id="ytick_6">
     <g id="line2d_12">
      <g>
       <use xlink:href="#m14fde7afcb" x="70.46" y="214.137419" style="stroke: #000000; stroke-width: 0.8"/>
      </g>
     </g>
     <g id="text_13">
      <!-- 5 -->
      <g transform="translate(45.645 224.775232)scale(0.28 -0.28)">
       <defs>
        <path id="DejaVuSans-35" d="M 691 4666 
L 3169 4666 
L 3169 4134 
L 1269 4134 
L 1269 2991 
Q 1406 3038 1543 3061 
Q 1681 3084 1819 3084 
Q 2600 3084 3056 2656 
Q 3513 2228 3513 1497 
Q 3513 744 3044 326 
Q 2575 -91 1722 -91 
Q 1428 -91 1123 -41 
Q 819 9 494 109 
L 494 744 
Q 775 591 1075 516 
Q 1375 441 1709 441 
Q 2250 441 2565 725 
Q 2881 1009 2881 1497 
Q 2881 1984 2565 2268 
Q 2250 2553 1709 2553 
Q 1456 2553 1204 2497 
Q 953 2441 691 2322 
L 691 4666 
z
" transform="scale(0.015625)"/>
       </defs>
       <use xlink:href="#DejaVuSans-35"/>
      </g>
     </g>
    </g>
    <g id="ytick_7">
     <g id="line2d_13">
      <g>
       <use xlink:href="#m14fde7afcb" x="70.46" y="102.376129" style="stroke: #000000; stroke-width: 0.8"/>
      </g>
     </g>
     <g id="text_14">
      <!-- 6 -->
      <g transform="translate(45.645 113.013942)scale(0.28 -0.28)">
       <use xlink:href="#DejaVuSans-36"/>
      </g>
     </g>
    </g>
    <g id="text_15">
     <!-- Error (%) -->
     <g transform="translate(34.99 509.425)rotate(-90)scale(0.32 -0.32)">
      <defs>
       <path id="DejaVuSans-72" d="M 2631 2963 
Q 2534 3019 2420 3045 
Q 2306 3072 2169 3072 
Q 1681 3072 1420 2755 
Q 1159 2438 1159 1844 
L 1159 0 
L 581 0 
L 581 3500 
L 1159 3500 
L 1159 2956 
Q 1341 3275 1631 3429 
Q 1922 3584 2338 3584 
Q 2397 3584 2469 3576 
Q 2541 3569 2628 3553 
L 2631 2963 
z
" transform="scale(0.015625)"/>
       <path id="DejaVuSans-20" transform="scale(0.015625)"/>
       <path id="DejaVuSans-28" d="M 1984 4856 
Q 1566 4138 1362 3434 
Q 1159 2731 1159 2009 
Q 1159 1288 1364 580 
Q 1569 -128 1984 -844 
L 1484 -844 
Q 1016 -109 783 600 
Q 550 1309 550 2009 
Q 550 2706 781 3412 
Q 1013 4119 1484 4856 
L 1984 4856 
z
" transform="scale(0.015625)"/>
       <path id="DejaVuSans-25" d="M 4653 2053 
Q 4381 2053 4226 1822 
Q 4072 1591 4072 1178 
Q 4072 772 4226 539 
Q 4381 306 4653 306 
Q 4919 306 5073 539 
Q 5228 772 5228 1178 
Q 5228 1588 5073 1820 
Q 4919 2053 4653 2053 
z
M 4653 2450 
Q 5147 2450 5437 2106 
Q 5728 1763 5728 1178 
Q 5728 594 5436 251 
Q 5144 -91 4653 -91 
Q 4153 -91 3862 251 
Q 3572 594 3572 1178 
Q 3572 1766 3864 2108 
Q 4156 2450 4653 2450 
z
M 1428 4353 
Q 1159 4353 1004 4120 
Q 850 3888 850 3481 
Q 850 3069 1003 2837 
Q 1156 2606 1428 2606 
Q 1700 2606 1854 2837 
Q 2009 3069 2009 3481 
Q 2009 3884 1853 4118 
Q 1697 4353 1428 4353 
z
M 4250 4750 
L 4750 4750 
L 1831 -91 
L 1331 -91 
L 4250 4750 
z
M 1428 4750 
Q 1922 4750 2215 4408 
Q 2509 4066 2509 3481 
Q 2509 2891 2217 2550 
Q 1925 2209 1428 2209 
Q 931 2209 642 2551 
Q 353 2894 353 3481 
Q 353 4063 643 4406 
Q 934 4750 1428 4750 
z
" transform="scale(0.015625)"/>
       <path id="DejaVuSans-29" d="M 513 4856 
L 1013 4856 
Q 1481 4119 1714 3412 
Q 1947 2706 1947 2009 
Q 1947 1309 1714 600 
Q 1481 -109 1013 -844 
L 513 -844 
Q 928 -128 1133 580 
Q 1338 1288 1338 2009 
Q 1338 2731 1133 3434 
Q 928 4138 513 4856 
z
" transform="scale(0.015625)"/>
      </defs>
      <use xlink:href="#DejaVuSans-45"/>
      <use xlink:href="#DejaVuSans-72" x="63.183594"/>
      <use xlink:href="#DejaVuSans-72" x="102.546875"/>
      <use xlink:href="#DejaVuSans-6f" x="141.410156"/>
      <use xlink:href="#DejaVuSans-72" x="202.591797"/>
      <use xlink:href="#DejaVuSans-20" x="243.705078"/>
      <use xlink:href="#DejaVuSans-28" x="275.492188"/>
      <use xlink:href="#DejaVuSans-25" x="314.505859"/>
      <use xlink:href="#DejaVuSans-29" x="409.525391"/>
     </g>
    </g>
   </g>
   <g id="line2d_14">
    <path d="M 126.465776 -1 
L 129.412472 52.385152 
L 137.956309 198.878631 
L 146.500146 315.59412 
L 155.043982 399.948793 
L 163.587819 446.289017 
L 172.131655 473.311124 
L 180.675492 495.253098 
L 189.219329 515.016065 
L 197.763165 529.989975 
L 206.307002 543.227748 
L 214.850838 554.124205 
L 223.394675 564.240196 
L 231.938512 572.090694 
L 240.482348 579.124239 
L 249.026185 585.534732 
L 257.570021 591.611253 
L 266.113858 596.08647 
L 274.657695 600.45947 
L 283.201531 604.691031 
L 291.745368 608.585091 
L 300.289204 612.09579 
L 308.833041 615.181247 
L 317.376877 617.998396 
L 325.920714 621.013058 
L 334.464551 623.746669 
L 343.008387 626.613718 
L 351.552224 628.4699 
L 360.09606 630.907494 
L 368.639897 633.140412 
L 377.183734 635.056615 
L 385.72757 637.052521 
L 394.271407 639.011085 
L 402.815243 641.427145 
L 411.35908 643.506697 
L 419.902917 645.050465 
L 428.446753 646.860746 
L 436.99059 648.376012 
L 445.534426 648.244928 
L 454.078263 649.337768 
L 462.622099 650.92715 
L 471.165936 652.248498 
L 479.709773 653.667316 
L 488.253609 654.645335 
L 496.797446 656.05385 
L 505.341282 657.40451 
L 513.885119 658.390669 
L 522.428956 659.534901 
L 530.972792 660.961047 
L 539.516629 661.974747 
L 548.060465 662.920755 
L 556.604302 663.967353 
L 565.148139 664.978859 
L 573.691975 666.000827 
L 582.235812 667.068529 
L 590.779648 668.048054 
L 599.323485 668.973671 
L 607.867322 670.017047 
L 616.411158 670.830885 
L 624.954995 671.688394 
L 633.498831 672.518833 
L 642.042668 673.604828 
L 650.586504 674.408275 
L 659.130341 675.170706 
L 667.674178 675.989118 
L 676.218014 676.898532 
L 684.761851 677.688435 
L 693.305687 678.414656 
L 701.849524 679.33025 
L 710.393361 679.993726 
L 718.937197 680.577386 
L 727.481034 681.335924 
L 736.02487 682.087987 
L 744.568707 682.754898 
L 753.112544 683.293671 
L 761.65638 683.914129 
L 770.200217 684.431445 
L 778.744053 685.120203 
L 787.28789 685.607612 
L 795.831727 686.305454 
L 804.375563 686.876349 
L 812.9194 687.335474 
L 821.463236 688.048571 
L 830.007073 688.573707 
L 838.550909 689.28905 
L 847.094746 689.624306 
L 855.638583 690.145433 
L 864.182419 690.689277 
L 872.726256 691.388695 
L 881.270092 692.30196 
L 889.813929 692.727997 
L 898.357766 693.238181 
L 906.901602 693.68334 
L 915.445439 694.526569 
L 923.989275 695.226421 
L 932.533112 695.580459 
L 941.076949 696.233254 
L 949.620785 696.941811 
" clip-path="url(#p665e26e5ad)" style="fill: none; stroke: #0000ff; stroke-width: 1.5; stroke-linecap: square"/>
    <defs>
     <path id="m0cd19c5bd5" d="M 0 3 
C 0.795609 3 1.55874 2.683901 2.12132 2.12132 
C 2.683901 1.55874 3 0.795609 3 0 
C 3 -0.795609 2.683901 -1.55874 2.12132 -2.12132 
C 1.55874 -2.683901 0.795609 -3 0 -3 
C -0.795609 -3 -1.55874 -2.683901 -2.12132 -2.12132 
C -2.683901 -1.55874 -3 -0.795609 -3 0 
C -3 0.795609 -2.683901 1.55874 -2.12132 2.12132 
C -1.55874 2.683901 -0.795609 3 0 3 
z
" style="stroke: #0000ff"/>
    </defs>
    <g clip-path="url(#p665e26e5ad)">
     <use xlink:href="#m0cd19c5bd5" x="126.465776" y="-1" style="fill: #0000ff; stroke: #0000ff"/>
     <use xlink:href="#m0cd19c5bd5" x="129.412472" y="52.385152" style="fill: #0000ff; stroke: #0000ff"/>
     <use xlink:href="#m0cd19c5bd5" x="137.956309" y="198.878631" style="fill: #0000ff; stroke: #0000ff"/>
     <use xlink:href="#m0cd19c5bd5" x="146.500146" y="315.59412" style="fill: #0000ff; stroke: #0000ff"/>
     <use xlink:href="#m0cd19c5bd5" x="155.043982" y="399.948793" style="fill: #0000ff; stroke: #0000ff"/>
     <use xlink:href="#m0cd19c5bd5" x="163.587819" y="446.289017" style="fill: #0000ff; stroke: #0000ff"/>
     <use xlink:href="#m0cd19c5bd5" x="172.131655" y="473.311124" style="fill: #0000ff; stroke: #0000ff"/>
     <use xlink:href="#m0cd19c5bd5" x="180.675492" y="495.253098" style="fill: #0000ff; stroke: #0000ff"/>
     <use xlink:href="#m0cd19c5bd5" x="189.219329" y="515.016065" style="fill: #0000ff; stroke: #0000ff"/>
     <use xlink:href="#m0cd19c5bd5" x="197.763165" y="529.989975" style="fill: #0000ff; stroke: #0000ff"/>
     <use xlink:href="#m0cd19c5bd5" x="206.307002" y="543.227748" style="fill: #0000ff; stroke: #0000ff"/>
     <use xlink:href="#m0cd19c5bd5" x="214.850838" y="554.124205" style="fill: #0000ff; stroke: #0000ff"/>
     <use xlink:href="#m0cd19c5bd5" x="223.394675" y="564.240196" style="fill: #0000ff; stroke: #0000ff"/>
     <use xlink:href="#m0cd19c5bd5" x="231.938512" y="572.090694" style="fill: #0000ff; stroke: #0000ff"/>
     <use xlink:href="#m0cd19c5bd5" x="240.482348" y="579.124239" style="fill: #0000ff; stroke: #0000ff"/>
     <use xlink:href="#m0cd19c5bd5" x="249.026185" y="585.534732" style="fill: #0000ff; stroke: #0000ff"/>
     <use xlink:href="#m0cd19c5bd5" x="257.570021" y="591.611253" style="fill: #0000ff; stroke: #0000ff"/>
     <use xlink:href="#m0cd19c5bd5" x="266.113858" y="596.08647" style="fill: #0000ff; stroke: #0000ff"/>
     <use xlink:href="#m0cd19c5bd5" x="274.657695" y="600.45947" style="fill: #0000ff; stroke: #0000ff"/>
     <use xlink:href="#m0cd19c5bd5" x="283.201531" y="604.691031" style="fill: #0000ff; stroke: #0000ff"/>
     <use xlink:href="#m0cd19c5bd5" x="291.745368" y="608.585091" style="fill: #0000ff; stroke: #0000ff"/>
     <use xlink:href="#m0cd19c5bd5" x="300.289204" y="612.09579" style="fill: #0000ff; stroke: #0000ff"/>
     <use xlink:href="#m0cd19c5bd5" x="308.833041" y="615.181247" style="fill: #0000ff; stroke: #0000ff"/>
     <use xlink:href="#m0cd19c5bd5" x="317.376877" y="617.998396" style="fill: #0000ff; stroke: #0000ff"/>
     <use xlink:href="#m0cd19c5bd5" x="325.920714" y="621.013058" style="fill: #0000ff; stroke: #0000ff"/>
     <use xlink:href="#m0cd19c5bd5" x="334.464551" y="623.746669" style="fill: #0000ff; stroke: #0000ff"/>
     <use xlink:href="#m0cd19c5bd5" x="343.008387" y="626.613718" style="fill: #0000ff; stroke: #0000ff"/>
     <use xlink:href="#m0cd19c5bd5" x="351.552224" y="628.4699" style="fill: #0000ff; stroke: #0000ff"/>
     <use xlink:href="#m0cd19c5bd5" x="360.09606" y="630.907494" style="fill: #0000ff; stroke: #0000ff"/>
     <use xlink:href="#m0cd19c5bd5" x="368.639897" y="633.140412" style="fill: #0000ff; stroke: #0000ff"/>
     <use xlink:href="#m0cd19c5bd5" x="377.183734" y="635.056615" style="fill: #0000ff; stroke: #0000ff"/>
     <use xlink:href="#m0cd19c5bd5" x="385.72757" y="637.052521" style="fill: #0000ff; stroke: #0000ff"/>
     <use xlink:href="#m0cd19c5bd5" x="394.271407" y="639.011085" style="fill: #0000ff; stroke: #0000ff"/>
     <use xlink:href="#m0cd19c5bd5" x="402.815243" y="641.427145" style="fill: #0000ff; stroke: #0000ff"/>
     <use xlink:href="#m0cd19c5bd5" x="411.35908" y="643.506697" style="fill: #0000ff; stroke: #0000ff"/>
     <use xlink:href="#m0cd19c5bd5" x="419.902917" y="645.050465" style="fill: #0000ff; stroke: #0000ff"/>
     <use xlink:href="#m0cd19c5bd5" x="428.446753" y="646.860746" style="fill: #0000ff; stroke: #0000ff"/>
     <use xlink:href="#m0cd19c5bd5" x="436.99059" y="648.376012" style="fill: #0000ff; stroke: #0000ff"/>
     <use xlink:href="#m0cd19c5bd5" x="445.534426" y="648.244928" style="fill: #0000ff; stroke: #0000ff"/>
     <use xlink:href="#m0cd19c5bd5" x="454.078263" y="649.337768" style="fill: #0000ff; stroke: #0000ff"/>
     <use xlink:href="#m0cd19c5bd5" x="462.622099" y="650.92715" style="fill: #0000ff; stroke: #0000ff"/>
     <use xlink:href="#m0cd19c5bd5" x="471.165936" y="652.248498" style="fill: #0000ff; stroke: #0000ff"/>
     <use xlink:href="#m0cd19c5bd5" x="479.709773" y="653.667316" style="fill: #0000ff; stroke: #0000ff"/>
     <use xlink:href="#m0cd19c5bd5" x="488.253609" y="654.645335" style="fill: #0000ff; stroke: #0000ff"/>
     <use xlink:href="#m0cd19c5bd5" x="496.797446" y="656.05385" style="fill: #0000ff; stroke: #0000ff"/>
     <use xlink:href="#m0cd19c5bd5" x="505.341282" y="657.40451" style="fill: #0000ff; stroke: #0000ff"/>
     <use xlink:href="#m0cd19c5bd5" x="513.885119" y="658.390669" style="fill: #0000ff; stroke: #0000ff"/>
     <use xlink:href="#m0cd19c5bd5" x="522.428956" y="659.534901" style="fill: #0000ff; stroke: #0000ff"/>
     <use xlink:href="#m0cd19c5bd5" x="530.972792" y="660.961047" style="fill: #0000ff; stroke: #0000ff"/>
     <use xlink:href="#m0cd19c5bd5" x="539.516629" y="661.974747" style="fill: #0000ff; stroke: #0000ff"/>
     <use xlink:href="#m0cd19c5bd5" x="548.060465" y="662.920755" style="fill: #0000ff; stroke: #0000ff"/>
     <use xlink:href="#m0cd19c5bd5" x="556.604302" y="663.967353" style="fill: #0000ff; stroke: #0000ff"/>
     <use xlink:href="#m0cd19c5bd5" x="565.148139" y="664.978859" style="fill: #0000ff; stroke: #0000ff"/>
     <use xlink:href="#m0cd19c5bd5" x="573.691975" y="666.000827" style="fill: #0000ff; stroke: #0000ff"/>
     <use xlink:href="#m0cd19c5bd5" x="582.235812" y="667.068529" style="fill: #0000ff; stroke: #0000ff"/>
     <use xlink:href="#m0cd19c5bd5" x="590.779648" y="668.048054" style="fill: #0000ff; stroke: #0000ff"/>
     <use xlink:href="#m0cd19c5bd5" x="599.323485" y="668.973671" style="fill: #0000ff; stroke: #0000ff"/>
     <use xlink:href="#m0cd19c5bd5" x="607.867322" y="670.017047" style="fill: #0000ff; stroke: #0000ff"/>
     <use xlink:href="#m0cd19c5bd5" x="616.411158" y="670.830885" style="fill: #0000ff; stroke: #0000ff"/>
     <use xlink:href="#m0cd19c5bd5" x="624.954995" y="671.688394" style="fill: #0000ff; stroke: #0000ff"/>
     <use xlink:href="#m0cd19c5bd5" x="633.498831" y="672.518833" style="fill: #0000ff; stroke: #0000ff"/>
     <use xlink:href="#m0cd19c5bd5" x="642.042668" y="673.604828" style="fill: #0000ff; stroke: #0000ff"/>
     <use xlink:href="#m0cd19c5bd5" x="650.586504" y="674.408275" style="fill: #0000ff; stroke: #0000ff"/>
     <use xlink:href="#m0cd19c5bd5" x="659.130341" y="675.170706" style="fill: #0000ff; stroke: #0000ff"/>
     <use xlink:href="#m0cd19c5bd5" x="667.674178" y="675.989118" style="fill: #0000ff; stroke: #0000ff"/>
     <use xlink:href="#m0cd19c5bd5" x="676.218014" y="676.898532" style="fill: #0000ff; stroke: #0000ff"/>
     <use xlink:href="#m0cd19c5bd5" x="684.761851" y="677.688435" style="fill: #0000ff; stroke: #0000ff"/>
     <use xlink:href="#m0cd19c5bd5" x="693.305687" y="678.414656" style="fill: #0000ff; stroke: #0000ff"/>
     <use xlink:href="#m0cd19c5bd5" x="701.849524" y="679.33025" style="fill: #0000ff; stroke: #0000ff"/>
     <use xlink:href="#m0cd19c5bd5" x="710.393361" y="679.993726" style="fill: #0000ff; stroke: #0000ff"/>
     <use xlink:href="#m0cd19c5bd5" x="718.937197" y="680.577386" style="fill: #0000ff; stroke: #0000ff"/>
     <use xlink:href="#m0cd19c5bd5" x="727.481034" y="681.335924" style="fill: #0000ff; stroke: #0000ff"/>
     <use xlink:href="#m0cd19c5bd5" x="736.02487" y="682.087987" style="fill: #0000ff; stroke: #0000ff"/>
     <use xlink:href="#m0cd19c5bd5" x="744.568707" y="682.754898" style="fill: #0000ff; stroke: #0000ff"/>
     <use xlink:href="#m0cd19c5bd5" x="753.112544" y="683.293671" style="fill: #0000ff; stroke: #0000ff"/>
     <use xlink:href="#m0cd19c5bd5" x="761.65638" y="683.914129" style="fill: #0000ff; stroke: #0000ff"/>
     <use xlink:href="#m0cd19c5bd5" x="770.200217" y="684.431445" style="fill: #0000ff; stroke: #0000ff"/>
     <use xlink:href="#m0cd19c5bd5" x="778.744053" y="685.120203" style="fill: #0000ff; stroke: #0000ff"/>
     <use xlink:href="#m0cd19c5bd5" x="787.28789" y="685.607612" style="fill: #0000ff; stroke: #0000ff"/>
     <use xlink:href="#m0cd19c5bd5" x="795.831727" y="686.305454" style="fill: #0000ff; stroke: #0000ff"/>
     <use xlink:href="#m0cd19c5bd5" x="804.375563" y="686.876349" style="fill: #0000ff; stroke: #0000ff"/>
     <use xlink:href="#m0cd19c5bd5" x="812.9194" y="687.335474" style="fill: #0000ff; stroke: #0000ff"/>
     <use xlink:href="#m0cd19c5bd5" x="821.463236" y="688.048571" style="fill: #0000ff; stroke: #0000ff"/>
     <use xlink:href="#m0cd19c5bd5" x="830.007073" y="688.573707" style="fill: #0000ff; stroke: #0000ff"/>
     <use xlink:href="#m0cd19c5bd5" x="838.550909" y="689.28905" style="fill: #0000ff; stroke: #0000ff"/>
     <use xlink:href="#m0cd19c5bd5" x="847.094746" y="689.624306" style="fill: #0000ff; stroke: #0000ff"/>
     <use xlink:href="#m0cd19c5bd5" x="855.638583" y="690.145433" style="fill: #0000ff; stroke: #0000ff"/>
     <use xlink:href="#m0cd19c5bd5" x="864.182419" y="690.689277" style="fill: #0000ff; stroke: #0000ff"/>
     <use xlink:href="#m0cd19c5bd5" x="872.726256" y="691.388695" style="fill: #0000ff; stroke: #0000ff"/>
     <use xlink:href="#m0cd19c5bd5" x="881.270092" y="692.30196" style="fill: #0000ff; stroke: #0000ff"/>
     <use xlink:href="#m0cd19c5bd5" x="889.813929" y="692.727997" style="fill: #0000ff; stroke: #0000ff"/>
     <use xlink:href="#m0cd19c5bd5" x="898.357766" y="693.238181" style="fill: #0000ff; stroke: #0000ff"/>
     <use xlink:href="#m0cd19c5bd5" x="906.901602" y="693.68334" style="fill: #0000ff; stroke: #0000ff"/>
     <use xlink:href="#m0cd19c5bd5" x="915.445439" y="694.526569" style="fill: #0000ff; stroke: #0000ff"/>
     <use xlink:href="#m0cd19c5bd5" x="923.989275" y="695.226421" style="fill: #0000ff; stroke: #0000ff"/>
     <use xlink:href="#m0cd19c5bd5" x="932.533112" y="695.580459" style="fill: #0000ff; stroke: #0000ff"/>
     <use xlink:href="#m0cd19c5bd5" x="941.076949" y="696.233254" style="fill: #0000ff; stroke: #0000ff"/>
     <use xlink:href="#m0cd19c5bd5" x="949.620785" y="696.941811" style="fill: #0000ff; stroke: #0000ff"/>
    </g>
   </g>
   <g id="line2d_15">
    <path d="M 112.324799 111.638657 
L 120.868636 129.463282 
L 129.412472 169.970572 
L 137.956309 232.707242 
L 146.500146 216.921365 
L 155.043982 304.614012 
L 163.587819 291.376682 
L 172.131655 289.263815 
L 180.675492 268.586761 
L 189.219329 263.481453 
L 197.763165 278.603883 
L 206.307002 275.470105 
L 214.850838 265.246518 
L 223.394675 271.76908 
L 231.938512 256.511951 
L 240.482348 273.52853 
L 249.026185 267.324816 
L 257.570021 259.795377 
L 266.113858 267.446005 
L 274.657695 276.27453 
L 283.201531 275.685315 
L 291.745368 295.797609 
L 300.289204 304.000884 
L 308.833041 299.42421 
L 317.376877 311.002021 
L 325.920714 323.039249 
L 334.464551 333.455135 
L 343.008387 325.64877 
L 351.552224 329.048644 
L 360.09606 333.703961 
L 368.639897 338.325658 
L 377.183734 340.680774 
L 385.72757 338.672982 
L 394.271407 337.389015 
L 402.815243 346.979484 
L 411.35908 359.517931 
L 419.902917 353.456269 
L 428.446753 350.876275 
L 436.99059 342.996011 
L 445.534426 351.465401 
L 454.078263 363.679353 
L 462.622099 360.199637 
L 471.165936 366.677855 
L 479.709773 358.28574 
L 488.253609 362.43541 
L 496.797446 371.958836 
L 505.341282 348.909285 
L 513.885119 360.462882 
L 522.428956 353.849649 
L 530.972792 356.707288 
L 539.516629 349.128453 
L 548.060465 346.551572 
L 556.604302 348.839934 
L 565.148139 346.9155 
L 573.691975 361.168426 
L 582.235812 344.04582 
L 590.779648 350.533012 
L 599.323485 353.214989 
L 607.867322 346.966863 
L 616.411158 345.929523 
L 624.954995 355.110264 
L 633.498831 346.37066 
L 642.042668 349.073444 
L 650.586504 347.602753 
L 659.130341 351.236947 
L 667.674178 339.50076 
L 676.218014 353.855903 
L 684.761851 350.312519 
L 693.305687 342.231983 
L 701.849524 343.764584 
L 710.393361 337.479781 
L 718.937197 339.525044 
L 727.481034 339.216553 
L 736.02487 341.617498 
L 744.568707 339.526596 
L 753.112544 338.03959 
L 761.65638 337.90698 
L 770.200217 338.725973 
L 778.744053 330.841207 
L 787.28789 338.263346 
L 795.831727 341.259579 
L 804.375563 334.52293 
L 812.9194 333.393668 
L 821.463236 325.087234 
L 830.007073 330.949523 
L 838.550909 327.841396 
L 847.094746 329.002908 
L 855.638583 324.02449 
L 864.182419 325.947783 
L 872.726256 322.194835 
L 881.270092 327.398198 
L 889.813929 322.205248 
L 898.357766 322.341395 
L 906.901602 321.593899 
L 915.445439 321.36251 
L 923.989275 318.818044 
L 932.533112 319.077356 
L 941.076949 316.148243 
L 949.620785 315.053091 
" clip-path="url(#p665e26e5ad)" style="fill: none; stroke-dasharray: 5.55,2.4; stroke-dashoffset: 0; stroke: #ff0000; stroke-width: 1.5"/>
    <defs>
     <path id="m13a241e01e" d="M 0 3 
C 0.795609 3 1.55874 2.683901 2.12132 2.12132 
C 2.683901 1.55874 3 0.795609 3 0 
C 3 -0.795609 2.683901 -1.55874 2.12132 -2.12132 
C 1.55874 -2.683901 0.795609 -3 0 -3 
C -0.795609 -3 -1.55874 -2.683901 -2.12132 -2.12132 
C -2.683901 -1.55874 -3 -0.795609 -3 0 
C -3 0.795609 -2.683901 1.55874 -2.12132 2.12132 
C -1.55874 2.683901 -0.795609 3 0 3 
z
" style="stroke: #ff0000"/>
    </defs>
    <g clip-path="url(#p665e26e5ad)">
     <use xlink:href="#m13a241e01e" x="112.324799" y="111.638657" style="fill: #ff0000; stroke: #ff0000"/>
     <use xlink:href="#m13a241e01e" x="120.868636" y="129.463282" style="fill: #ff0000; stroke: #ff0000"/>
     <use xlink:href="#m13a241e01e" x="129.412472" y="169.970572" style="fill: #ff0000; stroke: #ff0000"/>
     <use xlink:href="#m13a241e01e" x="137.956309" y="232.707242" style="fill: #ff0000; stroke: #ff0000"/>
     <use xlink:href="#m13a241e01e" x="146.500146" y="216.921365" style="fill: #ff0000; stroke: #ff0000"/>
     <use xlink:href="#m13a241e01e" x="155.043982" y="304.614012" style="fill: #ff0000; stroke: #ff0000"/>
     <use xlink:href="#m13a241e01e" x="163.587819" y="291.376682" style="fill: #ff0000; stroke: #ff0000"/>
     <use xlink:href="#m13a241e01e" x="172.131655" y="289.263815" style="fill: #ff0000; stroke: #ff0000"/>
     <use xlink:href="#m13a241e01e" x="180.675492" y="268.586761" style="fill: #ff0000; stroke: #ff0000"/>
     <use xlink:href="#m13a241e01e" x="189.219329" y="263.481453" style="fill: #ff0000; stroke: #ff0000"/>
     <use xlink:href="#m13a241e01e" x="197.763165" y="278.603883" style="fill: #ff0000; stroke: #ff0000"/>
     <use xlink:href="#m13a241e01e" x="206.307002" y="275.470105" style="fill: #ff0000; stroke: #ff0000"/>
     <use xlink:href="#m13a241e01e" x="214.850838" y="265.246518" style="fill: #ff0000; stroke: #ff0000"/>
     <use xlink:href="#m13a241e01e" x="223.394675" y="271.76908" style="fill: #ff0000; stroke: #ff0000"/>
     <use xlink:href="#m13a241e01e" x="231.938512" y="256.511951" style="fill: #ff0000; stroke: #ff0000"/>
     <use xlink:href="#m13a241e01e" x="240.482348" y="273.52853" style="fill: #ff0000; stroke: #ff0000"/>
     <use xlink:href="#m13a241e01e" x="249.026185" y="267.324816" style="fill: #ff0000; stroke: #ff0000"/>
     <use xlink:href="#m13a241e01e" x="257.570021" y="259.795377" style="fill: #ff0000; stroke: #ff0000"/>
     <use xlink:href="#m13a241e01e" x="266.113858" y="267.446005" style="fill: #ff0000; stroke: #ff0000"/>
     <use xlink:href="#m13a241e01e" x="274.657695" y="276.27453" style="fill: #ff0000; stroke: #ff0000"/>
     <use xlink:href="#m13a241e01e" x="283.201531" y="275.685315" style="fill: #ff0000; stroke: #ff0000"/>
     <use xlink:href="#m13a241e01e" x="291.745368" y="295.797609" style="fill: #ff0000; stroke: #ff0000"/>
     <use xlink:href="#m13a241e01e" x="300.289204" y="304.000884" style="fill: #ff0000; stroke: #ff0000"/>
     <use xlink:href="#m13a241e01e" x="308.833041" y="299.42421" style="fill: #ff0000; stroke: #ff0000"/>
     <use xlink:href="#m13a241e01e" x="317.376877" y="311.002021" style="fill: #ff0000; stroke: #ff0000"/>
     <use xlink:href="#m13a241e01e" x="325.920714" y="323.039249" style="fill: #ff0000; stroke: #ff0000"/>
     <use xlink:href="#m13a241e01e" x="334.464551" y="333.455135" style="fill: #ff0000; stroke: #ff0000"/>
     <use xlink:href="#m13a241e01e" x="343.008387" y="325.64877" style="fill: #ff0000; stroke: #ff0000"/>
     <use xlink:href="#m13a241e01e" x="351.552224" y="329.048644" style="fill: #ff0000; stroke: #ff0000"/>
     <use xlink:href="#m13a241e01e" x="360.09606" y="333.703961" style="fill: #ff0000; stroke: #ff0000"/>
     <use xlink:href="#m13a241e01e" x="368.639897" y="338.325658" style="fill: #ff0000; stroke: #ff0000"/>
     <use xlink:href="#m13a241e01e" x="377.183734" y="340.680774" style="fill: #ff0000; stroke: #ff0000"/>
     <use xlink:href="#m13a241e01e" x="385.72757" y="338.672982" style="fill: #ff0000; stroke: #ff0000"/>
     <use xlink:href="#m13a241e01e" x="394.271407" y="337.389015" style="fill: #ff0000; stroke: #ff0000"/>
     <use xlink:href="#m13a241e01e" x="402.815243" y="346.979484" style="fill: #ff0000; stroke: #ff0000"/>
     <use xlink:href="#m13a241e01e" x="411.35908" y="359.517931" style="fill: #ff0000; stroke: #ff0000"/>
     <use xlink:href="#m13a241e01e" x="419.902917" y="353.456269" style="fill: #ff0000; stroke: #ff0000"/>
     <use xlink:href="#m13a241e01e" x="428.446753" y="350.876275" style="fill: #ff0000; stroke: #ff0000"/>
     <use xlink:href="#m13a241e01e" x="436.99059" y="342.996011" style="fill: #ff0000; stroke: #ff0000"/>
     <use xlink:href="#m13a241e01e" x="445.534426" y="351.465401" style="fill: #ff0000; stroke: #ff0000"/>
     <use xlink:href="#m13a241e01e" x="454.078263" y="363.679353" style="fill: #ff0000; stroke: #ff0000"/>
     <use xlink:href="#m13a241e01e" x="462.622099" y="360.199637" style="fill: #ff0000; stroke: #ff0000"/>
     <use xlink:href="#m13a241e01e" x="471.165936" y="366.677855" style="fill: #ff0000; stroke: #ff0000"/>
     <use xlink:href="#m13a241e01e" x="479.709773" y="358.28574" style="fill: #ff0000; stroke: #ff0000"/>
     <use xlink:href="#m13a241e01e" x="488.253609" y="362.43541" style="fill: #ff0000; stroke: #ff0000"/>
     <use xlink:href="#m13a241e01e" x="496.797446" y="371.958836" style="fill: #ff0000; stroke: #ff0000"/>
     <use xlink:href="#m13a241e01e" x="505.341282" y="348.909285" style="fill: #ff0000; stroke: #ff0000"/>
     <use xlink:href="#m13a241e01e" x="513.885119" y="360.462882" style="fill: #ff0000; stroke: #ff0000"/>
     <use xlink:href="#m13a241e01e" x="522.428956" y="353.849649" style="fill: #ff0000; stroke: #ff0000"/>
     <use xlink:href="#m13a241e01e" x="530.972792" y="356.707288" style="fill: #ff0000; stroke: #ff0000"/>
     <use xlink:href="#m13a241e01e" x="539.516629" y="349.128453" style="fill: #ff0000; stroke: #ff0000"/>
     <use xlink:href="#m13a241e01e" x="548.060465" y="346.551572" style="fill: #ff0000; stroke: #ff0000"/>
     <use xlink:href="#m13a241e01e" x="556.604302" y="348.839934" style="fill: #ff0000; stroke: #ff0000"/>
     <use xlink:href="#m13a241e01e" x="565.148139" y="346.9155" style="fill: #ff0000; stroke: #ff0000"/>
     <use xlink:href="#m13a241e01e" x="573.691975" y="361.168426" style="fill: #ff0000; stroke: #ff0000"/>
     <use xlink:href="#m13a241e01e" x="582.235812" y="344.04582" style="fill: #ff0000; stroke: #ff0000"/>
     <use xlink:href="#m13a241e01e" x="590.779648" y="350.533012" style="fill: #ff0000; stroke: #ff0000"/>
     <use xlink:href="#m13a241e01e" x="599.323485" y="353.214989" style="fill: #ff0000; stroke: #ff0000"/>
     <use xlink:href="#m13a241e01e" x="607.867322" y="346.966863" style="fill: #ff0000; stroke: #ff0000"/>
     <use xlink:href="#m13a241e01e" x="616.411158" y="345.929523" style="fill: #ff0000; stroke: #ff0000"/>
     <use xlink:href="#m13a241e01e" x="624.954995" y="355.110264" style="fill: #ff0000; stroke: #ff0000"/>
     <use xlink:href="#m13a241e01e" x="633.498831" y="346.37066" style="fill: #ff0000; stroke: #ff0000"/>
     <use xlink:href="#m13a241e01e" x="642.042668" y="349.073444" style="fill: #ff0000; stroke: #ff0000"/>
     <use xlink:href="#m13a241e01e" x="650.586504" y="347.602753" style="fill: #ff0000; stroke: #ff0000"/>
     <use xlink:href="#m13a241e01e" x="659.130341" y="351.236947" style="fill: #ff0000; stroke: #ff0000"/>
     <use xlink:href="#m13a241e01e" x="667.674178" y="339.50076" style="fill: #ff0000; stroke: #ff0000"/>
     <use xlink:href="#m13a241e01e" x="676.218014" y="353.855903" style="fill: #ff0000; stroke: #ff0000"/>
     <use xlink:href="#m13a241e01e" x="684.761851" y="350.312519" style="fill: #ff0000; stroke: #ff0000"/>
     <use xlink:href="#m13a241e01e" x="693.305687" y="342.231983" style="fill: #ff0000; stroke: #ff0000"/>
     <use xlink:href="#m13a241e01e" x="701.849524" y="343.764584" style="fill: #ff0000; stroke: #ff0000"/>
     <use xlink:href="#m13a241e01e" x="710.393361" y="337.479781" style="fill: #ff0000; stroke: #ff0000"/>
     <use xlink:href="#m13a241e01e" x="718.937197" y="339.525044" style="fill: #ff0000; stroke: #ff0000"/>
     <use xlink:href="#m13a241e01e" x="727.481034" y="339.216553" style="fill: #ff0000; stroke: #ff0000"/>
     <use xlink:href="#m13a241e01e" x="736.02487" y="341.617498" style="fill: #ff0000; stroke: #ff0000"/>
     <use xlink:href="#m13a241e01e" x="744.568707" y="339.526596" style="fill: #ff0000; stroke: #ff0000"/>
     <use xlink:href="#m13a241e01e" x="753.112544" y="338.03959" style="fill: #ff0000; stroke: #ff0000"/>
     <use xlink:href="#m13a241e01e" x="761.65638" y="337.90698" style="fill: #ff0000; stroke: #ff0000"/>
     <use xlink:href="#m13a241e01e" x="770.200217" y="338.725973" style="fill: #ff0000; stroke: #ff0000"/>
     <use xlink:href="#m13a241e01e" x="778.744053" y="330.841207" style="fill: #ff0000; stroke: #ff0000"/>
     <use xlink:href="#m13a241e01e" x="787.28789" y="338.263346" style="fill: #ff0000; stroke: #ff0000"/>
     <use xlink:href="#m13a241e01e" x="795.831727" y="341.259579" style="fill: #ff0000; stroke: #ff0000"/>
     <use xlink:href="#m13a241e01e" x="804.375563" y="334.52293" style="fill: #ff0000; stroke: #ff0000"/>
     <use xlink:href="#m13a241e01e" x="812.9194" y="333.393668" style="fill: #ff0000; stroke: #ff0000"/>
     <use xlink:href="#m13a241e01e" x="821.463236" y="325.087234" style="fill: #ff0000; stroke: #ff0000"/>
     <use xlink:href="#m13a241e01e" x="830.007073" y="330.949523" style="fill: #ff0000; stroke: #ff0000"/>
     <use xlink:href="#m13a241e01e" x="838.550909" y="327.841396" style="fill: #ff0000; stroke: #ff0000"/>
     <use xlink:href="#m13a241e01e" x="847.094746" y="329.002908" style="fill: #ff0000; stroke: #ff0000"/>
     <use xlink:href="#m13a241e01e" x="855.638583" y="324.02449" style="fill: #ff0000; stroke: #ff0000"/>
     <use xlink:href="#m13a241e01e" x="864.182419" y="325.947783" style="fill: #ff0000; stroke: #ff0000"/>
     <use xlink:href="#m13a241e01e" x="872.726256" y="322.194835" style="fill: #ff0000; stroke: #ff0000"/>
     <use xlink:href="#m13a241e01e" x="881.270092" y="327.398198" style="fill: #ff0000; stroke: #ff0000"/>
     <use xlink:href="#m13a241e01e" x="889.813929" y="322.205248" style="fill: #ff0000; stroke: #ff0000"/>
     <use xlink:href="#m13a241e01e" x="898.357766" y="322.341395" style="fill: #ff0000; stroke: #ff0000"/>
     <use xlink:href="#m13a241e01e" x="906.901602" y="321.593899" style="fill: #ff0000; stroke: #ff0000"/>
     <use xlink:href="#m13a241e01e" x="915.445439" y="321.36251" style="fill: #ff0000; stroke: #ff0000"/>
     <use xlink:href="#m13a241e01e" x="923.989275" y="318.818044" style="fill: #ff0000; stroke: #ff0000"/>
     <use xlink:href="#m13a241e01e" x="932.533112" y="319.077356" style="fill: #ff0000; stroke: #ff0000"/>
     <use xlink:href="#m13a241e01e" x="941.076949" y="316.148243" style="fill: #ff0000; stroke: #ff0000"/>
     <use xlink:href="#m13a241e01e" x="949.620785" y="315.053091" style="fill: #ff0000; stroke: #ff0000"/>
    </g>
   </g>
   <g id="patch_3">
    <path d="M 70.46 784.12 
L 70.46 91.2 
" style="fill: none; stroke: #000000; stroke-width: 0.8; stroke-linejoin: miter; stroke-linecap: square"/>
   </g>
   <g id="patch_4">
    <path d="M 991.485584 784.12 
L 991.485584 91.2 
" style="fill: none; stroke: #000000; stroke-width: 0.8; stroke-linejoin: miter; stroke-linecap: square"/>
   </g>
   <g id="patch_5">
    <path d="M 70.46 784.12 
L 991.485584 784.12 
" style="fill: none; stroke: #000000; stroke-width: 0.8; stroke-linejoin: miter; stroke-linecap: square"/>
   </g>
   <g id="patch_6">
    <path d="M 70.46 91.2 
L 991.485584 91.2 
" style="fill: none; stroke: #000000; stroke-width: 0.8; stroke-linejoin: miter; stroke-linecap: square"/>
   </g>
   <g id="text_16">
    <!-- 10-attempts average Mean Absoulute Error -->
    <g transform="translate(140.395292 83.713125)scale(0.36 -0.36)">
     <defs>
      <path id="DejaVuSans-2d" d="M 313 2009 
L 1997 2009 
L 1997 1497 
L 313 1497 
L 313 2009 
z
" transform="scale(0.015625)"/>
      <path id="DejaVuSans-61" d="M 2194 1759 
Q 1497 1759 1228 1600 
Q 959 1441 959 1056 
Q 959 750 1161 570 
Q 1363 391 1709 391 
Q 2188 391 2477 730 
Q 2766 1069 2766 1631 
L 2766 1759 
L 2194 1759 
z
M 3341 1997 
L 3341 0 
L 2766 0 
L 2766 531 
Q 2569 213 2275 61 
Q 1981 -91 1556 -91 
Q 1019 -91 701 211 
Q 384 513 384 1019 
Q 384 1609 779 1909 
Q 1175 2209 1959 2209 
L 2766 2209 
L 2766 2266 
Q 2766 2663 2505 2880 
Q 2244 3097 1772 3097 
Q 1472 3097 1187 3025 
Q 903 2953 641 2809 
L 641 3341 
Q 956 3463 1253 3523 
Q 1550 3584 1831 3584 
Q 2591 3584 2966 3190 
Q 3341 2797 3341 1997 
z
" transform="scale(0.015625)"/>
      <path id="DejaVuSans-74" d="M 1172 4494 
L 1172 3500 
L 2356 3500 
L 2356 3053 
L 1172 3053 
L 1172 1153 
Q 1172 725 1289 603 
Q 1406 481 1766 481 
L 2356 481 
L 2356 0 
L 1766 0 
Q 1100 0 847 248 
Q 594 497 594 1153 
L 594 3053 
L 172 3053 
L 172 3500 
L 594 3500 
L 594 4494 
L 1172 4494 
z
" transform="scale(0.015625)"/>
      <path id="DejaVuSans-65" d="M 3597 1894 
L 3597 1613 
L 953 1613 
Q 991 1019 1311 708 
Q 1631 397 2203 397 
Q 2534 397 2845 478 
Q 3156 559 3463 722 
L 3463 178 
Q 3153 47 2828 -22 
Q 2503 -91 2169 -91 
Q 1331 -91 842 396 
Q 353 884 353 1716 
Q 353 2575 817 3079 
Q 1281 3584 2069 3584 
Q 2775 3584 3186 3129 
Q 3597 2675 3597 1894 
z
M 3022 2063 
Q 3016 2534 2758 2815 
Q 2500 3097 2075 3097 
Q 1594 3097 1305 2825 
Q 1016 2553 972 2059 
L 3022 2063 
z
" transform="scale(0.015625)"/>
      <path id="DejaVuSans-6d" d="M 3328 2828 
Q 3544 3216 3844 3400 
Q 4144 3584 4550 3584 
Q 5097 3584 5394 3201 
Q 5691 2819 5691 2113 
L 5691 0 
L 5113 0 
L 5113 2094 
Q 5113 2597 4934 2840 
Q 4756 3084 4391 3084 
Q 3944 3084 3684 2787 
Q 3425 2491 3425 1978 
L 3425 0 
L 2847 0 
L 2847 2094 
Q 2847 2600 2669 2842 
Q 2491 3084 2119 3084 
Q 1678 3084 1418 2786 
Q 1159 2488 1159 1978 
L 1159 0 
L 581 0 
L 581 3500 
L 1159 3500 
L 1159 2956 
Q 1356 3278 1631 3431 
Q 1906 3584 2284 3584 
Q 2666 3584 2933 3390 
Q 3200 3197 3328 2828 
z
" transform="scale(0.015625)"/>
      <path id="DejaVuSans-76" d="M 191 3500 
L 800 3500 
L 1894 563 
L 2988 3500 
L 3597 3500 
L 2284 0 
L 1503 0 
L 191 3500 
z
" transform="scale(0.015625)"/>
      <path id="DejaVuSans-67" d="M 2906 1791 
Q 2906 2416 2648 2759 
Q 2391 3103 1925 3103 
Q 1463 3103 1205 2759 
Q 947 2416 947 1791 
Q 947 1169 1205 825 
Q 1463 481 1925 481 
Q 2391 481 2648 825 
Q 2906 1169 2906 1791 
z
M 3481 434 
Q 3481 -459 3084 -895 
Q 2688 -1331 1869 -1331 
Q 1566 -1331 1297 -1286 
Q 1028 -1241 775 -1147 
L 775 -588 
Q 1028 -725 1275 -790 
Q 1522 -856 1778 -856 
Q 2344 -856 2625 -561 
Q 2906 -266 2906 331 
L 2906 616 
Q 2728 306 2450 153 
Q 2172 0 1784 0 
Q 1141 0 747 490 
Q 353 981 353 1791 
Q 353 2603 747 3093 
Q 1141 3584 1784 3584 
Q 2172 3584 2450 3431 
Q 2728 3278 2906 2969 
L 2906 3500 
L 3481 3500 
L 3481 434 
z
" transform="scale(0.015625)"/>
      <path id="DejaVuSans-4d" d="M 628 4666 
L 1569 4666 
L 2759 1491 
L 3956 4666 
L 4897 4666 
L 4897 0 
L 4281 0 
L 4281 4097 
L 3078 897 
L 2444 897 
L 1241 4097 
L 1241 0 
L 628 0 
L 628 4666 
z
" transform="scale(0.015625)"/>
      <path id="DejaVuSans-6e" d="M 3513 2113 
L 3513 0 
L 2938 0 
L 2938 2094 
Q 2938 2591 2744 2837 
Q 2550 3084 2163 3084 
Q 1697 3084 1428 2787 
Q 1159 2491 1159 1978 
L 1159 0 
L 581 0 
L 581 3500 
L 1159 3500 
L 1159 2956 
Q 1366 3272 1645 3428 
Q 1925 3584 2291 3584 
Q 2894 3584 3203 3211 
Q 3513 2838 3513 2113 
z
" transform="scale(0.015625)"/>
      <path id="DejaVuSans-41" d="M 2188 4044 
L 1331 1722 
L 3047 1722 
L 2188 4044 
z
M 1831 4666 
L 2547 4666 
L 4325 0 
L 3669 0 
L 3244 1197 
L 1141 1197 
L 716 0 
L 50 0 
L 1831 4666 
z
" transform="scale(0.015625)"/>
      <path id="DejaVuSans-62" d="M 3116 1747 
Q 3116 2381 2855 2742 
Q 2594 3103 2138 3103 
Q 1681 3103 1420 2742 
Q 1159 2381 1159 1747 
Q 1159 1113 1420 752 
Q 1681 391 2138 391 
Q 2594 391 2855 752 
Q 3116 1113 3116 1747 
z
M 1159 2969 
Q 1341 3281 1617 3432 
Q 1894 3584 2278 3584 
Q 2916 3584 3314 3078 
Q 3713 2572 3713 1747 
Q 3713 922 3314 415 
Q 2916 -91 2278 -91 
Q 1894 -91 1617 61 
Q 1341 213 1159 525 
L 1159 0 
L 581 0 
L 581 4863 
L 1159 4863 
L 1159 2969 
z
" transform="scale(0.015625)"/>
      <path id="DejaVuSans-75" d="M 544 1381 
L 544 3500 
L 1119 3500 
L 1119 1403 
Q 1119 906 1312 657 
Q 1506 409 1894 409 
Q 2359 409 2629 706 
Q 2900 1003 2900 1516 
L 2900 3500 
L 3475 3500 
L 3475 0 
L 2900 0 
L 2900 538 
Q 2691 219 2414 64 
Q 2138 -91 1772 -91 
Q 1169 -91 856 284 
Q 544 659 544 1381 
z
M 1991 3584 
L 1991 3584 
z
" transform="scale(0.015625)"/>
      <path id="DejaVuSans-6c" d="M 603 4863 
L 1178 4863 
L 1178 0 
L 603 0 
L 603 4863 
z
" transform="scale(0.015625)"/>
     </defs>
     <use xlink:href="#DejaVuSans-31"/>
     <use xlink:href="#DejaVuSans-30" x="63.623047"/>
     <use xlink:href="#DejaVuSans-2d" x="127.246094"/>
     <use xlink:href="#DejaVuSans-61" x="163.330078"/>
     <use xlink:href="#DejaVuSans-74" x="224.609375"/>
     <use xlink:href="#DejaVuSans-74" x="263.818359"/>
     <use xlink:href="#DejaVuSans-65" x="303.027344"/>
     <use xlink:href="#DejaVuSans-6d" x="364.550781"/>
     <use xlink:href="#DejaVuSans-70" x="461.962891"/>
     <use xlink:href="#DejaVuSans-74" x="525.439453"/>
     <use xlink:href="#DejaVuSans-73" x="564.648438"/>
     <use xlink:href="#DejaVuSans-20" x="616.748047"/>
     <use xlink:href="#DejaVuSans-61" x="648.535156"/>
     <use xlink:href="#DejaVuSans-76" x="709.814453"/>
     <use xlink:href="#DejaVuSans-65" x="768.994141"/>
     <use xlink:href="#DejaVuSans-72" x="830.517578"/>
     <use xlink:href="#DejaVuSans-61" x="871.630859"/>
     <use xlink:href="#DejaVuSans-67" x="932.910156"/>
     <use xlink:href="#DejaVuSans-65" x="996.386719"/>
     <use xlink:href="#DejaVuSans-20" x="1057.910156"/>
     <use xlink:href="#DejaVuSans-4d" x="1089.697266"/>
     <use xlink:href="#DejaVuSans-65" x="1175.976562"/>
     <use xlink:href="#DejaVuSans-61" x="1237.5"/>
     <use xlink:href="#DejaVuSans-6e" x="1298.779297"/>
     <use xlink:href="#DejaVuSans-20" x="1362.158203"/>
     <use xlink:href="#DejaVuSans-41" x="1393.945312"/>
     <use xlink:href="#DejaVuSans-62" x="1462.353516"/>
     <use xlink:href="#DejaVuSans-73" x="1525.830078"/>
     <use xlink:href="#DejaVuSans-6f" x="1577.929688"/>
     <use xlink:href="#DejaVuSans-75" x="1639.111328"/>
     <use xlink:href="#DejaVuSans-6c" x="1702.490234"/>
     <use xlink:href="#DejaVuSans-75" x="1730.273438"/>
     <use xlink:href="#DejaVuSans-74" x="1793.652344"/>
     <use xlink:href="#DejaVuSans-65" x="1832.861328"/>
     <use xlink:href="#DejaVuSans-20" x="1894.384766"/>
     <use xlink:href="#DejaVuSans-45" x="1926.171875"/>
     <use xlink:href="#DejaVuSans-72" x="1989.355469"/>
     <use xlink:href="#DejaVuSans-72" x="2028.71875"/>
     <use xlink:href="#DejaVuSans-6f" x="2067.582031"/>
     <use xlink:href="#DejaVuSans-72" x="2128.763672"/>
    </g>
   </g>
   <g id="legend_1">
    <g id="patch_7">
     <path d="M 740.440584 210.74 
L 969.085584 210.74 
Q 975.485584 210.74 975.485584 204.34 
L 975.485584 113.6 
Q 975.485584 107.2 969.085584 107.2 
L 740.440584 107.2 
Q 734.040584 107.2 734.040584 113.6 
L 734.040584 204.34 
Q 734.040584 210.74 740.440584 210.74 
z
" style="fill: #ffffff; opacity: 0.8; stroke: #cccccc; stroke-linejoin: miter"/>
    </g>
    <g id="line2d_16">
     <path d="M 746.840584 133.115 
L 778.840584 133.115 
L 810.840584 133.115 
" style="fill: none; stroke: #0000ff; stroke-width: 1.5; stroke-linecap: square"/>
     <g>
      <use xlink:href="#m0cd19c5bd5" x="778.840584" y="133.115" style="fill: #0000ff; stroke: #0000ff"/>
     </g>
    </g>
    <g id="text_17">
     <!-- Training -->
     <g transform="translate(836.440584 144.315)scale(0.32 -0.32)">
      <defs>
       <path id="DejaVuSans-54" d="M -19 4666 
L 3928 4666 
L 3928 4134 
L 2272 4134 
L 2272 0 
L 1638 0 
L 1638 4134 
L -19 4134 
L -19 4666 
z
" transform="scale(0.015625)"/>
       <path id="DejaVuSans-69" d="M 603 3500 
L 1178 3500 
L 1178 0 
L 603 0 
L 603 3500 
z
M 603 4863 
L 1178 4863 
L 1178 4134 
L 603 4134 
L 603 4863 
z
" transform="scale(0.015625)"/>
      </defs>
      <use xlink:href="#DejaVuSans-54"/>
      <use xlink:href="#DejaVuSans-72" x="46.333984"/>
      <use xlink:href="#DejaVuSans-61" x="87.447266"/>
      <use xlink:href="#DejaVuSans-69" x="148.726562"/>
      <use xlink:href="#DejaVuSans-6e" x="176.509766"/>
      <use xlink:href="#DejaVuSans-69" x="239.888672"/>
      <use xlink:href="#DejaVuSans-6e" x="267.671875"/>
      <use xlink:href="#DejaVuSans-67" x="331.050781"/>
     </g>
    </g>
    <g id="line2d_17">
     <path d="M 746.840584 180.085 
L 778.840584 180.085 
L 810.840584 180.085 
" style="fill: none; stroke-dasharray: 5.55,2.4; stroke-dashoffset: 0; stroke: #ff0000; stroke-width: 1.5"/>
     <g>
      <use xlink:href="#m13a241e01e" x="778.840584" y="180.085" style="fill: #ff0000; stroke: #ff0000"/>
     </g>
    </g>
    <g id="text_18">
     <!-- Testing -->
     <g transform="translate(836.440584 191.285)scale(0.32 -0.32)">
      <use xlink:href="#DejaVuSans-54"/>
      <use xlink:href="#DejaVuSans-65" x="44.083984"/>
      <use xlink:href="#DejaVuSans-73" x="105.607422"/>
      <use xlink:href="#DejaVuSans-74" x="157.707031"/>
      <use xlink:href="#DejaVuSans-69" x="196.916016"/>
      <use xlink:href="#DejaVuSans-6e" x="224.699219"/>
      <use xlink:href="#DejaVuSans-67" x="288.078125"/>
     </g>
    </g>
   </g>
  </g>
  <g id="text_19">
   <!-- Model  5 - US06 training benchmark -->
   <g transform="translate(160.124063 44.634375)scale(0.36 -0.36)">
    <defs>
     <path id="DejaVuSans-64" d="M 2906 2969 
L 2906 4863 
L 3481 4863 
L 3481 0 
L 2906 0 
L 2906 525 
Q 2725 213 2448 61 
Q 2172 -91 1784 -91 
Q 1150 -91 751 415 
Q 353 922 353 1747 
Q 353 2572 751 3078 
Q 1150 3584 1784 3584 
Q 2172 3584 2448 3432 
Q 2725 3281 2906 2969 
z
M 947 1747 
Q 947 1113 1208 752 
Q 1469 391 1925 391 
Q 2381 391 2643 752 
Q 2906 1113 2906 1747 
Q 2906 2381 2643 2742 
Q 2381 3103 1925 3103 
Q 1469 3103 1208 2742 
Q 947 2381 947 1747 
z
" transform="scale(0.015625)"/>
     <path id="DejaVuSans-2116" d="M 169 0 
L 169 531 
Q 628 531 628 866 
L 628 4666 
L 1478 4666 
L 3547 763 
L 3547 3800 
Q 3547 4200 3792 4433 
Q 4038 4666 4619 4666 
L 4619 4134 
Q 4159 4134 4159 3800 
L 4159 0 
L 3309 0 
L 1241 3903 
L 1241 866 
Q 1241 466 995 233 
Q 750 0 169 0 
z
M 4659 1944 
Q 4659 2375 4884 2673 
Q 5109 2972 5431 2972 
Q 5753 2972 5978 2673 
Q 6203 2375 6203 1944 
Q 6203 1513 5978 1214 
Q 5753 916 5431 916 
Q 5109 916 4884 1214 
Q 4659 1513 4659 1944 
z
M 5097 1944 
Q 5097 1700 5186 1539 
Q 5275 1378 5431 1378 
Q 5588 1378 5677 1539 
Q 5766 1700 5766 1944 
Q 5766 2188 5677 2348 
Q 5588 2509 5431 2509 
Q 5275 2509 5186 2348 
Q 5097 2188 5097 1944 
z
M 4659 0 
L 4659 384 
L 6203 384 
L 6203 0 
L 4659 0 
z
" transform="scale(0.015625)"/>
     <path id="DejaVuSans-55" d="M 556 4666 
L 1191 4666 
L 1191 1831 
Q 1191 1081 1462 751 
Q 1734 422 2344 422 
Q 2950 422 3222 751 
Q 3494 1081 3494 1831 
L 3494 4666 
L 4128 4666 
L 4128 1753 
Q 4128 841 3676 375 
Q 3225 -91 2344 -91 
Q 1459 -91 1007 375 
Q 556 841 556 1753 
L 556 4666 
z
" transform="scale(0.015625)"/>
     <path id="DejaVuSans-53" d="M 3425 4513 
L 3425 3897 
Q 3066 4069 2747 4153 
Q 2428 4238 2131 4238 
Q 1616 4238 1336 4038 
Q 1056 3838 1056 3469 
Q 1056 3159 1242 3001 
Q 1428 2844 1947 2747 
L 2328 2669 
Q 3034 2534 3370 2195 
Q 3706 1856 3706 1288 
Q 3706 609 3251 259 
Q 2797 -91 1919 -91 
Q 1588 -91 1214 -16 
Q 841 59 441 206 
L 441 856 
Q 825 641 1194 531 
Q 1563 422 1919 422 
Q 2459 422 2753 634 
Q 3047 847 3047 1241 
Q 3047 1584 2836 1778 
Q 2625 1972 2144 2069 
L 1759 2144 
Q 1053 2284 737 2584 
Q 422 2884 422 3419 
Q 422 4038 858 4394 
Q 1294 4750 2059 4750 
Q 2388 4750 2728 4690 
Q 3069 4631 3425 4513 
z
" transform="scale(0.015625)"/>
     <path id="DejaVuSans-6b" d="M 581 4863 
L 1159 4863 
L 1159 1991 
L 2875 3500 
L 3609 3500 
L 1753 1863 
L 3688 0 
L 2938 0 
L 1159 1709 
L 1159 0 
L 581 0 
L 581 4863 
z
" transform="scale(0.015625)"/>
    </defs>
    <use xlink:href="#DejaVuSans-4d"/>
    <use xlink:href="#DejaVuSans-6f" x="86.279297"/>
    <use xlink:href="#DejaVuSans-64" x="147.460938"/>
    <use xlink:href="#DejaVuSans-65" x="210.9375"/>
    <use xlink:href="#DejaVuSans-6c" x="272.460938"/>
    <use xlink:href="#DejaVuSans-20" x="300.244141"/>
    <use xlink:href="#DejaVuSans-2116" x="332.03125"/>
    <use xlink:href="#DejaVuSans-20" x="436.035156"/>
    <use xlink:href="#DejaVuSans-35" x="467.822266"/>
    <use xlink:href="#DejaVuSans-20" x="531.445312"/>
    <use xlink:href="#DejaVuSans-2d" x="563.232422"/>
    <use xlink:href="#DejaVuSans-20" x="599.316406"/>
    <use xlink:href="#DejaVuSans-55" x="631.103516"/>
    <use xlink:href="#DejaVuSans-53" x="704.296875"/>
    <use xlink:href="#DejaVuSans-30" x="767.773438"/>
    <use xlink:href="#DejaVuSans-36" x="831.396484"/>
    <use xlink:href="#DejaVuSans-20" x="895.019531"/>
    <use xlink:href="#DejaVuSans-74" x="926.806641"/>
    <use xlink:href="#DejaVuSans-72" x="966.015625"/>
    <use xlink:href="#DejaVuSans-61" x="1007.128906"/>
    <use xlink:href="#DejaVuSans-69" x="1068.408203"/>
    <use xlink:href="#DejaVuSans-6e" x="1096.191406"/>
    <use xlink:href="#DejaVuSans-69" x="1159.570312"/>
    <use xlink:href="#DejaVuSans-6e" x="1187.353516"/>
    <use xlink:href="#DejaVuSans-67" x="1250.732422"/>
    <use xlink:href="#DejaVuSans-20" x="1314.208984"/>
    <use xlink:href="#DejaVuSans-62" x="1345.996094"/>
    <use xlink:href="#DejaVuSans-65" x="1409.472656"/>
    <use xlink:href="#DejaVuSans-6e" x="1470.996094"/>
    <use xlink:href="#DejaVuSans-63" x="1534.375"/>
    <use xlink:href="#DejaVuSans-68" x="1589.355469"/>
    <use xlink:href="#DejaVuSans-6d" x="1652.734375"/>
    <use xlink:href="#DejaVuSans-61" x="1750.146484"/>
    <use xlink:href="#DejaVuSans-72" x="1811.425781"/>
    <use xlink:href="#DejaVuSans-6b" x="1852.539062"/>
   </g>
  </g>
 </g>
 <defs>
  <clipPath id="p665e26e5ad">
   <rect x="70.46" y="91.2" width="921.025584" height="692.92"/>
  </clipPath>
 </defs>
</svg>
